  0
SECTION
  2
HEADER
  9
$ACADVER
  1
AC1006
  9
$EXTMIN
 10
0.000000
 20
0.000000
 30
0.000000
  9
$EXTMAX
 10
775.000000
 20
283.000000
 30
0.000000
  0
ENDSEC
  0
SECTION
  2
ENTITIES
  0
POLYLINE
  8
0
 66
1
 70
1
  0
VERTEX
  8
0
 10
113.466667
 20
187.750000
 42
0.040684
  0
VERTEX
  8
0
 10
112.712817
 20
185.115714
 42
0.000077
  0
VERTEX
  8
0
 10
103.983256
 20
141.433214
 42
0.000064
  0
VERTEX
  8
0
 10
95.223987
 20
97.537439
 42
0.049248
  0
VERTEX
  8
0
 10
95.000000
 20
95.268865
 42
0.398947
  0
VERTEX
  8
0
 10
95.687069
 20
94.544814
 42
0.005881
  0
VERTEX
  8
0
 10
102.097085
 20
94.284160
 42
0.007707
  0
VERTEX
  8
0
 10
112.024760
 20
94.150467
 42
0.001352
  0
VERTEX
  8
0
 10
130.706630
 20
94.237369
 42
0.000000
  0
VERTEX
  8
0
 10
166.413261
 20
94.500000
 42
0.000000
  0
VERTEX
  8
0
 10
168.659923
 20
105.500000
 42
0.000867
  0
VERTEX
  8
0
 10
169.524299
 20
109.769860
 42
0.001312
  0
VERTEX
  8
0
 10
170.260348
 20
113.489063
 42
0.000487
  0
VERTEX
  8
0
 10
170.882450
 20
116.692984
 42
0.032164
  0
VERTEX
  8
0
 10
170.953292
 20
117.250000
 42
0.420489
  0
VERTEX
  8
0
 10
170.678083
 20
117.555127
 42
0.001260
  0
VERTEX
  8
0
 10
164.817530
 20
117.779687
 42
0.005597
  0
VERTEX
  8
0
 10
158.049191
 20
117.946113
 42
0.003347
  0
VERTEX
  8
0
 10
150.000000
 20
118.000000
 42
-0.003718
  0
VERTEX
  8
0
 10
141.947650
 20
118.059885
 42
-0.006196
  0
VERTEX
  8
0
 10
135.168750
 20
118.244758
 42
-0.001538
  0
VERTEX
  8
0
 10
129.323353
 20
118.494702
 42
-0.400859
  0
VERTEX
  8
0
 10
129.000000
 20
118.833219
 42
-0.040990
  0
VERTEX
  8
0
 10
129.045862
 20
119.391710
 42
-0.002365
  0
VERTEX
  8
0
 10
129.334303
 20
121.086296
 42
-0.003588
  0
VERTEX
  8
0
 10
129.702122
 20
123.101860
 42
-0.002628
  0
VERTEX
  8
0
 10
130.138052
 20
125.333219
 42
0.000000
  0
VERTEX
  8
0
 10
131.276105
 20
131.000000
 42
0.000000
  0
VERTEX
  8
0
 10
152.501205
 20
131.000000
 42
0.000000
  0
VERTEX
  8
0
 10
173.726305
 20
131.000000
 42
0.000000
  0
VERTEX
  8
0
 10
175.420847
 20
139.750000
 42
-0.001729
  0
VERTEX
  8
0
 10
176.107026
 20
143.228706
 42
-0.002178
  0
VERTEX
  8
0
 10
176.767339
 20
146.443750
 42
-0.001732
  0
VERTEX
  8
0
 10
177.342274
 20
149.136073
 42
-0.017393
  0
VERTEX
  8
0
 10
177.625082
 20
150.250000
 42
0.394451
  0
VERTEX
  8
0
 10
177.127121
 20
151.235146
 42
0.066707
  0
VERTEX
  8
0
 10
174.870862
 20
151.735282
 42
0.019647
  0
VERTEX
  8
0
 10
169.970124
 20
151.959072
 42
0.001586
  0
VERTEX
  8
0
 10
157.067388
 20
152.000000
 42
-0.002210
  0
VERTEX
  8
0
 10
140.925333
 20
152.071340
 42
-0.092717
  0
VERTEX
  8
0
 10
137.541316
 20
152.735301
 42
-0.324847
  0
VERTEX
  8
0
 10
136.344871
 20
154.626969
 42
-0.036776
  0
VERTEX
  8
0
 10
137.082864
 20
159.950779
 42
0.000000
  0
VERTEX
  8
0
 10
138.165728
 20
165.000000
 42
0.000000
  0
VERTEX
  8
0
 10
171.582864
 20
165.000000
 42
-0.001479
  0
VERTEX
  8
0
 10
188.953672
 20
164.948624
 42
-0.008194
  0
VERTEX
  8
0
 10
198.291749
 20
164.740322
 42
-0.006465
  0
VERTEX
  8
0
 10
204.322892
 20
164.428708
 42
-0.395431
  0
VERTEX
  8
0
 10
205.000000
 20
163.706417
 42
-0.047400
  0
VERTEX
  8
0
 10
204.905032
 20
162.706887
 42
-0.000262
  0
VERTEX
  8
0
 10
203.090625
 20
153.271554
 42
-0.001133
  0
VERTEX
  8
0
 10
200.991564
 20
142.517789
 42
-0.000719
  0
VERTEX
  8
0
 10
198.500000
 20
130.000000
 42
0.000996
  0
VERTEX
  8
0
 10
196.008737
 20
117.447413
 42
0.001536
  0
VERTEX
  8
0
 10
193.909375
 20
106.581571
 42
0.000476
  0
VERTEX
  8
0
 10
192.126392
 20
97.149601
 42
0.046503
  0
VERTEX
  8
0
 10
192.000000
 20
95.793583
 42
0.272377
  0
VERTEX
  8
0
 10
192.576752
 20
94.813390
 42
0.095070
  0
VERTEX
  8
0
 10
194.193175
 20
94.282164
 42
0.029243
  0
VERTEX
  8
0
 10
197.586545
 20
94.046003
 42
0.002753
  0
VERTEX
  8
0
 10
205.940983
 20
94.000000
 42
0.006243
  0
VERTEX
  8
0
 10
211.393494
 20
94.068085
 42
0.010210
  0
VERTEX
  8
0
 10
216.010300
 20
94.277791
 42
0.004877
  0
VERTEX
  8
0
 10
219.839447
 20
94.567686
 42
0.237285
  0
VERTEX
  8
0
 10
220.473913
 20
94.957790
 42
0.086075
  0
VERTEX
  8
0
 10
220.798534
 20
95.766198
 42
0.000362
  0
VERTEX
  8
0
 10
222.786341
 20
105.120066
 42
0.001774
  0
VERTEX
  8
0
 10
224.999953
 20
115.759871
 42
0.001116
  0
VERTEX
  8
0
 10
227.514763
 20
128.207790
 42
-0.000244
  0
VERTEX
  8
0
 10
230.025033
 20
140.745830
 42
-0.000367
  0
VERTEX
  8
0
 10
232.227110
 20
151.675101
 42
-0.000142
  0
VERTEX
  8
0
 10
234.129343
 20
161.066785
 42
-0.008563
  0
VERTEX
  8
0
 10
234.500886
 20
162.750000
 42
-0.154697
  0
VERTEX
  8
0
 10
235.267888
 20
164.025683
 42
-0.138781
  0
VERTEX
  8
0
 10
236.663683
 20
164.694256
 42
-0.039933
  0
VERTEX
  8
0
 10
239.517319
 20
164.954874
 42
-0.002813
  0
VERTEX
  8
0
 10
247.538104
 20
165.000000
 42
-0.002230
  0
VERTEX
  8
0
 10
255.856293
 20
164.962896
 42
-0.044221
  0
VERTEX
  8
0
 10
258.391190
 20
164.715454
 42
-0.226117
  0
VERTEX
  8
0
 10
259.344697
 20
164.019587
 42
-0.182964
  0
VERTEX
  8
0
 10
259.515422
 20
162.750000
 42
0.007126
  0
VERTEX
  8
0
 10
257.565171
 20
153.776348
 42
0.000430
  0
VERTEX
  8
0
 10
252.119763
 20
126.759365
 42
0.000076
  0
VERTEX
  8
0
 10
246.165293
 20
97.061459
 42
0.049472
  0
VERTEX
  8
0
 10
246.000000
 20
95.394962
 42
0.344272
  0
VERTEX
  8
0
 10
246.571170
 20
94.663749
 42
0.037039
  0
VERTEX
  8
0
 10
248.833786
 20
94.274189
 42
0.020594
  0
VERTEX
  8
0
 10
252.822130
 20
94.053512
 42
0.003523
  0
VERTEX
  8
0
 10
260.417136
 20
94.000000
 42
0.000000
  0
VERTEX
  8
0
 10
274.834272
 20
94.000000
 42
0.000000
  0
VERTEX
  8
0
 10
275.834365
 20
98.750000
 42
0.001830
  0
VERTEX
  8
0
 10
276.386055
 20
101.418690
 42
0.000374
  0
VERTEX
  8
0
 10
277.341157
 20
106.143750
 42
0.000394
  0
VERTEX
  8
0
 10
278.442861
 20
111.637480
 42
0.000369
  0
VERTEX
  8
0
 10
279.559480
 20
117.250000
 42
0.000000
  0
VERTEX
  8
0
 10
282.284502
 20
131.000000
 42
0.000000
  0
VERTEX
  8
0
 10
293.003845
 20
131.000000
 42
0.000000
  0
VERTEX
  8
0
 10
303.723188
 20
131.000000
 42
0.000000
  0
VERTEX
  8
0
 10
300.361594
 20
114.322220
 42
0.001967
  0
VERTEX
  8
0
 10
299.073666
 20
107.800071
 42
0.002820
  0
VERTEX
  8
0
 10
297.987468
 20
102.008261
 42
0.001521
  0
VERTEX
  8
0
 10
297.111430
 20
97.102304
 42
0.043443
  0
VERTEX
  8
0
 10
297.000000
 20
95.822220
 42
0.270928
  0
VERTEX
  8
0
 10
297.585222
 20
94.821463
 42
0.096814
  0
VERTEX
  8
0
 10
299.216690
 20
94.281779
 42
0.029008
  0
VERTEX
  8
0
 10
302.667373
 20
94.045246
 42
0.002610
  0
VERTEX
  8
0
 10
311.334970
 20
94.000000
 42
0.000000
  0
VERTEX
  8
0
 10
325.669939
 20
94.000000
 42
0.000000
  0
VERTEX
  8
0
 10
334.947347
 20
140.250000
 42
0.000122
  0
VERTEX
  8
0
 10
338.513982
 20
158.053107
 42
0.000198
  0
VERTEX
  8
0
 10
341.539943
 20
173.207812
 42
0.000026
  0
VERTEX
  8
0
 10
344.228445
 20
186.703886
 42
0.014955
  0
VERTEX
  8
0
 10
344.362378
 20
187.500000
 42
0.425126
  0
VERTEX
  8
0
 10
344.009434
 20
187.948073
 42
0.007528
  0
VERTEX
  8
0
 10
340.624280
 20
188.235126
 42
0.012303
  0
VERTEX
  8
0
 10
336.114897
 20
188.437892
 42
0.005083
  0
VERTEX
  8
0
 10
330.005310
 20
188.500000
 42
0.000000
  0
VERTEX
  8
0
 10
315.510619
 20
188.500000
 42
0.000000
  0
VERTEX
  8
0
 10
312.841185
 20
176.000000
 42
0.000480
  0
VERTEX
  8
0
 10
311.734344
 20
170.792592
 42
0.000453
  0
VERTEX
  8
0
 10
310.616096
 20
165.482812
 42
0.000450
  0
VERTEX
  8
0
 10
309.634278
 20
160.778726
 42
0.001584
  0
VERTEX
  8
0
 10
309.014978
 20
157.750000
 42
0.000000
  0
VERTEX
  8
0
 10
307.858204
 20
152.000000
 42
0.000000
  0
VERTEX
  8
0
 10
297.429102
 20
152.000000
 42
-0.004923
  0
VERTEX
  8
0
 10
291.852633
 20
152.054907
 42
-0.030541
  0
VERTEX
  8
0
 10
289.000987
 20
152.285694
 42
-0.071245
  0
VERTEX
  8
0
 10
287.491166
 20
152.726508
 42
-0.294192
  0
VERTEX
  8
0
 10
287.000000
 20
153.489032
 42
-0.046344
  0
VERTEX
  8
0
 10
287.099766
 20
154.563081
 42
-0.001129
  0
VERTEX
  8
0
 10
288.028125
 20
159.456107
 42
-0.002447
  0
VERTEX
  8
0
 10
289.158869
 20
165.191581
 42
-0.001661
  0
VERTEX
  8
0
 10
290.500000
 20
171.711499
 42
0.000311
  0
VERTEX
  8
0
 10
291.841876
 20
178.146968
 42
0.000507
  0
VERTEX
  8
0
 10
292.971875
 20
183.611014
 42
0.000051
  0
VERTEX
  8
0
 10
293.977479
 20
188.501034
 42
0.050722
  0
VERTEX
  8
0
 10
294.000000
 20
188.722468
 42
0.413300
  0
VERTEX
  8
0
 10
293.886016
 20
188.836808
 42
0.000009
  0
VERTEX
  8
0
 10
267.553281
 20
188.918475
 42
0.000482
  0
VERTEX
  8
0
 10
238.491229
 20
188.980057
 42
0.000289
  0
VERTEX
  8
0
 10
203.968615
 20
189.000000
 42
0.000551
  0
VERTEX
  8
0
 10
157.630500
 20
188.948930
 42
0.002902
  0
VERTEX
  8
0
 10
132.191709
 20
188.745222
 42
0.000851
  0
VERTEX
  8
0
 10
114.488942
 20
188.470568
 42
0.307567
  0
SEQEND
  0
POLYLINE
  8
0
 66
1
 70
1
  0
VERTEX
  8
0
 10
436.676614
 20
188.250000
 42
0.060126
  0
VERTEX
  8
0
 10
436.467206
 20
187.770631
 42
0.007768
  0
VERTEX
  8
0
 10
436.161512
 20
186.692188
 42
0.008973
  0
VERTEX
  8
0
 10
435.840326
 20
185.395064
 42
0.007380
  0
VERTEX
  8
0
 10
435.542940
 20
184.000000
 42
-0.003520
  0
VERTEX
  8
0
 10
435.241766
 20
182.531663
 42
-0.003161
  0
VERTEX
  8
0
 10
434.909296
 20
181.014062
 42
-0.003169
  0
VERTEX
  8
0
 10
434.593747
 20
179.656173
 42
-0.009947
  0
VERTEX
  8
0
 10
434.357955
 20
178.750000
 42
0.134874
  0
VERTEX
  8
0
 10
434.352292
 20
177.854554
 42
0.237053
  0
VERTEX
  8
0
 10
434.833311
 20
177.314144
 42
0.084352
  0
VERTEX
  8
0
 10
436.045268
 20
177.056255
 42
0.010339
  0
VERTEX
  8
0
 10
438.765406
 20
177.000000
 42
0.000000
  0
VERTEX
  8
0
 10
443.665587
 20
177.000000
 42
0.000000
  0
VERTEX
  8
0
 10
444.663055
 20
182.503072
 42
0.009640
  0
VERTEX
  8
0
 10
445.009241
 20
184.647814
 42
0.014381
  0
VERTEX
  8
0
 10
445.221544
 20
186.535589
 42
0.009313
  0
VERTEX
  8
0
 10
445.322330
 20
188.093464
 42
0.210890
  0
VERTEX
  8
0
 10
445.163595
 20
188.503072
 42
0.190864
  0
VERTEX
  8
0
 10
444.057072
 20
188.981645
 42
0.015208
  0
VERTEX
  8
0
 10
440.806569
 20
188.983606
 42
0.013788
  0
VERTEX
  8
0
 10
437.544137
 20
188.796186
 42
0.243094
  0
SEQEND
  0
POLYLINE
  8
0
 66
1
 70
1
  0
VERTEX
  8
0
 10
461.533613
 20
187.750000
 42
0.019898
  0
VERTEX
  8
0
 10
461.324063
 20
187.000239
 42
0.002961
  0
VERTEX
  8
0
 10
460.971326
 20
185.471875
 42
0.003329
  0
VERTEX
  8
0
 10
460.577151
 20
183.660248
 42
0.002862
  0
VERTEX
  8
0
 10
460.186226
 20
181.750000
 42
0.000000
  0
VERTEX
  8
0
 10
459.242457
 20
177.000000
 42
0.000000
  0
VERTEX
  8
0
 10
464.009937
 20
177.000000
 42
0.013252
  0
VERTEX
  8
0
 10
467.072901
 20
177.081195
 42
0.138354
  0
VERTEX
  8
0
 10
468.251679
 20
177.482280
 42
0.174774
  0
VERTEX
  8
0
 10
468.914583
 20
178.407281
 42
0.024127
  0
VERTEX
  8
0
 10
469.456984
 20
180.750000
 42
-0.002928
  0
VERTEX
  8
0
 10
469.756731
 20
182.350600
 42
-0.002392
  0
VERTEX
  8
0
 10
470.095592
 20
184.059375
 42
-0.002416
  0
VERTEX
  8
0
 10
470.422507
 20
185.628671
 42
-0.006347
  0
VERTEX
  8
0
 10
470.676683
 20
186.750000
 42
0.064257
  0
VERTEX
  8
0
 10
470.813796
 20
188.023376
 42
0.268105
  0
VERTEX
  8
0
 10
470.429167
 20
188.657869
 42
0.116330
  0
VERTEX
  8
0
 10
469.391045
 20
188.945538
 42
0.009676
  0
VERTEX
  8
0
 10
466.577023
 20
189.000000
 42
0.021242
  0
VERTEX
  8
0
 10
464.637919
 20
188.917580
 42
0.039519
  0
VERTEX
  8
0
 10
463.086419
 20
188.660900
 42
0.050118
  0
VERTEX
  8
0
 10
461.988462
 20
188.268672
 42
0.206673
  0
SEQEND
  0
POLYLINE
  8
0
 66
1
 70
1
  0
VERTEX
  8
0
 10
553.676614
 20
188.250000
 42
0.060126
  0
VERTEX
  8
0
 10
553.467206
 20
187.770631
 42
0.007768
  0
VERTEX
  8
0
 10
553.161512
 20
186.692188
 42
0.008973
  0
VERTEX
  8
0
 10
552.840326
 20
185.395064
 42
0.007380
  0
VERTEX
  8
0
 10
552.542940
 20
184.000000
 42
-0.003520
  0
VERTEX
  8
0
 10
552.241766
 20
182.531663
 42
-0.003161
  0
VERTEX
  8
0
 10
551.909296
 20
181.014062
 42
-0.003169
  0
VERTEX
  8
0
 10
551.593747
 20
179.656173
 42
-0.009947
  0
VERTEX
  8
0
 10
551.357955
 20
178.750000
 42
0.134874
  0
VERTEX
  8
0
 10
551.352292
 20
177.854554
 42
0.237053
  0
VERTEX
  8
0
 10
551.833311
 20
177.314144
 42
0.084352
  0
VERTEX
  8
0
 10
553.045268
 20
177.056255
 42
0.010339
  0
VERTEX
  8
0
 10
555.765406
 20
177.000000
 42
0.000000
  0
VERTEX
  8
0
 10
560.665587
 20
177.000000
 42
0.000000
  0
VERTEX
  8
0
 10
561.663055
 20
182.503072
 42
0.009640
  0
VERTEX
  8
0
 10
562.009241
 20
184.647814
 42
0.014381
  0
VERTEX
  8
0
 10
562.221544
 20
186.535589
 42
0.009313
  0
VERTEX
  8
0
 10
562.322330
 20
188.093464
 42
0.210890
  0
VERTEX
  8
0
 10
562.163595
 20
188.503072
 42
0.190864
  0
VERTEX
  8
0
 10
561.057072
 20
188.981645
 42
0.015208
  0
VERTEX
  8
0
 10
557.806569
 20
188.983606
 42
0.013788
  0
VERTEX
  8
0
 10
554.544137
 20
188.796186
 42
0.243094
  0
SEQEND
  0
POLYLINE
  8
0
 66
1
 70
1
  0
VERTEX
  8
0
 10
642.000000
 20
188.557349
 42
-0.049691
  0
VERTEX
  8
0
 10
641.964446
 20
188.200476
 42
-0.000016
  0
VERTEX
  8
0
 10
639.209375
 20
174.513182
 42
-0.000285
  0
VERTEX
  8
0
 10
636.142466
 20
159.323970
 42
-0.000173
  0
VERTEX
  8
0
 10
632.500000
 20
141.369013
 42
0.000143
  0
VERTEX
  8
0
 10
628.857480
 20
123.419278
 42
0.000236
  0
VERTEX
  8
0
 10
625.790625
 20
108.247228
 42
0.000011
  0
VERTEX
  8
0
 10
623.029550
 20
94.552981
 42
0.049774
  0
VERTEX
  8
0
 10
623.000000
 20
94.256873
 42
0.403588
  0
VERTEX
  8
0
 10
623.133384
 20
94.118541
 42
0.005830
  0
VERTEX
  8
0
 10
624.383144
 20
94.087596
 42
0.012166
  0
VERTEX
  8
0
 10
625.903082
 20
94.104673
 42
0.007269
  0
VERTEX
  8
0
 10
627.708575
 20
94.195209
 42
0.000000
  0
VERTEX
  8
0
 10
632.417150
 20
94.500000
 42
0.000000
  0
VERTEX
  8
0
 10
636.528994
 20
115.000000
 42
-0.002761
  0
VERTEX
  8
0
 10
639.860536
 20
131.146767
 42
-0.024555
  0
VERTEX
  8
0
 10
641.713109
 20
138.164542
 42
-0.057164
  0
VERTEX
  8
0
 10
643.588601
 20
142.348567
 42
-0.069446
  0
VERTEX
  8
0
 10
646.268837
 20
145.702096
 42
-0.028051
  0
VERTEX
  8
0
 10
649.519841
 20
148.450231
 42
-0.060131
  0
VERTEX
  8
0
 10
652.356480
 20
150.095411
 42
-0.064523
  0
VERTEX
  8
0
 10
655.371520
 20
150.951247
 42
-0.036945
  0
VERTEX
  8
0
 10
659.149285
 20
151.230769
 42
-0.050882
  0
VERTEX
  8
0
 10
663.280633
 20
150.809253
 42
-0.094764
  0
VERTEX
  8
0
 10
666.379473
 20
149.527058
 42
-0.103998
  0
VERTEX
  8
0
 10
668.601531
 20
147.291034
 42
-0.071099
  0
VERTEX
  8
0
 10
670.109106
 20
144.030174
 42
-0.067849
  0
VERTEX
  8
0
 10
670.584636
 20
140.998896
 42
-0.034761
  0
VERTEX
  8
0
 10
670.394332
 20
137.148062
 42
-0.016668
  0
VERTEX
  8
0
 10
669.460724
 20
131.061670
 42
-0.002431
  0
VERTEX
  8
0
 10
667.092859
 20
118.776132
 42
0.000440
  0
VERTEX
  8
0
 10
665.466298
 20
110.513983
 42
0.000663
  0
VERTEX
  8
0
 10
664.064401
 20
103.309239
 42
0.000255
  0
VERTEX
  8
0
 10
662.870563
 20
97.113170
 42
0.015567
  0
VERTEX
  8
0
 10
662.692401
 20
96.000000
 42
0.191548
  0
VERTEX
  8
0
 10
662.873264
 20
95.294454
 42
0.152735
  0
VERTEX
  8
0
 10
663.509318
 20
94.822644
 42
0.068633
  0
VERTEX
  8
0
 10
664.779633
 20
94.567730
 42
0.015249
  0
VERTEX
  8
0
 10
667.000000
 20
94.500000
 42
0.000000
  0
VERTEX
  8
0
 10
671.500000
 20
94.500000
 42
0.000000
  0
VERTEX
  8
0
 10
675.708260
 20
115.000000
 42
0.010689
  0
VERTEX
  8
0
 10
679.197527
 20
134.056884
 42
0.055752
  0
VERTEX
  8
0
 10
679.712499
 20
144.704653
 42
0.109605
  0
VERTEX
  8
0
 10
677.732139
 20
151.555446
 42
0.118545
  0
VERTEX
  8
0
 10
673.075126
 20
156.699714
 42
0.096943
  0
VERTEX
  8
0
 10
667.538686
 20
159.078434
 42
0.065728
  0
VERTEX
  8
0
 10
660.677646
 20
159.637139
 42
0.063208
  0
VERTEX
  8
0
 10
653.613655
 20
158.378959
 42
0.073562
  0
VERTEX
  8
0
 10
647.474662
 20
155.418243
 42
0.000000
  0
VERTEX
  8
0
 10
643.972307
 20
153.041481
 42
0.000000
  0
VERTEX
  8
0
 10
644.499129
 20
155.270740
 42
0.008477
  0
VERTEX
  8
0
 10
645.594451
 20
160.283867
 42
0.000747
  0
VERTEX
  8
0
 10
648.129001
 20
173.005150
 42
0.000173
  0
VERTEX
  8
0
 10
650.884020
 20
186.967031
 42
0.048657
  0
VERTEX
  8
0
 10
651.000000
 20
188.156017
 42
0.329145
  0
VERTEX
  8
0
 10
650.756600
 20
188.485706
 42
0.028381
  0
VERTEX
  8
0
 10
649.678125
 20
188.752080
 42
0.028711
  0
VERTEX
  8
0
 10
648.224973
 20
188.939095
 42
0.017648
  0
VERTEX
  8
0
 10
646.500000
 20
189.000000
 42
0.009228
  0
VERTEX
  8
0
 10
644.774627
 20
188.968154
 42
0.015286
  0
VERTEX
  8
0
 10
643.321875
 20
188.869971
 42
0.009020
  0
VERTEX
  8
0
 10
642.154248
 20
188.733809
 42
0.375452
  0
SEQEND
  0
POLYLINE
  8
0
 66
1
 70
1
  0
VERTEX
  8
0
 10
512.941601
 20
159.051773
 42
0.025697
  0
VERTEX
  8
0
 10
510.254714
 20
158.083163
 42
0.026134
  0
VERTEX
  8
0
 10
507.696872
 20
156.848742
 42
0.026932
  0
VERTEX
  8
0
 10
505.359740
 20
155.397313
 42
0.032153
  0
VERTEX
  8
0
 10
503.333740
 20
153.779392
 42
0.000000
  0
VERTEX
  8
0
 10
501.167479
 20
151.808710
 42
0.000000
  0
VERTEX
  8
0
 10
501.978429
 20
155.404355
 42
0.000000
  0
VERTEX
  8
0
 10
502.789378
 20
159.000000
 42
0.000000
  0
VERTEX
  8
0
 10
498.124861
 20
159.000000
 42
0.000000
  0
VERTEX
  8
0
 10
493.460344
 20
159.000000
 42
0.000000
  0
VERTEX
  8
0
 10
487.187514
 20
127.250000
 42
0.000541
  0
VERTEX
  8
0
 10
484.785771
 20
115.023950
 42
0.000873
  0
VERTEX
  8
0
 10
482.769859
 20
104.606250
 42
0.000123
  0
VERTEX
  8
0
 10
480.996607
 20
95.343650
 42
0.061508
  0
VERTEX
  8
0
 10
480.957342
 20
94.750000
 42
0.376482
  0
VERTEX
  8
0
 10
481.442874
 20
94.256199
 42
0.006565
  0
VERTEX
  8
0
 10
485.493616
 20
94.010533
 42
0.006577
  0
VERTEX
  8
0
 10
489.541420
 20
93.871684
 42
0.420418
  0
VERTEX
  8
0
 10
490.000000
 20
94.320673
 42
-0.052331
  0
VERTEX
  8
0
 10
490.325181
 20
97.419119
 42
-0.000704
  0
VERTEX
  8
0
 10
494.340283
 20
116.206846
 42
-0.000978
  0
VERTEX
  8
0
 10
498.326879
 20
134.558879
 42
-0.035757
  0
VERTEX
  8
0
 10
499.546669
 20
138.686424
 42
-0.069032
  0
VERTEX
  8
0
 10
501.588543
 20
142.453773
 42
-0.045027
  0
VERTEX
  8
0
 10
504.871470
 20
146.162946
 42
-0.045370
  0
VERTEX
  8
0
 10
508.716597
 20
149.181904
 42
-0.076533
  0
VERTEX
  8
0
 10
512.448410
 20
150.858144
 42
-0.061516
  0
VERTEX
  8
0
 10
515.485866
 20
151.306419
 42
-0.054923
  0
VERTEX
  8
0
 10
518.664082
 20
151.032138
 42
-0.056765
  0
VERTEX
  8
0
 10
521.596581
 20
150.095268
 42
-0.078392
  0
VERTEX
  8
0
 10
523.905573
 20
148.585455
 42
0.089674
  0
VERTEX
  8
0
 10
524.954253
 20
147.932805
 42
0.176451
  0
VERTEX
  8
0
 10
525.922923
 20
147.905170
 42
0.083691
  0
VERTEX
  8
0
 10
527.165458
 20
148.564383
 42
0.010907
  0
VERTEX
  8
0
 10
529.511007
 20
150.447923
 42
0.000000
  0
VERTEX
  8
0
 10
533.486452
 20
153.785510
 42
0.000000
  0
VERTEX
  8
0
 10
530.993226
 20
155.871297
 42
0.075250
  0
VERTEX
  8
0
 10
527.248245
 20
158.149038
 42
0.055512
  0
VERTEX
  8
0
 10
522.584939
 20
159.516835
 42
0.054234
  0
VERTEX
  8
0
 10
517.610302
 20
159.845822
 42
0.063155
  0
SEQEND
  0
POLYLINE
  8
0
 66
1
 70
1
  0
VERTEX
  8
0
 10
591.500000
 20
158.601175
 42
0.070697
  0
VERTEX
  8
0
 10
582.832415
 20
154.441319
 42
0.078005
  0
VERTEX
  8
0
 10
575.993150
 20
148.142055
 42
0.070482
  0
VERTEX
  8
0
 10
570.920762
 20
139.485859
 42
0.045163
  0
VERTEX
  8
0
 10
567.482876
 20
128.334792
 42
0.017924
  0
VERTEX
  8
0
 10
566.431917
 20
122.318729
 42
0.034160
  0
VERTEX
  8
0
 10
566.094482
 20
117.422547
 42
0.038997
  0
VERTEX
  8
0
 10
566.438987
 20
112.982690
 42
0.033332
  0
VERTEX
  8
0
 10
567.472598
 20
108.404227
 42
0.058890
  0
VERTEX
  8
0
 10
569.204303
 20
104.379445
 42
0.054156
  0
VERTEX
  8
0
 10
571.867489
 20
100.743407
 42
0.053616
  0
VERTEX
  8
0
 10
575.278508
 20
97.731790
 42
0.055309
  0
VERTEX
  8
0
 10
579.217881
 20
95.550681
 42
0.065678
  0
VERTEX
  8
0
 10
583.379240
 20
94.425913
 42
0.032823
  0
VERTEX
  8
0
 10
588.830244
 20
94.059112
 42
0.032592
  0
VERTEX
  8
0
 10
594.421591
 20
94.415171
 42
0.052656
  0
VERTEX
  8
0
 10
599.055603
 20
95.519618
 42
0.038185
  0
VERTEX
  8
0
 10
602.443871
 20
97.014550
 42
0.024139
  0
VERTEX
  8
0
 10
606.150870
 20
99.237239
 42
0.016836
  0
VERTEX
  8
0
 10
609.392604
 20
101.561624
 42
0.244781
  0
VERTEX
  8
0
 10
609.968399
 20
102.800891
 42
0.132968
  0
VERTEX
  8
0
 10
609.837344
 20
103.210645
 42
0.011546
  0
VERTEX
  8
0
 10
609.216132
 20
104.124476
 42
0.014546
  0
VERTEX
  8
0
 10
608.405934
 20
105.191983
 42
0.010786
  0
VERTEX
  8
0
 10
607.451867
 20
106.324983
 42
0.000000
  0
VERTEX
  8
0
 10
604.966936
 20
109.149966
 42
0.000000
  0
VERTEX
  8
0
 10
602.008872
 20
106.660919
 42
-0.082267
  0
VERTEX
  8
0
 10
596.538198
 20
103.416184
 42
-0.082490
  0
VERTEX
  8
0
 10
590.318612
 20
102.112823
 42
-0.088789
  0
VERTEX
  8
0
 10
584.408838
 20
102.916441
 42
-0.118838
  0
VERTEX
  8
0
 10
579.809582
 20
105.728880
 42
-0.073564
  0
VERTEX
  8
0
 10
577.444888
 20
108.914640
 42
-0.069069
  0
VERTEX
  8
0
 10
576.040771
 20
112.716866
 42
-0.057773
  0
VERTEX
  8
0
 10
575.575086
 20
117.338759
 42
-0.031979
  0
VERTEX
  8
0
 10
576.022894
 20
123.000000
 42
-0.011816
  0
VERTEX
  8
0
 10
576.997177
 20
128.797264
 42
-0.027796
  0
VERTEX
  8
0
 10
578.064165
 20
133.051972
 42
-0.032869
  0
VERTEX
  8
0
 10
579.470203
 20
136.709525
 42
-0.024348
  0
VERTEX
  8
0
 10
581.476657
 20
140.550381
 42
-0.091163
  0
VERTEX
  8
0
 10
587.277388
 20
147.273047
 42
-0.108511
  0
VERTEX
  8
0
 10
594.766283
 20
150.991647
 42
-0.120768
  0
VERTEX
  8
0
 10
602.499481
 20
151.025164
 42
-0.132758
  0
VERTEX
  8
0
 10
609.063561
 20
147.439104
 42
0.000000
  0
VERTEX
  8
0
 10
611.814829
 20
144.803222
 42
0.000000
  0
VERTEX
  8
0
 10
614.907415
 20
147.089670
 42
0.023933
  0
VERTEX
  8
0
 10
616.091377
 20
148.055929
 42
0.029603
  0
VERTEX
  8
0
 10
617.091553
 20
149.068470
 42
0.030440
  0
VERTEX
  8
0
 10
617.808193
 20
149.993370
 42
0.150711
  0
VERTEX
  8
0
 10
618.000000
 20
150.615255
 42
0.209634
  0
VERTEX
  8
0
 10
617.187555
 20
152.467869
 42
0.030479
  0
VERTEX
  8
0
 10
613.920631
 20
155.127537
 42
0.034504
  0
VERTEX
  8
0
 10
610.007291
 20
157.545014
 42
0.059499
  0
VERTEX
  8
0
 10
606.436489
 20
158.911675
 42
0.028728
  0
VERTEX
  8
0
 10
602.472487
 20
159.670888
 42
0.038164
  0
VERTEX
  8
0
 10
598.808979
 20
159.874440
 42
0.039050
  0
VERTEX
  8
0
 10
595.224620
 20
159.518988
 42
0.032362
  0
SEQEND
  0
POLYLINE
  8
0
 66
1
 70
1
  0
VERTEX
  8
0
 10
364.552138
 20
157.750000
 42
0.010997
  0
VERTEX
  8
0
 10
364.364696
 20
157.090345
 42
0.003203
  0
VERTEX
  8
0
 10
364.104991
 20
156.066670
 42
0.003217
  0
VERTEX
  8
0
 10
363.827267
 20
154.909854
 42
0.003438
  0
VERTEX
  8
0
 10
363.570703
 20
153.774833
 42
0.000000
  0
VERTEX
  8
0
 10
362.974361
 20
151.049666
 42
0.000000
  0
VERTEX
  8
0
 10
379.031963
 20
150.774833
 42
0.000000
  0
VERTEX
  8
0
 10
395.089565
 20
150.500000
 42
0.000000
  0
VERTEX
  8
0
 10
373.956424
 20
126.685312
 42
0.003443
  0
VERTEX
  8
0
 10
361.406395
 20
112.345113
 42
0.020298
  0
VERTEX
  8
0
 10
355.192739
 20
104.525374
 42
0.039469
  0
VERTEX
  8
0
 10
351.974453
 20
99.299237
 42
0.118820
  0
VERTEX
  8
0
 10
351.000000
 20
95.256602
 42
0.412033
  0
VERTEX
  8
0
 10
352.278575
 20
93.968468
 42
0.001826
  0
VERTEX
  8
0
 10
373.513743
 20
93.887835
 42
0.001901
  0
VERTEX
  8
0
 10
394.722403
 20
93.965405
 42
0.327701
  0
VERTEX
  8
0
 10
396.444851
 20
95.250000
 42
0.018125
  0
VERTEX
  8
0
 10
396.627844
 20
95.936784
 42
0.004364
  0
VERTEX
  8
0
 10
396.879646
 20
97.087500
 42
0.004475
  0
VERTEX
  8
0
 10
397.145444
 20
98.414063
 42
0.004427
  0
VERTEX
  8
0
 10
397.388466
 20
99.750000
 42
0.000000
  0
VERTEX
  8
0
 10
397.950000
 20
103.000000
 42
0.000000
  0
VERTEX
  8
0
 10
380.930060
 20
103.000000
 42
0.000000
  0
VERTEX
  8
0
 10
363.910120
 20
103.000000
 42
0.000000
  0
VERTEX
  8
0
 10
384.125363
 20
125.750000
 42
0.000201
  0
VERTEX
  8
0
 10
391.962764
 20
134.577272
 42
0.000305
  0
VERTEX
  8
0
 10
398.768121
 20
142.257812
 42
0.000109
  0
VERTEX
  8
0
 10
404.632106
 20
148.886986
 42
0.007802
  0
VERTEX
  8
0
 10
405.585689
 20
150.000000
 42
0.063651
  0
VERTEX
  8
0
 10
406.112183
 20
150.829284
 42
0.021107
  0
VERTEX
  8
0
 10
406.669452
 20
152.160937
 42
0.020626
  0
VERTEX
  8
0
 10
407.168738
 20
153.704299
 42
0.022040
  0
VERTEX
  8
0
 10
407.526677
 20
155.250000
 42
0.000000
  0
VERTEX
  8
0
 10
408.222582
 20
159.000000
 42
0.000000
  0
VERTEX
  8
0
 10
386.579906
 20
159.000000
 42
0.002620
  0
VERTEX
  8
0
 10
375.837977
 20
158.943708
 42
0.011552
  0
VERTEX
  8
0
 10
369.509947
 20
158.731113
 42
0.010775
  0
VERTEX
  8
0
 10
365.352726
 20
158.405209
 42
0.301728
  0
SEQEND
  0
POLYLINE
  8
0
 66
1
 70
1
  0
VERTEX
  8
0
 10
419.095275
 20
137.024638
 42
0.007145
  0
VERTEX
  8
0
 10
416.217183
 20
121.297831
 42
0.031571
  0
VERTEX
  8
0
 10
415.244006
 20
111.937100
 42
0.056414
  0
VERTEX
  8
0
 10
415.693302
 20
105.728244
 42
0.114593
  0
VERTEX
  8
0
 10
417.647500
 20
101.270317
 42
0.042616
  0
VERTEX
  8
0
 10
420.468465
 20
98.095868
 42
0.071072
  0
VERTEX
  8
0
 10
423.378882
 20
96.030359
 42
0.067752
  0
VERTEX
  8
0
 10
426.851529
 20
94.801956
 42
0.035293
  0
VERTEX
  8
0
 10
431.411855
 20
94.186510
 42
0.032217
  0
VERTEX
  8
0
 10
436.557461
 20
94.190744
 42
0.050905
  0
VERTEX
  8
0
 10
440.905074
 20
94.923431
 42
0.056130
  0
VERTEX
  8
0
 10
444.699757
 20
96.442701
 42
0.051681
  0
VERTEX
  8
0
 10
448.177358
 20
98.802691
 42
0.000000
  0
VERTEX
  8
0
 10
451.303909
 20
101.433510
 42
0.000000
  0
VERTEX
  8
0
 10
450.606641
 20
97.716755
 42
0.000000
  0
VERTEX
  8
0
 10
449.909374
 20
94.000000
 42
0.000000
  0
VERTEX
  8
0
 10
454.435635
 20
94.000000
 42
0.016243
  0
VERTEX
  8
0
 10
456.936044
 20
94.081248
 42
0.088534
  0
VERTEX
  8
0
 10
458.245705
 20
94.403927
 42
0.151299
  0
VERTEX
  8
0
 10
459.010548
 20
95.072719
 42
0.079607
  0
VERTEX
  8
0
 10
459.498746
 20
96.250000
 42
0.009127
  0
VERTEX
  8
0
 10
460.316299
 20
99.976502
 42
0.000081
  0
VERTEX
  8
0
 10
465.987389
 20
128.308795
 42
0.000015
  0
VERTEX
  8
0
 10
471.925459
 20
158.004545
 42
0.049372
  0
VERTEX
  8
0
 10
472.000000
 20
158.757587
 42
0.404987
  0
VERTEX
  8
0
 10
471.871175
 20
158.890548
 42
0.005394
  0
VERTEX
  8
0
 10
470.617368
 20
158.916651
 42
0.011690
  0
VERTEX
  8
0
 10
469.097997
 20
158.896367
 42
0.006984
  0
VERTEX
  8
0
 10
467.293167
 20
158.804791
 42
0.000000
  0
VERTEX
  8
0
 10
462.586334
 20
158.500000
 42
0.000000
  0
VERTEX
  8
0
 10
458.353081
 20
137.327603
 42
-0.006464
  0
VERTEX
  8
0
 10
455.325549
 20
123.141951
 42
-0.028206
  0
VERTEX
  8
0
 10
452.957355
 20
114.893646
 42
-0.049256
  0
VERTEX
  8
0
 10
450.523671
 20
109.648457
 42
-0.093124
  0
VERTEX
  8
0
 10
447.465417
 20
106.151457
 42
-0.100809
  0
VERTEX
  8
0
 10
440.594893
 20
102.699600
 42
-0.115194
  0
VERTEX
  8
0
 10
433.258247
 20
102.440784
 42
-0.135129
  0
VERTEX
  8
0
 10
427.390932
 20
105.367823
 42
-0.164966
  0
VERTEX
  8
0
 10
424.399117
 20
110.686058
 42
-0.074118
  0
VERTEX
  8
0
 10
424.306629
 20
113.152555
 42
-0.008802
  0
VERTEX
  8
0
 10
425.007840
 20
118.597014
 42
-0.008841
  0
VERTEX
  8
0
 10
426.202031
 20
125.841451
 42
-0.004037
  0
VERTEX
  8
0
 10
428.004852
 20
135.259777
 42
-0.000986
  0
VERTEX
  8
0
 10
429.663921
 20
143.479108
 42
-0.001501
  0
VERTEX
  8
0
 10
431.140147
 20
150.609580
 42
-0.000528
  0
VERTEX
  8
0
 10
432.438869
 20
156.756922
 42
-0.039307
  0
VERTEX
  8
0
 10
432.728033
 20
157.733649
 42
0.279691
  0
VERTEX
  8
0
 10
432.624519
 20
158.305630
 42
0.142471
  0
VERTEX
  8
0
 10
431.984103
 20
158.710068
 42
0.056743
  0
VERTEX
  8
0
 10
430.628286
 20
158.938444
 42
0.013378
  0
VERTEX
  8
0
 10
428.328137
 20
159.000000
 42
0.000000
  0
VERTEX
  8
0
 10
423.442296
 20
159.000000
 42
0.000000
  0
SEQEND
  0
POLYLINE
  8
0
 66
1
 70
1
  0
VERTEX
  8
0
 10
541.187514
 20
127.250000
 42
0.000541
  0
VERTEX
  8
0
 10
538.785771
 20
115.023950
 42
0.000873
  0
VERTEX
  8
0
 10
536.769859
 20
104.606250
 42
0.000123
  0
VERTEX
  8
0
 10
534.996607
 20
95.343650
 42
0.061508
  0
VERTEX
  8
0
 10
534.957342
 20
94.750000
 42
0.322915
  0
VERTEX
  8
0
 10
535.195767
 20
94.456068
 42
0.023904
  0
VERTEX
  8
0
 10
536.266102
 20
94.220313
 42
0.026065
  0
VERTEX
  8
0
 10
537.681229
 20
94.054149
 42
0.016193
  0
VERTEX
  8
0
 10
539.352793
 20
94.000000
 42
0.000000
  0
VERTEX
  8
0
 10
543.705585
 20
94.000000
 42
0.000000
  0
VERTEX
  8
0
 10
550.203811
 20
126.500000
 42
0.000000
  0
VERTEX
  8
0
 10
556.702037
 20
159.000000
 42
0.000000
  0
VERTEX
  8
0
 10
552.081190
 20
159.000000
 42
0.000000
  0
VERTEX
  8
0
 10
547.460344
 20
159.000000
 42
0.000000
  0
SEQEND
  0
ENDSEC
  0
EOF
