<?xml version="1.0" standalone="no"?>
 <!DOCTYPE svg PUBLIC "-//W3C//DTD SVG 1.1//EN" 
 "http://www.w3.org/Graphics/SVG/1.1/DTD/svg11.dtd"> 
<svg
  xmlns:svg="http://www.w3.org/2000/svg"
  xmlns="http://www.w3.org/2000/svg"
  xmlns:xlink="http://www.w3.org/1999/xlink"
  version="1.1"
  width="4.386580cm" height="7.490460cm" viewBox="0 0 17270 29490">
<title>SVG Picture created as SensReadPCB-F_SilkS.svg date 2023/02/10 19:01:24 </title>
  <desc>Picture generated by PCBNEW </desc>
<g style="fill:#000000; fill-opacity:1;stroke:#000000; stroke-opacity:1;
stroke-linecap:round; stroke-linejoin:round;"
 transform="translate(0 0) scale(1 1)">
</g>
<g style="fill:#000000; fill-opacity:0.0; 
stroke:#000000; stroke-width:-0.000393701; stroke-opacity:1; 
stroke-linecap:round; stroke-linejoin:round;">
</g>
<g style="fill:#000000; fill-opacity:0.0; 
stroke:#000000; stroke-width:59.0551; stroke-opacity:1; 
stroke-linecap:round; stroke-linejoin:round;">
<g transform="rotate(-90 6748.23 24142)">
<text x="6748.23" y="24338.8"
textLength="676.697" font-size="524.934" lengthAdjust="spacingAndGlyphs"
text-anchor="middle" opacity="0">IN</text>
</g>
<path d="M6926 24348
L6532 24348
" />
<path d="M6926 24160
L6532 24160
L6926 23935
L6532 23935
" />
<g transform="rotate(-90 1298.23 4391.96)">
<text x="1298.23" y="4588.81"
textLength="451.725" font-size="524.934" lengthAdjust="spacingAndGlyphs"
text-anchor="middle" opacity="0">2</text>
</g>
<path d="M1120 4504
L1101 4485
L1082 4448
L1082 4354
L1101 4316
L1120 4298
L1157 4279
L1195 4279
L1251 4298
L1476 4523
L1476 4279
" />
<g transform="rotate(-90 298.228 4391.96)">
<text x="298.228" y="4588.81"
textLength="451.725" font-size="524.934" lengthAdjust="spacingAndGlyphs"
text-anchor="middle" opacity="0">1</text>
</g>
<path d="M476 4279
L476 4504
" />
<path d="M476 4391
L82 4391
L138 4429
L176 4466
L195 4504
" />
<g transform="rotate(-90 6748.23 27292)">
<text x="6748.23" y="27488.8"
textLength="2176.51" font-size="524.934" lengthAdjust="spacingAndGlyphs"
text-anchor="middle" opacity="0">6 V DC</text>
</g>
<path d="M6532 28079
L6532 28154
L6551 28191
L6570 28210
L6626 28248
L6701 28266
L6851 28266
L6888 28248
L6907 28229
L6926 28191
L6926 28116
L6907 28079
L6888 28060
L6851 28041
L6757 28041
L6720 28060
L6701 28079
L6682 28116
L6682 28191
L6701 28229
L6720 28248
L6757 28266
" />
<path d="M6532 27629
L6926 27498
L6532 27366
" />
<path d="M6926 26935
L6532 26935
L6532 26842
L6551 26785
L6588 26748
L6626 26729
L6701 26710
L6757 26710
L6832 26729
L6870 26748
L6907 26785
L6926 26842
L6926 26935
" />
<path d="M6888 26317
L6907 26335
L6926 26392
L6926 26429
L6907 26485
L6870 26523
L6832 26542
L6757 26560
L6701 26560
L6626 26542
L6588 26523
L6551 26485
L6532 26429
L6532 26392
L6551 26335
L6570 26317
" />
<text x="3998.23" y="12638.8"
textLength="3038.9" font-size="524.934" lengthAdjust="spacingAndGlyphs"
text-anchor="middle" opacity="0">BUF_OUTB</text>
<path d="M2742 12413
L2798 12432
L2817 12451
L2835 12488
L2835 12545
L2817 12582
L2798 12601
L2760 12620
L2610 12620
L2610 12226
L2742 12226
L2779 12245
L2798 12263
L2817 12301
L2817 12338
L2798 12376
L2779 12395
L2742 12413
L2610 12413
" />
<path d="M3004 12226
L3004 12545
L3023 12582
L3042 12601
L3079 12620
L3154 12620
L3192 12601
L3210 12582
L3229 12545
L3229 12226
" />
<path d="M3548 12413
L3417 12413
" />
<path d="M3417 12620
L3417 12226
L3604 12226
" />
<path d="M3660 12657
L3960 12657
" />
<path d="M4129 12226
L4204 12226
L4241 12245
L4279 12282
L4298 12357
L4298 12488
L4279 12563
L4241 12601
L4204 12620
L4129 12620
L4091 12601
L4054 12563
L4035 12488
L4035 12357
L4054 12282
L4091 12245
L4129 12226
" />
<path d="M4466 12226
L4466 12545
L4485 12582
L4504 12601
L4541 12620
L4616 12620
L4654 12601
L4673 12582
L4691 12545
L4691 12226
" />
<path d="M4823 12226
L5048 12226
" />
<path d="M4935 12620
L4935 12226
" />
<path d="M5310 12413
L5366 12432
L5385 12451
L5404 12488
L5404 12545
L5385 12582
L5366 12601
L5329 12620
L5179 12620
L5179 12226
L5310 12226
L5348 12245
L5366 12263
L5385 12301
L5385 12338
L5366 12376
L5348 12395
L5310 12413
L5179 12413
" />
<text x="15698.2" y="8788.81"
textLength="2982.66" font-size="524.934" lengthAdjust="spacingAndGlyphs"
text-anchor="middle" opacity="0">BUF_OUTA</text>
<path d="M14470 8563
L14526 8582
L14545 8601
L14563 8638
L14563 8695
L14545 8732
L14526 8751
L14489 8770
L14339 8770
L14339 8376
L14470 8376
L14507 8395
L14526 8413
L14545 8451
L14545 8488
L14526 8526
L14507 8545
L14470 8563
L14339 8563
" />
<path d="M14732 8376
L14732 8695
L14751 8732
L14770 8751
L14807 8770
L14882 8770
L14920 8751
L14938 8732
L14957 8695
L14957 8376
" />
<path d="M15276 8563
L15145 8563
" />
<path d="M15145 8770
L15145 8376
L15332 8376
" />
<path d="M15388 8807
L15688 8807
" />
<path d="M15857 8376
L15932 8376
L15970 8395
L16007 8432
L16026 8507
L16026 8638
L16007 8713
L15970 8751
L15932 8770
L15857 8770
L15820 8751
L15782 8713
L15763 8638
L15763 8507
L15782 8432
L15820 8395
L15857 8376
" />
<path d="M16195 8376
L16195 8695
L16213 8732
L16232 8751
L16270 8770
L16345 8770
L16382 8751
L16401 8732
L16420 8695
L16420 8376
" />
<path d="M16551 8376
L16776 8376
" />
<path d="M16663 8770
L16663 8376
" />
<path d="M16888 8657
L17076 8657
" />
<path d="M16851 8770
L16982 8376
L17113 8770
" />
</g>
<g style="fill:#000000; fill-opacity:0.0; 
stroke:#000000; stroke-width:40; stroke-opacity:1; 
stroke-linecap:round; stroke-linejoin:round;">
<g transform="rotate(-90 15798.2 2991.96)">
<text x="15798.2" y="3091.96"
textLength="1048.2" font-size="266.667" lengthAdjust="spacingAndGlyphs"
text-anchor="end" opacity="0">Rev. B</text>
</g>
<path d="M15888 3827
L15793 3894
" />
<path d="M15888 3941
L15688 3941
L15688 3865
L15698 3846
L15707 3837
L15726 3827
L15755 3827
L15774 3837
L15783 3846
L15793 3865
L15793 3941
" />
<path d="M15879 3665
L15888 3684
L15888 3722
L15879 3741
L15860 3751
L15783 3751
L15764 3741
L15755 3722
L15755 3684
L15764 3665
L15783 3656
L15802 3656
L15822 3751
" />
<path d="M15755 3589
L15888 3541
L15755 3494
" />
<path d="M15869 3417
L15879 3408
L15888 3417
L15879 3427
L15869 3417
L15888 3417
" />
<path d="M15783 3103
L15793 3075
L15802 3065
L15822 3056
L15850 3056
L15869 3065
L15879 3075
L15888 3094
L15888 3170
L15688 3170
L15688 3103
L15698 3084
L15707 3075
L15726 3065
L15745 3065
L15764 3075
L15774 3084
L15783 3103
L15783 3170
" />
</g>
<g style="fill:#000000; fill-opacity:0.0; 
stroke:#000000; stroke-width:47.2441; stroke-opacity:1; 
stroke-linecap:round; stroke-linejoin:round;">
<path d="M14548 2891
L14548 7641
" />
</g>
<g style="fill:#000000; fill-opacity:0.0; 
stroke:#000000; stroke-width:59.0551; stroke-opacity:1; 
stroke-linecap:round; stroke-linejoin:round;">
<g transform="rotate(-90 15043.7 7391.96)">
<text x="15043.7" y="7541.96"
textLength="3043.32" font-size="400" lengthAdjust="spacingAndGlyphs"
text-anchor="start" opacity="0">BMHT Sensor</text>
</g>
<path d="M15022 7160
L15036 7119
L15050 7107
L15079 7096
L15122 7101
L15150 7119
L15165 7135
L15179 7166
L15179 7280
L14879 7242
L14879 7142
L14893 7116
L14907 7103
L14936 7092
L14965 7096
L14993 7114
L15007 7130
L15022 7160
L15022 7260
" />
<path d="M15179 6980
L14879 6942
L15093 6869
L14879 6742
L15179 6780
" />
<path d="M15179 6637
L14879 6600
" />
<path d="M15022 6617
L15022 6446
" />
<path d="M15179 6466
L14879 6428
" />
<path d="M14879 6328
L14879 6157
" />
<path d="M15179 6280
L14879 6242
" />
<path d="M15165 5878
L15179 5837
L15179 5766
L15165 5735
L15150 5719
L15122 5701
L15093 5698
L15065 5708
L15050 5721
L15036 5748
L15022 5803
L15007 5830
L14993 5842
L14965 5853
L14936 5850
L14907 5832
L14893 5816
L14879 5785
L14879 5714
L14893 5673
" />
<path d="M15165 5464
L15179 5494
L15179 5551
L15165 5578
L15136 5589
L15022 5575
L14993 5557
L14979 5526
L14979 5469
L14993 5442
L15022 5432
L15050 5435
L15079 5582
" />
<path d="M14979 5298
L15179 5323
" />
<path d="M15007 5301
L14993 5285
L14979 5255
L14979 5212
L14993 5185
L15022 5175
L15179 5194
" />
<path d="M15165 5064
L15179 5037
L15179 4980
L15165 4950
L15136 4932
L15122 4930
L15093 4941
L15079 4967
L15079 5010
L15065 5037
L15036 5048
L15022 5046
L14993 5028
L14979 4998
L14979 4955
L14993 4928
" />
<path d="M15179 4766
L15165 4792
L15150 4805
L15122 4816
L15036 4805
L15007 4787
L14993 4771
L14979 4741
L14979 4698
L14993 4671
L15007 4658
L15036 4648
L15122 4658
L15150 4676
L15165 4692
L15179 4723
L15179 4766
" />
<path d="M15179 4537
L14979 4512
" />
<path d="M15036 4519
L15007 4501
L14993 4485
L14979 4455
L14979 4426
" />
<g transform="rotate(-90 15552.8 7391.96)">
<text x="15552.8" y="7541.96"
textLength="2342.62" font-size="400" lengthAdjust="spacingAndGlyphs"
text-anchor="start" opacity="0">Front End</text>
</g>
<path d="M15531 7160
L15531 7260
" />
<path d="M15688 7280
L15388 7242
L15388 7100
" />
<path d="M15688 7023
L15488 6998
" />
<path d="M15545 7005
L15517 6987
L15502 6971
L15488 6941
L15488 6912
" />
<path d="M15688 6794
L15674 6821
L15659 6833
L15631 6844
L15545 6833
L15517 6816
L15502 6800
L15488 6769
L15488 6726
L15502 6700
L15517 6687
L15545 6676
L15631 6687
L15659 6705
L15674 6721
L15688 6751
L15688 6794
" />
<path d="M15488 6541
L15688 6566
" />
<path d="M15517 6544
L15502 6528
L15488 6498
L15488 6455
L15502 6428
L15531 6417
L15688 6437
" />
<path d="M15488 6312
L15488 6198
" />
<path d="M15388 6257
L15645 6289
L15674 6278
L15688 6251
L15688 6223
" />
<path d="M15531 5875
L15531 5775
" />
<path d="M15688 5751
L15688 5894
L15388 5857
L15388 5714
" />
<path d="M15488 5598
L15688 5623
" />
<path d="M15517 5601
L15502 5585
L15488 5555
L15488 5512
L15502 5485
L15531 5475
L15688 5494
" />
<path d="M15688 5223
L15388 5185
" />
<path d="M15674 5221
L15688 5251
L15688 5308
L15674 5335
L15659 5348
L15631 5358
L15545 5348
L15517 5330
L15502 5314
L15488 5283
L15488 5226
L15502 5200
" />
</g>
<g style="fill:#000000; fill-opacity:0.0; 
stroke:#000000; stroke-width:47.2441; stroke-opacity:1; 
stroke-linecap:round; stroke-linejoin:round;">
<path d="M14548 2891
L17048 2891
" />
<path d="M16048 7641
L16048 2891
" />
<path d="M17048 7641
L14548 7641
" />
<path d="M17048 2891
L17048 7641
" />
<path d="M10298 22641
L10298 22141
" />
<path d="M8798 22641
L10298 22641
" />
<path d="M8798 22141
L8798 22641
" />
</g>
<g style="fill:#000000; fill-opacity:0.0; 
stroke:#000000; stroke-width:59.0551; stroke-opacity:1; 
stroke-linecap:round; stroke-linejoin:round;">
<text x="7748.23" y="8164"
textLength="2495.22" font-size="524.934" lengthAdjust="spacingAndGlyphs"
text-anchor="middle" opacity="0">ADC_INB</text>
<path d="M6613 8032
L6801 8032
" />
<path d="M6576 8145
L6707 7751
L6838 8145
" />
<path d="M6970 8145
L6970 7751
L7063 7751
L7120 7770
L7157 7807
L7176 7845
L7195 7920
L7195 7976
L7176 8051
L7157 8089
L7120 8126
L7063 8145
L6970 8145
" />
<path d="M7588 8107
L7570 8126
L7513 8145
L7476 8145
L7420 8126
L7382 8089
L7363 8051
L7345 7976
L7345 7920
L7363 7845
L7382 7807
L7420 7770
L7476 7751
L7513 7751
L7570 7770
L7588 7789
" />
<path d="M7663 8182
L7963 8182
" />
<path d="M8057 8145
L8057 7751
" />
<path d="M8245 8145
L8245 7751
L8470 8145
L8470 7751
" />
<path d="M8788 7939
L8844 7957
L8863 7976
L8882 8014
L8882 8070
L8863 8107
L8844 8126
L8807 8145
L8657 8145
L8657 7751
L8788 7751
L8826 7770
L8844 7789
L8863 7826
L8863 7864
L8844 7901
L8826 7920
L8788 7939
L8657 7939
" />
<text x="7748.23" y="8813.61"
textLength="1220.38" font-size="524.934" lengthAdjust="spacingAndGlyphs"
text-anchor="middle" opacity="0">FILT</text>
<path d="M7401 8588
L7270 8588
" />
<path d="M7270 8794
L7270 8401
L7457 8401
" />
<path d="M7607 8794
L7607 8401
" />
<path d="M7982 8794
L7795 8794
L7795 8401
" />
<path d="M8057 8401
L8282 8401
" />
<path d="M8170 8794
L8170 8401
" />
<g transform="rotate(-90 14498.2 20892)">
<text x="14498.2" y="21088.8"
textLength="751.687" font-size="524.934" lengthAdjust="spacingAndGlyphs"
text-anchor="middle" opacity="0">I+</text>
</g>
<path d="M14676 21135
L14282 21135
" />
<path d="M14526 20948
L14526 20648
" />
<path d="M14676 20798
L14376 20798
" />
<g transform="rotate(-90 14498.2 21892)">
<text x="14498.2" y="22088.8"
textLength="901.669" font-size="524.934" lengthAdjust="spacingAndGlyphs"
text-anchor="middle" opacity="0">V+</text>
</g>
<path d="M14282 22266
L14676 22135
L14282 22004
" />
<path d="M14526 21873
L14526 21573
" />
<path d="M14676 21723
L14376 21723
" />
<g transform="rotate(-90 14498.2 22892)">
<text x="14498.2" y="23088.8"
textLength="901.669" font-size="524.934" lengthAdjust="spacingAndGlyphs"
text-anchor="middle" opacity="0">V-</text>
</g>
<path d="M14282 23266
L14676 23135
L14282 23004
" />
<path d="M14526 22873
L14526 22573
" />
<g transform="rotate(-90 14498.2 23892)">
<text x="14498.2" y="24088.8"
textLength="751.687" font-size="524.934" lengthAdjust="spacingAndGlyphs"
text-anchor="middle" opacity="0">I-</text>
</g>
<path d="M14676 24135
L14282 24135
" />
<path d="M14526 23948
L14526 23648
" />
<g transform="rotate(-90 14498.2 15392)">
<text x="14498.2" y="15588.8"
textLength="751.687" font-size="524.934" lengthAdjust="spacingAndGlyphs"
text-anchor="middle" opacity="0">I-</text>
</g>
<path d="M14676 15635
L14282 15635
" />
<path d="M14526 15448
L14526 15148
" />
<g transform="rotate(-90 14498.2 16392)">
<text x="14498.2" y="16588.8"
textLength="901.669" font-size="524.934" lengthAdjust="spacingAndGlyphs"
text-anchor="middle" opacity="0">V-</text>
</g>
<path d="M14282 16766
L14676 16635
L14282 16504
" />
<path d="M14526 16373
L14526 16073
" />
<g transform="rotate(-90 14498.2 17392)">
<text x="14498.2" y="17588.8"
textLength="901.669" font-size="524.934" lengthAdjust="spacingAndGlyphs"
text-anchor="middle" opacity="0">V+</text>
</g>
<path d="M14282 17766
L14676 17635
L14282 17504
" />
<path d="M14526 17373
L14526 17073
" />
<path d="M14676 17223
L14376 17223
" />
<g transform="rotate(-90 14498.2 18392)">
<text x="14498.2" y="18588.8"
textLength="751.687" font-size="524.934" lengthAdjust="spacingAndGlyphs"
text-anchor="middle" opacity="0">I+</text>
</g>
<path d="M14676 18635
L14282 18635
" />
<path d="M14526 18448
L14526 18148
" />
<path d="M14676 18298
L14376 18298
" />
</g>
<g style="fill:#000000; fill-opacity:0.0; 
stroke:#000000; stroke-width:47.2441; stroke-opacity:1; 
stroke-linecap:round; stroke-linejoin:round;">
<path d="M3648 17441
L4148 17441
" />
<path d="M3648 14841
L3648 17441
" />
<path d="M4148 14841
L3648 14841
" />
</g>
<g style="fill:#000000; fill-opacity:0.0; 
stroke:#000000; stroke-width:59.0551; stroke-opacity:1; 
stroke-linecap:round; stroke-linejoin:round;">
<g transform="rotate(-90 2673.43 16142)">
<text x="2673.43" y="16338.8"
textLength="1201.63" font-size="524.934" lengthAdjust="spacingAndGlyphs"
text-anchor="middle" opacity="0">AUX</text>
</g>
<path d="M2739 16629
L2739 16441
" />
<path d="M2851 16666
L2457 16535
L2851 16404
" />
<path d="M2457 16273
L2776 16273
L2814 16254
L2832 16235
L2851 16198
L2851 16123
L2832 16085
L2814 16066
L2776 16048
L2457 16048
" />
<path d="M2457 15898
L2851 15635
" />
<path d="M2457 15635
L2851 15898
" />
<g transform="rotate(-90 3323.03 16142)">
<text x="3323.03" y="16338.8"
textLength="1314.12" font-size="524.934" lengthAdjust="spacingAndGlyphs"
text-anchor="middle" opacity="0">PWR</text>
</g>
<path d="M3501 16666
L3107 16666
L3107 16516
L3126 16479
L3144 16460
L3182 16441
L3238 16441
L3276 16460
L3294 16479
L3313 16516
L3313 16666
" />
<path d="M3107 16310
L3501 16216
L3219 16141
L3501 16066
L3107 15973
" />
<path d="M3501 15598
L3313 15729
" />
<path d="M3501 15823
L3107 15823
L3107 15673
L3126 15635
L3144 15617
L3182 15598
L3238 15598
L3276 15617
L3294 15635
L3313 15673
L3313 15823
" />
<text x="4798.23" y="15338.8"
textLength="1276.62" font-size="524.934" lengthAdjust="spacingAndGlyphs"
text-anchor="middle" opacity="0">GND</text>
<path d="M4498 14945
L4460 14926
L4404 14926
L4348 14945
L4310 14982
L4292 15020
L4273 15095
L4273 15151
L4292 15226
L4310 15263
L4348 15301
L4404 15320
L4442 15320
L4498 15301
L4517 15282
L4517 15151
L4442 15151
" />
<path d="M4685 15320
L4685 14926
L4910 15320
L4910 14926
" />
<path d="M5098 15320
L5098 14926
L5191 14926
L5248 14945
L5285 14982
L5304 15020
L5323 15095
L5323 15151
L5304 15226
L5285 15263
L5248 15301
L5191 15320
L5098 15320
" />
<text x="4548.23" y="16338.8"
textLength="1351.61" font-size="524.934" lengthAdjust="spacingAndGlyphs"
text-anchor="middle" opacity="0">2.5V</text>
<path d="M3985 15963
L4004 15945
L4042 15926
L4135 15926
L4173 15945
L4192 15963
L4210 16001
L4210 16038
L4192 16095
L3967 16320
L4210 16320
" />
<path d="M4379 16282
L4398 16301
L4379 16320
L4360 16301
L4379 16282
L4379 16320
" />
<path d="M4754 15926
L4566 15926
L4548 16113
L4566 16095
L4604 16076
L4698 16076
L4735 16095
L4754 16113
L4773 16151
L4773 16245
L4754 16282
L4735 16301
L4698 16320
L4604 16320
L4566 16301
L4548 16282
" />
<path d="M4885 15926
L5016 16320
L5148 15926
" />
<text x="4798.23" y="17338.8"
textLength="789.183" font-size="524.934" lengthAdjust="spacingAndGlyphs"
text-anchor="middle" opacity="0">5V</text>
<path d="M4723 16926
L4535 16926
L4517 17113
L4535 17095
L4573 17076
L4666 17076
L4704 17095
L4723 17113
L4741 17151
L4741 17245
L4723 17282
L4704 17301
L4666 17320
L4573 17320
L4535 17301
L4517 17282
" />
<path d="M4854 16926
L4985 17320
L5116 16926
" />
<text x="16498.2" y="19988.8"
textLength="1576.58" font-size="524.934" lengthAdjust="spacingAndGlyphs"
text-anchor="middle" opacity="0">CH B</text>
<path d="M16067 19932
L16048 19951
L15992 19970
L15954 19970
L15898 19951
L15860 19913
L15842 19876
L15823 19801
L15823 19745
L15842 19670
L15860 19632
L15898 19595
L15954 19576
L15992 19576
L16048 19595
L16067 19613
" />
<path d="M16235 19970
L16235 19576
" />
<path d="M16235 19763
L16460 19763
" />
<path d="M16460 19970
L16460 19576
" />
<path d="M17079 19763
L17135 19782
L17154 19801
L17173 19838
L17173 19895
L17154 19932
L17135 19951
L17098 19970
L16948 19970
L16948 19576
L17079 19576
L17116 19595
L17135 19613
L17154 19651
L17154 19688
L17135 19726
L17116 19745
L17079 19763
L16948 19763
" />
<text x="16498.2" y="14488.8"
textLength="1520.34" font-size="524.934" lengthAdjust="spacingAndGlyphs"
text-anchor="middle" opacity="0">CH A</text>
<path d="M16095 14432
L16076 14451
L16020 14470
L15982 14470
L15926 14451
L15888 14413
L15870 14376
L15851 14301
L15851 14245
L15870 14170
L15888 14132
L15926 14095
L15982 14076
L16020 14076
L16076 14095
L16095 14113
" />
<path d="M16263 14470
L16263 14076
" />
<path d="M16263 14263
L16488 14263
" />
<path d="M16488 14470
L16488 14076
" />
<path d="M16957 14357
L17145 14357
" />
<path d="M16920 14470
L17051 14076
L17182 14470
" />
<text x="8048.23" y="29338.8"
textLength="2720.19" font-size="524.934" lengthAdjust="spacingAndGlyphs"
text-anchor="middle" opacity="0">I_DAC_AC</text>
<path d="M6820 29320
L6820 28926
" />
<path d="M6913 29357
L7213 29357
" />
<path d="M7307 29320
L7307 28926
L7401 28926
L7457 28945
L7495 28982
L7513 29020
L7532 29095
L7532 29151
L7513 29226
L7495 29263
L7457 29301
L7401 29320
L7307 29320
" />
<path d="M7682 29207
L7870 29207
" />
<path d="M7645 29320
L7776 28926
L7907 29320
" />
<path d="M8263 29282
L8245 29301
L8188 29320
L8151 29320
L8095 29301
L8057 29263
L8038 29226
L8020 29151
L8020 29095
L8038 29020
L8057 28982
L8095 28945
L8151 28926
L8188 28926
L8245 28945
L8263 28963
" />
<path d="M8338 29357
L8638 29357
" />
<path d="M8713 29207
L8901 29207
" />
<path d="M8676 29320
L8807 28926
L8938 29320
" />
<path d="M9294 29282
L9276 29301
L9219 29320
L9182 29320
L9126 29301
L9088 29263
L9069 29226
L9051 29151
L9051 29095
L9069 29020
L9088 28982
L9126 28945
L9182 28926
L9219 28926
L9276 28945
L9294 28963
" />
<text x="5298.23" y="7088.81"
textLength="2570.21" font-size="524.934" lengthAdjust="spacingAndGlyphs"
text-anchor="middle" opacity="0">SCLK_5V</text>
<path d="M4126 7051
L4182 7070
L4276 7070
L4313 7051
L4332 7032
L4351 6995
L4351 6957
L4332 6920
L4313 6901
L4276 6882
L4201 6863
L4163 6845
L4145 6826
L4126 6788
L4126 6751
L4145 6713
L4163 6695
L4201 6676
L4295 6676
L4351 6695
" />
<path d="M4745 7032
L4726 7051
L4670 7070
L4632 7070
L4576 7051
L4538 7013
L4520 6976
L4501 6901
L4501 6845
L4520 6770
L4538 6732
L4576 6695
L4632 6676
L4670 6676
L4726 6695
L4745 6713
" />
<path d="M5101 7070
L4913 7070
L4913 6676
" />
<path d="M5232 7070
L5232 6676
" />
<path d="M5457 7070
L5288 6845
" />
<path d="M5457 6676
L5232 6901
" />
<path d="M5532 7107
L5832 7107
" />
<path d="M6113 6676
L5926 6676
L5907 6863
L5926 6845
L5963 6826
L6057 6826
L6095 6845
L6113 6863
L6132 6901
L6132 6995
L6113 7032
L6095 7051
L6057 7070
L5963 7070
L5926 7051
L5907 7032
" />
<path d="M6244 6676
L6376 7070
L6507 6676
" />
<text x="13348.2" y="8164"
textLength="2438.98" font-size="524.934" lengthAdjust="spacingAndGlyphs"
text-anchor="middle" opacity="0">ADC_INA</text>
<path d="M12242 8032
L12429 8032
" />
<path d="M12204 8145
L12335 7751
L12467 8145
" />
<path d="M12598 8145
L12598 7751
L12692 7751
L12748 7770
L12785 7807
L12804 7845
L12823 7920
L12823 7976
L12804 8051
L12785 8089
L12748 8126
L12692 8145
L12598 8145
" />
<path d="M13216 8107
L13198 8126
L13142 8145
L13104 8145
L13048 8126
L13010 8089
L12992 8051
L12973 7976
L12973 7920
L12992 7845
L13010 7807
L13048 7770
L13104 7751
L13142 7751
L13198 7770
L13216 7789
" />
<path d="M13291 8182
L13591 8182
" />
<path d="M13685 8145
L13685 7751
" />
<path d="M13873 8145
L13873 7751
L14098 8145
L14098 7751
" />
<path d="M14266 8032
L14454 8032
" />
<path d="M14229 8145
L14360 7751
L14491 8145
" />
<text x="13348.2" y="8813.61"
textLength="1220.38" font-size="524.934" lengthAdjust="spacingAndGlyphs"
text-anchor="middle" opacity="0">FILT</text>
<path d="M13001 8588
L12870 8588
" />
<path d="M12870 8794
L12870 8401
L13057 8401
" />
<path d="M13207 8794
L13207 8401
" />
<path d="M13582 8794
L13395 8794
L13395 8401
" />
<path d="M13657 8401
L13882 8401
" />
<path d="M13770 8794
L13770 8401
" />
<text x="8748.23" y="23214"
textLength="2607.71" font-size="524.934" lengthAdjust="spacingAndGlyphs"
text-anchor="start" opacity="0">I/V Gain</text>
<path d="M8880 23195
L8880 22801
" />
<path d="M9349 22782
L9011 23288
" />
<path d="M9424 22801
L9555 23195
L9686 22801
" />
<path d="M10323 22820
L10286 22801
L10230 22801
L10173 22820
L10136 22857
L10117 22895
L10098 22970
L10098 23026
L10117 23101
L10136 23139
L10173 23176
L10230 23195
L10267 23195
L10323 23176
L10342 23157
L10342 23026
L10267 23026
" />
<path d="M10680 23195
L10680 22989
L10661 22951
L10623 22932
L10548 22932
L10511 22951
" />
<path d="M10680 23176
L10642 23195
L10548 23195
L10511 23176
L10492 23139
L10492 23101
L10511 23064
L10548 23045
L10642 23045
L10680 23026
" />
<path d="M10867 23195
L10867 22932
" />
<path d="M10867 22801
L10848 22820
L10867 22839
L10886 22820
L10867 22801
L10867 22839
" />
<path d="M11055 22932
L11055 23195
" />
<path d="M11055 22970
L11073 22951
L11111 22932
L11167 22932
L11205 22951
L11223 22989
L11223 23195
" />
<text x="8748.23" y="23863.6"
textLength="1895.29" font-size="524.934" lengthAdjust="spacingAndGlyphs"
text-anchor="start" opacity="0">Select</text>
<path d="M8861 23826
L8917 23844
L9011 23844
L9049 23826
L9067 23807
L9086 23769
L9086 23732
L9067 23694
L9049 23676
L9011 23657
L8936 23638
L8899 23619
L8880 23601
L8861 23563
L8861 23526
L8880 23488
L8899 23469
L8936 23451
L9030 23451
L9086 23469
" />
<path d="M9405 23826
L9367 23844
L9292 23844
L9255 23826
L9236 23788
L9236 23638
L9255 23601
L9292 23582
L9367 23582
L9405 23601
L9424 23638
L9424 23676
L9236 23713
" />
<path d="M9649 23844
L9611 23826
L9592 23788
L9592 23451
" />
<path d="M9948 23826
L9911 23844
L9836 23844
L9798 23826
L9780 23788
L9780 23638
L9798 23601
L9836 23582
L9911 23582
L9948 23601
L9967 23638
L9967 23676
L9780 23713
" />
<path d="M10305 23826
L10267 23844
L10192 23844
L10155 23826
L10136 23807
L10117 23769
L10117 23657
L10136 23619
L10155 23601
L10192 23582
L10267 23582
L10305 23601
" />
<path d="M10417 23582
L10567 23582
" />
<path d="M10473 23451
L10473 23788
L10492 23826
L10530 23844
L10567 23844
" />
<text x="9548.23" y="21838.8"
textLength="1670.32" font-size="524.934" lengthAdjust="spacingAndGlyphs"
text-anchor="middle" opacity="0">1E-2</text>
<path d="M9051 21820
L8826 21820
" />
<path d="M8938 21820
L8938 21426
L8901 21482
L8863 21520
L8826 21538
" />
<path d="M9220 21613
L9351 21613
" />
<path d="M9407 21820
L9220 21820
L9220 21426
L9407 21426
" />
<path d="M9576 21670
L9876 21670
" />
<path d="M10045 21463
L10063 21445
L10101 21426
L10195 21426
L10232 21445
L10251 21463
L10270 21501
L10270 21538
L10251 21595
L10026 21820
L10270 21820
" />
<text x="9548.23" y="20838.8"
textLength="1670.32" font-size="524.934" lengthAdjust="spacingAndGlyphs"
text-anchor="middle" opacity="0">1E-3</text>
<path d="M9051 20820
L8826 20820
" />
<path d="M8938 20820
L8938 20426
L8901 20482
L8863 20520
L8826 20538
" />
<path d="M9220 20613
L9351 20613
" />
<path d="M9407 20820
L9220 20820
L9220 20426
L9407 20426
" />
<path d="M9576 20670
L9876 20670
" />
<path d="M10026 20426
L10270 20426
L10138 20576
L10195 20576
L10232 20595
L10251 20613
L10270 20651
L10270 20745
L10251 20782
L10232 20801
L10195 20820
L10082 20820
L10045 20801
L10026 20782
" />
<text x="9548.23" y="19838.8"
textLength="1670.32" font-size="524.934" lengthAdjust="spacingAndGlyphs"
text-anchor="middle" opacity="0">1E-4</text>
<path d="M9051 19820
L8826 19820
" />
<path d="M8938 19820
L8938 19426
L8901 19482
L8863 19520
L8826 19538
" />
<path d="M9220 19613
L9351 19613
" />
<path d="M9407 19820
L9220 19820
L9220 19426
L9407 19426
" />
<path d="M9576 19670
L9876 19670
" />
<path d="M10232 19557
L10232 19820
" />
<path d="M10138 19407
L10045 19688
L10288 19688
" />
<text x="9548.23" y="18838.8"
textLength="1670.32" font-size="524.934" lengthAdjust="spacingAndGlyphs"
text-anchor="middle" opacity="0">1E-5</text>
<path d="M9051 18820
L8826 18820
" />
<path d="M8938 18820
L8938 18426
L8901 18482
L8863 18520
L8826 18538
" />
<path d="M9220 18613
L9351 18613
" />
<path d="M9407 18820
L9220 18820
L9220 18426
L9407 18426
" />
<path d="M9576 18670
L9876 18670
" />
<path d="M10251 18426
L10063 18426
L10045 18613
L10063 18595
L10101 18576
L10195 18576
L10232 18595
L10251 18613
L10270 18651
L10270 18745
L10251 18782
L10232 18801
L10195 18820
L10101 18820
L10063 18801
L10045 18782
" />
<text x="5048.23" y="22438.8"
textLength="2438.98" font-size="524.934" lengthAdjust="spacingAndGlyphs"
text-anchor="middle" opacity="0">PWR_ON</text>
<path d="M3960 22420
L3960 22026
L4110 22026
L4148 22045
L4167 22063
L4185 22101
L4185 22157
L4167 22195
L4148 22213
L4110 22232
L3960 22232
" />
<path d="M4317 22026
L4410 22420
L4485 22138
L4560 22420
L4654 22026
" />
<path d="M5029 22420
L4898 22232
" />
<path d="M4804 22420
L4804 22026
L4954 22026
L4991 22045
L5010 22063
L5029 22101
L5029 22157
L5010 22195
L4991 22213
L4954 22232
L4804 22232
" />
<path d="M5104 22457
L5404 22457
" />
<path d="M5573 22026
L5648 22026
L5685 22045
L5723 22082
L5741 22157
L5741 22288
L5723 22363
L5685 22401
L5648 22420
L5573 22420
L5535 22401
L5498 22363
L5479 22288
L5479 22157
L5498 22082
L5535 22045
L5573 22026
" />
<path d="M5910 22420
L5910 22026
L6135 22420
L6135 22026
" />
<text x="13298.2" y="6338.81"
textLength="1201.63" font-size="524.934" lengthAdjust="spacingAndGlyphs"
text-anchor="middle" opacity="0">AUX</text>
<path d="M12810 6207
L12998 6207
" />
<path d="M12773 6320
L12904 5926
L13035 6320
" />
<path d="M13166 5926
L13166 6245
L13185 6282
L13204 6301
L13241 6320
L13316 6320
L13354 6301
L13373 6282
L13391 6245
L13391 5926
" />
<path d="M13541 5926
L13804 6320
" />
<path d="M13804 5926
L13541 6320
" />
<text x="7298.23" y="6338.81"
textLength="1595.33" font-size="524.934" lengthAdjust="spacingAndGlyphs"
text-anchor="middle" opacity="0">BUSY</text>
<path d="M6763 6113
L6820 6132
L6838 6151
L6857 6188
L6857 6245
L6838 6282
L6820 6301
L6782 6320
L6632 6320
L6632 5926
L6763 5926
L6801 5945
L6820 5963
L6838 6001
L6838 6038
L6820 6076
L6801 6095
L6763 6113
L6632 6113
" />
<path d="M7026 5926
L7026 6245
L7045 6282
L7063 6301
L7101 6320
L7176 6320
L7213 6301
L7232 6282
L7251 6245
L7251 5926
" />
<path d="M7420 6301
L7476 6320
L7570 6320
L7607 6301
L7626 6282
L7645 6245
L7645 6207
L7626 6170
L7607 6151
L7570 6132
L7495 6113
L7457 6095
L7438 6076
L7420 6038
L7420 6001
L7438 5963
L7457 5945
L7495 5926
L7588 5926
L7645 5945
" />
<path d="M7888 6132
L7888 6320
" />
<path d="M7757 5926
L7888 6132
L8020 5926
" />
<text x="10298.2" y="6338.81"
textLength="751.687" font-size="524.934" lengthAdjust="spacingAndGlyphs"
text-anchor="middle" opacity="0">TX</text>
<path d="M9998 5926
L10223 5926
" />
<path d="M10110 6320
L10110 5926
" />
<path d="M10316 5926
L10579 6320
" />
<path d="M10579 5926
L10316 6320
" />
<text x="4298.23" y="6338.81"
textLength="845.426" font-size="524.934" lengthAdjust="spacingAndGlyphs"
text-anchor="middle" opacity="0">EN</text>
<path d="M4007 6113
L4138 6113
" />
<path d="M4195 6320
L4007 6320
L4007 5926
L4195 5926
" />
<path d="M4363 6320
L4363 5926
L4588 6320
L4588 5926
" />
<g transform="rotate(-90 12248.2 591.957)">
<text x="12248.2" y="788.808"
textLength="1201.63" font-size="524.934" lengthAdjust="spacingAndGlyphs"
text-anchor="middle" opacity="0">AUX</text>
</g>
<path d="M12313 1079
L12313 891
" />
<path d="M12426 1116
L12032 985
L12426 854
" />
<path d="M12032 723
L12351 723
L12388 704
L12407 685
L12426 648
L12426 573
L12407 535
L12388 516
L12351 498
L12032 498
" />
<path d="M12032 348
L12426 85
" />
<path d="M12032 85
L12426 348
" />
<g transform="rotate(-90 11548.2 2141.96)">
<text x="11548.2" y="2338.81"
textLength="1351.61" font-size="524.934" lengthAdjust="spacingAndGlyphs"
text-anchor="middle" opacity="0">TRIG</text>
</g>
<path d="M11332 2741
L11332 2516
" />
<path d="M11726 2629
L11332 2629
" />
<path d="M11726 2160
L11538 2291
" />
<path d="M11726 2385
L11332 2385
L11332 2235
L11351 2198
L11370 2179
L11407 2160
L11463 2160
L11501 2179
L11520 2198
L11538 2235
L11538 2385
" />
<path d="M11726 1991
L11332 1991
" />
<path d="M11351 1598
L11332 1635
L11332 1692
L11351 1748
L11388 1785
L11426 1804
L11501 1823
L11557 1823
L11632 1804
L11670 1785
L11707 1748
L11726 1692
L11726 1654
L11707 1598
L11688 1579
L11557 1579
L11557 1654
" />
<g transform="rotate(-90 8548.23 2141.96)">
<text x="8548.23" y="2338.81"
textLength="1126.64" font-size="524.934" lengthAdjust="spacingAndGlyphs"
text-anchor="middle" opacity="0">CAL</text>
</g>
<path d="M8688 2348
L8707 2366
L8726 2423
L8726 2460
L8707 2516
L8670 2554
L8632 2573
L8557 2591
L8501 2591
L8426 2573
L8388 2554
L8351 2516
L8332 2460
L8332 2423
L8351 2366
L8370 2348
" />
<path d="M8613 2198
L8613 2010
" />
<path d="M8726 2235
L8332 2104
L8726 1973
" />
<path d="M8726 1654
L8726 1841
L8332 1841
" />
<g transform="rotate(-90 5548.23 2141.96)">
<text x="5548.23" y="2338.81"
textLength="1857.8" font-size="524.934" lengthAdjust="spacingAndGlyphs"
text-anchor="middle" opacity="0">RESET</text>
</g>
<path d="M5726 2713
L5538 2844
" />
<path d="M5726 2938
L5332 2938
L5332 2788
L5351 2751
L5370 2732
L5407 2713
L5463 2713
L5501 2732
L5520 2751
L5538 2788
L5538 2938
" />
<path d="M5520 2545
L5520 2413
" />
<path d="M5726 2357
L5726 2545
L5332 2545
L5332 2357
" />
<path d="M5707 2207
L5726 2151
L5726 2057
L5707 2020
L5688 2001
L5651 1982
L5613 1982
L5576 2001
L5557 2020
L5538 2057
L5520 2132
L5501 2170
L5482 2188
L5445 2207
L5407 2207
L5370 2188
L5351 2170
L5332 2132
L5332 2038
L5351 1982
" />
<path d="M5520 1813
L5520 1682
" />
<path d="M5726 1626
L5726 1813
L5332 1813
L5332 1626
" />
<path d="M5332 1513
L5332 1288
" />
<path d="M5726 1401
L5332 1401
" />
</g>
<g style="fill:#000000; fill-opacity:0.0; 
stroke:#000000; stroke-width:47.2441; stroke-opacity:1; 
stroke-linecap:round; stroke-linejoin:round;">
<path d="M2300 21307
L2300 21976
" />
<path d="M2300 21976
L3540 21976
" />
<path d="M2300 21307
L3540 21307
" />
<path d="M2300 22607
L2300 23276
" />
<path d="M2300 23276
L3540 23276
" />
<path d="M2300 22607
L3540 22607
" />
<path d="M1821 26115
L1821 25068
" />
<path d="M798 26115
L1821 26115
" />
<path d="M798 25068
L1821 25068
" />
<path d="M798 26115
L798 25068
" />
<path d="M298 26115
L-225 26115
" />
<path d="M-225 26115
L-225 25591
" />
<path d="M5774 15641
L6821 15641
" />
<path d="M5774 15641
L5774 17665
" />
<path d="M5774 17665
L6821 17665
" />
<path d="M6821 15641
L6821 17665
" />
<path d="M6821 14618
L6821 15141
" />
<path d="M6298 14618
L6821 14618
" />
<path d="M5155 20592
L5040 20592
" />
<path d="M5155 20191
L5040 20191
" />
<path d="M17071 24506
L17071 20277
" />
<path d="M14985 24506
L14985 20277
" />
<path d="M14804 24506
L14804 20277
" />
<path d="M17292 24506
L17292 20277
" />
<path d="M14804 24506
L17292 24506
" />
<path d="M14804 20277
L17292 20277
" />
<path d="M17095 24600
L17386 24600
" />
<path d="M17386 24600
L17386 24403
" />
<path d="M7705 11892
L7590 11892
" />
<path d="M7705 11491
L7590 11491
" />
<path d="M7705 12992
L7590 12992
" />
<path d="M7705 12591
L7590 12591
" />
<path d="M11842 5742
L11842 5541
" />
<path d="M12253 5742
L12253 5541
" />
<path d="M13613 5102
L12644 5102
" />
<path d="M12644 5102
L12644 5681
" />
<path d="M12644 5681
L13613 5681
" />
<path d="M3605 7792
L3490 7792
" />
<path d="M3605 7391
L3490 7391
" />
<path d="M7947 15199
L7947 15084
" />
<path d="M8349 15199
L8349 15084
" />
<path d="M12447 15199
L12447 15084
" />
<path d="M12849 15199
L12849 15084
" />
<path d="M3155 18042
L3040 18042
" />
<path d="M3155 17641
L3040 17641
" />
<path d="M14590 12691
L14705 12691
" />
<path d="M14590 13092
L14705 13092
" />
<path d="M6090 12591
L6205 12591
" />
<path d="M6090 12992
L6205 12992
" />
<path d="M6749 22834
L6749 22949
" />
<path d="M6347 22834
L6347 22949
" />
<path d="M8105 26342
L7990 26342
" />
<path d="M8105 25941
L7990 25941
" />
<path d="M8105 25092
L7990 25092
" />
<path d="M8105 24691
L7990 24691
" />
<path d="M12847 23449
L12847 23334
" />
<path d="M13249 23449
L13249 23334
" />
<path d="M9605 27592
L9490 27592
" />
<path d="M9605 27191
L9490 27191
" />
<path d="M8105 23842
L7990 23842
" />
<path d="M8105 23441
L7990 23441
" />
<path d="M9205 14442
L9090 14442
" />
<path d="M9205 14041
L9090 14041
" />
<path d="M11090 7791
L11205 7791
" />
<path d="M11090 8192
L11205 8192
" />
<path d="M11090 9041
L11205 9041
" />
<path d="M11090 9442
L11205 9442
" />
<path d="M9590 7791
L9705 7791
" />
<path d="M9590 8192
L9705 8192
" />
<path d="M12105 27592
L11990 27592
" />
<path d="M12105 27191
L11990 27191
" />
<path d="M13090 12691
L13205 12691
" />
<path d="M13090 13092
L13205 13092
" />
<path d="M9590 9041
L9705 9041
" />
<path d="M9590 9442
L9705 9442
" />
<path d="M13090 11441
L13205 11441
" />
<path d="M13090 11842
L13205 11842
" />
<path d="M11705 14442
L11590 14442
" />
<path d="M11705 14041
L11590 14041
" />
<path d="M4783 21931
L5751 21931
" />
<path d="M5751 21931
L5751 21352
" />
<path d="M5751 21352
L4783 21352
" />
<path d="M4613 5102
L3644 5102
" />
<path d="M3644 5102
L3644 5681
" />
<path d="M3644 5681
L4613 5681
" />
<path d="M7613 5102
L6644 5102
" />
<path d="M6644 5102
L6644 5681
" />
<path d="M6644 5681
L7613 5681
" />
<path d="M10613 5102
L9644 5102
" />
<path d="M9644 5102
L9644 5681
" />
<path d="M9644 5681
L10613 5681
" />
<path d="M17071 19006
L17071 14777
" />
<path d="M14985 19006
L14985 14777
" />
<path d="M14804 19006
L14804 14777
" />
<path d="M17292 19006
L17292 14777
" />
<path d="M14804 19006
L17292 19006
" />
<path d="M14804 14777
L17292 14777
" />
<path d="M17095 19100
L17386 19100
" />
<path d="M17386 19100
L17386 18903
" />
<path d="M10524 22165
L12571 22165
" />
<path d="M10524 19141
L10524 22165
" />
<path d="M12571 18118
L12571 22165
" />
<path d="M10524 19141
L11548 19141
" />
<path d="M11548 19141
L11548 18118
" />
<path d="M11548 18118
L12571 18118
" />
<path d="M10524 18641
L10524 18118
" />
<path d="M10524 18118
L11048 18118
" />
<path d="M2947 18936
L3148 18936
" />
<path d="M2947 19347
L3148 19347
" />
<path d="M3898 10347
L3697 10347
" />
<path d="M3898 9936
L3697 9936
" />
<path d="M14547 11436
L14748 11436
" />
<path d="M14547 11847
L14748 11847
" />
<path d="M6248 11897
L6047 11897
" />
<path d="M6248 11486
L6047 11486
" />
<path d="M9648 26347
L9447 26347
" />
<path d="M9648 25936
L9447 25936
" />
<path d="M9648 25097
L9447 25097
" />
<path d="M9648 24686
L9447 24686
" />
<path d="M8148 22597
L7947 22597
" />
<path d="M8148 22186
L7947 22186
" />
<path d="M12148 28847
L11947 28847
" />
<path d="M12148 28436
L11947 28436
" />
<path d="M13648 18347
L13447 18347
" />
<path d="M13648 17936
L13447 17936
" />
<path d="M13648 19597
L13447 19597
" />
<path d="M13648 19186
L13447 19186
" />
<path d="M13648 20847
L13447 20847
" />
<path d="M13648 20436
L13447 20436
" />
<path d="M13648 22097
L13447 22097
" />
<path d="M13648 21686
L13447 21686
" />
<path d="M2842 5742
L2842 5541
" />
<path d="M3253 5742
L3253 5541
" />
<path d="M5842 5742
L5842 5541
" />
<path d="M6253 5742
L6253 5541
" />
<path d="M8842 5742
L8842 5541
" />
<path d="M9253 5742
L9253 5541
" />
<path d="M2842 4242
L2842 4041
" />
<path d="M3253 4242
L3253 4041
" />
<path d="M5842 4242
L5842 4041
" />
<path d="M6253 4242
L6253 4041
" />
<path d="M8842 4242
L8842 4041
" />
<path d="M9253 4242
L9253 4041
" />
<path d="M11842 4242
L11842 4041
" />
<path d="M12253 4242
L12253 4041
" />
<path d="M2947 20186
L3148 20186
" />
<path d="M2947 20597
L3148 20597
" />
<path d="M2903 14541
L2903 14742
" />
<path d="M2492 14541
L2492 14742
" />
<path d="M7477 27571
L8619 27571
" />
<path d="M8619 27571
L8619 28712
" />
<path d="M8619 28712
L7477 28712
" />
<path d="M7477 28712
L7477 27571
" />
<path d="M4727 7321
L5869 7321
" />
<path d="M5869 7321
L5869 8462
" />
<path d="M5869 8462
L4727 8462
" />
<path d="M4727 8462
L4727 7321
" />
<path d="M15127 9021
L16269 9021
" />
<path d="M16269 9021
L16269 10162
" />
<path d="M16269 10162
L15127 10162
" />
<path d="M15127 10162
L15127 9021
" />
<path d="M3777 12871
L4919 12871
" />
<path d="M4919 12871
L4919 14012
" />
<path d="M4919 14012
L3777 14012
" />
<path d="M3777 14012
L3777 12871
" />
<path d="M12977 9021
L14119 9021
" />
<path d="M14119 9021
L14119 10162
" />
<path d="M14119 10162
L12977 10162
" />
<path d="M12977 10162
L12977 9021
" />
<path d="M7327 9021
L8469 9021
" />
<path d="M8469 9021
L8469 10162
" />
<path d="M8469 10162
L7327 10162
" />
<path d="M7327 10162
L7327 9021
" />
<path d="M6290 20141
L6290 20909
" />
<path d="M6290 20141
L6290 19374
" />
<path d="M8306 20141
L8306 20909
" />
<path d="M8306 20141
L8306 18783
" />
<path d="M3449 8031
L3646 8031
" />
<path d="M3449 9252
L3646 9252
" />
<path d="M3449 9252
L3449 8031
" />
<path d="M3646 9252
L3646 8031
" />
<path d="M11928.2 24657 A120 120 0.0 0 0 12168.2 24657" />
<path d="M12589 24656
L11507 24656
" />
<path d="M11507 26626
L12589 26626
" />
</g>
<g style="fill:#000000; fill-opacity:1.0; 
stroke:#000000; stroke-width:39.3701; stroke-opacity:1; 
stroke-linecap:round; stroke-linejoin:round;">
<path style="fill:#000000; fill-opacity:1.0; 
stroke:#000000; stroke-width:39.3701; stroke-opacity:1; 
stroke-linecap:round; stroke-linejoin:round;fill-rule:evenodd;"
d="M 9981.1,13792
9981.1,13892
9831.1,13892
9831.1,13792
" /> 
<path style="fill:#000000; fill-opacity:1.0; 
stroke:#000000; stroke-width:39.3701; stroke-opacity:1; 
stroke-linecap:round; stroke-linejoin:round;fill-rule:evenodd;"
d="M 8248.23,11718.5
8248.23,11568.5
8348.23,11568.5
8348.23,11718.5
" /> 
<path style="fill:#000000; fill-opacity:1.0; 
stroke:#000000; stroke-width:39.3701; stroke-opacity:1; 
stroke-linecap:round; stroke-linejoin:round;fill-rule:evenodd;"
d="M 10178,9691.96
10178,9591.96
10028,9591.96
10028,9691.96
" /> 
<path style="fill:#000000; fill-opacity:1.0; 
stroke:#000000; stroke-width:39.3701; stroke-opacity:1; 
stroke-linecap:round; stroke-linejoin:round;fill-rule:evenodd;"
d="M 12548.2,11128
12548.2,10978
12448.2,10978
12448.2,11128
" /> 
</g>
<g style="fill:#000000; fill-opacity:1.0; 
stroke:#000000; stroke-width:47.2441; stroke-opacity:1; 
stroke-linecap:round; stroke-linejoin:round;">
</g>
<g style="fill:#000000; fill-opacity:0.0; 
stroke:#000000; stroke-width:47.2441; stroke-opacity:1; 
stroke-linecap:round; stroke-linejoin:round;">
<path d="M11666 13206
L11863 13206
" />
<path d="M8933 13010
L8933 13206
" />
<path d="M9129 10276
L8933 10276
" />
<path d="M11863 10473
L11863 10276
" />
<path d="M11863 13206
L11863 13010
" />
<path d="M8933 13206
L9129 13206
" />
<path d="M8933 10276
L8933 10473
" />
<path d="M11863 10276
L11666 10276
" />
<path d="M4987 3323
L3609 3323
" />
<path d="M4987 960
L4987 3323
" />
<path d="M3609 960
L4987 960
" />
<path d="M3609 3323
L3609 960
" />
<path d="M7987 3323
L6609 3323
" />
<path d="M7987 960
L7987 3323
" />
<path d="M6609 960
L7987 960
" />
<path d="M6609 3323
L6609 960
" />
<path d="M10987 3323
L9609 3323
" />
<path d="M10987 960
L10987 3323
" />
<path d="M9609 960
L10987 960
" />
<path d="M9609 3323
L9609 960
" />
<path d="M13987 3323
L12609 3323
" />
<path d="M13987 960
L13987 3323
" />
<path d="M12609 960
L13987 960
" />
<path d="M12609 3323
L12609 960
" />
<path d="M5413 17971
L4683 17971
" />
<path d="M5413 18736
L5413 18447
" />
<path d="M4683 19212
L5413 19212
" />
<path d="M2737 23787
L3760 23787
" />
<path d="M2737 29575
L2737 23787
" />
<path d="M6359 23787
L6359 24535
" />
<path d="M5296 23787
L6359 23787
" />
<path d="M6359 29575
L2737 29575
" />
<path d="M6359 26110
L6359 29575
" />
<path d="M2658 24122
L2658 23708
" />
<path d="M3071 23708
L2658 23708
" />
</g>
<g style="fill:#000000; fill-opacity:0.0; 
stroke:#000000; stroke-width:78.7402; stroke-opacity:1; 
stroke-linecap:round; stroke-linejoin:round;">
<circle cx="11988.8" cy="17149.4" r="39.3701" /> 
</g>
<g style="fill:#000000; fill-opacity:0.0; 
stroke:#000000; stroke-width:50; stroke-opacity:1; 
stroke-linecap:round; stroke-linejoin:round;">
<path d="M11165 17236
L9630 17236
" />
<path d="M11165 15247
L9630 15247
" />
</g>
<g style="fill:#000000; fill-opacity:1.0; 
stroke:#000000; stroke-width:3.93701; stroke-opacity:1; 
stroke-linecap:round; stroke-linejoin:round;">
<path style="fill:#000000; fill-opacity:1.0; 
stroke:#000000; stroke-width:3.93701; stroke-opacity:1; 
stroke-linecap:round; stroke-linejoin:round;fill-rule:evenodd;"
d="M 16444.4,4873.41
16448.6,4871.28
16454.9,4872.33
16490.1,4880.15
16528.3,4888.14
16567.7,4895.93
16606.2,4903.17
16642,4909.52
16673.1,4914.62
16697.6,4918.12
16713.6,4919.68
16715.5,4919.72
16743.7,4916.44
16763.9,4906.06
16777.1,4887.88
16781.6,4875.25
16784,4846.04
16777,4816.47
16761.9,4789.15
16740,4766.67
16722,4755.55
16710.6,4751.58
16690.1,4745.98
16662.4,4739.2
16629.4,4731.68
16592.9,4723.88
16573.2,4719.87
16445.5,4694.27
16443.8,4665.33
16443.2,4649.13
16443.4,4638.63
16444,4636.4
16449.8,4637.45
16465,4640.38
16488,4644.9
16517.2,4650.7
16551.3,4657.46
16588.6,4664.89
16627.5,4672.68
16666.7,4680.51
16704.4,4688.09
16739.3,4695.11
16769.7,4701.26
16794.2,4706.23
16811.2,4709.72
16819.1,4711.41
16826.7,4714.69
16830.4,4721.89
16831.5,4736.16
16831.6,4741.71
16831.6,4769.04
16810.7,4765.82
16789.9,4762.6
16802.1,4775.97
16818.3,4800.41
16829.4,4830.97
16834.7,4863.73
16833.4,4894.79
16829.3,4910.54
16813.1,4939.13
16789.3,4961.37
16760.1,4975.68
16728.8,4980.46
16717.1,4979.33
16696.4,4976.24
16668.4,4971.51
16635.2,4965.46
16598.4,4958.41
16576,4953.96
16445.5,4927.6
16443.8,4898.49
16443.1,4881.65
Z" /> 
<path style="fill:#000000; fill-opacity:1.0; 
stroke:#000000; stroke-width:3.93701; stroke-opacity:1; 
stroke-linecap:round; stroke-linejoin:round;fill-rule:evenodd;"
d="M 16442.6,3842.19
16450,3815.67
16463.8,3792.44
16474.9,3779.46
16486.9,3768.37
16496.3,3765.84
16506.2,3772.16
16516.2,3783.32
16531.4,3801.66
16512.8,3821.38
16495.8,3846.78
16488.7,3875.1
16491.5,3904.68
16503.8,3933.86
16525.7,3961
16526.9,3962.19
16555.4,3983.33
16590,4000.09
16627.9,4011.9
16666.4,4018.14
16702.9,4018.22
16734.5,4011.56
16740.9,4008.94
16763.4,3993.26
16777.9,3971.34
16784.3,3944.96
16782.2,3915.87
16771.4,3885.83
16760,3867.06
16743.1,3843.58
16759.8,3827.65
16771.5,3818.41
16781.3,3816.3
16790.9,3822.16
16801.4,3836.81
16813.5,3859.12
16829.4,3900.58
16835,3941.42
16830.1,3980.37
16829.7,3981.69
16815.5,4016.61
16794.5,4043.14
16766.3,4061.56
16730.6,4072.14
16690.5,4075.21
16636.3,4070.89
16586.3,4058.61
16541.8,4038.97
16503.9,4012.63
16473.8,3980.21
16458.3,3954.58
16448.3,3932.59
16442.8,3914.45
16440.5,3894.76
16440.2,3875.56
Z" /> 
<path style="fill:#000000; fill-opacity:1.0; 
stroke:#000000; stroke-width:3.93701; stroke-opacity:1; 
stroke-linecap:round; stroke-linejoin:round;fill-rule:evenodd;"
d="M 16265.7,5892.15
16265.8,5848.7
16266,5812.46
16266.4,5782.77
16266.8,5758.99
16267.4,5740.45
16268.1,5726.52
16269,5716.54
16270.1,5709.86
16271.3,5705.83
16272.7,5703.8
16274.3,5703.11
16275,5703.07
16283.6,5704.13
16301.1,5707.08
16325.5,5711.56
16354.9,5717.2
16381.6,5722.51
16413,5728.81
16440.7,5734.25
16462.8,5738.49
16477.4,5741.17
16482.7,5741.96
16484.5,5736.78
16485.7,5722.71
16486.2,5701.98
16485.9,5679.56
16484.3,5617.16
16267.7,5572.51
16266.1,5485.01
16265.9,5455.26
16266.2,5429.84
16267.1,5410.64
16268.4,5399.52
16269.3,5397.51
16275.5,5398.58
16291.6,5401.63
16316.5,5406.46
16349.1,5412.87
16388.4,5420.65
16433.4,5429.59
16483,5439.49
16536.1,5450.14
16550.7,5453.07
16604.6,5463.87
16655,5473.98
16701.1,5483.19
16741.7,5491.29
16775.8,5498.08
16802.4,5503.36
16820.5,5506.92
16829,5508.54
16829.5,5508.62
16830.2,5513.87
16830.8,5528.37
16831.2,5550.26
16831.5,5577.69
16831.6,5597.62
16831.6,5686.61
16819.1,5683.55
16801.8,5679.66
16778.3,5674.86
16750.8,5669.51
16721.2,5663.98
16691.5,5658.64
16663.9,5653.84
16640.2,5649.96
16622.7,5647.35
16613.2,5646.38
16612.2,5646.52
16611,5652.92
16610.1,5667.98
16609.5,5689.21
16609.3,5706.95
16609.6,5733.35
16610.5,5750.69
16612.5,5761.01
16615.7,5766.36
16618.9,5768.2
16627.2,5770.42
16644.5,5774.37
16668.9,5779.62
16698.4,5785.76
16728.6,5791.88
16828.8,5811.9
16830.3,5899.15
16830.7,5933.36
16830.5,5957.82
16829.6,5973.89
16827.9,5982.93
16825.3,5986.29
16824.6,5986.4
16817.6,5985.34
16801.1,5982.33
16776.1,5977.59
16744,5971.38
16706,5963.94
16663.3,5955.51
16617.3,5946.33
16613.3,5945.54
16409.3,5904.68
16409.3,5978.87
16409.5,6006.13
16409.8,6028.88
16410.2,6045.1
16410.8,6052.74
16410.9,6053.07
16416.6,6054.12
16431.9,6057.13
16455.7,6061.84
16486.8,6068.03
16524.1,6075.46
16566.3,6083.9
16612.2,6093.09
16620.5,6094.74
16666.9,6104.04
16709.8,6112.62
16748,6120.24
16780.3,6126.66
16805.5,6131.65
16822.4,6134.96
16829.7,6136.37
16830,6136.4
16830.5,6141.65
16831,6156.15
16831.3,6178.04
16831.5,6205.47
16831.6,6225.4
16831.6,6314.39
16819.1,6311.41
16809,6309.23
16790.2,6305.32
16764,6299.97
16731.9,6293.49
16695.4,6286.16
16656.1,6278.28
16615.3,6270.15
16574.6,6262.06
16535.5,6254.31
16499.4,6247.19
16467.8,6241
16442.2,6236.03
16424.1,6232.58
16415,6230.94
16414.2,6230.85
16413.1,6236.2
16412,6251.46
16411.1,6275.42
16410.4,6306.87
16409.8,6344.6
16409.5,6387.41
16409.3,6430.39
16409.3,6629.93
16437.4,6635.94
16453.3,6639.57
16465.3,6641.96
16474.2,6641.89
16480.3,6638.15
16484.1,6629.53
16486.2,6614.81
16487.1,6592.77
16487.2,6562.21
16487.1,6521.9
16487.1,6516.36
16487.2,6474.28
16487.7,6442.25
16488.5,6419.19
16489.7,6404.05
16491.3,6395.76
16493.5,6393.25
16494.1,6393.36
16502.2,6395.44
16518.6,6398.94
16540.5,6403.28
16555.2,6406.08
16609.3,6416.22
16609.3,6542.6
16609.3,6583.57
16609.3,6614.82
16609.9,6637.74
16611.5,6653.7
16614.3,6664.11
16618.9,6670.34
16625.6,6673.78
16634.9,6675.82
16647,6677.85
16648.2,6678.07
16664.3,6681.31
16676.9,6684.27
16677.4,6684.41
16680.5,6684.63
16682.9,6682.42
16684.6,6676.46
16685.8,6665.47
16686.6,6648.12
16686.9,6623.12
16687.1,6589.16
16687.1,6561.78
16687.2,6521.16
16687.4,6490.33
16688,6467.95
16688.9,6452.71
16690.4,6443.28
16692.4,6438.33
16695.1,6436.53
16696.5,6436.4
16705.4,6437.43
16722.7,6440.21
16745.7,6444.3
16768.7,6448.66
16831.6,6460.91
16831.6,6891.68
16813.5,6888.09
16804.5,6886.28
16785.8,6882.5
16758.5,6876.97
16723.8,6869.93
16682.7,6861.6
16636.4,6852.23
16586.2,6842.04
16533,6831.26
16531.6,6830.96
16267.7,6777.42
16266.3,6240.24
16266,6151.01
16265.8,6072.23
16265.7,6003.26
16265.7,5943.45
Z" /> 
<path style="fill:#000000; fill-opacity:1.0; 
stroke:#000000; stroke-width:3.93701; stroke-opacity:1; 
stroke-linecap:round; stroke-linejoin:round;fill-rule:evenodd;"
d="M 16466.1,5022.07
16482.9,5026.12
16495.8,5031.59
16498.1,5033.2
16504.2,5038.57
16517.5,5050.39
16537.1,5067.71
16561.8,5089.61
16590.6,5115.15
16622.4,5143.38
16642.7,5161.36
16778.8,5282.14
16780.3,5180.82
16781.8,5079.51
16799.1,5082.96
16813.7,5085.42
16823.9,5086.4
16826.4,5088.14
16828.2,5094.14
16829.6,5105.56
16830.6,5123.57
16831.2,5149.34
16831.5,5184.03
16831.6,5222.51
16831.6,5358.62
16818,5358.62
16801.5,5356.52
16791.6,5353.67
16784.5,5348.9
16770.2,5337.63
16749.7,5320.75
16724.1,5299.16
16694.5,5273.76
16662,5245.44
16637.1,5223.58
16495.5,5098.45
16493.9,5192.42
16493.4,5227.41
16492.6,5252.72
16491.1,5269.79
16488.4,5280.06
16483.8,5284.96
16476.9,5285.93
16467.2,5284.39
16460,5282.93
16442.7,5279.46
16442.7,5018.31
Z" /> 
<path style="fill:#000000; fill-opacity:1.0; 
stroke:#000000; stroke-width:3.93701; stroke-opacity:1; 
stroke-linecap:round; stroke-linejoin:round;fill-rule:evenodd;"
d="M 16443.3,4323.59
16455.8,4296.37
16462.4,4287.88
16476.2,4272.51
16495.2,4293.95
16514.3,4315.39
16502.1,4331.92
16491.9,4354.54
16490.2,4381.03
16496.9,4408.29
16505.6,4424.86
16515.7,4438.86
16526.5,4450.34
16539.5,4459.94
16556.2,4468.28
16578,4475.97
16606.4,4483.66
16643,4491.95
16685.3,4500.72
16721.3,4508
16754.2,4514.69
16782.2,4520.42
16803.5,4524.84
16816.5,4527.57
16819.1,4528.14
16826.6,4531.34
16830.3,4538.42
16831.5,4552.49
16831.6,4558.73
16831.3,4574.55
16830.5,4584.56
16829.9,4586.4
16824.2,4585.35
16809.1,4582.42
16786.1,4577.9
16756.9,4572.1
16722.9,4565.34
16685.6,4557.91
16646.7,4550.12
16607.6,4542.29
16569.8,4534.71
16535,4527.69
16504.6,4521.55
16480.1,4516.58
16463.1,4513.09
16455.2,4511.4
16447.6,4508.11
16443.9,4500.91
16442.7,4486.64
16442.7,4481.09
16442.7,4453.77
16484.3,4460.2
16472.5,4446.91
16453.6,4418.95
16442.4,4387.39
16438.9,4354.77
Z" /> 
<path style="fill:#000000; fill-opacity:1.0; 
stroke:#000000; stroke-width:3.93701; stroke-opacity:1; 
stroke-linecap:round; stroke-linejoin:round;fill-rule:evenodd;"
d="M 16443.2,4141.62
16445.4,4133.84
16450.1,4132.45
16452.4,4133.01
16460.1,4134.75
16477.3,4138.32
16502.6,4143.42
16534.7,4149.8
16572.2,4157.17
16613.6,4165.26
16637.1,4169.83
16680.1,4178.18
16719.9,4185.97
16755,4192.9
16784.2,4198.72
16806,4203.13
16819,4205.86
16821.8,4206.55
16828,4211.03
16830.9,4221.6
16831.6,4236.78
16831.3,4252.5
16830.5,4262.42
16829.9,4264.18
16824.2,4263.13
16809.1,4260.2
16786.1,4255.68
16756.9,4249.88
16722.9,4243.12
16685.6,4235.69
16646.7,4227.9
16607.6,4220.07
16569.8,4212.49
16535,4205.47
16504.6,4199.33
16480.1,4194.36
16463.1,4190.87
16455.2,4189.17
16447.7,4185.96
16443.9,4178.93
16442.7,4164.97
16442.7,4158.14
Z" /> 
<path style="fill:#000000; fill-opacity:1.0; 
stroke:#000000; stroke-width:3.93701; stroke-opacity:1; 
stroke-linecap:round; stroke-linejoin:round;fill-rule:evenodd;"
d="M 16265.3,3587.46
16267.7,3575.34
16271.9,3569.77
16272.3,3569.74
16279.9,3570.79
16296.5,3573.73
16320.2,3578.18
16349,3583.79
16376,3589.18
16407.1,3595.45
16434.2,3600.88
16455.5,3605.12
16469.2,3607.81
16473.6,3608.62
16472,3604.19
16466.3,3592.67
16459.4,3579.46
16444.9,3543.32
16439,3506.47
16442.1,3471.99
16442.8,3469.3
16455.7,3441.66
16476.9,3418.54
16504.2,3401.7
16535.1,3392.88
16548.2,3391.99
16556.7,3393.04
16574.2,3395.96
16598.8,3400.38
16628.5,3405.93
16661.5,3412.23
16695.8,3418.91
16729.5,3425.6
16760.8,3431.93
16787.7,3437.53
16808.4,3442.02
16820.8,3445.04
16821.8,3445.33
16828,3449.91
16830.9,3460.6
16831.6,3475.66
16831.2,3491.39
16830.4,3501.31
16829.8,3503.07
16824.1,3502.02
16809.1,3499.09
16786.3,3494.57
16757.2,3488.78
16723.5,3482.03
16703.8,3478.07
16655.4,3468.55
16616.6,3461.47
16586,3456.75
16562.4,3454.28
16544.5,3453.98
16531,3455.76
16520.7,3459.52
16513,3464.48
16497.6,3483.01
16490.4,3506.24
16490.9,3532.08
16498.3,3558.49
16512.1,3583.4
16531.8,3604.76
16556.6,3620.5
16559.3,3621.68
16570.6,3625.16
16590.7,3630.27
16617.9,3636.56
16650.2,3643.58
16685.6,3650.88
16695.5,3652.85
16730.5,3659.84
16762.3,3666.25
16789,3671.72
16809,3675.89
16820.3,3678.39
16821.8,3678.78
16828,3683.25
16830.9,3693.81
16831.6,3709
16831.3,3724.73
16830.6,3734.64
16830,3736.4
16823.4,3735.33
16807.2,3732.27
16782.8,3727.49
16751.2,3721.25
16713.9,3713.78
16672.1,3705.37
16627,3696.24
16579.8,3686.68
16531.8,3676.92
16484.4,3667.22
16438.7,3657.85
16395.9,3649.05
16357.4,3641.08
16324.4,3634.2
16298.2,3628.66
16279.9,3624.71
16271,3622.62
16270.3,3622.39
16266.4,3615.08
16264.8,3602.07
Z" /> 
<path style="fill:#000000; fill-opacity:1.0; 
stroke:#000000; stroke-width:3.93701; stroke-opacity:1; 
stroke-linecap:round; stroke-linejoin:round;fill-rule:evenodd;"
d="M 16292.4,4799.73
16314.5,4803.03
16327.8,4806.96
16334.5,4813.39
16336.8,4824.21
16337.1,4837.25
16337.1,4864.68
16316.3,4860.79
16293.2,4856.27
16278.8,4852.15
16271,4846.76
16267.5,4838.46
16266.1,4825.57
16265.9,4822.77
16264.2,4795.99
Z" /> 
<path style="fill:#000000; fill-opacity:1.0; 
stroke:#000000; stroke-width:3.93701; stroke-opacity:1; 
stroke-linecap:round; stroke-linejoin:round;fill-rule:evenodd;"
d="M 16267.8,4649.66
16276.3,4646.27
16292.6,4648
16302,4649.79
16334.3,4656.25
16336,4685.22
16336.2,4701.37
16334.8,4711.78
16333.2,4713.94
16325.7,4712.64
16311.1,4709.53
16298.2,4706.61
16280.9,4702.2
16271.6,4697.7
16267.5,4690.68
16265.9,4678.71
16265.9,4678.48
16265.1,4659.84
Z" /> 
<path style="fill:#000000; fill-opacity:1.0; 
stroke:#000000; stroke-width:3.93701; stroke-opacity:1; 
stroke-linecap:round; stroke-linejoin:round;fill-rule:evenodd;"
d="M 16265.3,4109.6
16267.9,4101.12
16275,4098.06
16288.6,4099.36
16309.1,4103.53
16337.1,4109.54
16337.1,4136.86
16336.3,4152.56
16334.1,4162.44
16332.5,4164.18
16324.9,4163.16
16310,4160.51
16296.4,4157.86
16264.9,4151.53
16264.9,4124.52
Z" /> 
</g>
<g style="fill:#000000; fill-opacity:0.0; 
stroke:#000000; stroke-width:3.93701; stroke-opacity:1; 
stroke-linecap:round; stroke-linejoin:round;">
</g>
<g style="fill:#000000; fill-opacity:0.0; 
stroke:#000000; stroke-width:59.0551; stroke-opacity:1; 
stroke-linecap:round; stroke-linejoin:round;">
<text x="3048.23" y="21188.8"
textLength="845.426" font-size="524.934" lengthAdjust="spacingAndGlyphs"
text-anchor="middle" opacity="0">D2</text>
<path d="M2757 21170
L2757 20776
L2851 20776
L2907 20795
L2945 20832
L2963 20870
L2982 20945
L2982 21001
L2963 21076
L2945 21113
L2907 21151
L2851 21170
L2757 21170
" />
<path d="M3132 20813
L3151 20795
L3188 20776
L3282 20776
L3320 20795
L3338 20813
L3357 20851
L3357 20888
L3338 20945
L3113 21170
L3357 21170
" />
<text x="3048.23" y="22488.8"
textLength="845.426" font-size="524.934" lengthAdjust="spacingAndGlyphs"
text-anchor="middle" opacity="0">D1</text>
<path d="M2757 22470
L2757 22076
L2851 22076
L2907 22095
L2945 22132
L2963 22170
L2982 22245
L2982 22301
L2963 22376
L2945 22413
L2907 22451
L2851 22470
L2757 22470
" />
<path d="M3357 22470
L3132 22470
" />
<path d="M3245 22470
L3245 22076
L3207 22132
L3170 22170
L3132 22188
" />
<g transform="rotate(-90 2348.23 25592)">
<text x="2348.23" y="25788.8"
textLength="751.687" font-size="524.934" lengthAdjust="spacingAndGlyphs"
text-anchor="middle" opacity="0">J7</text>
</g>
<path d="M2132 25723
L2413 25723
L2470 25741
L2507 25779
L2526 25835
L2526 25873
" />
<path d="M2132 25573
L2132 25310
L2526 25479
" />
<text x="6298.23" y="14248.3"
textLength="751.687" font-size="524.934" lengthAdjust="spacingAndGlyphs"
text-anchor="middle" opacity="0">J5</text>
<path d="M6166 13835
L6166 14117
L6148 14173
L6110 14210
L6054 14229
L6017 14229
" />
<path d="M6541 13835
L6354 13835
L6335 14023
L6354 14004
L6391 13985
L6485 13985
L6523 14004
L6541 14023
L6560 14060
L6560 14154
L6541 14192
L6523 14210
L6485 14229
L6391 14229
L6354 14210
L6335 14192
" />
<text x="5098.23" y="19988.8"
textLength="845.426" font-size="524.934" lengthAdjust="spacingAndGlyphs"
text-anchor="middle" opacity="0">C7</text>
<path d="M5032 19932
L5013 19951
L4957 19970
L4920 19970
L4863 19951
L4826 19913
L4807 19876
L4788 19801
L4788 19745
L4807 19670
L4826 19632
L4863 19595
L4920 19576
L4957 19576
L5013 19595
L5032 19613
" />
<path d="M5163 19576
L5426 19576
L5257 19970
" />
<text x="15098.2" y="19988.8"
textLength="751.687" font-size="524.934" lengthAdjust="spacingAndGlyphs"
text-anchor="middle" opacity="0">J4</text>
<path d="M14966 19576
L14966 19857
L14948 19913
L14910 19951
L14854 19970
L14817 19970
" />
<path d="M15323 19707
L15323 19970
" />
<path d="M15229 19557
L15135 19838
L15379 19838
" />
<text x="7648.23" y="11338.8"
textLength="1220.38" font-size="524.934" lengthAdjust="spacingAndGlyphs"
text-anchor="middle" opacity="0">C24</text>
<path d="M7395 11282
L7376 11301
L7320 11320
L7282 11320
L7226 11301
L7188 11263
L7170 11226
L7151 11151
L7151 11095
L7170 11020
L7188 10982
L7226 10945
L7282 10926
L7320 10926
L7376 10945
L7395 10963
" />
<path d="M7545 10963
L7563 10945
L7601 10926
L7695 10926
L7732 10945
L7751 10963
L7770 11001
L7770 11038
L7751 11095
L7526 11320
L7770 11320
" />
<path d="M8107 11057
L8107 11320
" />
<path d="M8013 10907
L7920 11188
L8163 11188
" />
<text x="7648.23" y="13563.8"
textLength="1220.38" font-size="524.934" lengthAdjust="spacingAndGlyphs"
text-anchor="middle" opacity="0">C23</text>
<path d="M7395 13507
L7376 13526
L7320 13545
L7282 13545
L7226 13526
L7188 13488
L7170 13451
L7151 13376
L7151 13320
L7170 13245
L7188 13207
L7226 13170
L7282 13151
L7320 13151
L7376 13170
L7395 13188
" />
<path d="M7545 13188
L7563 13170
L7601 13151
L7695 13151
L7732 13170
L7751 13188
L7770 13226
L7770 13263
L7751 13320
L7526 13545
L7770 13545
" />
<path d="M7901 13151
L8145 13151
L8013 13301
L8070 13301
L8107 13320
L8126 13338
L8145 13376
L8145 13470
L8126 13507
L8107 13526
L8070 13545
L7957 13545
L7920 13526
L7901 13507
" />
<g transform="rotate(-90 11485.2 5641.96)">
<text x="11485.2" y="5838.81"
textLength="1220.38" font-size="524.934" lengthAdjust="spacingAndGlyphs"
text-anchor="middle" opacity="0">R16</text>
</g>
<path d="M11663 5895
L11475 6026
" />
<path d="M11663 6120
L11269 6120
L11269 5970
L11288 5932
L11307 5913
L11344 5895
L11400 5895
L11438 5913
L11457 5932
L11475 5970
L11475 6120
" />
<path d="M11663 5520
L11663 5745
" />
<path d="M11663 5632
L11269 5632
L11325 5670
L11363 5707
L11382 5745
" />
<path d="M11269 5182
L11269 5257
L11288 5295
L11307 5313
L11363 5351
L11438 5370
L11588 5370
L11625 5351
L11644 5332
L11663 5295
L11663 5220
L11644 5182
L11625 5163
L11588 5145
L11494 5145
L11457 5163
L11438 5182
L11419 5220
L11419 5295
L11438 5332
L11457 5351
L11494 5370
" />
<text x="13298.2" y="5025.82"
textLength="845.426" font-size="524.934" lengthAdjust="spacingAndGlyphs"
text-anchor="middle" opacity="0">D7</text>
<path d="M13007 5007
L13007 4613
L13101 4613
L13157 4632
L13195 4669
L13213 4707
L13232 4782
L13232 4838
L13213 4913
L13195 4950
L13157 4988
L13101 5007
L13007 5007
" />
<path d="M13363 4613
L13626 4613
L13457 5007
" />
<text x="3548.23" y="7188.81"
textLength="845.426" font-size="524.934" lengthAdjust="spacingAndGlyphs"
text-anchor="middle" opacity="0">C1</text>
<path d="M3482 7132
L3463 7151
L3407 7170
L3370 7170
L3313 7151
L3276 7113
L3257 7076
L3238 7001
L3238 6945
L3257 6870
L3276 6832
L3313 6795
L3370 6776
L3407 6776
L3463 6795
L3482 6813
" />
<path d="M3857 7170
L3632 7170
" />
<path d="M3745 7170
L3745 6776
L3707 6832
L3670 6870
L3632 6888
" />
<g transform="rotate(-90 7585.24 15142)">
<text x="7585.24" y="15338.8"
textLength="845.426" font-size="524.934" lengthAdjust="spacingAndGlyphs"
text-anchor="middle" opacity="0">C2</text>
</g>
<path d="M7725 15207
L7744 15226
L7763 15282
L7763 15320
L7744 15376
L7707 15413
L7669 15432
L7594 15451
L7538 15451
L7463 15432
L7425 15413
L7388 15376
L7369 15320
L7369 15282
L7388 15226
L7407 15207
" />
<path d="M7407 15057
L7388 15038
L7369 15001
L7369 14907
L7388 14870
L7407 14851
L7444 14832
L7482 14832
L7538 14851
L7763 15076
L7763 14832
" />
<g transform="rotate(-90 13248.2 15142)">
<text x="13248.2" y="15338.8"
textLength="845.426" font-size="524.934" lengthAdjust="spacingAndGlyphs"
text-anchor="middle" opacity="0">C3</text>
</g>
<path d="M13388 15207
L13407 15226
L13426 15282
L13426 15320
L13407 15376
L13370 15413
L13332 15432
L13257 15451
L13201 15451
L13126 15432
L13088 15413
L13051 15376
L13032 15320
L13032 15282
L13051 15226
L13070 15207
" />
<path d="M13032 15076
L13032 14832
L13182 14963
L13182 14907
L13201 14870
L13220 14851
L13257 14832
L13351 14832
L13388 14851
L13407 14870
L13426 14907
L13426 15020
L13407 15057
L13388 15076
" />
<text x="3098.23" y="17438.8"
textLength="845.426" font-size="524.934" lengthAdjust="spacingAndGlyphs"
text-anchor="middle" opacity="0">C4</text>
<path d="M3032 17382
L3013 17401
L2957 17420
L2920 17420
L2863 17401
L2826 17363
L2807 17326
L2788 17251
L2788 17195
L2807 17120
L2826 17082
L2863 17045
L2920 17026
L2957 17026
L3013 17045
L3032 17063
" />
<path d="M3370 17157
L3370 17420
" />
<path d="M3276 17007
L3182 17288
L3426 17288
" />
<text x="14648.2" y="13688.8"
textLength="845.426" font-size="524.934" lengthAdjust="spacingAndGlyphs"
text-anchor="middle" opacity="0">C5</text>
<path d="M14582 13632
L14563 13651
L14507 13670
L14470 13670
L14413 13651
L14376 13613
L14357 13576
L14338 13501
L14338 13445
L14357 13370
L14376 13332
L14413 13295
L14470 13276
L14507 13276
L14563 13295
L14582 13313
" />
<path d="M14938 13276
L14751 13276
L14732 13463
L14751 13445
L14788 13426
L14882 13426
L14920 13445
L14938 13463
L14957 13501
L14957 13595
L14938 13632
L14920 13651
L14882 13670
L14788 13670
L14751 13651
L14732 13632
" />
<text x="6148.23" y="13588.8"
textLength="845.426" font-size="524.934" lengthAdjust="spacingAndGlyphs"
text-anchor="middle" opacity="0">C6</text>
<path d="M6082 13532
L6063 13551
L6007 13570
L5970 13570
L5913 13551
L5876 13513
L5857 13476
L5838 13401
L5838 13345
L5857 13270
L5876 13232
L5913 13195
L5970 13176
L6007 13176
L6063 13195
L6082 13213
" />
<path d="M6420 13176
L6345 13176
L6307 13195
L6288 13213
L6251 13270
L6232 13345
L6232 13495
L6251 13532
L6270 13551
L6307 13570
L6382 13570
L6420 13551
L6438 13532
L6457 13495
L6457 13401
L6438 13363
L6420 13345
L6382 13326
L6307 13326
L6270 13345
L6251 13363
L6232 13401
" />
<g transform="rotate(-90 7111.22 22892)">
<text x="7111.22" y="23088.8"
textLength="845.426" font-size="524.934" lengthAdjust="spacingAndGlyphs"
text-anchor="middle" opacity="0">C8</text>
</g>
<path d="M7251 22957
L7270 22976
L7289 23032
L7289 23070
L7270 23126
L7233 23163
L7195 23182
L7120 23201
L7064 23201
L6989 23182
L6951 23163
L6914 23126
L6895 23070
L6895 23032
L6914 22976
L6933 22957
" />
<path d="M7064 22732
L7045 22770
L7026 22788
L6989 22807
L6970 22807
L6933 22788
L6914 22770
L6895 22732
L6895 22657
L6914 22620
L6933 22601
L6970 22582
L6989 22582
L7026 22601
L7045 22620
L7064 22657
L7064 22732
L7083 22770
L7101 22788
L7139 22807
L7214 22807
L7251 22788
L7270 22770
L7289 22732
L7289 22657
L7270 22620
L7251 22601
L7214 22582
L7139 22582
L7101 22601
L7083 22620
L7064 22657
" />
<text x="8048.23" y="26901.8"
textLength="845.426" font-size="524.934" lengthAdjust="spacingAndGlyphs"
text-anchor="middle" opacity="0">C9</text>
<path d="M7982 26845
L7963 26864
L7907 26883
L7870 26883
L7813 26864
L7776 26826
L7757 26789
L7738 26714
L7738 26658
L7757 26583
L7776 26545
L7813 26508
L7870 26489
L7907 26489
L7963 26508
L7982 26526
" />
<path d="M8170 26883
L8245 26883
L8282 26864
L8301 26845
L8338 26789
L8357 26714
L8357 26564
L8338 26526
L8320 26508
L8282 26489
L8207 26489
L8170 26508
L8151 26526
L8132 26564
L8132 26658
L8151 26695
L8170 26714
L8207 26733
L8282 26733
L8320 26714
L8338 26695
L8357 26658
" />
<text x="8048.23" y="25651.8"
textLength="1220.38" font-size="524.934" lengthAdjust="spacingAndGlyphs"
text-anchor="middle" opacity="0">C10</text>
<path d="M7795 25595
L7776 25614
L7720 25633
L7682 25633
L7626 25614
L7588 25576
L7570 25539
L7551 25464
L7551 25408
L7570 25333
L7588 25295
L7626 25258
L7682 25239
L7720 25239
L7776 25258
L7795 25276
" />
<path d="M8170 25633
L7945 25633
" />
<path d="M8057 25633
L8057 25239
L8020 25295
L7982 25333
L7945 25351
" />
<path d="M8413 25239
L8451 25239
L8488 25258
L8507 25276
L8526 25314
L8545 25389
L8545 25483
L8526 25558
L8507 25595
L8488 25614
L8451 25633
L8413 25633
L8376 25614
L8357 25595
L8338 25558
L8320 25483
L8320 25389
L8338 25314
L8357 25276
L8376 25258
L8413 25239
" />
<g transform="rotate(-90 12485.2 23392)">
<text x="12485.2" y="23588.8"
textLength="1220.38" font-size="524.934" lengthAdjust="spacingAndGlyphs"
text-anchor="middle" opacity="0">C11</text>
</g>
<path d="M12625 23645
L12644 23663
L12663 23720
L12663 23757
L12644 23813
L12607 23851
L12569 23870
L12494 23888
L12438 23888
L12363 23870
L12325 23851
L12288 23813
L12269 23757
L12269 23720
L12288 23663
L12307 23645
" />
<path d="M12663 23270
L12663 23495
" />
<path d="M12663 23382
L12269 23382
L12325 23420
L12363 23457
L12382 23495
" />
<path d="M12663 22895
L12663 23120
" />
<path d="M12663 23007
L12269 23007
L12325 23045
L12363 23082
L12382 23120
" />
<text x="9548.23" y="28151.8"
textLength="1220.38" font-size="524.934" lengthAdjust="spacingAndGlyphs"
text-anchor="middle" opacity="0">C12</text>
<path d="M9295 28095
L9276 28114
L9220 28133
L9182 28133
L9126 28114
L9088 28076
L9070 28039
L9051 27964
L9051 27908
L9070 27833
L9088 27795
L9126 27758
L9182 27739
L9220 27739
L9276 27758
L9295 27776
" />
<path d="M9670 28133
L9445 28133
" />
<path d="M9557 28133
L9557 27739
L9520 27795
L9482 27833
L9445 27851
" />
<path d="M9820 27776
L9838 27758
L9876 27739
L9970 27739
L10007 27758
L10026 27776
L10045 27814
L10045 27851
L10026 27908
L9801 28133
L10045 28133
" />
<text x="8048.23" y="24401.8"
textLength="1220.38" font-size="524.934" lengthAdjust="spacingAndGlyphs"
text-anchor="middle" opacity="0">C13</text>
<path d="M7795 24345
L7776 24364
L7720 24383
L7682 24383
L7626 24364
L7588 24326
L7570 24289
L7551 24214
L7551 24158
L7570 24083
L7588 24045
L7626 24008
L7682 23989
L7720 23989
L7776 24008
L7795 24026
" />
<path d="M8170 24383
L7945 24383
" />
<path d="M8057 24383
L8057 23989
L8020 24045
L7982 24083
L7945 24101
" />
<path d="M8301 23989
L8545 23989
L8413 24139
L8470 24139
L8507 24158
L8526 24176
L8545 24214
L8545 24308
L8526 24345
L8507 24364
L8470 24383
L8357 24383
L8320 24364
L8301 24345
" />
<text x="9148.23" y="15001.8"
textLength="1220.38" font-size="524.934" lengthAdjust="spacingAndGlyphs"
text-anchor="middle" opacity="0">C14</text>
<path d="M8895 14945
L8876 14964
L8820 14983
L8782 14983
L8726 14964
L8688 14926
L8670 14889
L8651 14814
L8651 14758
L8670 14683
L8688 14645
L8726 14608
L8782 14589
L8820 14589
L8876 14608
L8895 14626
" />
<path d="M9270 14983
L9045 14983
" />
<path d="M9157 14983
L9157 14589
L9120 14645
L9082 14683
L9045 14701
" />
<path d="M9607 14720
L9607 14983
" />
<path d="M9513 14570
L9420 14851
L9663 14851
" />
<text x="11148.2" y="7625.82"
textLength="1220.38" font-size="524.934" lengthAdjust="spacingAndGlyphs"
text-anchor="middle" opacity="0">C15</text>
<path d="M10895 7569
L10876 7588
L10820 7607
L10782 7607
L10726 7588
L10688 7550
L10670 7513
L10651 7438
L10651 7382
L10670 7307
L10688 7269
L10726 7232
L10782 7213
L10820 7213
L10876 7232
L10895 7250
" />
<path d="M11270 7607
L11045 7607
" />
<path d="M11157 7607
L11157 7213
L11120 7269
L11082 7307
L11045 7325
" />
<path d="M11626 7213
L11438 7213
L11420 7400
L11438 7382
L11476 7363
L11570 7363
L11607 7382
L11626 7400
L11645 7438
L11645 7532
L11626 7569
L11607 7588
L11570 7607
L11476 7607
L11438 7588
L11420 7569
" />
<text x="11148.2" y="8875.82"
textLength="1220.38" font-size="524.934" lengthAdjust="spacingAndGlyphs"
text-anchor="middle" opacity="0">C16</text>
<path d="M10895 8819
L10876 8838
L10820 8857
L10782 8857
L10726 8838
L10688 8800
L10670 8763
L10651 8688
L10651 8632
L10670 8557
L10688 8519
L10726 8482
L10782 8463
L10820 8463
L10876 8482
L10895 8500
" />
<path d="M11270 8857
L11045 8857
" />
<path d="M11157 8857
L11157 8463
L11120 8519
L11082 8557
L11045 8575
" />
<path d="M11607 8463
L11532 8463
L11495 8482
L11476 8500
L11438 8557
L11420 8632
L11420 8782
L11438 8819
L11457 8838
L11495 8857
L11570 8857
L11607 8838
L11626 8819
L11645 8782
L11645 8688
L11626 8650
L11607 8632
L11570 8613
L11495 8613
L11457 8632
L11438 8650
L11420 8688
" />
<text x="9648.23" y="7625.82"
textLength="1220.38" font-size="524.934" lengthAdjust="spacingAndGlyphs"
text-anchor="middle" opacity="0">C17</text>
<path d="M9395 7569
L9376 7588
L9320 7607
L9282 7607
L9226 7588
L9188 7550
L9170 7513
L9151 7438
L9151 7382
L9170 7307
L9188 7269
L9226 7232
L9282 7213
L9320 7213
L9376 7232
L9395 7250
" />
<path d="M9770 7607
L9545 7607
" />
<path d="M9657 7607
L9657 7213
L9620 7269
L9582 7307
L9545 7325
" />
<path d="M9901 7213
L10163 7213
L9995 7607
" />
<text x="12048.2" y="28151.8"
textLength="1220.38" font-size="524.934" lengthAdjust="spacingAndGlyphs"
text-anchor="middle" opacity="0">C18</text>
<path d="M11795 28095
L11776 28114
L11720 28133
L11682 28133
L11626 28114
L11588 28076
L11570 28039
L11551 27964
L11551 27908
L11570 27833
L11588 27795
L11626 27758
L11682 27739
L11720 27739
L11776 27758
L11795 27776
" />
<path d="M12170 28133
L11945 28133
" />
<path d="M12057 28133
L12057 27739
L12020 27795
L11982 27833
L11945 27851
" />
<path d="M12395 27908
L12357 27889
L12338 27870
L12320 27833
L12320 27814
L12338 27776
L12357 27758
L12395 27739
L12470 27739
L12507 27758
L12526 27776
L12545 27814
L12545 27833
L12526 27870
L12507 27889
L12470 27908
L12395 27908
L12357 27926
L12338 27945
L12320 27983
L12320 28058
L12338 28095
L12357 28114
L12395 28133
L12470 28133
L12507 28114
L12526 28095
L12545 28058
L12545 27983
L12526 27945
L12507 27926
L12470 27908
" />
<text x="13148.2" y="13663.8"
textLength="1220.38" font-size="524.934" lengthAdjust="spacingAndGlyphs"
text-anchor="middle" opacity="0">C19</text>
<path d="M12895 13607
L12876 13626
L12820 13645
L12782 13645
L12726 13626
L12688 13588
L12670 13551
L12651 13476
L12651 13420
L12670 13345
L12688 13307
L12726 13270
L12782 13251
L12820 13251
L12876 13270
L12895 13288
" />
<path d="M13270 13645
L13045 13645
" />
<path d="M13157 13645
L13157 13251
L13120 13307
L13082 13345
L13045 13363
" />
<path d="M13457 13645
L13532 13645
L13570 13626
L13588 13607
L13626 13551
L13645 13476
L13645 13326
L13626 13288
L13607 13270
L13570 13251
L13495 13251
L13457 13270
L13438 13288
L13420 13326
L13420 13420
L13438 13457
L13457 13476
L13495 13495
L13570 13495
L13607 13476
L13626 13457
L13645 13420
" />
<text x="9648.23" y="8875.82"
textLength="1220.38" font-size="524.934" lengthAdjust="spacingAndGlyphs"
text-anchor="middle" opacity="0">C20</text>
<path d="M9395 8819
L9376 8838
L9320 8857
L9282 8857
L9226 8838
L9188 8800
L9170 8763
L9151 8688
L9151 8632
L9170 8557
L9188 8519
L9226 8482
L9282 8463
L9320 8463
L9376 8482
L9395 8500
" />
<path d="M9545 8500
L9563 8482
L9601 8463
L9695 8463
L9732 8482
L9751 8500
L9770 8538
L9770 8575
L9751 8632
L9526 8857
L9770 8857
" />
<path d="M10013 8463
L10051 8463
L10088 8482
L10107 8500
L10126 8538
L10145 8613
L10145 8707
L10126 8782
L10107 8819
L10088 8838
L10051 8857
L10013 8857
L9976 8838
L9957 8819
L9938 8782
L9920 8707
L9920 8613
L9938 8538
L9957 8500
L9976 8482
L10013 8463
" />
<text x="13148.2" y="11275.8"
textLength="1220.38" font-size="524.934" lengthAdjust="spacingAndGlyphs"
text-anchor="middle" opacity="0">C21</text>
<path d="M12895 11219
L12876 11238
L12820 11257
L12782 11257
L12726 11238
L12688 11200
L12670 11163
L12651 11088
L12651 11032
L12670 10957
L12688 10919
L12726 10882
L12782 10863
L12820 10863
L12876 10882
L12895 10900
" />
<path d="M13045 10900
L13063 10882
L13101 10863
L13195 10863
L13232 10882
L13251 10900
L13270 10938
L13270 10975
L13251 11032
L13026 11257
L13270 11257
" />
<path d="M13645 11257
L13420 11257
" />
<path d="M13532 11257
L13532 10863
L13495 10919
L13457 10957
L13420 10975
" />
<text x="11648.2" y="15001.8"
textLength="1220.38" font-size="524.934" lengthAdjust="spacingAndGlyphs"
text-anchor="middle" opacity="0">C22</text>
<path d="M11395 14945
L11376 14964
L11320 14983
L11282 14983
L11226 14964
L11188 14926
L11170 14889
L11151 14814
L11151 14758
L11170 14683
L11188 14645
L11226 14608
L11282 14589
L11320 14589
L11376 14608
L11395 14626
" />
<path d="M11545 14626
L11563 14608
L11601 14589
L11695 14589
L11732 14608
L11751 14626
L11770 14664
L11770 14701
L11751 14758
L11526 14983
L11770 14983
" />
<path d="M11920 14626
L11938 14608
L11976 14589
L12070 14589
L12107 14608
L12126 14626
L12145 14664
L12145 14701
L12126 14758
L11901 14983
L12145 14983
" />
<text x="5098.23" y="21238.8"
textLength="845.426" font-size="524.934" lengthAdjust="spacingAndGlyphs"
text-anchor="middle" opacity="0">D3</text>
<path d="M4807 21220
L4807 20826
L4901 20826
L4957 20845
L4995 20882
L5013 20920
L5032 20995
L5032 21051
L5013 21126
L4995 21163
L4957 21201
L4901 21220
L4807 21220
" />
<path d="M5163 20826
L5407 20826
L5276 20976
L5332 20976
L5370 20995
L5388 21013
L5407 21051
L5407 21145
L5388 21182
L5370 21201
L5332 21220
L5220 21220
L5182 21201
L5163 21182
" />
<text x="4298.23" y="5025.82"
textLength="845.426" font-size="524.934" lengthAdjust="spacingAndGlyphs"
text-anchor="middle" opacity="0">D4</text>
<path d="M4007 5007
L4007 4613
L4101 4613
L4157 4632
L4195 4669
L4213 4707
L4232 4782
L4232 4838
L4213 4913
L4195 4950
L4157 4988
L4101 5007
L4007 5007
" />
<path d="M4570 4744
L4570 5007
" />
<path d="M4476 4594
L4382 4875
L4626 4875
" />
<text x="7298.23" y="5025.82"
textLength="845.426" font-size="524.934" lengthAdjust="spacingAndGlyphs"
text-anchor="middle" opacity="0">D5</text>
<path d="M7007 5007
L7007 4613
L7101 4613
L7157 4632
L7195 4669
L7213 4707
L7232 4782
L7232 4838
L7213 4913
L7195 4950
L7157 4988
L7101 5007
L7007 5007
" />
<path d="M7588 4613
L7401 4613
L7382 4800
L7401 4782
L7438 4763
L7532 4763
L7570 4782
L7588 4800
L7607 4838
L7607 4932
L7588 4969
L7570 4988
L7532 5007
L7438 5007
L7401 4988
L7382 4969
" />
<text x="10298.2" y="5025.82"
textLength="845.426" font-size="524.934" lengthAdjust="spacingAndGlyphs"
text-anchor="middle" opacity="0">D6</text>
<path d="M10007 5007
L10007 4613
L10101 4613
L10157 4632
L10195 4669
L10213 4707
L10232 4782
L10232 4838
L10213 4913
L10195 4950
L10157 4988
L10101 5007
L10007 5007
" />
<path d="M10570 4613
L10495 4613
L10457 4632
L10438 4650
L10401 4707
L10382 4782
L10382 4932
L10401 4969
L10420 4988
L10457 5007
L10532 5007
L10570 4988
L10588 4969
L10607 4932
L10607 4838
L10588 4800
L10570 4782
L10532 4763
L10457 4763
L10420 4782
L10401 4800
L10382 4838
" />
<text x="15098.2" y="14488.8"
textLength="751.687" font-size="524.934" lengthAdjust="spacingAndGlyphs"
text-anchor="middle" opacity="0">J3</text>
<path d="M14966 14076
L14966 14357
L14948 14413
L14910 14451
L14854 14470
L14817 14470
" />
<path d="M15116 14076
L15360 14076
L15229 14226
L15285 14226
L15323 14245
L15341 14263
L15360 14301
L15360 14395
L15341 14432
L15323 14451
L15285 14470
L15173 14470
L15135 14451
L15116 14432
" />
<text x="11548.2" y="17838.8"
textLength="751.687" font-size="524.934" lengthAdjust="spacingAndGlyphs"
text-anchor="middle" opacity="0">J6</text>
<path d="M11416 17426
L11416 17707
L11398 17763
L11360 17801
L11304 17820
L11267 17820
" />
<path d="M11773 17426
L11698 17426
L11660 17445
L11641 17463
L11604 17520
L11585 17595
L11585 17745
L11604 17782
L11623 17801
L11660 17820
L11735 17820
L11773 17801
L11791 17782
L11810 17745
L11810 17651
L11791 17613
L11773 17595
L11735 17576
L11660 17576
L11623 17595
L11604 17613
L11585 17651
" />
<text x="3048.23" y="18775.8"
textLength="845.426" font-size="524.934" lengthAdjust="spacingAndGlyphs"
text-anchor="middle" opacity="0">R1</text>
<path d="M2982 18757
L2851 18569
" />
<path d="M2757 18757
L2757 18363
L2907 18363
L2945 18382
L2963 18400
L2982 18438
L2982 18494
L2963 18532
L2945 18550
L2907 18569
L2757 18569
" />
<path d="M3357 18757
L3132 18757
" />
<path d="M3245 18757
L3245 18363
L3207 18419
L3170 18457
L3132 18475
" />
<text x="3798.23" y="10901.8"
textLength="845.426" font-size="524.934" lengthAdjust="spacingAndGlyphs"
text-anchor="middle" opacity="0">R2</text>
<path d="M3732 10883
L3601 10695
" />
<path d="M3507 10883
L3507 10489
L3657 10489
L3695 10508
L3713 10526
L3732 10564
L3732 10620
L3713 10658
L3695 10676
L3657 10695
L3507 10695
" />
<path d="M3882 10526
L3901 10508
L3938 10489
L4032 10489
L4070 10508
L4088 10526
L4107 10564
L4107 10601
L4088 10658
L3863 10883
L4107 10883
" />
<text x="14648.2" y="11275.8"
textLength="845.426" font-size="524.934" lengthAdjust="spacingAndGlyphs"
text-anchor="middle" opacity="0">R3</text>
<path d="M14582 11257
L14451 11069
" />
<path d="M14357 11257
L14357 10863
L14507 10863
L14545 10882
L14563 10900
L14582 10938
L14582 10994
L14563 11032
L14545 11050
L14507 11069
L14357 11069
" />
<path d="M14713 10863
L14957 10863
L14826 11013
L14882 11013
L14920 11032
L14938 11050
L14957 11088
L14957 11182
L14938 11219
L14920 11238
L14882 11257
L14770 11257
L14732 11238
L14713 11219
" />
<text x="6148.23" y="11338.8"
textLength="845.426" font-size="524.934" lengthAdjust="spacingAndGlyphs"
text-anchor="middle" opacity="0">R4</text>
<path d="M6082 11320
L5951 11132
" />
<path d="M5857 11320
L5857 10926
L6007 10926
L6045 10945
L6063 10963
L6082 11001
L6082 11057
L6063 11095
L6045 11113
L6007 11132
L5857 11132
" />
<path d="M6420 11057
L6420 11320
" />
<path d="M6326 10907
L6232 11188
L6476 11188
" />
<text x="9548.23" y="26901.8"
textLength="845.426" font-size="524.934" lengthAdjust="spacingAndGlyphs"
text-anchor="middle" opacity="0">R5</text>
<path d="M9482 26883
L9351 26695
" />
<path d="M9257 26883
L9257 26489
L9407 26489
L9445 26508
L9463 26526
L9482 26564
L9482 26620
L9463 26658
L9445 26676
L9407 26695
L9257 26695
" />
<path d="M9838 26489
L9651 26489
L9632 26676
L9651 26658
L9688 26639
L9782 26639
L9820 26658
L9838 26676
L9857 26714
L9857 26808
L9838 26845
L9820 26864
L9782 26883
L9688 26883
L9651 26864
L9632 26845
" />
<text x="9548.23" y="25651.8"
textLength="845.426" font-size="524.934" lengthAdjust="spacingAndGlyphs"
text-anchor="middle" opacity="0">R6</text>
<path d="M9482 25633
L9351 25445
" />
<path d="M9257 25633
L9257 25239
L9407 25239
L9445 25258
L9463 25276
L9482 25314
L9482 25370
L9463 25408
L9445 25426
L9407 25445
L9257 25445
" />
<path d="M9820 25239
L9745 25239
L9707 25258
L9688 25276
L9651 25333
L9632 25408
L9632 25558
L9651 25595
L9670 25614
L9707 25633
L9782 25633
L9820 25614
L9838 25595
L9857 25558
L9857 25464
L9838 25426
L9820 25408
L9782 25389
L9707 25389
L9670 25408
L9651 25426
L9632 25464
" />
<text x="8048.23" y="23151.8"
textLength="845.426" font-size="524.934" lengthAdjust="spacingAndGlyphs"
text-anchor="middle" opacity="0">R7</text>
<path d="M7982 23133
L7851 22945
" />
<path d="M7757 23133
L7757 22739
L7907 22739
L7945 22758
L7963 22776
L7982 22814
L7982 22870
L7963 22908
L7945 22926
L7907 22945
L7757 22945
" />
<path d="M8113 22739
L8376 22739
L8207 23133
" />
<text x="12048.2" y="29401.8"
textLength="845.426" font-size="524.934" lengthAdjust="spacingAndGlyphs"
text-anchor="middle" opacity="0">R8</text>
<path d="M11982 29383
L11851 29195
" />
<path d="M11757 29383
L11757 28989
L11907 28989
L11945 29008
L11963 29026
L11982 29064
L11982 29120
L11963 29158
L11945 29176
L11907 29195
L11757 29195
" />
<path d="M12207 29158
L12170 29139
L12151 29120
L12132 29083
L12132 29064
L12151 29026
L12170 29008
L12207 28989
L12282 28989
L12320 29008
L12338 29026
L12357 29064
L12357 29083
L12338 29120
L12320 29139
L12282 29158
L12207 29158
L12170 29176
L12151 29195
L12132 29233
L12132 29308
L12151 29345
L12170 29364
L12207 29383
L12282 29383
L12320 29364
L12338 29345
L12357 29308
L12357 29233
L12338 29195
L12320 29176
L12282 29158
" />
<text x="13548.2" y="18901.8"
textLength="845.426" font-size="524.934" lengthAdjust="spacingAndGlyphs"
text-anchor="middle" opacity="0">R9</text>
<path d="M13482 18883
L13351 18695
" />
<path d="M13257 18883
L13257 18489
L13407 18489
L13445 18508
L13463 18526
L13482 18564
L13482 18620
L13463 18658
L13445 18676
L13407 18695
L13257 18695
" />
<path d="M13670 18883
L13745 18883
L13782 18864
L13801 18845
L13838 18789
L13857 18714
L13857 18564
L13838 18526
L13820 18508
L13782 18489
L13707 18489
L13670 18508
L13651 18526
L13632 18564
L13632 18658
L13651 18695
L13670 18714
L13707 18733
L13782 18733
L13820 18714
L13838 18695
L13857 18658
" />
<text x="13548.2" y="20151.8"
textLength="1220.38" font-size="524.934" lengthAdjust="spacingAndGlyphs"
text-anchor="middle" opacity="0">R10</text>
<path d="M13295 20133
L13163 19945
" />
<path d="M13070 20133
L13070 19739
L13220 19739
L13257 19758
L13276 19776
L13295 19814
L13295 19870
L13276 19908
L13257 19926
L13220 19945
L13070 19945
" />
<path d="M13670 20133
L13445 20133
" />
<path d="M13557 20133
L13557 19739
L13520 19795
L13482 19833
L13445 19851
" />
<path d="M13913 19739
L13951 19739
L13988 19758
L14007 19776
L14026 19814
L14045 19889
L14045 19983
L14026 20058
L14007 20095
L13988 20114
L13951 20133
L13913 20133
L13876 20114
L13857 20095
L13838 20058
L13820 19983
L13820 19889
L13838 19814
L13857 19776
L13876 19758
L13913 19739
" />
<text x="13548.2" y="21401.8"
textLength="1220.38" font-size="524.934" lengthAdjust="spacingAndGlyphs"
text-anchor="middle" opacity="0">R11</text>
<path d="M13295 21383
L13163 21195
" />
<path d="M13070 21383
L13070 20989
L13220 20989
L13257 21008
L13276 21026
L13295 21064
L13295 21120
L13276 21158
L13257 21176
L13220 21195
L13070 21195
" />
<path d="M13670 21383
L13445 21383
" />
<path d="M13557 21383
L13557 20989
L13520 21045
L13482 21083
L13445 21101
" />
<path d="M14045 21383
L13820 21383
" />
<path d="M13932 21383
L13932 20989
L13895 21045
L13857 21083
L13820 21101
" />
<text x="13548.2" y="22651.8"
textLength="1220.38" font-size="524.934" lengthAdjust="spacingAndGlyphs"
text-anchor="middle" opacity="0">R12</text>
<path d="M13295 22633
L13163 22445
" />
<path d="M13070 22633
L13070 22239
L13220 22239
L13257 22258
L13276 22276
L13295 22314
L13295 22370
L13276 22408
L13257 22426
L13220 22445
L13070 22445
" />
<path d="M13670 22633
L13445 22633
" />
<path d="M13557 22633
L13557 22239
L13520 22295
L13482 22333
L13445 22351
" />
<path d="M13820 22276
L13838 22258
L13876 22239
L13970 22239
L14007 22258
L14026 22276
L14045 22314
L14045 22351
L14026 22408
L13801 22633
L14045 22633
" />
<g transform="rotate(-90 2485.24 5641.96)">
<text x="2485.24" y="5838.81"
textLength="1220.38" font-size="524.934" lengthAdjust="spacingAndGlyphs"
text-anchor="middle" opacity="0">R13</text>
</g>
<path d="M2663 5895
L2475 6026
" />
<path d="M2663 6120
L2269 6120
L2269 5970
L2288 5932
L2307 5913
L2344 5895
L2400 5895
L2438 5913
L2457 5932
L2475 5970
L2475 6120
" />
<path d="M2663 5520
L2663 5745
" />
<path d="M2663 5632
L2269 5632
L2325 5670
L2363 5707
L2382 5745
" />
<path d="M2269 5388
L2269 5145
L2419 5276
L2419 5220
L2438 5182
L2457 5163
L2494 5145
L2588 5145
L2625 5163
L2644 5182
L2663 5220
L2663 5332
L2644 5370
L2625 5388
" />
<g transform="rotate(-90 5485.24 5641.96)">
<text x="5485.24" y="5838.81"
textLength="1220.38" font-size="524.934" lengthAdjust="spacingAndGlyphs"
text-anchor="middle" opacity="0">R14</text>
</g>
<path d="M5663 5895
L5475 6026
" />
<path d="M5663 6120
L5269 6120
L5269 5970
L5288 5932
L5307 5913
L5344 5895
L5400 5895
L5438 5913
L5457 5932
L5475 5970
L5475 6120
" />
<path d="M5663 5520
L5663 5745
" />
<path d="M5663 5632
L5269 5632
L5325 5670
L5363 5707
L5382 5745
" />
<path d="M5400 5182
L5663 5182
" />
<path d="M5250 5276
L5532 5370
L5532 5126
" />
<g transform="rotate(-90 8485.24 5641.96)">
<text x="8485.24" y="5838.81"
textLength="1220.38" font-size="524.934" lengthAdjust="spacingAndGlyphs"
text-anchor="middle" opacity="0">R15</text>
</g>
<path d="M8663 5895
L8475 6026
" />
<path d="M8663 6120
L8269 6120
L8269 5970
L8288 5932
L8307 5913
L8344 5895
L8400 5895
L8438 5913
L8457 5932
L8475 5970
L8475 6120
" />
<path d="M8663 5520
L8663 5745
" />
<path d="M8663 5632
L8269 5632
L8325 5670
L8363 5707
L8382 5745
" />
<path d="M8269 5163
L8269 5351
L8457 5370
L8438 5351
L8419 5313
L8419 5220
L8438 5182
L8457 5163
L8494 5145
L8588 5145
L8625 5163
L8644 5182
L8663 5220
L8663 5313
L8644 5351
L8625 5370
" />
<g transform="rotate(-90 2485.24 4141.96)">
<text x="2485.24" y="4338.81"
textLength="1220.38" font-size="524.934" lengthAdjust="spacingAndGlyphs"
text-anchor="middle" opacity="0">R17</text>
</g>
<path d="M2663 4395
L2475 4526
" />
<path d="M2663 4620
L2269 4620
L2269 4470
L2288 4432
L2307 4413
L2344 4395
L2400 4395
L2438 4413
L2457 4432
L2475 4470
L2475 4620
" />
<path d="M2663 4020
L2663 4245
" />
<path d="M2663 4132
L2269 4132
L2325 4170
L2363 4207
L2382 4245
" />
<path d="M2269 3888
L2269 3626
L2663 3795
" />
<g transform="rotate(-90 5485.24 4141.96)">
<text x="5485.24" y="4338.81"
textLength="1220.38" font-size="524.934" lengthAdjust="spacingAndGlyphs"
text-anchor="middle" opacity="0">R18</text>
</g>
<path d="M5663 4395
L5475 4526
" />
<path d="M5663 4620
L5269 4620
L5269 4470
L5288 4432
L5307 4413
L5344 4395
L5400 4395
L5438 4413
L5457 4432
L5475 4470
L5475 4620
" />
<path d="M5663 4020
L5663 4245
" />
<path d="M5663 4132
L5269 4132
L5325 4170
L5363 4207
L5382 4245
" />
<path d="M5438 3795
L5419 3832
L5400 3851
L5363 3870
L5344 3870
L5307 3851
L5288 3832
L5269 3795
L5269 3720
L5288 3682
L5307 3663
L5344 3645
L5363 3645
L5400 3663
L5419 3682
L5438 3720
L5438 3795
L5457 3832
L5475 3851
L5513 3870
L5588 3870
L5625 3851
L5644 3832
L5663 3795
L5663 3720
L5644 3682
L5625 3663
L5588 3645
L5513 3645
L5475 3663
L5457 3682
L5438 3720
" />
<g transform="rotate(-90 8485.24 4141.96)">
<text x="8485.24" y="4338.81"
textLength="1220.38" font-size="524.934" lengthAdjust="spacingAndGlyphs"
text-anchor="middle" opacity="0">R19</text>
</g>
<path d="M8663 4395
L8475 4526
" />
<path d="M8663 4620
L8269 4620
L8269 4470
L8288 4432
L8307 4413
L8344 4395
L8400 4395
L8438 4413
L8457 4432
L8475 4470
L8475 4620
" />
<path d="M8663 4020
L8663 4245
" />
<path d="M8663 4132
L8269 4132
L8325 4170
L8363 4207
L8382 4245
" />
<path d="M8663 3832
L8663 3757
L8644 3720
L8625 3701
L8569 3663
L8494 3645
L8344 3645
L8307 3663
L8288 3682
L8269 3720
L8269 3795
L8288 3832
L8307 3851
L8344 3870
L8438 3870
L8475 3851
L8494 3832
L8513 3795
L8513 3720
L8494 3682
L8475 3663
L8438 3645
" />
<g transform="rotate(-90 11485.2 4141.96)">
<text x="11485.2" y="4338.81"
textLength="1220.38" font-size="524.934" lengthAdjust="spacingAndGlyphs"
text-anchor="middle" opacity="0">R20</text>
</g>
<path d="M11663 4395
L11475 4526
" />
<path d="M11663 4620
L11269 4620
L11269 4470
L11288 4432
L11307 4413
L11344 4395
L11400 4395
L11438 4413
L11457 4432
L11475 4470
L11475 4620
" />
<path d="M11307 4245
L11288 4226
L11269 4188
L11269 4095
L11288 4057
L11307 4038
L11344 4020
L11382 4020
L11438 4038
L11663 4263
L11663 4020
" />
<path d="M11269 3776
L11269 3738
L11288 3701
L11307 3682
L11344 3663
L11419 3645
L11513 3645
L11588 3663
L11625 3682
L11644 3701
L11663 3738
L11663 3776
L11644 3813
L11625 3832
L11588 3851
L11513 3870
L11419 3870
L11344 3851
L11307 3832
L11288 3813
L11269 3776
" />
<text x="3048.23" y="20025.8"
textLength="1220.38" font-size="524.934" lengthAdjust="spacingAndGlyphs"
text-anchor="middle" opacity="0">R21</text>
<path d="M2795 20007
L2663 19819
" />
<path d="M2570 20007
L2570 19613
L2720 19613
L2757 19632
L2776 19650
L2795 19688
L2795 19744
L2776 19782
L2757 19800
L2720 19819
L2570 19819
" />
<path d="M2945 19650
L2963 19632
L3001 19613
L3095 19613
L3132 19632
L3151 19650
L3170 19688
L3170 19725
L3151 19782
L2926 20007
L3170 20007
" />
<path d="M3545 20007
L3320 20007
" />
<path d="M3432 20007
L3432 19613
L3395 19669
L3357 19707
L3320 19725
" />
<g transform="rotate(-90 3261.22 14642)">
<text x="3261.22" y="14838.8"
textLength="1220.38" font-size="524.934" lengthAdjust="spacingAndGlyphs"
text-anchor="middle" opacity="0">R22</text>
</g>
<path d="M3439 14895
L3251 15026
" />
<path d="M3439 15120
L3045 15120
L3045 14970
L3064 14932
L3083 14913
L3120 14895
L3176 14895
L3214 14913
L3233 14932
L3251 14970
L3251 15120
" />
<path d="M3083 14745
L3064 14726
L3045 14688
L3045 14595
L3064 14557
L3083 14538
L3120 14520
L3158 14520
L3214 14538
L3439 14763
L3439 14520
" />
<path d="M3083 14370
L3064 14351
L3045 14313
L3045 14220
L3064 14182
L3083 14163
L3120 14145
L3158 14145
L3214 14163
L3439 14388
L3439 14145
" />
<text x="8048.23" y="27493.1"
textLength="1145.39" font-size="524.934" lengthAdjust="spacingAndGlyphs"
text-anchor="middle" opacity="0">TP1</text>
<path d="M7551 27080
L7776 27080
" />
<path d="M7663 27474
L7663 27080
" />
<path d="M7907 27474
L7907 27080
L8057 27080
L8095 27099
L8113 27118
L8132 27155
L8132 27211
L8113 27249
L8095 27268
L8057 27286
L7907 27286
" />
<path d="M8507 27474
L8282 27474
" />
<path d="M8395 27474
L8395 27080
L8357 27136
L8320 27174
L8282 27193
" />
<text x="5298.23" y="9088.81"
textLength="1145.39" font-size="524.934" lengthAdjust="spacingAndGlyphs"
text-anchor="middle" opacity="0">TP2</text>
<path d="M4801 8676
L5026 8676
" />
<path d="M4913 9070
L4913 8676
" />
<path d="M5157 9070
L5157 8676
L5307 8676
L5345 8695
L5363 8713
L5382 8751
L5382 8807
L5363 8845
L5345 8863
L5307 8882
L5157 8882
" />
<path d="M5532 8713
L5551 8695
L5588 8676
L5682 8676
L5720 8695
L5738 8713
L5757 8751
L5757 8788
L5738 8845
L5513 9070
L5757 9070
" />
<text x="15698.2" y="10788.8"
textLength="1145.39" font-size="524.934" lengthAdjust="spacingAndGlyphs"
text-anchor="middle" opacity="0">TP3</text>
<path d="M15201 10376
L15426 10376
" />
<path d="M15313 10770
L15313 10376
" />
<path d="M15557 10770
L15557 10376
L15707 10376
L15745 10395
L15763 10413
L15782 10451
L15782 10507
L15763 10545
L15745 10563
L15707 10582
L15557 10582
" />
<path d="M15913 10376
L16157 10376
L16026 10526
L16082 10526
L16120 10545
L16138 10563
L16157 10601
L16157 10695
L16138 10732
L16120 10751
L16082 10770
L15970 10770
L15932 10751
L15913 10732
" />
<text x="4348.23" y="14638.8"
textLength="1145.39" font-size="524.934" lengthAdjust="spacingAndGlyphs"
text-anchor="middle" opacity="0">TP4</text>
<path d="M3851 14226
L4076 14226
" />
<path d="M3963 14620
L3963 14226
" />
<path d="M4207 14620
L4207 14226
L4357 14226
L4395 14245
L4413 14263
L4432 14301
L4432 14357
L4413 14395
L4395 14413
L4357 14432
L4207 14432
" />
<path d="M4770 14357
L4770 14620
" />
<path d="M4676 14207
L4582 14488
L4826 14488
" />
<text x="13498.2" y="10788.8"
textLength="1145.39" font-size="524.934" lengthAdjust="spacingAndGlyphs"
text-anchor="middle" opacity="0">TP5</text>
<path d="M13001 10376
L13226 10376
" />
<path d="M13113 10770
L13113 10376
" />
<path d="M13357 10770
L13357 10376
L13507 10376
L13545 10395
L13563 10413
L13582 10451
L13582 10507
L13563 10545
L13545 10563
L13507 10582
L13357 10582
" />
<path d="M13938 10376
L13751 10376
L13732 10563
L13751 10545
L13788 10526
L13882 10526
L13920 10545
L13938 10563
L13957 10601
L13957 10695
L13938 10732
L13920 10751
L13882 10770
L13788 10770
L13751 10751
L13732 10732
" />
<text x="7898.23" y="10788.8"
textLength="1145.39" font-size="524.934" lengthAdjust="spacingAndGlyphs"
text-anchor="middle" opacity="0">TP6</text>
<path d="M7401 10376
L7626 10376
" />
<path d="M7513 10770
L7513 10376
" />
<path d="M7757 10770
L7757 10376
L7907 10376
L7945 10395
L7963 10413
L7982 10451
L7982 10507
L7963 10545
L7945 10563
L7907 10582
L7757 10582
" />
<path d="M8320 10376
L8245 10376
L8207 10395
L8188 10413
L8151 10470
L8132 10545
L8132 10695
L8151 10732
L8170 10751
L8207 10770
L8282 10770
L8320 10751
L8338 10732
L8357 10695
L8357 10601
L8338 10563
L8320 10545
L8282 10526
L8207 10526
L8170 10545
L8151 10563
L8132 10601
" />
<text x="7298.23" y="18588.8"
textLength="864.173" font-size="524.934" lengthAdjust="spacingAndGlyphs"
text-anchor="middle" opacity="0">U5</text>
<path d="M6998 18176
L6998 18495
L7017 18532
L7035 18551
L7073 18570
L7148 18570
L7185 18551
L7204 18532
L7223 18495
L7223 18176
" />
<path d="M7598 18176
L7410 18176
L7391 18363
L7410 18345
L7448 18326
L7541 18326
L7579 18345
L7598 18363
L7616 18401
L7616 18495
L7598 18532
L7579 18551
L7541 18570
L7448 18570
L7410 18551
L7391 18532
" />
<g transform="rotate(-90 4898.23 11692)">
<text x="4898.23" y="11769.5"
textLength="482.725" font-size="206.667" lengthAdjust="spacingAndGlyphs"
text-anchor="middle" opacity="0">FL1</text>
</g>
</g>
<g style="fill:#000000; fill-opacity:0.0; 
stroke:#000000; stroke-width:38.75; stroke-opacity:1; 
stroke-linecap:round; stroke-linejoin:round;">
<path d="M4887 11806
L4887 11858
" />
<path d="M4968 11858
L4813 11858
L4813 11784
" />
<path d="M4968 11651
L4968 11725
L4813 11725
" />
<path d="M4968 11518
L4968 11607
" />
<path d="M4968 11562
L4813 11562
L4835 11577
L4850 11592
L4857 11607
" />
</g>
<g style="fill:#000000; fill-opacity:0.0; 
stroke:#000000; stroke-width:59.0551; stroke-opacity:1; 
stroke-linecap:round; stroke-linejoin:round;">
<text x="3548.23" y="9788.81"
textLength="837.777" font-size="524.934" lengthAdjust="spacingAndGlyphs"
text-anchor="middle" opacity="0">U1</text>
<path d="M3248 9376
L3248 9695
L3267 9732
L3285 9751
L3323 9770
L3398 9770
L3435 9751
L3454 9732
L3473 9695
L3473 9376
" />
<path d="M3866 9770
L3641 9770
" />
<path d="M3754 9770
L3754 9376
L3716 9432
L3679 9470
L3641 9488
" />
<text x="3548.23" y="8838.81"
textLength="376.734" font-size="524.934" lengthAdjust="spacingAndGlyphs"
text-anchor="middle" opacity="0">*</text>
<path d="M3548 8426
L3548 8520
" />
<path d="M3454 8482
L3548 8520
L3641 8482
" />
<path d="M3491 8595
L3548 8520
L3604 8595
" />
<text x="12048.2" y="24478.8"
textLength="864.173" font-size="524.934" lengthAdjust="spacingAndGlyphs"
text-anchor="middle" opacity="0">U6</text>
<path d="M11748 24066
L11748 24385
L11767 24422
L11785 24441
L11823 24460
L11898 24460
L11935 24441
L11954 24422
L11973 24385
L11973 24066
" />
<path d="M12329 24066
L12254 24066
L12216 24085
L12198 24103
L12160 24160
L12141 24235
L12141 24385
L12160 24422
L12179 24441
L12216 24460
L12291 24460
L12329 24441
L12348 24422
L12366 24385
L12366 24291
L12348 24253
L12329 24235
L12291 24216
L12216 24216
L12179 24235
L12160 24253
L12141 24291
" />
<text x="10978.2" y="24418.8"
textLength="376.734" font-size="524.934" lengthAdjust="spacingAndGlyphs"
text-anchor="middle" opacity="0">*</text>
<path d="M10978 24006
L10978 24100
" />
<path d="M10884 24062
L10978 24100
L11071 24062
" />
<path d="M10921 24175
L10978 24100
L11034 24175
" />
<text x="10978.2" y="24418.8"
textLength="376.734" font-size="524.934" lengthAdjust="spacingAndGlyphs"
text-anchor="middle" opacity="0">*</text>
<path d="M10978 24006
L10978 24100
" />
<path d="M10884 24062
L10978 24100
L11071 24062
" />
<path d="M10921 24175
L10978 24100
L11034 24175
" />
<text x="10398.2" y="14358.8"
textLength="864.173" font-size="524.934" lengthAdjust="spacingAndGlyphs"
text-anchor="middle" opacity="0">U4</text>
<path d="M10098 13946
L10098 14265
L10117 14302
L10135 14321
L10173 14340
L10248 14340
L10285 14321
L10304 14302
L10323 14265
L10323 13946
" />
<path d="M10679 14077
L10679 14340
" />
<path d="M10585 13927
L10491 14208
L10735 14208
" />
<text x="12598.2" y="13269.9"
textLength="376.734" font-size="524.934" lengthAdjust="spacingAndGlyphs"
text-anchor="middle" opacity="0">*</text>
<path d="M12598 12857
L12598 12951
" />
<path d="M12504 12913
L12598 12951
L12691 12913
" />
<path d="M12541 13026
L12598 12951
L12654 13026
" />
<text x="12598.2" y="13269.9"
textLength="376.734" font-size="524.934" lengthAdjust="spacingAndGlyphs"
text-anchor="middle" opacity="0">*</text>
<path d="M12598 12857
L12598 12951
" />
<path d="M12504 12913
L12598 12951
L12691 12913
" />
<path d="M12541 13026
L12598 12951
L12654 13026
" />
<g transform="rotate(-90 3274.61 2141.96)">
<text x="3274.61" y="2338.81"
textLength="1276.62" font-size="524.934" lengthAdjust="spacingAndGlyphs"
text-anchor="middle" opacity="0">SW1</text>
</g>
<path d="M3433 2666
L3452 2610
L3452 2516
L3433 2479
L3415 2460
L3377 2441
L3340 2441
L3302 2460
L3283 2479
L3265 2516
L3246 2591
L3227 2629
L3208 2648
L3171 2666
L3133 2666
L3096 2648
L3077 2629
L3059 2591
L3059 2498
L3077 2441
" />
<path d="M3059 2310
L3452 2216
L3171 2141
L3452 2066
L3059 1973
" />
<path d="M3452 1617
L3452 1841
" />
<path d="M3452 1729
L3059 1729
L3115 1767
L3152 1804
L3171 1841
" />
<g transform="rotate(-90 6274.61 2141.96)">
<text x="6274.61" y="2338.81"
textLength="1276.62" font-size="524.934" lengthAdjust="spacingAndGlyphs"
text-anchor="middle" opacity="0">SW2</text>
</g>
<path d="M6433 2666
L6452 2610
L6452 2516
L6433 2479
L6415 2460
L6377 2441
L6340 2441
L6302 2460
L6283 2479
L6265 2516
L6246 2591
L6227 2629
L6208 2648
L6171 2666
L6133 2666
L6096 2648
L6077 2629
L6059 2591
L6059 2498
L6077 2441
" />
<path d="M6059 2310
L6452 2216
L6171 2141
L6452 2066
L6059 1973
" />
<path d="M6096 1841
L6077 1823
L6059 1785
L6059 1692
L6077 1654
L6096 1635
L6133 1617
L6171 1617
L6227 1635
L6452 1860
L6452 1617
" />
<g transform="rotate(-90 9274.61 2141.96)">
<text x="9274.61" y="2338.81"
textLength="1276.62" font-size="524.934" lengthAdjust="spacingAndGlyphs"
text-anchor="middle" opacity="0">SW3</text>
</g>
<path d="M9433 2666
L9452 2610
L9452 2516
L9433 2479
L9415 2460
L9377 2441
L9340 2441
L9302 2460
L9283 2479
L9265 2516
L9246 2591
L9227 2629
L9208 2648
L9171 2666
L9133 2666
L9096 2648
L9077 2629
L9059 2591
L9059 2498
L9077 2441
" />
<path d="M9059 2310
L9452 2216
L9171 2141
L9452 2066
L9059 1973
" />
<path d="M9059 1860
L9059 1617
L9208 1748
L9208 1692
L9227 1654
L9246 1635
L9283 1617
L9377 1617
L9415 1635
L9433 1654
L9452 1692
L9452 1804
L9433 1841
L9415 1860
" />
<g transform="rotate(-90 12274.6 2141.96)">
<text x="12274.6" y="2338.81"
textLength="1276.62" font-size="524.934" lengthAdjust="spacingAndGlyphs"
text-anchor="middle" opacity="0">SW4</text>
</g>
<path d="M12433 2666
L12452 2610
L12452 2516
L12433 2479
L12415 2460
L12377 2441
L12340 2441
L12302 2460
L12283 2479
L12265 2516
L12246 2591
L12227 2629
L12208 2648
L12171 2666
L12133 2666
L12096 2648
L12077 2629
L12059 2591
L12059 2498
L12077 2441
" />
<path d="M12059 2310
L12452 2216
L12171 2141
L12452 2066
L12059 1973
" />
<path d="M12190 1654
L12452 1654
" />
<path d="M12040 1748
L12321 1841
L12321 1598
" />
<text x="5048.23" y="17848.8"
textLength="864.173" font-size="524.934" lengthAdjust="spacingAndGlyphs"
text-anchor="middle" opacity="0">U3</text>
<path d="M4748 17436
L4748 17755
L4767 17792
L4785 17811
L4823 17830
L4898 17830
L4935 17811
L4954 17792
L4973 17755
L4973 17436
" />
<path d="M5123 17436
L5366 17436
L5235 17586
L5291 17586
L5329 17605
L5348 17623
L5366 17661
L5366 17755
L5348 17792
L5329 17811
L5291 17830
L5179 17830
L5141 17811
L5123 17792
" />
<text x="4420.55" y="17767.9"
textLength="376.734" font-size="524.934" lengthAdjust="spacingAndGlyphs"
text-anchor="middle" opacity="0">*</text>
<path d="M4420 17355
L4420 17449
" />
<path d="M4326 17411
L4420 17449
L4514 17411
" />
<path d="M4364 17524
L4420 17449
L4476 17524
" />
<text x="4420.55" y="17767.9"
textLength="376.734" font-size="524.934" lengthAdjust="spacingAndGlyphs"
text-anchor="middle" opacity="0">*</text>
<path d="M4420 17355
L4420 17449
" />
<path d="M4326 17411
L4420 17449
L4514 17411
" />
<path d="M4364 17524
L4420 17449
L4476 17524
" />
<text x="4548.23" y="23238.8"
textLength="751.687" font-size="524.934" lengthAdjust="spacingAndGlyphs"
text-anchor="middle" opacity="0">J2</text>
<path d="M4416 22826
L4416 23107
L4398 23163
L4360 23201
L4304 23220
L4267 23220
" />
<path d="M4585 22863
L4604 22845
L4641 22826
L4735 22826
L4773 22845
L4791 22863
L4810 22901
L4810 22938
L4791 22995
L4566 23220
L4810 23220
" />
<text x="10549.8" y="17831.3"
textLength="864.173" font-size="524.934" lengthAdjust="spacingAndGlyphs"
text-anchor="middle" opacity="0">U2</text>
<path d="M10249 17418
L10249 17737
L10268 17775
L10287 17793
L10324 17812
L10399 17812
L10437 17793
L10456 17775
L10474 17737
L10474 17418
" />
<path d="M10643 17456
L10662 17437
L10699 17418
L10793 17418
L10831 17437
L10849 17456
L10868 17493
L10868 17531
L10849 17587
L10624 17812
L10868 17812
" />
<g >
</g>
</g> 
</svg>
