  0
SECTION
  2
HEADER
  9
$ANGBASE
  50
0.0
  9
$ANGDIR
  70
1
  9
$MEASUREMENT
  70
1
  0
ENDSEC
  0
SECTION
  2
TABLES
  0
TABLE
  2
LTYPE
  70
4
  0
LTYPE
  5
40F
  2
CONTINUOUS
  70
0
  3
Solid line
  72
65
  73
0
  40
0.0
  0
LTYPE
  5
410
  2
DASHDOT
 70
0
  3
Dash Dot ____ _ ____ _
 72
65
 73
4
 40
2.0
 49
1.25
 49
-0.25
 49
0.25
 49
-0.25
  0
LTYPE
  5
411
  2
DASHED
 70
0
  3
Dashed __ __ __ __ __
 72
65
 73
2
 40
0.75
 49
0.5
 49
-0.25
  0
LTYPE
  5
43B
  2
DOTTED
 70
0
  3
Dotted .  .  .  .
 72
65
 73
2
 40
0.2
 49
0.0
 49
-0.2
  0
ENDTAB
  0
TABLE
  2
STYLE
  70
4
  0
STYLE
  2
KICAD
  70
0
  40
0
  41
1
  42
1
  50
0
  71
0
  3
isocp.shx
  0
STYLE
  2
KICADB
  70
0
  40
0
  41
1
  42
1
  50
0
  71
0
  3
isocp.shx
  0
STYLE
  2
KICADI
  70
0
  40
0
  41
1
  42
1
  50
15
  71
0
  3
isocp.shx
  0
STYLE
  2
KICADBI
  70
0
  40
0
  41
1
  42
1
  50
15
  71
0
  3
isocp.shx
  0
ENDTAB
  0
TABLE
  2
LAYER
  70
1
  0
LAYER
  2
BLACK
  70
0
  62
7
  6
CONTINUOUS
  0
ENDTAB
  0
ENDSEC
  0
SECTION
  2
ENTITIES
0
LINE
8
BLACK
6
CONTINUOUS
10
172.721
20
-76.175
11
172.725
21
-76.1754
0
LINE
8
BLACK
6
CONTINUOUS
10
172.725
20
-76.1754
11
172.73
21
-76.1768
0
LINE
8
BLACK
6
CONTINUOUS
10
172.73
20
-76.1768
11
172.734
21
-76.1791
0
LINE
8
BLACK
6
CONTINUOUS
10
172.734
20
-76.1791
11
172.738
21
-76.1822
0
LINE
8
BLACK
6
CONTINUOUS
10
172.738
20
-76.1822
11
172.741
21
-76.186
0
LINE
8
BLACK
6
CONTINUOUS
10
172.741
20
-76.186
11
172.743
21
-76.1904
0
LINE
8
BLACK
6
CONTINUOUS
10
172.743
20
-76.1904
11
172.745
21
-76.1951
0
LINE
8
BLACK
6
CONTINUOUS
10
172.745
20
-76.1951
11
172.745
21
-76.2
0
LINE
8
BLACK
6
CONTINUOUS
10
172.745
20
-76.2
11
172.745
21
-76.2012
0
LINE
8
BLACK
6
CONTINUOUS
10
172.745
20
-76.2012
11
172.745
21
-152.399
0
LINE
8
BLACK
6
CONTINUOUS
10
172.745
20
-152.399
11
172.745
21
-152.4
0
LINE
8
BLACK
6
CONTINUOUS
10
172.745
20
-152.4
11
172.745
21
-152.405
0
LINE
8
BLACK
6
CONTINUOUS
10
172.745
20
-152.405
11
172.743
21
-152.41
0
LINE
8
BLACK
6
CONTINUOUS
10
172.743
20
-152.41
11
172.741
21
-152.414
0
LINE
8
BLACK
6
CONTINUOUS
10
172.741
20
-152.414
11
172.738
21
-152.418
0
LINE
8
BLACK
6
CONTINUOUS
10
172.738
20
-152.418
11
172.734
21
-152.421
0
LINE
8
BLACK
6
CONTINUOUS
10
172.734
20
-152.421
11
172.73
21
-152.423
0
LINE
8
BLACK
6
CONTINUOUS
10
172.73
20
-152.423
11
172.725
21
-152.425
0
LINE
8
BLACK
6
CONTINUOUS
10
172.725
20
-152.425
11
172.721
21
-152.425
0
LINE
8
BLACK
6
CONTINUOUS
10
172.721
20
-152.425
11
172.721
21
-152.425
0
LINE
8
BLACK
6
CONTINUOUS
10
172.721
20
-152.425
11
172.72
21
-152.425
0
LINE
8
BLACK
6
CONTINUOUS
10
172.72
20
-152.425
11
172.719
21
-152.425
0
LINE
8
BLACK
6
CONTINUOUS
10
172.719
20
-152.425
11
135.383
21
-152.425
0
LINE
8
BLACK
6
CONTINUOUS
10
135.383
20
-152.425
11
135.382
21
-152.425
0
LINE
8
BLACK
6
CONTINUOUS
10
135.382
20
-152.425
11
135.381
21
-152.425
0
LINE
8
BLACK
6
CONTINUOUS
10
135.381
20
-152.425
11
135.381
21
-152.425
0
LINE
8
BLACK
6
CONTINUOUS
10
135.381
20
-152.425
11
135.377
21
-152.425
0
LINE
8
BLACK
6
CONTINUOUS
10
135.377
20
-152.425
11
135.372
21
-152.423
0
LINE
8
BLACK
6
CONTINUOUS
10
135.372
20
-152.423
11
135.368
21
-152.421
0
LINE
8
BLACK
6
CONTINUOUS
10
135.368
20
-152.421
11
135.364
21
-152.418
0
LINE
8
BLACK
6
CONTINUOUS
10
135.364
20
-152.418
11
135.361
21
-152.414
0
LINE
8
BLACK
6
CONTINUOUS
10
135.361
20
-152.414
11
135.359
21
-152.41
0
LINE
8
BLACK
6
CONTINUOUS
10
135.359
20
-152.41
11
135.357
21
-152.405
0
LINE
8
BLACK
6
CONTINUOUS
10
135.357
20
-152.405
11
135.357
21
-152.4
0
LINE
8
BLACK
6
CONTINUOUS
10
135.357
20
-152.4
11
135.357
21
-152.399
0
LINE
8
BLACK
6
CONTINUOUS
10
135.357
20
-152.399
11
135.357
21
-148.209
0
LINE
8
BLACK
6
CONTINUOUS
10
135.357
20
-148.209
11
135.357
21
-148.181
0
LINE
8
BLACK
6
CONTINUOUS
10
135.357
20
-148.181
11
135.272
21
-147.371
0
LINE
8
BLACK
6
CONTINUOUS
10
135.272
20
-147.371
11
135.031
21
-146.595
0
LINE
8
BLACK
6
CONTINUOUS
10
135.031
20
-146.595
11
134.645
21
-145.879
0
LINE
8
BLACK
6
CONTINUOUS
10
134.645
20
-145.879
11
134.126
21
-145.253
0
LINE
8
BLACK
6
CONTINUOUS
10
134.126
20
-145.253
11
133.496
21
-144.739
0
LINE
8
BLACK
6
CONTINUOUS
10
133.496
20
-144.739
11
132.778
21
-144.357
0
LINE
8
BLACK
6
CONTINUOUS
10
132.778
20
-144.357
11
132
21
-144.122
0
LINE
8
BLACK
6
CONTINUOUS
10
132
20
-144.122
11
131.19
21
-144.043
0
LINE
8
BLACK
6
CONTINUOUS
10
131.19
20
-144.043
11
127.001
21
-144.043
0
LINE
8
BLACK
6
CONTINUOUS
10
127.001
20
-144.043
11
127
21
-144.043
0
LINE
8
BLACK
6
CONTINUOUS
10
127
20
-144.043
11
126.999
21
-144.043
0
LINE
8
BLACK
6
CONTINUOUS
10
126.999
20
-144.043
11
126.999
21
-144.043
0
LINE
8
BLACK
6
CONTINUOUS
10
126.999
20
-144.043
11
126.995
21
-144.043
0
LINE
8
BLACK
6
CONTINUOUS
10
126.995
20
-144.043
11
126.99
21
-144.041
0
LINE
8
BLACK
6
CONTINUOUS
10
126.99
20
-144.041
11
126.986
21
-144.039
0
LINE
8
BLACK
6
CONTINUOUS
10
126.986
20
-144.039
11
126.982
21
-144.036
0
LINE
8
BLACK
6
CONTINUOUS
10
126.982
20
-144.036
11
126.979
21
-144.032
0
LINE
8
BLACK
6
CONTINUOUS
10
126.979
20
-144.032
11
126.977
21
-144.028
0
LINE
8
BLACK
6
CONTINUOUS
10
126.977
20
-144.028
11
126.975
21
-144.023
0
LINE
8
BLACK
6
CONTINUOUS
10
126.975
20
-144.023
11
126.975
21
-144.018
0
LINE
8
BLACK
6
CONTINUOUS
10
126.975
20
-144.018
11
126.975
21
-144.017
0
LINE
8
BLACK
6
CONTINUOUS
10
126.975
20
-144.017
11
126.975
21
-84.5832
0
LINE
8
BLACK
6
CONTINUOUS
10
126.975
20
-84.5832
11
126.975
21
-84.582
0
LINE
8
BLACK
6
CONTINUOUS
10
126.975
20
-84.582
11
126.975
21
-84.5771
0
LINE
8
BLACK
6
CONTINUOUS
10
126.975
20
-84.5771
11
126.977
21
-84.5724
0
LINE
8
BLACK
6
CONTINUOUS
10
126.977
20
-84.5724
11
126.979
21
-84.568
0
LINE
8
BLACK
6
CONTINUOUS
10
126.979
20
-84.568
11
126.982
21
-84.5642
0
LINE
8
BLACK
6
CONTINUOUS
10
126.982
20
-84.5642
11
126.986
21
-84.5611
0
LINE
8
BLACK
6
CONTINUOUS
10
126.986
20
-84.5611
11
126.99
21
-84.5588
0
LINE
8
BLACK
6
CONTINUOUS
10
126.99
20
-84.5588
11
126.995
21
-84.5574
0
LINE
8
BLACK
6
CONTINUOUS
10
126.995
20
-84.5574
11
126.999
21
-84.557
0
LINE
8
BLACK
6
CONTINUOUS
10
126.999
20
-84.557
11
127
21
-84.5569
0
LINE
8
BLACK
6
CONTINUOUS
10
127
20
-84.5569
11
127.001
21
-84.557
0
LINE
8
BLACK
6
CONTINUOUS
10
127.001
20
-84.557
11
131.191
21
-84.557
0
LINE
8
BLACK
6
CONTINUOUS
10
131.191
20
-84.557
11
131.219
21
-84.5569
0
LINE
8
BLACK
6
CONTINUOUS
10
131.219
20
-84.5569
11
132.029
21
-84.4718
0
LINE
8
BLACK
6
CONTINUOUS
10
132.029
20
-84.4718
11
132.805
21
-84.2314
0
LINE
8
BLACK
6
CONTINUOUS
10
132.805
20
-84.2314
11
133.521
21
-83.8447
0
LINE
8
BLACK
6
CONTINUOUS
10
133.521
20
-83.8447
11
134.147
21
-83.3264
0
LINE
8
BLACK
6
CONTINUOUS
10
134.147
20
-83.3264
11
134.661
21
-82.6964
0
LINE
8
BLACK
6
CONTINUOUS
10
134.661
20
-82.6964
11
135.043
21
-81.9785
0
LINE
8
BLACK
6
CONTINUOUS
10
135.043
20
-81.9785
11
135.278
21
-81.2002
0
LINE
8
BLACK
6
CONTINUOUS
10
135.278
20
-81.2002
11
135.357
21
-80.3898
0
LINE
8
BLACK
6
CONTINUOUS
10
135.357
20
-80.3898
11
135.357
21
-76.2012
0
LINE
8
BLACK
6
CONTINUOUS
10
135.357
20
-76.2012
11
135.357
21
-76.2
0
LINE
8
BLACK
6
CONTINUOUS
10
135.357
20
-76.2
11
135.357
21
-76.1951
0
LINE
8
BLACK
6
CONTINUOUS
10
135.357
20
-76.1951
11
135.359
21
-76.1904
0
LINE
8
BLACK
6
CONTINUOUS
10
135.359
20
-76.1904
11
135.361
21
-76.186
0
LINE
8
BLACK
6
CONTINUOUS
10
135.361
20
-76.186
11
135.364
21
-76.1822
0
LINE
8
BLACK
6
CONTINUOUS
10
135.364
20
-76.1822
11
135.368
21
-76.1791
0
LINE
8
BLACK
6
CONTINUOUS
10
135.368
20
-76.1791
11
135.372
21
-76.1768
0
LINE
8
BLACK
6
CONTINUOUS
10
135.372
20
-76.1768
11
135.377
21
-76.1754
0
LINE
8
BLACK
6
CONTINUOUS
10
135.377
20
-76.1754
11
135.381
21
-76.175
0
LINE
8
BLACK
6
CONTINUOUS
10
135.381
20
-76.175
11
135.381
21
-76.175
0
LINE
8
BLACK
6
CONTINUOUS
10
135.381
20
-76.175
11
135.382
21
-76.1749
0
LINE
8
BLACK
6
CONTINUOUS
10
135.382
20
-76.1749
11
135.383
21
-76.175
0
LINE
8
BLACK
6
CONTINUOUS
10
135.383
20
-76.175
11
172.719
21
-76.175
0
LINE
8
BLACK
6
CONTINUOUS
10
172.719
20
-76.175
11
172.72
21
-76.1749
0
LINE
8
BLACK
6
CONTINUOUS
10
172.72
20
-76.1749
11
172.721
21
-76.175
0
LINE
8
BLACK
6
CONTINUOUS
10
127.025
20
-143.993
11
131.192
21
-143.993
0
LINE
8
BLACK
6
CONTINUOUS
10
131.192
20
-143.993
11
131.193
21
-143.993
0
LINE
8
BLACK
6
CONTINUOUS
10
131.193
20
-143.993
11
131.193
21
-143.993
0
LINE
8
BLACK
6
CONTINUOUS
10
131.193
20
-143.993
11
132.007
21
-144.073
0
LINE
8
BLACK
6
CONTINUOUS
10
132.007
20
-144.073
11
132.008
21
-144.073
0
LINE
8
BLACK
6
CONTINUOUS
10
132.008
20
-144.073
11
132.01
21
-144.073
0
LINE
8
BLACK
6
CONTINUOUS
10
132.01
20
-144.073
11
132.012
21
-144.074
0
LINE
8
BLACK
6
CONTINUOUS
10
132.012
20
-144.074
11
132.795
21
-144.31
0
LINE
8
BLACK
6
CONTINUOUS
10
132.795
20
-144.31
11
132.796
21
-144.31
0
LINE
8
BLACK
6
CONTINUOUS
10
132.796
20
-144.31
11
132.798
21
-144.311
0
LINE
8
BLACK
6
CONTINUOUS
10
132.798
20
-144.311
11
132.8
21
-144.312
0
LINE
8
BLACK
6
CONTINUOUS
10
132.8
20
-144.312
11
133.522
21
-144.696
0
LINE
8
BLACK
6
CONTINUOUS
10
133.522
20
-144.696
11
133.522
21
-144.696
0
LINE
8
BLACK
6
CONTINUOUS
10
133.522
20
-144.696
11
133.524
21
-144.698
0
LINE
8
BLACK
6
CONTINUOUS
10
133.524
20
-144.698
11
133.526
21
-144.699
0
LINE
8
BLACK
6
CONTINUOUS
10
133.526
20
-144.699
11
134.16
21
-145.216
0
LINE
8
BLACK
6
CONTINUOUS
10
134.16
20
-145.216
11
134.16
21
-145.216
0
LINE
8
BLACK
6
CONTINUOUS
10
134.16
20
-145.216
11
134.162
21
-145.218
0
LINE
8
BLACK
6
CONTINUOUS
10
134.162
20
-145.218
11
134.163
21
-145.219
0
LINE
8
BLACK
6
CONTINUOUS
10
134.163
20
-145.219
11
134.685
21
-145.849
0
LINE
8
BLACK
6
CONTINUOUS
10
134.685
20
-145.849
11
134.685
21
-145.85
0
LINE
8
BLACK
6
CONTINUOUS
10
134.685
20
-145.85
11
134.686
21
-145.852
0
LINE
8
BLACK
6
CONTINUOUS
10
134.686
20
-145.852
11
134.687
21
-145.854
0
LINE
8
BLACK
6
CONTINUOUS
10
134.687
20
-145.854
11
135.077
21
-146.573
0
LINE
8
BLACK
6
CONTINUOUS
10
135.077
20
-146.573
11
135.077
21
-146.573
0
LINE
8
BLACK
6
CONTINUOUS
10
135.077
20
-146.573
11
135.078
21
-146.575
0
LINE
8
BLACK
6
CONTINUOUS
10
135.078
20
-146.575
11
135.078
21
-146.578
0
LINE
8
BLACK
6
CONTINUOUS
10
135.078
20
-146.578
11
135.32
21
-147.359
0
LINE
8
BLACK
6
CONTINUOUS
10
135.32
20
-147.359
11
135.32
21
-147.359
0
LINE
8
BLACK
6
CONTINUOUS
10
135.32
20
-147.359
11
135.321
21
-147.361
0
LINE
8
BLACK
6
CONTINUOUS
10
135.321
20
-147.361
11
135.321
21
-147.364
0
LINE
8
BLACK
6
CONTINUOUS
10
135.321
20
-147.364
11
135.407
21
-148.177
0
LINE
8
BLACK
6
CONTINUOUS
10
135.407
20
-148.177
11
135.407
21
-148.177
0
LINE
8
BLACK
6
CONTINUOUS
10
135.407
20
-148.177
11
135.407
21
-148.179
0
LINE
8
BLACK
6
CONTINUOUS
10
135.407
20
-148.179
11
135.407
21
-148.18
0
LINE
8
BLACK
6
CONTINUOUS
10
135.407
20
-148.18
11
135.407
21
-148.208
0
LINE
8
BLACK
6
CONTINUOUS
10
135.407
20
-148.208
11
135.407
21
-148.208
0
LINE
8
BLACK
6
CONTINUOUS
10
135.407
20
-148.208
11
135.407
21
-152.375
0
LINE
8
BLACK
6
CONTINUOUS
10
135.407
20
-152.375
11
172.695
21
-152.375
0
LINE
8
BLACK
6
CONTINUOUS
10
172.695
20
-152.375
11
172.695
21
-76.225
0
LINE
8
BLACK
6
CONTINUOUS
10
172.695
20
-76.225
11
135.407
21
-76.225
0
LINE
8
BLACK
6
CONTINUOUS
10
135.407
20
-76.225
11
135.407
21
-80.3922
0
LINE
8
BLACK
6
CONTINUOUS
10
135.407
20
-80.3922
11
135.407
21
-80.3934
0
LINE
8
BLACK
6
CONTINUOUS
10
135.407
20
-80.3934
11
135.407
21
-80.3934
0
LINE
8
BLACK
6
CONTINUOUS
10
135.407
20
-80.3934
11
135.327
21
-81.2075
0
LINE
8
BLACK
6
CONTINUOUS
10
135.327
20
-81.2075
11
135.327
21
-81.2078
0
LINE
8
BLACK
6
CONTINUOUS
10
135.327
20
-81.2078
11
135.327
21
-81.2101
0
LINE
8
BLACK
6
CONTINUOUS
10
135.327
20
-81.2101
11
135.326
21
-81.2123
0
LINE
8
BLACK
6
CONTINUOUS
10
135.326
20
-81.2123
11
135.09
21
-81.9953
0
LINE
8
BLACK
6
CONTINUOUS
10
135.09
20
-81.9953
11
135.09
21
-81.9956
0
LINE
8
BLACK
6
CONTINUOUS
10
135.09
20
-81.9956
11
135.089
21
-81.9977
0
LINE
8
BLACK
6
CONTINUOUS
10
135.089
20
-81.9977
11
135.088
21
-81.9998
0
LINE
8
BLACK
6
CONTINUOUS
10
135.088
20
-81.9998
11
134.704
21
-82.722
0
LINE
8
BLACK
6
CONTINUOUS
10
134.704
20
-82.722
11
134.704
21
-82.7223
0
LINE
8
BLACK
6
CONTINUOUS
10
134.704
20
-82.7223
11
134.702
21
-82.7242
0
LINE
8
BLACK
6
CONTINUOUS
10
134.702
20
-82.7242
11
134.701
21
-82.7261
0
LINE
8
BLACK
6
CONTINUOUS
10
134.701
20
-82.7261
11
134.184
21
-83.3599
0
LINE
8
BLACK
6
CONTINUOUS
10
134.184
20
-83.3599
11
134.184
21
-83.3602
0
LINE
8
BLACK
6
CONTINUOUS
10
134.184
20
-83.3602
11
134.182
21
-83.3618
0
LINE
8
BLACK
6
CONTINUOUS
10
134.182
20
-83.3618
11
134.181
21
-83.3634
0
LINE
8
BLACK
6
CONTINUOUS
10
134.181
20
-83.3634
11
133.551
21
-83.8848
0
LINE
8
BLACK
6
CONTINUOUS
10
133.551
20
-83.8848
11
133.55
21
-83.885
0
LINE
8
BLACK
6
CONTINUOUS
10
133.55
20
-83.885
11
133.548
21
-83.8862
0
LINE
8
BLACK
6
CONTINUOUS
10
133.548
20
-83.8862
11
133.546
21
-83.8875
0
LINE
8
BLACK
6
CONTINUOUS
10
133.546
20
-83.8875
11
132.827
21
-84.2765
0
LINE
8
BLACK
6
CONTINUOUS
10
132.827
20
-84.2765
11
132.827
21
-84.2767
0
LINE
8
BLACK
6
CONTINUOUS
10
132.827
20
-84.2767
11
132.825
21
-84.2775
0
LINE
8
BLACK
6
CONTINUOUS
10
132.825
20
-84.2775
11
132.822
21
-84.2784
0
LINE
8
BLACK
6
CONTINUOUS
10
132.822
20
-84.2784
11
132.041
21
-84.5203
0
LINE
8
BLACK
6
CONTINUOUS
10
132.041
20
-84.5203
11
132.041
21
-84.5204
0
LINE
8
BLACK
6
CONTINUOUS
10
132.041
20
-84.5204
11
132.039
21
-84.5208
0
LINE
8
BLACK
6
CONTINUOUS
10
132.039
20
-84.5208
11
132.036
21
-84.5213
0
LINE
8
BLACK
6
CONTINUOUS
10
132.036
20
-84.5213
11
131.223
21
-84.6068
0
LINE
8
BLACK
6
CONTINUOUS
10
131.223
20
-84.6068
11
131.223
21
-84.6068
0
LINE
8
BLACK
6
CONTINUOUS
10
131.223
20
-84.6068
11
131.221
21
-84.6068
0
LINE
8
BLACK
6
CONTINUOUS
10
131.221
20
-84.6068
11
131.22
21
-84.6069
0
LINE
8
BLACK
6
CONTINUOUS
10
131.22
20
-84.6069
11
131.192
21
-84.607
0
LINE
8
BLACK
6
CONTINUOUS
10
131.192
20
-84.607
11
131.192
21
-84.607
0
LINE
8
BLACK
6
CONTINUOUS
10
131.192
20
-84.607
11
127.025
21
-84.607
0
LINE
8
BLACK
6
CONTINUOUS
10
127.025
20
-84.607
11
127.025
21
-143.993
  0
ENDSEC
  0
EOF
