  0
SECTION
  2
HEADER
  9
$ANGBASE
  50
0.0
  9
$ANGDIR
  70
1
  9
$MEASUREMENT
  70
1
  0
ENDSEC
  0
SECTION
  2
TABLES
  0
TABLE
  2
LTYPE
  70
4
  0
LTYPE
  5
40F
  2
CONTINUOUS
  70
0
  3
Solid line
  72
65
  73
0
  40
0.0
  0
LTYPE
  5
410
  2
DASHDOT
 70
0
  3
Dash Dot ____ _ ____ _
 72
65
 73
4
 40
2.0
 49
1.25
 49
-0.25
 49
0.25
 49
-0.25
  0
LTYPE
  5
411
  2
DASHED
 70
0
  3
Dashed __ __ __ __ __
 72
65
 73
2
 40
0.75
 49
0.5
 49
-0.25
  0
LTYPE
  5
43B
  2
DOTTED
 70
0
  3
Dotted .  .  .  .
 72
65
 73
2
 40
0.2
 49
0.0
 49
-0.2
  0
ENDTAB
  0
TABLE
  2
STYLE
  70
4
  0
STYLE
  2
KICAD
  70
0
  40
0
  41
1
  42
1
  50
0
  71
0
  3
isocp.shx
  0
STYLE
  2
KICADB
  70
0
  40
0
  41
1
  42
1
  50
0
  71
0
  3
isocp.shx
  0
STYLE
  2
KICADI
  70
0
  40
0
  41
1
  42
1
  50
15
  71
0
  3
isocp.shx
  0
STYLE
  2
KICADBI
  70
0
  40
0
  41
1
  42
1
  50
15
  71
0
  3
isocp.shx
  0
ENDTAB
  0
TABLE
  2
LAYER
  70
1
  0
LAYER
  2
BLACK
  70
0
  62
7
  6
CONTINUOUS
  0
ENDTAB
  0
ENDSEC
  0
SECTION
  2
ENTITIES
0
LINE
8
BLACK
6
CONTINUOUS
10
169.477
20
-145.083
11
170.069
21
-145.328
0
LINE
8
BLACK
6
CONTINUOUS
10
170.069
20
-145.328
11
170.601
21
-145.684
0
LINE
8
BLACK
6
CONTINUOUS
10
170.601
20
-145.684
11
171.054
21
-146.137
0
LINE
8
BLACK
6
CONTINUOUS
10
171.054
20
-146.137
11
171.41
21
-146.669
0
LINE
8
BLACK
6
CONTINUOUS
10
171.41
20
-146.669
11
171.655
21
-147.261
0
LINE
8
BLACK
6
CONTINUOUS
10
171.655
20
-147.261
11
171.78
21
-147.889
0
LINE
8
BLACK
6
CONTINUOUS
10
171.78
20
-147.889
11
171.78
21
-148.529
0
LINE
8
BLACK
6
CONTINUOUS
10
171.78
20
-148.529
11
171.655
21
-149.157
0
LINE
8
BLACK
6
CONTINUOUS
10
171.655
20
-149.157
11
171.41
21
-149.749
0
LINE
8
BLACK
6
CONTINUOUS
10
171.41
20
-149.749
11
171.054
21
-150.281
0
LINE
8
BLACK
6
CONTINUOUS
10
171.054
20
-150.281
11
170.601
21
-150.734
0
LINE
8
BLACK
6
CONTINUOUS
10
170.601
20
-150.734
11
170.069
21
-151.09
0
LINE
8
BLACK
6
CONTINUOUS
10
170.069
20
-151.09
11
169.477
21
-151.335
0
LINE
8
BLACK
6
CONTINUOUS
10
169.477
20
-151.335
11
168.849
21
-151.46
0
LINE
8
BLACK
6
CONTINUOUS
10
168.849
20
-151.46
11
168.209
21
-151.46
0
LINE
8
BLACK
6
CONTINUOUS
10
168.209
20
-151.46
11
167.581
21
-151.335
0
LINE
8
BLACK
6
CONTINUOUS
10
167.581
20
-151.335
11
166.989
21
-151.09
0
LINE
8
BLACK
6
CONTINUOUS
10
166.989
20
-151.09
11
166.457
21
-150.734
0
LINE
8
BLACK
6
CONTINUOUS
10
166.457
20
-150.734
11
166.004
21
-150.281
0
LINE
8
BLACK
6
CONTINUOUS
10
166.004
20
-150.281
11
165.648
21
-149.749
0
LINE
8
BLACK
6
CONTINUOUS
10
165.648
20
-149.749
11
165.403
21
-149.157
0
LINE
8
BLACK
6
CONTINUOUS
10
165.403
20
-149.157
11
165.278
21
-148.529
0
LINE
8
BLACK
6
CONTINUOUS
10
165.278
20
-148.529
11
165.278
21
-147.889
0
LINE
8
BLACK
6
CONTINUOUS
10
165.278
20
-147.889
11
165.403
21
-147.261
0
LINE
8
BLACK
6
CONTINUOUS
10
165.403
20
-147.261
11
165.648
21
-146.669
0
LINE
8
BLACK
6
CONTINUOUS
10
165.648
20
-146.669
11
166.004
21
-146.137
0
LINE
8
BLACK
6
CONTINUOUS
10
166.004
20
-146.137
11
166.457
21
-145.684
0
LINE
8
BLACK
6
CONTINUOUS
10
166.457
20
-145.684
11
166.989
21
-145.328
0
LINE
8
BLACK
6
CONTINUOUS
10
166.989
20
-145.328
11
167.581
21
-145.083
0
LINE
8
BLACK
6
CONTINUOUS
10
167.581
20
-145.083
11
168.209
21
-144.958
0
LINE
8
BLACK
6
CONTINUOUS
10
168.209
20
-144.958
11
168.849
21
-144.958
0
LINE
8
BLACK
6
CONTINUOUS
10
168.849
20
-144.958
11
169.477
21
-145.083
0
LINE
8
BLACK
6
CONTINUOUS
10
150.526
20
-149.891
11
147.924
21
-149.891
0
LINE
8
BLACK
6
CONTINUOUS
10
147.924
20
-149.891
11
147.924
21
-147.289
0
LINE
8
BLACK
6
CONTINUOUS
10
147.924
20
-147.289
11
150.526
21
-147.289
0
LINE
8
BLACK
6
CONTINUOUS
10
150.526
20
-147.289
11
150.526
21
-149.891
0
LINE
8
BLACK
6
CONTINUOUS
10
141.512
20
-142.894
11
141.657
21
-142.938
0
LINE
8
BLACK
6
CONTINUOUS
10
141.657
20
-142.938
11
141.791
21
-143.01
0
LINE
8
BLACK
6
CONTINUOUS
10
141.791
20
-143.01
11
141.909
21
-143.106
0
LINE
8
BLACK
6
CONTINUOUS
10
141.909
20
-143.106
11
142.005
21
-143.224
0
LINE
8
BLACK
6
CONTINUOUS
10
142.005
20
-143.224
11
142.077
21
-143.358
0
LINE
8
BLACK
6
CONTINUOUS
10
142.077
20
-143.358
11
142.121
21
-143.503
0
LINE
8
BLACK
6
CONTINUOUS
10
142.121
20
-143.503
11
142.136
21
-143.655
0
LINE
8
BLACK
6
CONTINUOUS
10
142.136
20
-143.655
11
142.136
21
-145.205
0
LINE
8
BLACK
6
CONTINUOUS
10
142.136
20
-145.205
11
142.121
21
-145.357
0
LINE
8
BLACK
6
CONTINUOUS
10
142.121
20
-145.357
11
142.077
21
-145.502
0
LINE
8
BLACK
6
CONTINUOUS
10
142.077
20
-145.502
11
142.005
21
-145.636
0
LINE
8
BLACK
6
CONTINUOUS
10
142.005
20
-145.636
11
141.909
21
-145.754
0
LINE
8
BLACK
6
CONTINUOUS
10
141.909
20
-145.754
11
141.791
21
-145.85
0
LINE
8
BLACK
6
CONTINUOUS
10
141.791
20
-145.85
11
141.657
21
-145.922
0
LINE
8
BLACK
6
CONTINUOUS
10
141.657
20
-145.922
11
141.512
21
-145.966
0
LINE
8
BLACK
6
CONTINUOUS
10
141.512
20
-145.966
11
141.36
21
-145.981
0
LINE
8
BLACK
6
CONTINUOUS
10
141.36
20
-145.981
11
139.31
21
-145.981
0
LINE
8
BLACK
6
CONTINUOUS
10
139.31
20
-145.981
11
139.158
21
-145.966
0
LINE
8
BLACK
6
CONTINUOUS
10
139.158
20
-145.966
11
139.013
21
-145.922
0
LINE
8
BLACK
6
CONTINUOUS
10
139.013
20
-145.922
11
138.879
21
-145.85
0
LINE
8
BLACK
6
CONTINUOUS
10
138.879
20
-145.85
11
138.761
21
-145.754
0
LINE
8
BLACK
6
CONTINUOUS
10
138.761
20
-145.754
11
138.665
21
-145.636
0
LINE
8
BLACK
6
CONTINUOUS
10
138.665
20
-145.636
11
138.593
21
-145.502
0
LINE
8
BLACK
6
CONTINUOUS
10
138.593
20
-145.502
11
138.549
21
-145.357
0
LINE
8
BLACK
6
CONTINUOUS
10
138.549
20
-145.357
11
138.534
21
-145.205
0
LINE
8
BLACK
6
CONTINUOUS
10
138.534
20
-145.205
11
138.534
21
-143.655
0
LINE
8
BLACK
6
CONTINUOUS
10
138.534
20
-143.655
11
138.549
21
-143.503
0
LINE
8
BLACK
6
CONTINUOUS
10
138.549
20
-143.503
11
138.593
21
-143.358
0
LINE
8
BLACK
6
CONTINUOUS
10
138.593
20
-143.358
11
138.665
21
-143.224
0
LINE
8
BLACK
6
CONTINUOUS
10
138.665
20
-143.224
11
138.761
21
-143.106
0
LINE
8
BLACK
6
CONTINUOUS
10
138.761
20
-143.106
11
138.879
21
-143.01
0
LINE
8
BLACK
6
CONTINUOUS
10
138.879
20
-143.01
11
139.013
21
-142.938
0
LINE
8
BLACK
6
CONTINUOUS
10
139.013
20
-142.938
11
139.158
21
-142.894
0
LINE
8
BLACK
6
CONTINUOUS
10
139.158
20
-142.894
11
139.31
21
-142.879
0
LINE
8
BLACK
6
CONTINUOUS
10
139.31
20
-142.879
11
141.36
21
-142.879
0
LINE
8
BLACK
6
CONTINUOUS
10
141.36
20
-142.879
11
141.512
21
-142.894
0
LINE
8
BLACK
6
CONTINUOUS
10
146.111
20
-139.647
11
146.28
21
-139.698
0
LINE
8
BLACK
6
CONTINUOUS
10
146.28
20
-139.698
11
146.436
21
-139.781
0
LINE
8
BLACK
6
CONTINUOUS
10
146.436
20
-139.781
11
146.572
21
-139.893
0
LINE
8
BLACK
6
CONTINUOUS
10
146.572
20
-139.893
11
146.684
21
-140.029
0
LINE
8
BLACK
6
CONTINUOUS
10
146.684
20
-140.029
11
146.767
21
-140.185
0
LINE
8
BLACK
6
CONTINUOUS
10
146.767
20
-140.185
11
146.818
21
-140.354
0
LINE
8
BLACK
6
CONTINUOUS
10
146.818
20
-140.354
11
146.836
21
-140.53
0
LINE
8
BLACK
6
CONTINUOUS
10
146.836
20
-140.53
11
146.836
21
-142.33
0
LINE
8
BLACK
6
CONTINUOUS
10
146.836
20
-142.33
11
146.818
21
-142.506
0
LINE
8
BLACK
6
CONTINUOUS
10
146.818
20
-142.506
11
146.767
21
-142.675
0
LINE
8
BLACK
6
CONTINUOUS
10
146.767
20
-142.675
11
146.684
21
-142.831
0
LINE
8
BLACK
6
CONTINUOUS
10
146.684
20
-142.831
11
146.572
21
-142.967
0
LINE
8
BLACK
6
CONTINUOUS
10
146.572
20
-142.967
11
146.436
21
-143.079
0
LINE
8
BLACK
6
CONTINUOUS
10
146.436
20
-143.079
11
146.28
21
-143.162
0
LINE
8
BLACK
6
CONTINUOUS
10
146.28
20
-143.162
11
146.111
21
-143.213
0
LINE
8
BLACK
6
CONTINUOUS
10
146.111
20
-143.213
11
145.935
21
-143.231
0
LINE
8
BLACK
6
CONTINUOUS
10
145.935
20
-143.231
11
144.135
21
-143.231
0
LINE
8
BLACK
6
CONTINUOUS
10
144.135
20
-143.231
11
143.959
21
-143.213
0
LINE
8
BLACK
6
CONTINUOUS
10
143.959
20
-143.213
11
143.79
21
-143.162
0
LINE
8
BLACK
6
CONTINUOUS
10
143.79
20
-143.162
11
143.634
21
-143.079
0
LINE
8
BLACK
6
CONTINUOUS
10
143.634
20
-143.079
11
143.498
21
-142.967
0
LINE
8
BLACK
6
CONTINUOUS
10
143.498
20
-142.967
11
143.386
21
-142.831
0
LINE
8
BLACK
6
CONTINUOUS
10
143.386
20
-142.831
11
143.303
21
-142.675
0
LINE
8
BLACK
6
CONTINUOUS
10
143.303
20
-142.675
11
143.252
21
-142.506
0
LINE
8
BLACK
6
CONTINUOUS
10
143.252
20
-142.506
11
143.234
21
-142.33
0
LINE
8
BLACK
6
CONTINUOUS
10
143.234
20
-142.33
11
143.234
21
-140.53
0
LINE
8
BLACK
6
CONTINUOUS
10
143.234
20
-140.53
11
143.252
21
-140.354
0
LINE
8
BLACK
6
CONTINUOUS
10
143.252
20
-140.354
11
143.303
21
-140.185
0
LINE
8
BLACK
6
CONTINUOUS
10
143.303
20
-140.185
11
143.386
21
-140.029
0
LINE
8
BLACK
6
CONTINUOUS
10
143.386
20
-140.029
11
143.498
21
-139.893
0
LINE
8
BLACK
6
CONTINUOUS
10
143.498
20
-139.893
11
143.634
21
-139.781
0
LINE
8
BLACK
6
CONTINUOUS
10
143.634
20
-139.781
11
143.79
21
-139.698
0
LINE
8
BLACK
6
CONTINUOUS
10
143.79
20
-139.698
11
143.959
21
-139.647
0
LINE
8
BLACK
6
CONTINUOUS
10
143.959
20
-139.647
11
144.135
21
-139.629
0
LINE
8
BLACK
6
CONTINUOUS
10
144.135
20
-139.629
11
145.935
21
-139.629
0
LINE
8
BLACK
6
CONTINUOUS
10
145.935
20
-139.629
11
146.111
21
-139.647
0
LINE
8
BLACK
6
CONTINUOUS
10
130.441
20
-143.014
11
128.639
21
-143.014
0
LINE
8
BLACK
6
CONTINUOUS
10
128.639
20
-143.014
11
128.639
21
-141.212
0
LINE
8
BLACK
6
CONTINUOUS
10
128.639
20
-141.212
11
130.441
21
-141.212
0
LINE
8
BLACK
6
CONTINUOUS
10
130.441
20
-141.212
11
130.441
21
-143.014
0
LINE
8
BLACK
6
CONTINUOUS
10
132.343
20
-141.247
11
132.507
21
-141.315
0
LINE
8
BLACK
6
CONTINUOUS
10
132.507
20
-141.315
11
132.654
21
-141.413
0
LINE
8
BLACK
6
CONTINUOUS
10
132.654
20
-141.413
11
132.78
21
-141.539
0
LINE
8
BLACK
6
CONTINUOUS
10
132.78
20
-141.539
11
132.878
21
-141.686
0
LINE
8
BLACK
6
CONTINUOUS
10
132.878
20
-141.686
11
132.946
21
-141.85
0
LINE
8
BLACK
6
CONTINUOUS
10
132.946
20
-141.85
11
132.981
21
-142.024
0
LINE
8
BLACK
6
CONTINUOUS
10
132.981
20
-142.024
11
132.981
21
-142.202
0
LINE
8
BLACK
6
CONTINUOUS
10
132.981
20
-142.202
11
132.946
21
-142.376
0
LINE
8
BLACK
6
CONTINUOUS
10
132.946
20
-142.376
11
132.878
21
-142.54
0
LINE
8
BLACK
6
CONTINUOUS
10
132.878
20
-142.54
11
132.78
21
-142.687
0
LINE
8
BLACK
6
CONTINUOUS
10
132.78
20
-142.687
11
132.654
21
-142.813
0
LINE
8
BLACK
6
CONTINUOUS
10
132.654
20
-142.813
11
132.507
21
-142.911
0
LINE
8
BLACK
6
CONTINUOUS
10
132.507
20
-142.911
11
132.343
21
-142.979
0
LINE
8
BLACK
6
CONTINUOUS
10
132.343
20
-142.979
11
132.169
21
-143.014
0
LINE
8
BLACK
6
CONTINUOUS
10
132.169
20
-143.014
11
131.991
21
-143.014
0
LINE
8
BLACK
6
CONTINUOUS
10
131.991
20
-143.014
11
131.817
21
-142.979
0
LINE
8
BLACK
6
CONTINUOUS
10
131.817
20
-142.979
11
131.653
21
-142.911
0
LINE
8
BLACK
6
CONTINUOUS
10
131.653
20
-142.911
11
131.506
21
-142.813
0
LINE
8
BLACK
6
CONTINUOUS
10
131.506
20
-142.813
11
131.38
21
-142.687
0
LINE
8
BLACK
6
CONTINUOUS
10
131.38
20
-142.687
11
131.282
21
-142.54
0
LINE
8
BLACK
6
CONTINUOUS
10
131.282
20
-142.54
11
131.214
21
-142.376
0
LINE
8
BLACK
6
CONTINUOUS
10
131.214
20
-142.376
11
131.179
21
-142.202
0
LINE
8
BLACK
6
CONTINUOUS
10
131.179
20
-142.202
11
131.179
21
-142.024
0
LINE
8
BLACK
6
CONTINUOUS
10
131.179
20
-142.024
11
131.214
21
-141.85
0
LINE
8
BLACK
6
CONTINUOUS
10
131.214
20
-141.85
11
131.282
21
-141.686
0
LINE
8
BLACK
6
CONTINUOUS
10
131.282
20
-141.686
11
131.38
21
-141.539
0
LINE
8
BLACK
6
CONTINUOUS
10
131.38
20
-141.539
11
131.506
21
-141.413
0
LINE
8
BLACK
6
CONTINUOUS
10
131.506
20
-141.413
11
131.653
21
-141.315
0
LINE
8
BLACK
6
CONTINUOUS
10
131.653
20
-141.315
11
131.817
21
-141.247
0
LINE
8
BLACK
6
CONTINUOUS
10
131.817
20
-141.247
11
131.991
21
-141.212
0
LINE
8
BLACK
6
CONTINUOUS
10
131.991
20
-141.212
11
132.169
21
-141.212
0
LINE
8
BLACK
6
CONTINUOUS
10
132.169
20
-141.212
11
132.343
21
-141.247
0
LINE
8
BLACK
6
CONTINUOUS
10
142.136
20
-140.231
11
138.534
21
-140.231
0
LINE
8
BLACK
6
CONTINUOUS
10
138.534
20
-140.231
11
138.534
21
-136.629
0
LINE
8
BLACK
6
CONTINUOUS
10
138.534
20
-136.629
11
142.136
21
-136.629
0
LINE
8
BLACK
6
CONTINUOUS
10
142.136
20
-136.629
11
142.136
21
-140.231
0
LINE
8
BLACK
6
CONTINUOUS
10
129.803
20
-137.564
11
129.967
21
-137.632
0
LINE
8
BLACK
6
CONTINUOUS
10
129.967
20
-137.632
11
130.114
21
-137.73
0
LINE
8
BLACK
6
CONTINUOUS
10
130.114
20
-137.73
11
130.24
21
-137.856
0
LINE
8
BLACK
6
CONTINUOUS
10
130.24
20
-137.856
11
130.338
21
-138.003
0
LINE
8
BLACK
6
CONTINUOUS
10
130.338
20
-138.003
11
130.406
21
-138.167
0
LINE
8
BLACK
6
CONTINUOUS
10
130.406
20
-138.167
11
130.441
21
-138.341
0
LINE
8
BLACK
6
CONTINUOUS
10
130.441
20
-138.341
11
130.441
21
-138.519
0
LINE
8
BLACK
6
CONTINUOUS
10
130.441
20
-138.519
11
130.406
21
-138.693
0
LINE
8
BLACK
6
CONTINUOUS
10
130.406
20
-138.693
11
130.338
21
-138.857
0
LINE
8
BLACK
6
CONTINUOUS
10
130.338
20
-138.857
11
130.24
21
-139.004
0
LINE
8
BLACK
6
CONTINUOUS
10
130.24
20
-139.004
11
130.114
21
-139.13
0
LINE
8
BLACK
6
CONTINUOUS
10
130.114
20
-139.13
11
129.967
21
-139.228
0
LINE
8
BLACK
6
CONTINUOUS
10
129.967
20
-139.228
11
129.803
21
-139.296
0
LINE
8
BLACK
6
CONTINUOUS
10
129.803
20
-139.296
11
129.629
21
-139.331
0
LINE
8
BLACK
6
CONTINUOUS
10
129.629
20
-139.331
11
129.451
21
-139.331
0
LINE
8
BLACK
6
CONTINUOUS
10
129.451
20
-139.331
11
129.277
21
-139.296
0
LINE
8
BLACK
6
CONTINUOUS
10
129.277
20
-139.296
11
129.113
21
-139.228
0
LINE
8
BLACK
6
CONTINUOUS
10
129.113
20
-139.228
11
128.966
21
-139.13
0
LINE
8
BLACK
6
CONTINUOUS
10
128.966
20
-139.13
11
128.84
21
-139.004
0
LINE
8
BLACK
6
CONTINUOUS
10
128.84
20
-139.004
11
128.742
21
-138.857
0
LINE
8
BLACK
6
CONTINUOUS
10
128.742
20
-138.857
11
128.674
21
-138.693
0
LINE
8
BLACK
6
CONTINUOUS
10
128.674
20
-138.693
11
128.639
21
-138.519
0
LINE
8
BLACK
6
CONTINUOUS
10
128.639
20
-138.519
11
128.639
21
-138.341
0
LINE
8
BLACK
6
CONTINUOUS
10
128.639
20
-138.341
11
128.674
21
-138.167
0
LINE
8
BLACK
6
CONTINUOUS
10
128.674
20
-138.167
11
128.742
21
-138.003
0
LINE
8
BLACK
6
CONTINUOUS
10
128.742
20
-138.003
11
128.84
21
-137.856
0
LINE
8
BLACK
6
CONTINUOUS
10
128.84
20
-137.856
11
128.966
21
-137.73
0
LINE
8
BLACK
6
CONTINUOUS
10
128.966
20
-137.73
11
129.113
21
-137.632
0
LINE
8
BLACK
6
CONTINUOUS
10
129.113
20
-137.632
11
129.277
21
-137.564
0
LINE
8
BLACK
6
CONTINUOUS
10
129.277
20
-137.564
11
129.451
21
-137.529
0
LINE
8
BLACK
6
CONTINUOUS
10
129.451
20
-137.529
11
129.629
21
-137.529
0
LINE
8
BLACK
6
CONTINUOUS
10
129.629
20
-137.529
11
129.803
21
-137.564
0
LINE
8
BLACK
6
CONTINUOUS
10
132.343
20
-137.564
11
132.507
21
-137.632
0
LINE
8
BLACK
6
CONTINUOUS
10
132.507
20
-137.632
11
132.654
21
-137.73
0
LINE
8
BLACK
6
CONTINUOUS
10
132.654
20
-137.73
11
132.78
21
-137.856
0
LINE
8
BLACK
6
CONTINUOUS
10
132.78
20
-137.856
11
132.878
21
-138.003
0
LINE
8
BLACK
6
CONTINUOUS
10
132.878
20
-138.003
11
132.946
21
-138.167
0
LINE
8
BLACK
6
CONTINUOUS
10
132.946
20
-138.167
11
132.981
21
-138.341
0
LINE
8
BLACK
6
CONTINUOUS
10
132.981
20
-138.341
11
132.981
21
-138.519
0
LINE
8
BLACK
6
CONTINUOUS
10
132.981
20
-138.519
11
132.946
21
-138.693
0
LINE
8
BLACK
6
CONTINUOUS
10
132.946
20
-138.693
11
132.878
21
-138.857
0
LINE
8
BLACK
6
CONTINUOUS
10
132.878
20
-138.857
11
132.78
21
-139.004
0
LINE
8
BLACK
6
CONTINUOUS
10
132.78
20
-139.004
11
132.654
21
-139.13
0
LINE
8
BLACK
6
CONTINUOUS
10
132.654
20
-139.13
11
132.507
21
-139.228
0
LINE
8
BLACK
6
CONTINUOUS
10
132.507
20
-139.228
11
132.343
21
-139.296
0
LINE
8
BLACK
6
CONTINUOUS
10
132.343
20
-139.296
11
132.169
21
-139.331
0
LINE
8
BLACK
6
CONTINUOUS
10
132.169
20
-139.331
11
131.991
21
-139.331
0
LINE
8
BLACK
6
CONTINUOUS
10
131.991
20
-139.331
11
131.817
21
-139.296
0
LINE
8
BLACK
6
CONTINUOUS
10
131.817
20
-139.296
11
131.653
21
-139.228
0
LINE
8
BLACK
6
CONTINUOUS
10
131.653
20
-139.228
11
131.506
21
-139.13
0
LINE
8
BLACK
6
CONTINUOUS
10
131.506
20
-139.13
11
131.38
21
-139.004
0
LINE
8
BLACK
6
CONTINUOUS
10
131.38
20
-139.004
11
131.282
21
-138.857
0
LINE
8
BLACK
6
CONTINUOUS
10
131.282
20
-138.857
11
131.214
21
-138.693
0
LINE
8
BLACK
6
CONTINUOUS
10
131.214
20
-138.693
11
131.179
21
-138.519
0
LINE
8
BLACK
6
CONTINUOUS
10
131.179
20
-138.519
11
131.179
21
-138.341
0
LINE
8
BLACK
6
CONTINUOUS
10
131.179
20
-138.341
11
131.214
21
-138.167
0
LINE
8
BLACK
6
CONTINUOUS
10
131.214
20
-138.167
11
131.282
21
-138.003
0
LINE
8
BLACK
6
CONTINUOUS
10
131.282
20
-138.003
11
131.38
21
-137.856
0
LINE
8
BLACK
6
CONTINUOUS
10
131.38
20
-137.856
11
131.506
21
-137.73
0
LINE
8
BLACK
6
CONTINUOUS
10
131.506
20
-137.73
11
131.653
21
-137.632
0
LINE
8
BLACK
6
CONTINUOUS
10
131.653
20
-137.632
11
131.817
21
-137.564
0
LINE
8
BLACK
6
CONTINUOUS
10
131.817
20
-137.564
11
131.991
21
-137.529
0
LINE
8
BLACK
6
CONTINUOUS
10
131.991
20
-137.529
11
132.169
21
-137.529
0
LINE
8
BLACK
6
CONTINUOUS
10
132.169
20
-137.529
11
132.343
21
-137.564
0
LINE
8
BLACK
6
CONTINUOUS
10
170.696
20
-138.946
11
168.394
21
-138.946
0
LINE
8
BLACK
6
CONTINUOUS
10
168.394
20
-138.946
11
168.394
21
-136.644
0
LINE
8
BLACK
6
CONTINUOUS
10
168.394
20
-136.644
11
170.696
21
-136.644
0
LINE
8
BLACK
6
CONTINUOUS
10
170.696
20
-136.644
11
170.696
21
-138.946
0
LINE
8
BLACK
6
CONTINUOUS
10
129.803
20
-135.024
11
129.967
21
-135.092
0
LINE
8
BLACK
6
CONTINUOUS
10
129.967
20
-135.092
11
130.114
21
-135.19
0
LINE
8
BLACK
6
CONTINUOUS
10
130.114
20
-135.19
11
130.24
21
-135.316
0
LINE
8
BLACK
6
CONTINUOUS
10
130.24
20
-135.316
11
130.338
21
-135.463
0
LINE
8
BLACK
6
CONTINUOUS
10
130.338
20
-135.463
11
130.406
21
-135.627
0
LINE
8
BLACK
6
CONTINUOUS
10
130.406
20
-135.627
11
130.441
21
-135.801
0
LINE
8
BLACK
6
CONTINUOUS
10
130.441
20
-135.801
11
130.441
21
-135.979
0
LINE
8
BLACK
6
CONTINUOUS
10
130.441
20
-135.979
11
130.406
21
-136.153
0
LINE
8
BLACK
6
CONTINUOUS
10
130.406
20
-136.153
11
130.338
21
-136.317
0
LINE
8
BLACK
6
CONTINUOUS
10
130.338
20
-136.317
11
130.24
21
-136.464
0
LINE
8
BLACK
6
CONTINUOUS
10
130.24
20
-136.464
11
130.114
21
-136.59
0
LINE
8
BLACK
6
CONTINUOUS
10
130.114
20
-136.59
11
129.967
21
-136.688
0
LINE
8
BLACK
6
CONTINUOUS
10
129.967
20
-136.688
11
129.803
21
-136.756
0
LINE
8
BLACK
6
CONTINUOUS
10
129.803
20
-136.756
11
129.629
21
-136.791
0
LINE
8
BLACK
6
CONTINUOUS
10
129.629
20
-136.791
11
129.451
21
-136.791
0
LINE
8
BLACK
6
CONTINUOUS
10
129.451
20
-136.791
11
129.277
21
-136.756
0
LINE
8
BLACK
6
CONTINUOUS
10
129.277
20
-136.756
11
129.113
21
-136.688
0
LINE
8
BLACK
6
CONTINUOUS
10
129.113
20
-136.688
11
128.966
21
-136.59
0
LINE
8
BLACK
6
CONTINUOUS
10
128.966
20
-136.59
11
128.84
21
-136.464
0
LINE
8
BLACK
6
CONTINUOUS
10
128.84
20
-136.464
11
128.742
21
-136.317
0
LINE
8
BLACK
6
CONTINUOUS
10
128.742
20
-136.317
11
128.674
21
-136.153
0
LINE
8
BLACK
6
CONTINUOUS
10
128.674
20
-136.153
11
128.639
21
-135.979
0
LINE
8
BLACK
6
CONTINUOUS
10
128.639
20
-135.979
11
128.639
21
-135.801
0
LINE
8
BLACK
6
CONTINUOUS
10
128.639
20
-135.801
11
128.674
21
-135.627
0
LINE
8
BLACK
6
CONTINUOUS
10
128.674
20
-135.627
11
128.742
21
-135.463
0
LINE
8
BLACK
6
CONTINUOUS
10
128.742
20
-135.463
11
128.84
21
-135.316
0
LINE
8
BLACK
6
CONTINUOUS
10
128.84
20
-135.316
11
128.966
21
-135.19
0
LINE
8
BLACK
6
CONTINUOUS
10
128.966
20
-135.19
11
129.113
21
-135.092
0
LINE
8
BLACK
6
CONTINUOUS
10
129.113
20
-135.092
11
129.277
21
-135.024
0
LINE
8
BLACK
6
CONTINUOUS
10
129.277
20
-135.024
11
129.451
21
-134.989
0
LINE
8
BLACK
6
CONTINUOUS
10
129.451
20
-134.989
11
129.629
21
-134.989
0
LINE
8
BLACK
6
CONTINUOUS
10
129.629
20
-134.989
11
129.803
21
-135.024
0
LINE
8
BLACK
6
CONTINUOUS
10
132.343
20
-135.024
11
132.507
21
-135.092
0
LINE
8
BLACK
6
CONTINUOUS
10
132.507
20
-135.092
11
132.654
21
-135.19
0
LINE
8
BLACK
6
CONTINUOUS
10
132.654
20
-135.19
11
132.78
21
-135.316
0
LINE
8
BLACK
6
CONTINUOUS
10
132.78
20
-135.316
11
132.878
21
-135.463
0
LINE
8
BLACK
6
CONTINUOUS
10
132.878
20
-135.463
11
132.946
21
-135.627
0
LINE
8
BLACK
6
CONTINUOUS
10
132.946
20
-135.627
11
132.981
21
-135.801
0
LINE
8
BLACK
6
CONTINUOUS
10
132.981
20
-135.801
11
132.981
21
-135.979
0
LINE
8
BLACK
6
CONTINUOUS
10
132.981
20
-135.979
11
132.946
21
-136.153
0
LINE
8
BLACK
6
CONTINUOUS
10
132.946
20
-136.153
11
132.878
21
-136.317
0
LINE
8
BLACK
6
CONTINUOUS
10
132.878
20
-136.317
11
132.78
21
-136.464
0
LINE
8
BLACK
6
CONTINUOUS
10
132.78
20
-136.464
11
132.654
21
-136.59
0
LINE
8
BLACK
6
CONTINUOUS
10
132.654
20
-136.59
11
132.507
21
-136.688
0
LINE
8
BLACK
6
CONTINUOUS
10
132.507
20
-136.688
11
132.343
21
-136.756
0
LINE
8
BLACK
6
CONTINUOUS
10
132.343
20
-136.756
11
132.169
21
-136.791
0
LINE
8
BLACK
6
CONTINUOUS
10
132.169
20
-136.791
11
131.991
21
-136.791
0
LINE
8
BLACK
6
CONTINUOUS
10
131.991
20
-136.791
11
131.817
21
-136.756
0
LINE
8
BLACK
6
CONTINUOUS
10
131.817
20
-136.756
11
131.653
21
-136.688
0
LINE
8
BLACK
6
CONTINUOUS
10
131.653
20
-136.688
11
131.506
21
-136.59
0
LINE
8
BLACK
6
CONTINUOUS
10
131.506
20
-136.59
11
131.38
21
-136.464
0
LINE
8
BLACK
6
CONTINUOUS
10
131.38
20
-136.464
11
131.282
21
-136.317
0
LINE
8
BLACK
6
CONTINUOUS
10
131.282
20
-136.317
11
131.214
21
-136.153
0
LINE
8
BLACK
6
CONTINUOUS
10
131.214
20
-136.153
11
131.179
21
-135.979
0
LINE
8
BLACK
6
CONTINUOUS
10
131.179
20
-135.979
11
131.179
21
-135.801
0
LINE
8
BLACK
6
CONTINUOUS
10
131.179
20
-135.801
11
131.214
21
-135.627
0
LINE
8
BLACK
6
CONTINUOUS
10
131.214
20
-135.627
11
131.282
21
-135.463
0
LINE
8
BLACK
6
CONTINUOUS
10
131.282
20
-135.463
11
131.38
21
-135.316
0
LINE
8
BLACK
6
CONTINUOUS
10
131.38
20
-135.316
11
131.506
21
-135.19
0
LINE
8
BLACK
6
CONTINUOUS
10
131.506
20
-135.19
11
131.653
21
-135.092
0
LINE
8
BLACK
6
CONTINUOUS
10
131.653
20
-135.092
11
131.817
21
-135.024
0
LINE
8
BLACK
6
CONTINUOUS
10
131.817
20
-135.024
11
131.991
21
-134.989
0
LINE
8
BLACK
6
CONTINUOUS
10
131.991
20
-134.989
11
132.169
21
-134.989
0
LINE
8
BLACK
6
CONTINUOUS
10
132.169
20
-134.989
11
132.343
21
-135.024
0
LINE
8
BLACK
6
CONTINUOUS
10
169.881
20
-134.148
11
170.09
21
-134.235
0
LINE
8
BLACK
6
CONTINUOUS
10
170.09
20
-134.235
11
170.279
21
-134.361
0
LINE
8
BLACK
6
CONTINUOUS
10
170.279
20
-134.361
11
170.439
21
-134.521
0
LINE
8
BLACK
6
CONTINUOUS
10
170.439
20
-134.521
11
170.565
21
-134.71
0
LINE
8
BLACK
6
CONTINUOUS
10
170.565
20
-134.71
11
170.652
21
-134.919
0
LINE
8
BLACK
6
CONTINUOUS
10
170.652
20
-134.919
11
170.696
21
-135.142
0
LINE
8
BLACK
6
CONTINUOUS
10
170.696
20
-135.142
11
170.696
21
-135.368
0
LINE
8
BLACK
6
CONTINUOUS
10
170.696
20
-135.368
11
170.652
21
-135.591
0
LINE
8
BLACK
6
CONTINUOUS
10
170.652
20
-135.591
11
170.565
21
-135.8
0
LINE
8
BLACK
6
CONTINUOUS
10
170.565
20
-135.8
11
170.439
21
-135.989
0
LINE
8
BLACK
6
CONTINUOUS
10
170.439
20
-135.989
11
170.279
21
-136.149
0
LINE
8
BLACK
6
CONTINUOUS
10
170.279
20
-136.149
11
170.09
21
-136.275
0
LINE
8
BLACK
6
CONTINUOUS
10
170.09
20
-136.275
11
169.881
21
-136.362
0
LINE
8
BLACK
6
CONTINUOUS
10
169.881
20
-136.362
11
169.658
21
-136.406
0
LINE
8
BLACK
6
CONTINUOUS
10
169.658
20
-136.406
11
169.432
21
-136.406
0
LINE
8
BLACK
6
CONTINUOUS
10
169.432
20
-136.406
11
169.209
21
-136.362
0
LINE
8
BLACK
6
CONTINUOUS
10
169.209
20
-136.362
11
169
21
-136.275
0
LINE
8
BLACK
6
CONTINUOUS
10
169
20
-136.275
11
168.811
21
-136.149
0
LINE
8
BLACK
6
CONTINUOUS
10
168.811
20
-136.149
11
168.651
21
-135.989
0
LINE
8
BLACK
6
CONTINUOUS
10
168.651
20
-135.989
11
168.525
21
-135.8
0
LINE
8
BLACK
6
CONTINUOUS
10
168.525
20
-135.8
11
168.438
21
-135.591
0
LINE
8
BLACK
6
CONTINUOUS
10
168.438
20
-135.591
11
168.394
21
-135.368
0
LINE
8
BLACK
6
CONTINUOUS
10
168.394
20
-135.368
11
168.394
21
-135.142
0
LINE
8
BLACK
6
CONTINUOUS
10
168.394
20
-135.142
11
168.438
21
-134.919
0
LINE
8
BLACK
6
CONTINUOUS
10
168.438
20
-134.919
11
168.525
21
-134.71
0
LINE
8
BLACK
6
CONTINUOUS
10
168.525
20
-134.71
11
168.651
21
-134.521
0
LINE
8
BLACK
6
CONTINUOUS
10
168.651
20
-134.521
11
168.811
21
-134.361
0
LINE
8
BLACK
6
CONTINUOUS
10
168.811
20
-134.361
11
169
21
-134.235
0
LINE
8
BLACK
6
CONTINUOUS
10
169
20
-134.235
11
169.209
21
-134.148
0
LINE
8
BLACK
6
CONTINUOUS
10
169.209
20
-134.148
11
169.432
21
-134.104
0
LINE
8
BLACK
6
CONTINUOUS
10
169.432
20
-134.104
11
169.658
21
-134.104
0
LINE
8
BLACK
6
CONTINUOUS
10
169.658
20
-134.104
11
169.881
21
-134.148
0
LINE
8
BLACK
6
CONTINUOUS
10
129.803
20
-132.484
11
129.967
21
-132.552
0
LINE
8
BLACK
6
CONTINUOUS
10
129.967
20
-132.552
11
130.114
21
-132.65
0
LINE
8
BLACK
6
CONTINUOUS
10
130.114
20
-132.65
11
130.24
21
-132.776
0
LINE
8
BLACK
6
CONTINUOUS
10
130.24
20
-132.776
11
130.338
21
-132.923
0
LINE
8
BLACK
6
CONTINUOUS
10
130.338
20
-132.923
11
130.406
21
-133.087
0
LINE
8
BLACK
6
CONTINUOUS
10
130.406
20
-133.087
11
130.441
21
-133.261
0
LINE
8
BLACK
6
CONTINUOUS
10
130.441
20
-133.261
11
130.441
21
-133.439
0
LINE
8
BLACK
6
CONTINUOUS
10
130.441
20
-133.439
11
130.406
21
-133.613
0
LINE
8
BLACK
6
CONTINUOUS
10
130.406
20
-133.613
11
130.338
21
-133.777
0
LINE
8
BLACK
6
CONTINUOUS
10
130.338
20
-133.777
11
130.24
21
-133.924
0
LINE
8
BLACK
6
CONTINUOUS
10
130.24
20
-133.924
11
130.114
21
-134.05
0
LINE
8
BLACK
6
CONTINUOUS
10
130.114
20
-134.05
11
129.967
21
-134.148
0
LINE
8
BLACK
6
CONTINUOUS
10
129.967
20
-134.148
11
129.803
21
-134.216
0
LINE
8
BLACK
6
CONTINUOUS
10
129.803
20
-134.216
11
129.629
21
-134.251
0
LINE
8
BLACK
6
CONTINUOUS
10
129.629
20
-134.251
11
129.451
21
-134.251
0
LINE
8
BLACK
6
CONTINUOUS
10
129.451
20
-134.251
11
129.277
21
-134.216
0
LINE
8
BLACK
6
CONTINUOUS
10
129.277
20
-134.216
11
129.113
21
-134.148
0
LINE
8
BLACK
6
CONTINUOUS
10
129.113
20
-134.148
11
128.966
21
-134.05
0
LINE
8
BLACK
6
CONTINUOUS
10
128.966
20
-134.05
11
128.84
21
-133.924
0
LINE
8
BLACK
6
CONTINUOUS
10
128.84
20
-133.924
11
128.742
21
-133.777
0
LINE
8
BLACK
6
CONTINUOUS
10
128.742
20
-133.777
11
128.674
21
-133.613
0
LINE
8
BLACK
6
CONTINUOUS
10
128.674
20
-133.613
11
128.639
21
-133.439
0
LINE
8
BLACK
6
CONTINUOUS
10
128.639
20
-133.439
11
128.639
21
-133.261
0
LINE
8
BLACK
6
CONTINUOUS
10
128.639
20
-133.261
11
128.674
21
-133.087
0
LINE
8
BLACK
6
CONTINUOUS
10
128.674
20
-133.087
11
128.742
21
-132.923
0
LINE
8
BLACK
6
CONTINUOUS
10
128.742
20
-132.923
11
128.84
21
-132.776
0
LINE
8
BLACK
6
CONTINUOUS
10
128.84
20
-132.776
11
128.966
21
-132.65
0
LINE
8
BLACK
6
CONTINUOUS
10
128.966
20
-132.65
11
129.113
21
-132.552
0
LINE
8
BLACK
6
CONTINUOUS
10
129.113
20
-132.552
11
129.277
21
-132.484
0
LINE
8
BLACK
6
CONTINUOUS
10
129.277
20
-132.484
11
129.451
21
-132.449
0
LINE
8
BLACK
6
CONTINUOUS
10
129.451
20
-132.449
11
129.629
21
-132.449
0
LINE
8
BLACK
6
CONTINUOUS
10
129.629
20
-132.449
11
129.803
21
-132.484
0
LINE
8
BLACK
6
CONTINUOUS
10
132.343
20
-132.484
11
132.507
21
-132.552
0
LINE
8
BLACK
6
CONTINUOUS
10
132.507
20
-132.552
11
132.654
21
-132.65
0
LINE
8
BLACK
6
CONTINUOUS
10
132.654
20
-132.65
11
132.78
21
-132.776
0
LINE
8
BLACK
6
CONTINUOUS
10
132.78
20
-132.776
11
132.878
21
-132.923
0
LINE
8
BLACK
6
CONTINUOUS
10
132.878
20
-132.923
11
132.946
21
-133.087
0
LINE
8
BLACK
6
CONTINUOUS
10
132.946
20
-133.087
11
132.981
21
-133.261
0
LINE
8
BLACK
6
CONTINUOUS
10
132.981
20
-133.261
11
132.981
21
-133.439
0
LINE
8
BLACK
6
CONTINUOUS
10
132.981
20
-133.439
11
132.946
21
-133.613
0
LINE
8
BLACK
6
CONTINUOUS
10
132.946
20
-133.613
11
132.878
21
-133.777
0
LINE
8
BLACK
6
CONTINUOUS
10
132.878
20
-133.777
11
132.78
21
-133.924
0
LINE
8
BLACK
6
CONTINUOUS
10
132.78
20
-133.924
11
132.654
21
-134.05
0
LINE
8
BLACK
6
CONTINUOUS
10
132.654
20
-134.05
11
132.507
21
-134.148
0
LINE
8
BLACK
6
CONTINUOUS
10
132.507
20
-134.148
11
132.343
21
-134.216
0
LINE
8
BLACK
6
CONTINUOUS
10
132.343
20
-134.216
11
132.169
21
-134.251
0
LINE
8
BLACK
6
CONTINUOUS
10
132.169
20
-134.251
11
131.991
21
-134.251
0
LINE
8
BLACK
6
CONTINUOUS
10
131.991
20
-134.251
11
131.817
21
-134.216
0
LINE
8
BLACK
6
CONTINUOUS
10
131.817
20
-134.216
11
131.653
21
-134.148
0
LINE
8
BLACK
6
CONTINUOUS
10
131.653
20
-134.148
11
131.506
21
-134.05
0
LINE
8
BLACK
6
CONTINUOUS
10
131.506
20
-134.05
11
131.38
21
-133.924
0
LINE
8
BLACK
6
CONTINUOUS
10
131.38
20
-133.924
11
131.282
21
-133.777
0
LINE
8
BLACK
6
CONTINUOUS
10
131.282
20
-133.777
11
131.214
21
-133.613
0
LINE
8
BLACK
6
CONTINUOUS
10
131.214
20
-133.613
11
131.179
21
-133.439
0
LINE
8
BLACK
6
CONTINUOUS
10
131.179
20
-133.439
11
131.179
21
-133.261
0
LINE
8
BLACK
6
CONTINUOUS
10
131.179
20
-133.261
11
131.214
21
-133.087
0
LINE
8
BLACK
6
CONTINUOUS
10
131.214
20
-133.087
11
131.282
21
-132.923
0
LINE
8
BLACK
6
CONTINUOUS
10
131.282
20
-132.923
11
131.38
21
-132.776
0
LINE
8
BLACK
6
CONTINUOUS
10
131.38
20
-132.776
11
131.506
21
-132.65
0
LINE
8
BLACK
6
CONTINUOUS
10
131.506
20
-132.65
11
131.653
21
-132.552
0
LINE
8
BLACK
6
CONTINUOUS
10
131.653
20
-132.552
11
131.817
21
-132.484
0
LINE
8
BLACK
6
CONTINUOUS
10
131.817
20
-132.484
11
131.991
21
-132.449
0
LINE
8
BLACK
6
CONTINUOUS
10
131.991
20
-132.449
11
132.169
21
-132.449
0
LINE
8
BLACK
6
CONTINUOUS
10
132.169
20
-132.449
11
132.343
21
-132.484
0
LINE
8
BLACK
6
CONTINUOUS
10
169.881
20
-131.608
11
170.09
21
-131.695
0
LINE
8
BLACK
6
CONTINUOUS
10
170.09
20
-131.695
11
170.279
21
-131.821
0
LINE
8
BLACK
6
CONTINUOUS
10
170.279
20
-131.821
11
170.439
21
-131.981
0
LINE
8
BLACK
6
CONTINUOUS
10
170.439
20
-131.981
11
170.565
21
-132.17
0
LINE
8
BLACK
6
CONTINUOUS
10
170.565
20
-132.17
11
170.652
21
-132.379
0
LINE
8
BLACK
6
CONTINUOUS
10
170.652
20
-132.379
11
170.696
21
-132.602
0
LINE
8
BLACK
6
CONTINUOUS
10
170.696
20
-132.602
11
170.696
21
-132.828
0
LINE
8
BLACK
6
CONTINUOUS
10
170.696
20
-132.828
11
170.652
21
-133.051
0
LINE
8
BLACK
6
CONTINUOUS
10
170.652
20
-133.051
11
170.565
21
-133.26
0
LINE
8
BLACK
6
CONTINUOUS
10
170.565
20
-133.26
11
170.439
21
-133.449
0
LINE
8
BLACK
6
CONTINUOUS
10
170.439
20
-133.449
11
170.279
21
-133.609
0
LINE
8
BLACK
6
CONTINUOUS
10
170.279
20
-133.609
11
170.09
21
-133.735
0
LINE
8
BLACK
6
CONTINUOUS
10
170.09
20
-133.735
11
169.881
21
-133.822
0
LINE
8
BLACK
6
CONTINUOUS
10
169.881
20
-133.822
11
169.658
21
-133.866
0
LINE
8
BLACK
6
CONTINUOUS
10
169.658
20
-133.866
11
169.432
21
-133.866
0
LINE
8
BLACK
6
CONTINUOUS
10
169.432
20
-133.866
11
169.209
21
-133.822
0
LINE
8
BLACK
6
CONTINUOUS
10
169.209
20
-133.822
11
169
21
-133.735
0
LINE
8
BLACK
6
CONTINUOUS
10
169
20
-133.735
11
168.811
21
-133.609
0
LINE
8
BLACK
6
CONTINUOUS
10
168.811
20
-133.609
11
168.651
21
-133.449
0
LINE
8
BLACK
6
CONTINUOUS
10
168.651
20
-133.449
11
168.525
21
-133.26
0
LINE
8
BLACK
6
CONTINUOUS
10
168.525
20
-133.26
11
168.438
21
-133.051
0
LINE
8
BLACK
6
CONTINUOUS
10
168.438
20
-133.051
11
168.394
21
-132.828
0
LINE
8
BLACK
6
CONTINUOUS
10
168.394
20
-132.828
11
168.394
21
-132.602
0
LINE
8
BLACK
6
CONTINUOUS
10
168.394
20
-132.602
11
168.438
21
-132.379
0
LINE
8
BLACK
6
CONTINUOUS
10
168.438
20
-132.379
11
168.525
21
-132.17
0
LINE
8
BLACK
6
CONTINUOUS
10
168.525
20
-132.17
11
168.651
21
-131.981
0
LINE
8
BLACK
6
CONTINUOUS
10
168.651
20
-131.981
11
168.811
21
-131.821
0
LINE
8
BLACK
6
CONTINUOUS
10
168.811
20
-131.821
11
169
21
-131.695
0
LINE
8
BLACK
6
CONTINUOUS
10
169
20
-131.695
11
169.209
21
-131.608
0
LINE
8
BLACK
6
CONTINUOUS
10
169.209
20
-131.608
11
169.432
21
-131.564
0
LINE
8
BLACK
6
CONTINUOUS
10
169.432
20
-131.564
11
169.658
21
-131.564
0
LINE
8
BLACK
6
CONTINUOUS
10
169.658
20
-131.564
11
169.881
21
-131.608
0
LINE
8
BLACK
6
CONTINUOUS
10
157.108
20
-131.214
11
157.272
21
-131.282
0
LINE
8
BLACK
6
CONTINUOUS
10
157.272
20
-131.282
11
157.419
21
-131.38
0
LINE
8
BLACK
6
CONTINUOUS
10
157.419
20
-131.38
11
157.545
21
-131.506
0
LINE
8
BLACK
6
CONTINUOUS
10
157.545
20
-131.506
11
157.643
21
-131.653
0
LINE
8
BLACK
6
CONTINUOUS
10
157.643
20
-131.653
11
157.711
21
-131.817
0
LINE
8
BLACK
6
CONTINUOUS
10
157.711
20
-131.817
11
157.746
21
-131.991
0
LINE
8
BLACK
6
CONTINUOUS
10
157.746
20
-131.991
11
157.746
21
-132.169
0
LINE
8
BLACK
6
CONTINUOUS
10
157.746
20
-132.169
11
157.711
21
-132.343
0
LINE
8
BLACK
6
CONTINUOUS
10
157.711
20
-132.343
11
157.643
21
-132.507
0
LINE
8
BLACK
6
CONTINUOUS
10
157.643
20
-132.507
11
157.545
21
-132.654
0
LINE
8
BLACK
6
CONTINUOUS
10
157.545
20
-132.654
11
157.419
21
-132.78
0
LINE
8
BLACK
6
CONTINUOUS
10
157.419
20
-132.78
11
157.272
21
-132.878
0
LINE
8
BLACK
6
CONTINUOUS
10
157.272
20
-132.878
11
157.108
21
-132.946
0
LINE
8
BLACK
6
CONTINUOUS
10
157.108
20
-132.946
11
156.934
21
-132.981
0
LINE
8
BLACK
6
CONTINUOUS
10
156.934
20
-132.981
11
156.756
21
-132.981
0
LINE
8
BLACK
6
CONTINUOUS
10
156.756
20
-132.981
11
156.582
21
-132.946
0
LINE
8
BLACK
6
CONTINUOUS
10
156.582
20
-132.946
11
156.418
21
-132.878
0
LINE
8
BLACK
6
CONTINUOUS
10
156.418
20
-132.878
11
156.271
21
-132.78
0
LINE
8
BLACK
6
CONTINUOUS
10
156.271
20
-132.78
11
156.145
21
-132.654
0
LINE
8
BLACK
6
CONTINUOUS
10
156.145
20
-132.654
11
156.047
21
-132.507
0
LINE
8
BLACK
6
CONTINUOUS
10
156.047
20
-132.507
11
155.979
21
-132.343
0
LINE
8
BLACK
6
CONTINUOUS
10
155.979
20
-132.343
11
155.944
21
-132.169
0
LINE
8
BLACK
6
CONTINUOUS
10
155.944
20
-132.169
11
155.944
21
-131.991
0
LINE
8
BLACK
6
CONTINUOUS
10
155.944
20
-131.991
11
155.979
21
-131.817
0
LINE
8
BLACK
6
CONTINUOUS
10
155.979
20
-131.817
11
156.047
21
-131.653
0
LINE
8
BLACK
6
CONTINUOUS
10
156.047
20
-131.653
11
156.145
21
-131.506
0
LINE
8
BLACK
6
CONTINUOUS
10
156.145
20
-131.506
11
156.271
21
-131.38
0
LINE
8
BLACK
6
CONTINUOUS
10
156.271
20
-131.38
11
156.418
21
-131.282
0
LINE
8
BLACK
6
CONTINUOUS
10
156.418
20
-131.282
11
156.582
21
-131.214
0
LINE
8
BLACK
6
CONTINUOUS
10
156.582
20
-131.214
11
156.756
21
-131.179
0
LINE
8
BLACK
6
CONTINUOUS
10
156.756
20
-131.179
11
156.934
21
-131.179
0
LINE
8
BLACK
6
CONTINUOUS
10
156.934
20
-131.179
11
157.108
21
-131.214
0
LINE
8
BLACK
6
CONTINUOUS
10
159.648
20
-131.214
11
159.812
21
-131.282
0
LINE
8
BLACK
6
CONTINUOUS
10
159.812
20
-131.282
11
159.959
21
-131.38
0
LINE
8
BLACK
6
CONTINUOUS
10
159.959
20
-131.38
11
160.085
21
-131.506
0
LINE
8
BLACK
6
CONTINUOUS
10
160.085
20
-131.506
11
160.183
21
-131.653
0
LINE
8
BLACK
6
CONTINUOUS
10
160.183
20
-131.653
11
160.251
21
-131.817
0
LINE
8
BLACK
6
CONTINUOUS
10
160.251
20
-131.817
11
160.286
21
-131.991
0
LINE
8
BLACK
6
CONTINUOUS
10
160.286
20
-131.991
11
160.286
21
-132.169
0
LINE
8
BLACK
6
CONTINUOUS
10
160.286
20
-132.169
11
160.251
21
-132.343
0
LINE
8
BLACK
6
CONTINUOUS
10
160.251
20
-132.343
11
160.183
21
-132.507
0
LINE
8
BLACK
6
CONTINUOUS
10
160.183
20
-132.507
11
160.085
21
-132.654
0
LINE
8
BLACK
6
CONTINUOUS
10
160.085
20
-132.654
11
159.959
21
-132.78
0
LINE
8
BLACK
6
CONTINUOUS
10
159.959
20
-132.78
11
159.812
21
-132.878
0
LINE
8
BLACK
6
CONTINUOUS
10
159.812
20
-132.878
11
159.648
21
-132.946
0
LINE
8
BLACK
6
CONTINUOUS
10
159.648
20
-132.946
11
159.474
21
-132.981
0
LINE
8
BLACK
6
CONTINUOUS
10
159.474
20
-132.981
11
159.296
21
-132.981
0
LINE
8
BLACK
6
CONTINUOUS
10
159.296
20
-132.981
11
159.122
21
-132.946
0
LINE
8
BLACK
6
CONTINUOUS
10
159.122
20
-132.946
11
158.958
21
-132.878
0
LINE
8
BLACK
6
CONTINUOUS
10
158.958
20
-132.878
11
158.811
21
-132.78
0
LINE
8
BLACK
6
CONTINUOUS
10
158.811
20
-132.78
11
158.685
21
-132.654
0
LINE
8
BLACK
6
CONTINUOUS
10
158.685
20
-132.654
11
158.587
21
-132.507
0
LINE
8
BLACK
6
CONTINUOUS
10
158.587
20
-132.507
11
158.519
21
-132.343
0
LINE
8
BLACK
6
CONTINUOUS
10
158.519
20
-132.343
11
158.484
21
-132.169
0
LINE
8
BLACK
6
CONTINUOUS
10
158.484
20
-132.169
11
158.484
21
-131.991
0
LINE
8
BLACK
6
CONTINUOUS
10
158.484
20
-131.991
11
158.519
21
-131.817
0
LINE
8
BLACK
6
CONTINUOUS
10
158.519
20
-131.817
11
158.587
21
-131.653
0
LINE
8
BLACK
6
CONTINUOUS
10
158.587
20
-131.653
11
158.685
21
-131.506
0
LINE
8
BLACK
6
CONTINUOUS
10
158.685
20
-131.506
11
158.811
21
-131.38
0
LINE
8
BLACK
6
CONTINUOUS
10
158.811
20
-131.38
11
158.958
21
-131.282
0
LINE
8
BLACK
6
CONTINUOUS
10
158.958
20
-131.282
11
159.122
21
-131.214
0
LINE
8
BLACK
6
CONTINUOUS
10
159.122
20
-131.214
11
159.296
21
-131.179
0
LINE
8
BLACK
6
CONTINUOUS
10
159.296
20
-131.179
11
159.474
21
-131.179
0
LINE
8
BLACK
6
CONTINUOUS
10
159.474
20
-131.179
11
159.648
21
-131.214
0
LINE
8
BLACK
6
CONTINUOUS
10
129.803
20
-129.944
11
129.967
21
-130.012
0
LINE
8
BLACK
6
CONTINUOUS
10
129.967
20
-130.012
11
130.114
21
-130.11
0
LINE
8
BLACK
6
CONTINUOUS
10
130.114
20
-130.11
11
130.24
21
-130.236
0
LINE
8
BLACK
6
CONTINUOUS
10
130.24
20
-130.236
11
130.338
21
-130.383
0
LINE
8
BLACK
6
CONTINUOUS
10
130.338
20
-130.383
11
130.406
21
-130.547
0
LINE
8
BLACK
6
CONTINUOUS
10
130.406
20
-130.547
11
130.441
21
-130.721
0
LINE
8
BLACK
6
CONTINUOUS
10
130.441
20
-130.721
11
130.441
21
-130.899
0
LINE
8
BLACK
6
CONTINUOUS
10
130.441
20
-130.899
11
130.406
21
-131.073
0
LINE
8
BLACK
6
CONTINUOUS
10
130.406
20
-131.073
11
130.338
21
-131.237
0
LINE
8
BLACK
6
CONTINUOUS
10
130.338
20
-131.237
11
130.24
21
-131.384
0
LINE
8
BLACK
6
CONTINUOUS
10
130.24
20
-131.384
11
130.114
21
-131.51
0
LINE
8
BLACK
6
CONTINUOUS
10
130.114
20
-131.51
11
129.967
21
-131.608
0
LINE
8
BLACK
6
CONTINUOUS
10
129.967
20
-131.608
11
129.803
21
-131.676
0
LINE
8
BLACK
6
CONTINUOUS
10
129.803
20
-131.676
11
129.629
21
-131.711
0
LINE
8
BLACK
6
CONTINUOUS
10
129.629
20
-131.711
11
129.451
21
-131.711
0
LINE
8
BLACK
6
CONTINUOUS
10
129.451
20
-131.711
11
129.277
21
-131.676
0
LINE
8
BLACK
6
CONTINUOUS
10
129.277
20
-131.676
11
129.113
21
-131.608
0
LINE
8
BLACK
6
CONTINUOUS
10
129.113
20
-131.608
11
128.966
21
-131.51
0
LINE
8
BLACK
6
CONTINUOUS
10
128.966
20
-131.51
11
128.84
21
-131.384
0
LINE
8
BLACK
6
CONTINUOUS
10
128.84
20
-131.384
11
128.742
21
-131.237
0
LINE
8
BLACK
6
CONTINUOUS
10
128.742
20
-131.237
11
128.674
21
-131.073
0
LINE
8
BLACK
6
CONTINUOUS
10
128.674
20
-131.073
11
128.639
21
-130.899
0
LINE
8
BLACK
6
CONTINUOUS
10
128.639
20
-130.899
11
128.639
21
-130.721
0
LINE
8
BLACK
6
CONTINUOUS
10
128.639
20
-130.721
11
128.674
21
-130.547
0
LINE
8
BLACK
6
CONTINUOUS
10
128.674
20
-130.547
11
128.742
21
-130.383
0
LINE
8
BLACK
6
CONTINUOUS
10
128.742
20
-130.383
11
128.84
21
-130.236
0
LINE
8
BLACK
6
CONTINUOUS
10
128.84
20
-130.236
11
128.966
21
-130.11
0
LINE
8
BLACK
6
CONTINUOUS
10
128.966
20
-130.11
11
129.113
21
-130.012
0
LINE
8
BLACK
6
CONTINUOUS
10
129.113
20
-130.012
11
129.277
21
-129.944
0
LINE
8
BLACK
6
CONTINUOUS
10
129.277
20
-129.944
11
129.451
21
-129.909
0
LINE
8
BLACK
6
CONTINUOUS
10
129.451
20
-129.909
11
129.629
21
-129.909
0
LINE
8
BLACK
6
CONTINUOUS
10
129.629
20
-129.909
11
129.803
21
-129.944
0
LINE
8
BLACK
6
CONTINUOUS
10
132.343
20
-129.944
11
132.507
21
-130.012
0
LINE
8
BLACK
6
CONTINUOUS
10
132.507
20
-130.012
11
132.654
21
-130.11
0
LINE
8
BLACK
6
CONTINUOUS
10
132.654
20
-130.11
11
132.78
21
-130.236
0
LINE
8
BLACK
6
CONTINUOUS
10
132.78
20
-130.236
11
132.878
21
-130.383
0
LINE
8
BLACK
6
CONTINUOUS
10
132.878
20
-130.383
11
132.946
21
-130.547
0
LINE
8
BLACK
6
CONTINUOUS
10
132.946
20
-130.547
11
132.981
21
-130.721
0
LINE
8
BLACK
6
CONTINUOUS
10
132.981
20
-130.721
11
132.981
21
-130.899
0
LINE
8
BLACK
6
CONTINUOUS
10
132.981
20
-130.899
11
132.946
21
-131.073
0
LINE
8
BLACK
6
CONTINUOUS
10
132.946
20
-131.073
11
132.878
21
-131.237
0
LINE
8
BLACK
6
CONTINUOUS
10
132.878
20
-131.237
11
132.78
21
-131.384
0
LINE
8
BLACK
6
CONTINUOUS
10
132.78
20
-131.384
11
132.654
21
-131.51
0
LINE
8
BLACK
6
CONTINUOUS
10
132.654
20
-131.51
11
132.507
21
-131.608
0
LINE
8
BLACK
6
CONTINUOUS
10
132.507
20
-131.608
11
132.343
21
-131.676
0
LINE
8
BLACK
6
CONTINUOUS
10
132.343
20
-131.676
11
132.169
21
-131.711
0
LINE
8
BLACK
6
CONTINUOUS
10
132.169
20
-131.711
11
131.991
21
-131.711
0
LINE
8
BLACK
6
CONTINUOUS
10
131.991
20
-131.711
11
131.817
21
-131.676
0
LINE
8
BLACK
6
CONTINUOUS
10
131.817
20
-131.676
11
131.653
21
-131.608
0
LINE
8
BLACK
6
CONTINUOUS
10
131.653
20
-131.608
11
131.506
21
-131.51
0
LINE
8
BLACK
6
CONTINUOUS
10
131.506
20
-131.51
11
131.38
21
-131.384
0
LINE
8
BLACK
6
CONTINUOUS
10
131.38
20
-131.384
11
131.282
21
-131.237
0
LINE
8
BLACK
6
CONTINUOUS
10
131.282
20
-131.237
11
131.214
21
-131.073
0
LINE
8
BLACK
6
CONTINUOUS
10
131.214
20
-131.073
11
131.179
21
-130.899
0
LINE
8
BLACK
6
CONTINUOUS
10
131.179
20
-130.899
11
131.179
21
-130.721
0
LINE
8
BLACK
6
CONTINUOUS
10
131.179
20
-130.721
11
131.214
21
-130.547
0
LINE
8
BLACK
6
CONTINUOUS
10
131.214
20
-130.547
11
131.282
21
-130.383
0
LINE
8
BLACK
6
CONTINUOUS
10
131.282
20
-130.383
11
131.38
21
-130.236
0
LINE
8
BLACK
6
CONTINUOUS
10
131.38
20
-130.236
11
131.506
21
-130.11
0
LINE
8
BLACK
6
CONTINUOUS
10
131.506
20
-130.11
11
131.653
21
-130.012
0
LINE
8
BLACK
6
CONTINUOUS
10
131.653
20
-130.012
11
131.817
21
-129.944
0
LINE
8
BLACK
6
CONTINUOUS
10
131.817
20
-129.944
11
131.991
21
-129.909
0
LINE
8
BLACK
6
CONTINUOUS
10
131.991
20
-129.909
11
132.169
21
-129.909
0
LINE
8
BLACK
6
CONTINUOUS
10
132.169
20
-129.909
11
132.343
21
-129.944
0
LINE
8
BLACK
6
CONTINUOUS
10
169.881
20
-129.068
11
170.09
21
-129.155
0
LINE
8
BLACK
6
CONTINUOUS
10
170.09
20
-129.155
11
170.279
21
-129.281
0
LINE
8
BLACK
6
CONTINUOUS
10
170.279
20
-129.281
11
170.439
21
-129.441
0
LINE
8
BLACK
6
CONTINUOUS
10
170.439
20
-129.441
11
170.565
21
-129.63
0
LINE
8
BLACK
6
CONTINUOUS
10
170.565
20
-129.63
11
170.652
21
-129.839
0
LINE
8
BLACK
6
CONTINUOUS
10
170.652
20
-129.839
11
170.696
21
-130.062
0
LINE
8
BLACK
6
CONTINUOUS
10
170.696
20
-130.062
11
170.696
21
-130.288
0
LINE
8
BLACK
6
CONTINUOUS
10
170.696
20
-130.288
11
170.652
21
-130.511
0
LINE
8
BLACK
6
CONTINUOUS
10
170.652
20
-130.511
11
170.565
21
-130.72
0
LINE
8
BLACK
6
CONTINUOUS
10
170.565
20
-130.72
11
170.439
21
-130.909
0
LINE
8
BLACK
6
CONTINUOUS
10
170.439
20
-130.909
11
170.279
21
-131.069
0
LINE
8
BLACK
6
CONTINUOUS
10
170.279
20
-131.069
11
170.09
21
-131.195
0
LINE
8
BLACK
6
CONTINUOUS
10
170.09
20
-131.195
11
169.881
21
-131.282
0
LINE
8
BLACK
6
CONTINUOUS
10
169.881
20
-131.282
11
169.658
21
-131.326
0
LINE
8
BLACK
6
CONTINUOUS
10
169.658
20
-131.326
11
169.432
21
-131.326
0
LINE
8
BLACK
6
CONTINUOUS
10
169.432
20
-131.326
11
169.209
21
-131.282
0
LINE
8
BLACK
6
CONTINUOUS
10
169.209
20
-131.282
11
169
21
-131.195
0
LINE
8
BLACK
6
CONTINUOUS
10
169
20
-131.195
11
168.811
21
-131.069
0
LINE
8
BLACK
6
CONTINUOUS
10
168.811
20
-131.069
11
168.651
21
-130.909
0
LINE
8
BLACK
6
CONTINUOUS
10
168.651
20
-130.909
11
168.525
21
-130.72
0
LINE
8
BLACK
6
CONTINUOUS
10
168.525
20
-130.72
11
168.438
21
-130.511
0
LINE
8
BLACK
6
CONTINUOUS
10
168.438
20
-130.511
11
168.394
21
-130.288
0
LINE
8
BLACK
6
CONTINUOUS
10
168.394
20
-130.288
11
168.394
21
-130.062
0
LINE
8
BLACK
6
CONTINUOUS
10
168.394
20
-130.062
11
168.438
21
-129.839
0
LINE
8
BLACK
6
CONTINUOUS
10
168.438
20
-129.839
11
168.525
21
-129.63
0
LINE
8
BLACK
6
CONTINUOUS
10
168.525
20
-129.63
11
168.651
21
-129.441
0
LINE
8
BLACK
6
CONTINUOUS
10
168.651
20
-129.441
11
168.811
21
-129.281
0
LINE
8
BLACK
6
CONTINUOUS
10
168.811
20
-129.281
11
169
21
-129.155
0
LINE
8
BLACK
6
CONTINUOUS
10
169
20
-129.155
11
169.209
21
-129.068
0
LINE
8
BLACK
6
CONTINUOUS
10
169.209
20
-129.068
11
169.432
21
-129.024
0
LINE
8
BLACK
6
CONTINUOUS
10
169.432
20
-129.024
11
169.658
21
-129.024
0
LINE
8
BLACK
6
CONTINUOUS
10
169.658
20
-129.024
11
169.881
21
-129.068
0
LINE
8
BLACK
6
CONTINUOUS
10
159.648
20
-128.674
11
159.812
21
-128.742
0
LINE
8
BLACK
6
CONTINUOUS
10
159.812
20
-128.742
11
159.959
21
-128.84
0
LINE
8
BLACK
6
CONTINUOUS
10
159.959
20
-128.84
11
160.085
21
-128.966
0
LINE
8
BLACK
6
CONTINUOUS
10
160.085
20
-128.966
11
160.183
21
-129.113
0
LINE
8
BLACK
6
CONTINUOUS
10
160.183
20
-129.113
11
160.251
21
-129.277
0
LINE
8
BLACK
6
CONTINUOUS
10
160.251
20
-129.277
11
160.286
21
-129.451
0
LINE
8
BLACK
6
CONTINUOUS
10
160.286
20
-129.451
11
160.286
21
-129.629
0
LINE
8
BLACK
6
CONTINUOUS
10
160.286
20
-129.629
11
160.251
21
-129.803
0
LINE
8
BLACK
6
CONTINUOUS
10
160.251
20
-129.803
11
160.183
21
-129.967
0
LINE
8
BLACK
6
CONTINUOUS
10
160.183
20
-129.967
11
160.085
21
-130.114
0
LINE
8
BLACK
6
CONTINUOUS
10
160.085
20
-130.114
11
159.959
21
-130.24
0
LINE
8
BLACK
6
CONTINUOUS
10
159.959
20
-130.24
11
159.812
21
-130.338
0
LINE
8
BLACK
6
CONTINUOUS
10
159.812
20
-130.338
11
159.648
21
-130.406
0
LINE
8
BLACK
6
CONTINUOUS
10
159.648
20
-130.406
11
159.474
21
-130.441
0
LINE
8
BLACK
6
CONTINUOUS
10
159.474
20
-130.441
11
159.296
21
-130.441
0
LINE
8
BLACK
6
CONTINUOUS
10
159.296
20
-130.441
11
159.122
21
-130.406
0
LINE
8
BLACK
6
CONTINUOUS
10
159.122
20
-130.406
11
158.958
21
-130.338
0
LINE
8
BLACK
6
CONTINUOUS
10
158.958
20
-130.338
11
158.811
21
-130.24
0
LINE
8
BLACK
6
CONTINUOUS
10
158.811
20
-130.24
11
158.685
21
-130.114
0
LINE
8
BLACK
6
CONTINUOUS
10
158.685
20
-130.114
11
158.587
21
-129.967
0
LINE
8
BLACK
6
CONTINUOUS
10
158.587
20
-129.967
11
158.519
21
-129.803
0
LINE
8
BLACK
6
CONTINUOUS
10
158.519
20
-129.803
11
158.484
21
-129.629
0
LINE
8
BLACK
6
CONTINUOUS
10
158.484
20
-129.629
11
158.484
21
-129.451
0
LINE
8
BLACK
6
CONTINUOUS
10
158.484
20
-129.451
11
158.519
21
-129.277
0
LINE
8
BLACK
6
CONTINUOUS
10
158.519
20
-129.277
11
158.587
21
-129.113
0
LINE
8
BLACK
6
CONTINUOUS
10
158.587
20
-129.113
11
158.685
21
-128.966
0
LINE
8
BLACK
6
CONTINUOUS
10
158.685
20
-128.966
11
158.811
21
-128.84
0
LINE
8
BLACK
6
CONTINUOUS
10
158.811
20
-128.84
11
158.958
21
-128.742
0
LINE
8
BLACK
6
CONTINUOUS
10
158.958
20
-128.742
11
159.122
21
-128.674
0
LINE
8
BLACK
6
CONTINUOUS
10
159.122
20
-128.674
11
159.296
21
-128.639
0
LINE
8
BLACK
6
CONTINUOUS
10
159.296
20
-128.639
11
159.474
21
-128.639
0
LINE
8
BLACK
6
CONTINUOUS
10
159.474
20
-128.639
11
159.648
21
-128.674
0
LINE
8
BLACK
6
CONTINUOUS
10
157.108
20
-128.674
11
157.272
21
-128.742
0
LINE
8
BLACK
6
CONTINUOUS
10
157.272
20
-128.742
11
157.419
21
-128.84
0
LINE
8
BLACK
6
CONTINUOUS
10
157.419
20
-128.84
11
157.545
21
-128.966
0
LINE
8
BLACK
6
CONTINUOUS
10
157.545
20
-128.966
11
157.643
21
-129.113
0
LINE
8
BLACK
6
CONTINUOUS
10
157.643
20
-129.113
11
157.711
21
-129.277
0
LINE
8
BLACK
6
CONTINUOUS
10
157.711
20
-129.277
11
157.746
21
-129.451
0
LINE
8
BLACK
6
CONTINUOUS
10
157.746
20
-129.451
11
157.746
21
-129.629
0
LINE
8
BLACK
6
CONTINUOUS
10
157.746
20
-129.629
11
157.711
21
-129.803
0
LINE
8
BLACK
6
CONTINUOUS
10
157.711
20
-129.803
11
157.643
21
-129.967
0
LINE
8
BLACK
6
CONTINUOUS
10
157.643
20
-129.967
11
157.545
21
-130.114
0
LINE
8
BLACK
6
CONTINUOUS
10
157.545
20
-130.114
11
157.419
21
-130.24
0
LINE
8
BLACK
6
CONTINUOUS
10
157.419
20
-130.24
11
157.272
21
-130.338
0
LINE
8
BLACK
6
CONTINUOUS
10
157.272
20
-130.338
11
157.108
21
-130.406
0
LINE
8
BLACK
6
CONTINUOUS
10
157.108
20
-130.406
11
156.934
21
-130.441
0
LINE
8
BLACK
6
CONTINUOUS
10
156.934
20
-130.441
11
156.756
21
-130.441
0
LINE
8
BLACK
6
CONTINUOUS
10
156.756
20
-130.441
11
156.582
21
-130.406
0
LINE
8
BLACK
6
CONTINUOUS
10
156.582
20
-130.406
11
156.418
21
-130.338
0
LINE
8
BLACK
6
CONTINUOUS
10
156.418
20
-130.338
11
156.271
21
-130.24
0
LINE
8
BLACK
6
CONTINUOUS
10
156.271
20
-130.24
11
156.145
21
-130.114
0
LINE
8
BLACK
6
CONTINUOUS
10
156.145
20
-130.114
11
156.047
21
-129.967
0
LINE
8
BLACK
6
CONTINUOUS
10
156.047
20
-129.967
11
155.979
21
-129.803
0
LINE
8
BLACK
6
CONTINUOUS
10
155.979
20
-129.803
11
155.944
21
-129.629
0
LINE
8
BLACK
6
CONTINUOUS
10
155.944
20
-129.629
11
155.944
21
-129.451
0
LINE
8
BLACK
6
CONTINUOUS
10
155.944
20
-129.451
11
155.979
21
-129.277
0
LINE
8
BLACK
6
CONTINUOUS
10
155.979
20
-129.277
11
156.047
21
-129.113
0
LINE
8
BLACK
6
CONTINUOUS
10
156.047
20
-129.113
11
156.145
21
-128.966
0
LINE
8
BLACK
6
CONTINUOUS
10
156.145
20
-128.966
11
156.271
21
-128.84
0
LINE
8
BLACK
6
CONTINUOUS
10
156.271
20
-128.84
11
156.418
21
-128.742
0
LINE
8
BLACK
6
CONTINUOUS
10
156.418
20
-128.742
11
156.582
21
-128.674
0
LINE
8
BLACK
6
CONTINUOUS
10
156.582
20
-128.674
11
156.756
21
-128.639
0
LINE
8
BLACK
6
CONTINUOUS
10
156.756
20
-128.639
11
156.934
21
-128.639
0
LINE
8
BLACK
6
CONTINUOUS
10
156.934
20
-128.639
11
157.108
21
-128.674
0
LINE
8
BLACK
6
CONTINUOUS
10
129.803
20
-127.404
11
129.967
21
-127.472
0
LINE
8
BLACK
6
CONTINUOUS
10
129.967
20
-127.472
11
130.114
21
-127.57
0
LINE
8
BLACK
6
CONTINUOUS
10
130.114
20
-127.57
11
130.24
21
-127.696
0
LINE
8
BLACK
6
CONTINUOUS
10
130.24
20
-127.696
11
130.338
21
-127.843
0
LINE
8
BLACK
6
CONTINUOUS
10
130.338
20
-127.843
11
130.406
21
-128.007
0
LINE
8
BLACK
6
CONTINUOUS
10
130.406
20
-128.007
11
130.441
21
-128.181
0
LINE
8
BLACK
6
CONTINUOUS
10
130.441
20
-128.181
11
130.441
21
-128.359
0
LINE
8
BLACK
6
CONTINUOUS
10
130.441
20
-128.359
11
130.406
21
-128.533
0
LINE
8
BLACK
6
CONTINUOUS
10
130.406
20
-128.533
11
130.338
21
-128.697
0
LINE
8
BLACK
6
CONTINUOUS
10
130.338
20
-128.697
11
130.24
21
-128.844
0
LINE
8
BLACK
6
CONTINUOUS
10
130.24
20
-128.844
11
130.114
21
-128.97
0
LINE
8
BLACK
6
CONTINUOUS
10
130.114
20
-128.97
11
129.967
21
-129.068
0
LINE
8
BLACK
6
CONTINUOUS
10
129.967
20
-129.068
11
129.803
21
-129.136
0
LINE
8
BLACK
6
CONTINUOUS
10
129.803
20
-129.136
11
129.629
21
-129.171
0
LINE
8
BLACK
6
CONTINUOUS
10
129.629
20
-129.171
11
129.451
21
-129.171
0
LINE
8
BLACK
6
CONTINUOUS
10
129.451
20
-129.171
11
129.277
21
-129.136
0
LINE
8
BLACK
6
CONTINUOUS
10
129.277
20
-129.136
11
129.113
21
-129.068
0
LINE
8
BLACK
6
CONTINUOUS
10
129.113
20
-129.068
11
128.966
21
-128.97
0
LINE
8
BLACK
6
CONTINUOUS
10
128.966
20
-128.97
11
128.84
21
-128.844
0
LINE
8
BLACK
6
CONTINUOUS
10
128.84
20
-128.844
11
128.742
21
-128.697
0
LINE
8
BLACK
6
CONTINUOUS
10
128.742
20
-128.697
11
128.674
21
-128.533
0
LINE
8
BLACK
6
CONTINUOUS
10
128.674
20
-128.533
11
128.639
21
-128.359
0
LINE
8
BLACK
6
CONTINUOUS
10
128.639
20
-128.359
11
128.639
21
-128.181
0
LINE
8
BLACK
6
CONTINUOUS
10
128.639
20
-128.181
11
128.674
21
-128.007
0
LINE
8
BLACK
6
CONTINUOUS
10
128.674
20
-128.007
11
128.742
21
-127.843
0
LINE
8
BLACK
6
CONTINUOUS
10
128.742
20
-127.843
11
128.84
21
-127.696
0
LINE
8
BLACK
6
CONTINUOUS
10
128.84
20
-127.696
11
128.966
21
-127.57
0
LINE
8
BLACK
6
CONTINUOUS
10
128.966
20
-127.57
11
129.113
21
-127.472
0
LINE
8
BLACK
6
CONTINUOUS
10
129.113
20
-127.472
11
129.277
21
-127.404
0
LINE
8
BLACK
6
CONTINUOUS
10
129.277
20
-127.404
11
129.451
21
-127.369
0
LINE
8
BLACK
6
CONTINUOUS
10
129.451
20
-127.369
11
129.629
21
-127.369
0
LINE
8
BLACK
6
CONTINUOUS
10
129.629
20
-127.369
11
129.803
21
-127.404
0
LINE
8
BLACK
6
CONTINUOUS
10
132.343
20
-127.404
11
132.507
21
-127.472
0
LINE
8
BLACK
6
CONTINUOUS
10
132.507
20
-127.472
11
132.654
21
-127.57
0
LINE
8
BLACK
6
CONTINUOUS
10
132.654
20
-127.57
11
132.78
21
-127.696
0
LINE
8
BLACK
6
CONTINUOUS
10
132.78
20
-127.696
11
132.878
21
-127.843
0
LINE
8
BLACK
6
CONTINUOUS
10
132.878
20
-127.843
11
132.946
21
-128.007
0
LINE
8
BLACK
6
CONTINUOUS
10
132.946
20
-128.007
11
132.981
21
-128.181
0
LINE
8
BLACK
6
CONTINUOUS
10
132.981
20
-128.181
11
132.981
21
-128.359
0
LINE
8
BLACK
6
CONTINUOUS
10
132.981
20
-128.359
11
132.946
21
-128.533
0
LINE
8
BLACK
6
CONTINUOUS
10
132.946
20
-128.533
11
132.878
21
-128.697
0
LINE
8
BLACK
6
CONTINUOUS
10
132.878
20
-128.697
11
132.78
21
-128.844
0
LINE
8
BLACK
6
CONTINUOUS
10
132.78
20
-128.844
11
132.654
21
-128.97
0
LINE
8
BLACK
6
CONTINUOUS
10
132.654
20
-128.97
11
132.507
21
-129.068
0
LINE
8
BLACK
6
CONTINUOUS
10
132.507
20
-129.068
11
132.343
21
-129.136
0
LINE
8
BLACK
6
CONTINUOUS
10
132.343
20
-129.136
11
132.169
21
-129.171
0
LINE
8
BLACK
6
CONTINUOUS
10
132.169
20
-129.171
11
131.991
21
-129.171
0
LINE
8
BLACK
6
CONTINUOUS
10
131.991
20
-129.171
11
131.817
21
-129.136
0
LINE
8
BLACK
6
CONTINUOUS
10
131.817
20
-129.136
11
131.653
21
-129.068
0
LINE
8
BLACK
6
CONTINUOUS
10
131.653
20
-129.068
11
131.506
21
-128.97
0
LINE
8
BLACK
6
CONTINUOUS
10
131.506
20
-128.97
11
131.38
21
-128.844
0
LINE
8
BLACK
6
CONTINUOUS
10
131.38
20
-128.844
11
131.282
21
-128.697
0
LINE
8
BLACK
6
CONTINUOUS
10
131.282
20
-128.697
11
131.214
21
-128.533
0
LINE
8
BLACK
6
CONTINUOUS
10
131.214
20
-128.533
11
131.179
21
-128.359
0
LINE
8
BLACK
6
CONTINUOUS
10
131.179
20
-128.359
11
131.179
21
-128.181
0
LINE
8
BLACK
6
CONTINUOUS
10
131.179
20
-128.181
11
131.214
21
-128.007
0
LINE
8
BLACK
6
CONTINUOUS
10
131.214
20
-128.007
11
131.282
21
-127.843
0
LINE
8
BLACK
6
CONTINUOUS
10
131.282
20
-127.843
11
131.38
21
-127.696
0
LINE
8
BLACK
6
CONTINUOUS
10
131.38
20
-127.696
11
131.506
21
-127.57
0
LINE
8
BLACK
6
CONTINUOUS
10
131.506
20
-127.57
11
131.653
21
-127.472
0
LINE
8
BLACK
6
CONTINUOUS
10
131.653
20
-127.472
11
131.817
21
-127.404
0
LINE
8
BLACK
6
CONTINUOUS
10
131.817
20
-127.404
11
131.991
21
-127.369
0
LINE
8
BLACK
6
CONTINUOUS
10
131.991
20
-127.369
11
132.169
21
-127.369
0
LINE
8
BLACK
6
CONTINUOUS
10
132.169
20
-127.369
11
132.343
21
-127.404
0
LINE
8
BLACK
6
CONTINUOUS
10
159.648
20
-126.134
11
159.812
21
-126.202
0
LINE
8
BLACK
6
CONTINUOUS
10
159.812
20
-126.202
11
159.959
21
-126.3
0
LINE
8
BLACK
6
CONTINUOUS
10
159.959
20
-126.3
11
160.085
21
-126.426
0
LINE
8
BLACK
6
CONTINUOUS
10
160.085
20
-126.426
11
160.183
21
-126.573
0
LINE
8
BLACK
6
CONTINUOUS
10
160.183
20
-126.573
11
160.251
21
-126.737
0
LINE
8
BLACK
6
CONTINUOUS
10
160.251
20
-126.737
11
160.286
21
-126.911
0
LINE
8
BLACK
6
CONTINUOUS
10
160.286
20
-126.911
11
160.286
21
-127.089
0
LINE
8
BLACK
6
CONTINUOUS
10
160.286
20
-127.089
11
160.251
21
-127.263
0
LINE
8
BLACK
6
CONTINUOUS
10
160.251
20
-127.263
11
160.183
21
-127.427
0
LINE
8
BLACK
6
CONTINUOUS
10
160.183
20
-127.427
11
160.085
21
-127.574
0
LINE
8
BLACK
6
CONTINUOUS
10
160.085
20
-127.574
11
159.959
21
-127.7
0
LINE
8
BLACK
6
CONTINUOUS
10
159.959
20
-127.7
11
159.812
21
-127.798
0
LINE
8
BLACK
6
CONTINUOUS
10
159.812
20
-127.798
11
159.648
21
-127.866
0
LINE
8
BLACK
6
CONTINUOUS
10
159.648
20
-127.866
11
159.474
21
-127.901
0
LINE
8
BLACK
6
CONTINUOUS
10
159.474
20
-127.901
11
159.296
21
-127.901
0
LINE
8
BLACK
6
CONTINUOUS
10
159.296
20
-127.901
11
159.122
21
-127.866
0
LINE
8
BLACK
6
CONTINUOUS
10
159.122
20
-127.866
11
158.958
21
-127.798
0
LINE
8
BLACK
6
CONTINUOUS
10
158.958
20
-127.798
11
158.811
21
-127.7
0
LINE
8
BLACK
6
CONTINUOUS
10
158.811
20
-127.7
11
158.685
21
-127.574
0
LINE
8
BLACK
6
CONTINUOUS
10
158.685
20
-127.574
11
158.587
21
-127.427
0
LINE
8
BLACK
6
CONTINUOUS
10
158.587
20
-127.427
11
158.519
21
-127.263
0
LINE
8
BLACK
6
CONTINUOUS
10
158.519
20
-127.263
11
158.484
21
-127.089
0
LINE
8
BLACK
6
CONTINUOUS
10
158.484
20
-127.089
11
158.484
21
-126.911
0
LINE
8
BLACK
6
CONTINUOUS
10
158.484
20
-126.911
11
158.519
21
-126.737
0
LINE
8
BLACK
6
CONTINUOUS
10
158.519
20
-126.737
11
158.587
21
-126.573
0
LINE
8
BLACK
6
CONTINUOUS
10
158.587
20
-126.573
11
158.685
21
-126.426
0
LINE
8
BLACK
6
CONTINUOUS
10
158.685
20
-126.426
11
158.811
21
-126.3
0
LINE
8
BLACK
6
CONTINUOUS
10
158.811
20
-126.3
11
158.958
21
-126.202
0
LINE
8
BLACK
6
CONTINUOUS
10
158.958
20
-126.202
11
159.122
21
-126.134
0
LINE
8
BLACK
6
CONTINUOUS
10
159.122
20
-126.134
11
159.296
21
-126.099
0
LINE
8
BLACK
6
CONTINUOUS
10
159.296
20
-126.099
11
159.474
21
-126.099
0
LINE
8
BLACK
6
CONTINUOUS
10
159.474
20
-126.099
11
159.648
21
-126.134
0
LINE
8
BLACK
6
CONTINUOUS
10
157.108
20
-126.134
11
157.272
21
-126.202
0
LINE
8
BLACK
6
CONTINUOUS
10
157.272
20
-126.202
11
157.419
21
-126.3
0
LINE
8
BLACK
6
CONTINUOUS
10
157.419
20
-126.3
11
157.545
21
-126.426
0
LINE
8
BLACK
6
CONTINUOUS
10
157.545
20
-126.426
11
157.643
21
-126.573
0
LINE
8
BLACK
6
CONTINUOUS
10
157.643
20
-126.573
11
157.711
21
-126.737
0
LINE
8
BLACK
6
CONTINUOUS
10
157.711
20
-126.737
11
157.746
21
-126.911
0
LINE
8
BLACK
6
CONTINUOUS
10
157.746
20
-126.911
11
157.746
21
-127.089
0
LINE
8
BLACK
6
CONTINUOUS
10
157.746
20
-127.089
11
157.711
21
-127.263
0
LINE
8
BLACK
6
CONTINUOUS
10
157.711
20
-127.263
11
157.643
21
-127.427
0
LINE
8
BLACK
6
CONTINUOUS
10
157.643
20
-127.427
11
157.545
21
-127.574
0
LINE
8
BLACK
6
CONTINUOUS
10
157.545
20
-127.574
11
157.419
21
-127.7
0
LINE
8
BLACK
6
CONTINUOUS
10
157.419
20
-127.7
11
157.272
21
-127.798
0
LINE
8
BLACK
6
CONTINUOUS
10
157.272
20
-127.798
11
157.108
21
-127.866
0
LINE
8
BLACK
6
CONTINUOUS
10
157.108
20
-127.866
11
156.934
21
-127.901
0
LINE
8
BLACK
6
CONTINUOUS
10
156.934
20
-127.901
11
156.756
21
-127.901
0
LINE
8
BLACK
6
CONTINUOUS
10
156.756
20
-127.901
11
156.582
21
-127.866
0
LINE
8
BLACK
6
CONTINUOUS
10
156.582
20
-127.866
11
156.418
21
-127.798
0
LINE
8
BLACK
6
CONTINUOUS
10
156.418
20
-127.798
11
156.271
21
-127.7
0
LINE
8
BLACK
6
CONTINUOUS
10
156.271
20
-127.7
11
156.145
21
-127.574
0
LINE
8
BLACK
6
CONTINUOUS
10
156.145
20
-127.574
11
156.047
21
-127.427
0
LINE
8
BLACK
6
CONTINUOUS
10
156.047
20
-127.427
11
155.979
21
-127.263
0
LINE
8
BLACK
6
CONTINUOUS
10
155.979
20
-127.263
11
155.944
21
-127.089
0
LINE
8
BLACK
6
CONTINUOUS
10
155.944
20
-127.089
11
155.944
21
-126.911
0
LINE
8
BLACK
6
CONTINUOUS
10
155.944
20
-126.911
11
155.979
21
-126.737
0
LINE
8
BLACK
6
CONTINUOUS
10
155.979
20
-126.737
11
156.047
21
-126.573
0
LINE
8
BLACK
6
CONTINUOUS
10
156.047
20
-126.573
11
156.145
21
-126.426
0
LINE
8
BLACK
6
CONTINUOUS
10
156.145
20
-126.426
11
156.271
21
-126.3
0
LINE
8
BLACK
6
CONTINUOUS
10
156.271
20
-126.3
11
156.418
21
-126.202
0
LINE
8
BLACK
6
CONTINUOUS
10
156.418
20
-126.202
11
156.582
21
-126.134
0
LINE
8
BLACK
6
CONTINUOUS
10
156.582
20
-126.134
11
156.756
21
-126.099
0
LINE
8
BLACK
6
CONTINUOUS
10
156.756
20
-126.099
11
156.934
21
-126.099
0
LINE
8
BLACK
6
CONTINUOUS
10
156.934
20
-126.099
11
157.108
21
-126.134
0
LINE
8
BLACK
6
CONTINUOUS
10
129.803
20
-124.864
11
129.967
21
-124.932
0
LINE
8
BLACK
6
CONTINUOUS
10
129.967
20
-124.932
11
130.114
21
-125.03
0
LINE
8
BLACK
6
CONTINUOUS
10
130.114
20
-125.03
11
130.24
21
-125.156
0
LINE
8
BLACK
6
CONTINUOUS
10
130.24
20
-125.156
11
130.338
21
-125.303
0
LINE
8
BLACK
6
CONTINUOUS
10
130.338
20
-125.303
11
130.406
21
-125.467
0
LINE
8
BLACK
6
CONTINUOUS
10
130.406
20
-125.467
11
130.441
21
-125.641
0
LINE
8
BLACK
6
CONTINUOUS
10
130.441
20
-125.641
11
130.441
21
-125.819
0
LINE
8
BLACK
6
CONTINUOUS
10
130.441
20
-125.819
11
130.406
21
-125.993
0
LINE
8
BLACK
6
CONTINUOUS
10
130.406
20
-125.993
11
130.338
21
-126.157
0
LINE
8
BLACK
6
CONTINUOUS
10
130.338
20
-126.157
11
130.24
21
-126.304
0
LINE
8
BLACK
6
CONTINUOUS
10
130.24
20
-126.304
11
130.114
21
-126.43
0
LINE
8
BLACK
6
CONTINUOUS
10
130.114
20
-126.43
11
129.967
21
-126.528
0
LINE
8
BLACK
6
CONTINUOUS
10
129.967
20
-126.528
11
129.803
21
-126.596
0
LINE
8
BLACK
6
CONTINUOUS
10
129.803
20
-126.596
11
129.629
21
-126.631
0
LINE
8
BLACK
6
CONTINUOUS
10
129.629
20
-126.631
11
129.451
21
-126.631
0
LINE
8
BLACK
6
CONTINUOUS
10
129.451
20
-126.631
11
129.277
21
-126.596
0
LINE
8
BLACK
6
CONTINUOUS
10
129.277
20
-126.596
11
129.113
21
-126.528
0
LINE
8
BLACK
6
CONTINUOUS
10
129.113
20
-126.528
11
128.966
21
-126.43
0
LINE
8
BLACK
6
CONTINUOUS
10
128.966
20
-126.43
11
128.84
21
-126.304
0
LINE
8
BLACK
6
CONTINUOUS
10
128.84
20
-126.304
11
128.742
21
-126.157
0
LINE
8
BLACK
6
CONTINUOUS
10
128.742
20
-126.157
11
128.674
21
-125.993
0
LINE
8
BLACK
6
CONTINUOUS
10
128.674
20
-125.993
11
128.639
21
-125.819
0
LINE
8
BLACK
6
CONTINUOUS
10
128.639
20
-125.819
11
128.639
21
-125.641
0
LINE
8
BLACK
6
CONTINUOUS
10
128.639
20
-125.641
11
128.674
21
-125.467
0
LINE
8
BLACK
6
CONTINUOUS
10
128.674
20
-125.467
11
128.742
21
-125.303
0
LINE
8
BLACK
6
CONTINUOUS
10
128.742
20
-125.303
11
128.84
21
-125.156
0
LINE
8
BLACK
6
CONTINUOUS
10
128.84
20
-125.156
11
128.966
21
-125.03
0
LINE
8
BLACK
6
CONTINUOUS
10
128.966
20
-125.03
11
129.113
21
-124.932
0
LINE
8
BLACK
6
CONTINUOUS
10
129.113
20
-124.932
11
129.277
21
-124.864
0
LINE
8
BLACK
6
CONTINUOUS
10
129.277
20
-124.864
11
129.451
21
-124.829
0
LINE
8
BLACK
6
CONTINUOUS
10
129.451
20
-124.829
11
129.629
21
-124.829
0
LINE
8
BLACK
6
CONTINUOUS
10
129.629
20
-124.829
11
129.803
21
-124.864
0
LINE
8
BLACK
6
CONTINUOUS
10
132.343
20
-124.864
11
132.507
21
-124.932
0
LINE
8
BLACK
6
CONTINUOUS
10
132.507
20
-124.932
11
132.654
21
-125.03
0
LINE
8
BLACK
6
CONTINUOUS
10
132.654
20
-125.03
11
132.78
21
-125.156
0
LINE
8
BLACK
6
CONTINUOUS
10
132.78
20
-125.156
11
132.878
21
-125.303
0
LINE
8
BLACK
6
CONTINUOUS
10
132.878
20
-125.303
11
132.946
21
-125.467
0
LINE
8
BLACK
6
CONTINUOUS
10
132.946
20
-125.467
11
132.981
21
-125.641
0
LINE
8
BLACK
6
CONTINUOUS
10
132.981
20
-125.641
11
132.981
21
-125.819
0
LINE
8
BLACK
6
CONTINUOUS
10
132.981
20
-125.819
11
132.946
21
-125.993
0
LINE
8
BLACK
6
CONTINUOUS
10
132.946
20
-125.993
11
132.878
21
-126.157
0
LINE
8
BLACK
6
CONTINUOUS
10
132.878
20
-126.157
11
132.78
21
-126.304
0
LINE
8
BLACK
6
CONTINUOUS
10
132.78
20
-126.304
11
132.654
21
-126.43
0
LINE
8
BLACK
6
CONTINUOUS
10
132.654
20
-126.43
11
132.507
21
-126.528
0
LINE
8
BLACK
6
CONTINUOUS
10
132.507
20
-126.528
11
132.343
21
-126.596
0
LINE
8
BLACK
6
CONTINUOUS
10
132.343
20
-126.596
11
132.169
21
-126.631
0
LINE
8
BLACK
6
CONTINUOUS
10
132.169
20
-126.631
11
131.991
21
-126.631
0
LINE
8
BLACK
6
CONTINUOUS
10
131.991
20
-126.631
11
131.817
21
-126.596
0
LINE
8
BLACK
6
CONTINUOUS
10
131.817
20
-126.596
11
131.653
21
-126.528
0
LINE
8
BLACK
6
CONTINUOUS
10
131.653
20
-126.528
11
131.506
21
-126.43
0
LINE
8
BLACK
6
CONTINUOUS
10
131.506
20
-126.43
11
131.38
21
-126.304
0
LINE
8
BLACK
6
CONTINUOUS
10
131.38
20
-126.304
11
131.282
21
-126.157
0
LINE
8
BLACK
6
CONTINUOUS
10
131.282
20
-126.157
11
131.214
21
-125.993
0
LINE
8
BLACK
6
CONTINUOUS
10
131.214
20
-125.993
11
131.179
21
-125.819
0
LINE
8
BLACK
6
CONTINUOUS
10
131.179
20
-125.819
11
131.179
21
-125.641
0
LINE
8
BLACK
6
CONTINUOUS
10
131.179
20
-125.641
11
131.214
21
-125.467
0
LINE
8
BLACK
6
CONTINUOUS
10
131.214
20
-125.467
11
131.282
21
-125.303
0
LINE
8
BLACK
6
CONTINUOUS
10
131.282
20
-125.303
11
131.38
21
-125.156
0
LINE
8
BLACK
6
CONTINUOUS
10
131.38
20
-125.156
11
131.506
21
-125.03
0
LINE
8
BLACK
6
CONTINUOUS
10
131.506
20
-125.03
11
131.653
21
-124.932
0
LINE
8
BLACK
6
CONTINUOUS
10
131.653
20
-124.932
11
131.817
21
-124.864
0
LINE
8
BLACK
6
CONTINUOUS
10
131.817
20
-124.864
11
131.991
21
-124.829
0
LINE
8
BLACK
6
CONTINUOUS
10
131.991
20
-124.829
11
132.169
21
-124.829
0
LINE
8
BLACK
6
CONTINUOUS
10
132.169
20
-124.829
11
132.343
21
-124.864
0
LINE
8
BLACK
6
CONTINUOUS
10
159.648
20
-123.594
11
159.812
21
-123.662
0
LINE
8
BLACK
6
CONTINUOUS
10
159.812
20
-123.662
11
159.959
21
-123.76
0
LINE
8
BLACK
6
CONTINUOUS
10
159.959
20
-123.76
11
160.085
21
-123.886
0
LINE
8
BLACK
6
CONTINUOUS
10
160.085
20
-123.886
11
160.183
21
-124.033
0
LINE
8
BLACK
6
CONTINUOUS
10
160.183
20
-124.033
11
160.251
21
-124.197
0
LINE
8
BLACK
6
CONTINUOUS
10
160.251
20
-124.197
11
160.286
21
-124.371
0
LINE
8
BLACK
6
CONTINUOUS
10
160.286
20
-124.371
11
160.286
21
-124.549
0
LINE
8
BLACK
6
CONTINUOUS
10
160.286
20
-124.549
11
160.251
21
-124.723
0
LINE
8
BLACK
6
CONTINUOUS
10
160.251
20
-124.723
11
160.183
21
-124.887
0
LINE
8
BLACK
6
CONTINUOUS
10
160.183
20
-124.887
11
160.085
21
-125.034
0
LINE
8
BLACK
6
CONTINUOUS
10
160.085
20
-125.034
11
159.959
21
-125.16
0
LINE
8
BLACK
6
CONTINUOUS
10
159.959
20
-125.16
11
159.812
21
-125.258
0
LINE
8
BLACK
6
CONTINUOUS
10
159.812
20
-125.258
11
159.648
21
-125.326
0
LINE
8
BLACK
6
CONTINUOUS
10
159.648
20
-125.326
11
159.474
21
-125.361
0
LINE
8
BLACK
6
CONTINUOUS
10
159.474
20
-125.361
11
159.296
21
-125.361
0
LINE
8
BLACK
6
CONTINUOUS
10
159.296
20
-125.361
11
159.122
21
-125.326
0
LINE
8
BLACK
6
CONTINUOUS
10
159.122
20
-125.326
11
158.958
21
-125.258
0
LINE
8
BLACK
6
CONTINUOUS
10
158.958
20
-125.258
11
158.811
21
-125.16
0
LINE
8
BLACK
6
CONTINUOUS
10
158.811
20
-125.16
11
158.685
21
-125.034
0
LINE
8
BLACK
6
CONTINUOUS
10
158.685
20
-125.034
11
158.587
21
-124.887
0
LINE
8
BLACK
6
CONTINUOUS
10
158.587
20
-124.887
11
158.519
21
-124.723
0
LINE
8
BLACK
6
CONTINUOUS
10
158.519
20
-124.723
11
158.484
21
-124.549
0
LINE
8
BLACK
6
CONTINUOUS
10
158.484
20
-124.549
11
158.484
21
-124.371
0
LINE
8
BLACK
6
CONTINUOUS
10
158.484
20
-124.371
11
158.519
21
-124.197
0
LINE
8
BLACK
6
CONTINUOUS
10
158.519
20
-124.197
11
158.587
21
-124.033
0
LINE
8
BLACK
6
CONTINUOUS
10
158.587
20
-124.033
11
158.685
21
-123.886
0
LINE
8
BLACK
6
CONTINUOUS
10
158.685
20
-123.886
11
158.811
21
-123.76
0
LINE
8
BLACK
6
CONTINUOUS
10
158.811
20
-123.76
11
158.958
21
-123.662
0
LINE
8
BLACK
6
CONTINUOUS
10
158.958
20
-123.662
11
159.122
21
-123.594
0
LINE
8
BLACK
6
CONTINUOUS
10
159.122
20
-123.594
11
159.296
21
-123.559
0
LINE
8
BLACK
6
CONTINUOUS
10
159.296
20
-123.559
11
159.474
21
-123.559
0
LINE
8
BLACK
6
CONTINUOUS
10
159.474
20
-123.559
11
159.648
21
-123.594
0
LINE
8
BLACK
6
CONTINUOUS
10
157.746
20
-125.361
11
155.944
21
-125.361
0
LINE
8
BLACK
6
CONTINUOUS
10
155.944
20
-125.361
11
155.944
21
-123.559
0
LINE
8
BLACK
6
CONTINUOUS
10
155.944
20
-123.559
11
157.746
21
-123.559
0
LINE
8
BLACK
6
CONTINUOUS
10
157.746
20
-123.559
11
157.746
21
-125.361
0
LINE
8
BLACK
6
CONTINUOUS
10
170.696
20
-124.976
11
168.394
21
-124.976
0
LINE
8
BLACK
6
CONTINUOUS
10
168.394
20
-124.976
11
168.394
21
-122.674
0
LINE
8
BLACK
6
CONTINUOUS
10
168.394
20
-122.674
11
170.696
21
-122.674
0
LINE
8
BLACK
6
CONTINUOUS
10
170.696
20
-122.674
11
170.696
21
-124.976
0
LINE
8
BLACK
6
CONTINUOUS
10
132.343
20
-122.324
11
132.507
21
-122.392
0
LINE
8
BLACK
6
CONTINUOUS
10
132.507
20
-122.392
11
132.654
21
-122.49
0
LINE
8
BLACK
6
CONTINUOUS
10
132.654
20
-122.49
11
132.78
21
-122.616
0
LINE
8
BLACK
6
CONTINUOUS
10
132.78
20
-122.616
11
132.878
21
-122.763
0
LINE
8
BLACK
6
CONTINUOUS
10
132.878
20
-122.763
11
132.946
21
-122.927
0
LINE
8
BLACK
6
CONTINUOUS
10
132.946
20
-122.927
11
132.981
21
-123.101
0
LINE
8
BLACK
6
CONTINUOUS
10
132.981
20
-123.101
11
132.981
21
-123.279
0
LINE
8
BLACK
6
CONTINUOUS
10
132.981
20
-123.279
11
132.946
21
-123.453
0
LINE
8
BLACK
6
CONTINUOUS
10
132.946
20
-123.453
11
132.878
21
-123.617
0
LINE
8
BLACK
6
CONTINUOUS
10
132.878
20
-123.617
11
132.78
21
-123.764
0
LINE
8
BLACK
6
CONTINUOUS
10
132.78
20
-123.764
11
132.654
21
-123.89
0
LINE
8
BLACK
6
CONTINUOUS
10
132.654
20
-123.89
11
132.507
21
-123.988
0
LINE
8
BLACK
6
CONTINUOUS
10
132.507
20
-123.988
11
132.343
21
-124.056
0
LINE
8
BLACK
6
CONTINUOUS
10
132.343
20
-124.056
11
132.169
21
-124.091
0
LINE
8
BLACK
6
CONTINUOUS
10
132.169
20
-124.091
11
131.991
21
-124.091
0
LINE
8
BLACK
6
CONTINUOUS
10
131.991
20
-124.091
11
131.817
21
-124.056
0
LINE
8
BLACK
6
CONTINUOUS
10
131.817
20
-124.056
11
131.653
21
-123.988
0
LINE
8
BLACK
6
CONTINUOUS
10
131.653
20
-123.988
11
131.506
21
-123.89
0
LINE
8
BLACK
6
CONTINUOUS
10
131.506
20
-123.89
11
131.38
21
-123.764
0
LINE
8
BLACK
6
CONTINUOUS
10
131.38
20
-123.764
11
131.282
21
-123.617
0
LINE
8
BLACK
6
CONTINUOUS
10
131.282
20
-123.617
11
131.214
21
-123.453
0
LINE
8
BLACK
6
CONTINUOUS
10
131.214
20
-123.453
11
131.179
21
-123.279
0
LINE
8
BLACK
6
CONTINUOUS
10
131.179
20
-123.279
11
131.179
21
-123.101
0
LINE
8
BLACK
6
CONTINUOUS
10
131.179
20
-123.101
11
131.214
21
-122.927
0
LINE
8
BLACK
6
CONTINUOUS
10
131.214
20
-122.927
11
131.282
21
-122.763
0
LINE
8
BLACK
6
CONTINUOUS
10
131.282
20
-122.763
11
131.38
21
-122.616
0
LINE
8
BLACK
6
CONTINUOUS
10
131.38
20
-122.616
11
131.506
21
-122.49
0
LINE
8
BLACK
6
CONTINUOUS
10
131.506
20
-122.49
11
131.653
21
-122.392
0
LINE
8
BLACK
6
CONTINUOUS
10
131.653
20
-122.392
11
131.817
21
-122.324
0
LINE
8
BLACK
6
CONTINUOUS
10
131.817
20
-122.324
11
131.991
21
-122.289
0
LINE
8
BLACK
6
CONTINUOUS
10
131.991
20
-122.289
11
132.169
21
-122.289
0
LINE
8
BLACK
6
CONTINUOUS
10
132.169
20
-122.289
11
132.343
21
-122.324
0
LINE
8
BLACK
6
CONTINUOUS
10
129.803
20
-122.324
11
129.967
21
-122.392
0
LINE
8
BLACK
6
CONTINUOUS
10
129.967
20
-122.392
11
130.114
21
-122.49
0
LINE
8
BLACK
6
CONTINUOUS
10
130.114
20
-122.49
11
130.24
21
-122.616
0
LINE
8
BLACK
6
CONTINUOUS
10
130.24
20
-122.616
11
130.338
21
-122.763
0
LINE
8
BLACK
6
CONTINUOUS
10
130.338
20
-122.763
11
130.406
21
-122.927
0
LINE
8
BLACK
6
CONTINUOUS
10
130.406
20
-122.927
11
130.441
21
-123.101
0
LINE
8
BLACK
6
CONTINUOUS
10
130.441
20
-123.101
11
130.441
21
-123.279
0
LINE
8
BLACK
6
CONTINUOUS
10
130.441
20
-123.279
11
130.406
21
-123.453
0
LINE
8
BLACK
6
CONTINUOUS
10
130.406
20
-123.453
11
130.338
21
-123.617
0
LINE
8
BLACK
6
CONTINUOUS
10
130.338
20
-123.617
11
130.24
21
-123.764
0
LINE
8
BLACK
6
CONTINUOUS
10
130.24
20
-123.764
11
130.114
21
-123.89
0
LINE
8
BLACK
6
CONTINUOUS
10
130.114
20
-123.89
11
129.967
21
-123.988
0
LINE
8
BLACK
6
CONTINUOUS
10
129.967
20
-123.988
11
129.803
21
-124.056
0
LINE
8
BLACK
6
CONTINUOUS
10
129.803
20
-124.056
11
129.629
21
-124.091
0
LINE
8
BLACK
6
CONTINUOUS
10
129.629
20
-124.091
11
129.451
21
-124.091
0
LINE
8
BLACK
6
CONTINUOUS
10
129.451
20
-124.091
11
129.277
21
-124.056
0
LINE
8
BLACK
6
CONTINUOUS
10
129.277
20
-124.056
11
129.113
21
-123.988
0
LINE
8
BLACK
6
CONTINUOUS
10
129.113
20
-123.988
11
128.966
21
-123.89
0
LINE
8
BLACK
6
CONTINUOUS
10
128.966
20
-123.89
11
128.84
21
-123.764
0
LINE
8
BLACK
6
CONTINUOUS
10
128.84
20
-123.764
11
128.742
21
-123.617
0
LINE
8
BLACK
6
CONTINUOUS
10
128.742
20
-123.617
11
128.674
21
-123.453
0
LINE
8
BLACK
6
CONTINUOUS
10
128.674
20
-123.453
11
128.639
21
-123.279
0
LINE
8
BLACK
6
CONTINUOUS
10
128.639
20
-123.279
11
128.639
21
-123.101
0
LINE
8
BLACK
6
CONTINUOUS
10
128.639
20
-123.101
11
128.674
21
-122.927
0
LINE
8
BLACK
6
CONTINUOUS
10
128.674
20
-122.927
11
128.742
21
-122.763
0
LINE
8
BLACK
6
CONTINUOUS
10
128.742
20
-122.763
11
128.84
21
-122.616
0
LINE
8
BLACK
6
CONTINUOUS
10
128.84
20
-122.616
11
128.966
21
-122.49
0
LINE
8
BLACK
6
CONTINUOUS
10
128.966
20
-122.49
11
129.113
21
-122.392
0
LINE
8
BLACK
6
CONTINUOUS
10
129.113
20
-122.392
11
129.277
21
-122.324
0
LINE
8
BLACK
6
CONTINUOUS
10
129.277
20
-122.324
11
129.451
21
-122.289
0
LINE
8
BLACK
6
CONTINUOUS
10
129.451
20
-122.289
11
129.629
21
-122.289
0
LINE
8
BLACK
6
CONTINUOUS
10
129.629
20
-122.289
11
129.803
21
-122.324
0
LINE
8
BLACK
6
CONTINUOUS
10
169.881
20
-120.178
11
170.09
21
-120.265
0
LINE
8
BLACK
6
CONTINUOUS
10
170.09
20
-120.265
11
170.279
21
-120.391
0
LINE
8
BLACK
6
CONTINUOUS
10
170.279
20
-120.391
11
170.439
21
-120.551
0
LINE
8
BLACK
6
CONTINUOUS
10
170.439
20
-120.551
11
170.565
21
-120.74
0
LINE
8
BLACK
6
CONTINUOUS
10
170.565
20
-120.74
11
170.652
21
-120.949
0
LINE
8
BLACK
6
CONTINUOUS
10
170.652
20
-120.949
11
170.696
21
-121.172
0
LINE
8
BLACK
6
CONTINUOUS
10
170.696
20
-121.172
11
170.696
21
-121.398
0
LINE
8
BLACK
6
CONTINUOUS
10
170.696
20
-121.398
11
170.652
21
-121.621
0
LINE
8
BLACK
6
CONTINUOUS
10
170.652
20
-121.621
11
170.565
21
-121.83
0
LINE
8
BLACK
6
CONTINUOUS
10
170.565
20
-121.83
11
170.439
21
-122.019
0
LINE
8
BLACK
6
CONTINUOUS
10
170.439
20
-122.019
11
170.279
21
-122.179
0
LINE
8
BLACK
6
CONTINUOUS
10
170.279
20
-122.179
11
170.09
21
-122.305
0
LINE
8
BLACK
6
CONTINUOUS
10
170.09
20
-122.305
11
169.881
21
-122.392
0
LINE
8
BLACK
6
CONTINUOUS
10
169.881
20
-122.392
11
169.658
21
-122.436
0
LINE
8
BLACK
6
CONTINUOUS
10
169.658
20
-122.436
11
169.432
21
-122.436
0
LINE
8
BLACK
6
CONTINUOUS
10
169.432
20
-122.436
11
169.209
21
-122.392
0
LINE
8
BLACK
6
CONTINUOUS
10
169.209
20
-122.392
11
169
21
-122.305
0
LINE
8
BLACK
6
CONTINUOUS
10
169
20
-122.305
11
168.811
21
-122.179
0
LINE
8
BLACK
6
CONTINUOUS
10
168.811
20
-122.179
11
168.651
21
-122.019
0
LINE
8
BLACK
6
CONTINUOUS
10
168.651
20
-122.019
11
168.525
21
-121.83
0
LINE
8
BLACK
6
CONTINUOUS
10
168.525
20
-121.83
11
168.438
21
-121.621
0
LINE
8
BLACK
6
CONTINUOUS
10
168.438
20
-121.621
11
168.394
21
-121.398
0
LINE
8
BLACK
6
CONTINUOUS
10
168.394
20
-121.398
11
168.394
21
-121.172
0
LINE
8
BLACK
6
CONTINUOUS
10
168.394
20
-121.172
11
168.438
21
-120.949
0
LINE
8
BLACK
6
CONTINUOUS
10
168.438
20
-120.949
11
168.525
21
-120.74
0
LINE
8
BLACK
6
CONTINUOUS
10
168.525
20
-120.74
11
168.651
21
-120.551
0
LINE
8
BLACK
6
CONTINUOUS
10
168.651
20
-120.551
11
168.811
21
-120.391
0
LINE
8
BLACK
6
CONTINUOUS
10
168.811
20
-120.391
11
169
21
-120.265
0
LINE
8
BLACK
6
CONTINUOUS
10
169
20
-120.265
11
169.209
21
-120.178
0
LINE
8
BLACK
6
CONTINUOUS
10
169.209
20
-120.178
11
169.432
21
-120.134
0
LINE
8
BLACK
6
CONTINUOUS
10
169.432
20
-120.134
11
169.658
21
-120.134
0
LINE
8
BLACK
6
CONTINUOUS
10
169.658
20
-120.134
11
169.881
21
-120.178
0
LINE
8
BLACK
6
CONTINUOUS
10
145.043
20
-119.784
11
145.207
21
-119.852
0
LINE
8
BLACK
6
CONTINUOUS
10
145.207
20
-119.852
11
145.354
21
-119.95
0
LINE
8
BLACK
6
CONTINUOUS
10
145.354
20
-119.95
11
145.48
21
-120.076
0
LINE
8
BLACK
6
CONTINUOUS
10
145.48
20
-120.076
11
145.578
21
-120.223
0
LINE
8
BLACK
6
CONTINUOUS
10
145.578
20
-120.223
11
145.646
21
-120.387
0
LINE
8
BLACK
6
CONTINUOUS
10
145.646
20
-120.387
11
145.681
21
-120.561
0
LINE
8
BLACK
6
CONTINUOUS
10
145.681
20
-120.561
11
145.681
21
-120.739
0
LINE
8
BLACK
6
CONTINUOUS
10
145.681
20
-120.739
11
145.646
21
-120.913
0
LINE
8
BLACK
6
CONTINUOUS
10
145.646
20
-120.913
11
145.578
21
-121.077
0
LINE
8
BLACK
6
CONTINUOUS
10
145.578
20
-121.077
11
145.48
21
-121.224
0
LINE
8
BLACK
6
CONTINUOUS
10
145.48
20
-121.224
11
145.354
21
-121.35
0
LINE
8
BLACK
6
CONTINUOUS
10
145.354
20
-121.35
11
145.207
21
-121.448
0
LINE
8
BLACK
6
CONTINUOUS
10
145.207
20
-121.448
11
145.043
21
-121.516
0
LINE
8
BLACK
6
CONTINUOUS
10
145.043
20
-121.516
11
144.869
21
-121.551
0
LINE
8
BLACK
6
CONTINUOUS
10
144.869
20
-121.551
11
144.691
21
-121.551
0
LINE
8
BLACK
6
CONTINUOUS
10
144.691
20
-121.551
11
144.517
21
-121.516
0
LINE
8
BLACK
6
CONTINUOUS
10
144.517
20
-121.516
11
144.353
21
-121.448
0
LINE
8
BLACK
6
CONTINUOUS
10
144.353
20
-121.448
11
144.206
21
-121.35
0
LINE
8
BLACK
6
CONTINUOUS
10
144.206
20
-121.35
11
144.08
21
-121.224
0
LINE
8
BLACK
6
CONTINUOUS
10
144.08
20
-121.224
11
143.982
21
-121.077
0
LINE
8
BLACK
6
CONTINUOUS
10
143.982
20
-121.077
11
143.914
21
-120.913
0
LINE
8
BLACK
6
CONTINUOUS
10
143.914
20
-120.913
11
143.879
21
-120.739
0
LINE
8
BLACK
6
CONTINUOUS
10
143.879
20
-120.739
11
143.879
21
-120.561
0
LINE
8
BLACK
6
CONTINUOUS
10
143.879
20
-120.561
11
143.914
21
-120.387
0
LINE
8
BLACK
6
CONTINUOUS
10
143.914
20
-120.387
11
143.982
21
-120.223
0
LINE
8
BLACK
6
CONTINUOUS
10
143.982
20
-120.223
11
144.08
21
-120.076
0
LINE
8
BLACK
6
CONTINUOUS
10
144.08
20
-120.076
11
144.206
21
-119.95
0
LINE
8
BLACK
6
CONTINUOUS
10
144.206
20
-119.95
11
144.353
21
-119.852
0
LINE
8
BLACK
6
CONTINUOUS
10
144.353
20
-119.852
11
144.517
21
-119.784
0
LINE
8
BLACK
6
CONTINUOUS
10
144.517
20
-119.784
11
144.691
21
-119.749
0
LINE
8
BLACK
6
CONTINUOUS
10
144.691
20
-119.749
11
144.869
21
-119.749
0
LINE
8
BLACK
6
CONTINUOUS
10
144.869
20
-119.749
11
145.043
21
-119.784
0
LINE
8
BLACK
6
CONTINUOUS
10
129.803
20
-119.784
11
129.967
21
-119.852
0
LINE
8
BLACK
6
CONTINUOUS
10
129.967
20
-119.852
11
130.114
21
-119.95
0
LINE
8
BLACK
6
CONTINUOUS
10
130.114
20
-119.95
11
130.24
21
-120.076
0
LINE
8
BLACK
6
CONTINUOUS
10
130.24
20
-120.076
11
130.338
21
-120.223
0
LINE
8
BLACK
6
CONTINUOUS
10
130.338
20
-120.223
11
130.406
21
-120.387
0
LINE
8
BLACK
6
CONTINUOUS
10
130.406
20
-120.387
11
130.441
21
-120.561
0
LINE
8
BLACK
6
CONTINUOUS
10
130.441
20
-120.561
11
130.441
21
-120.739
0
LINE
8
BLACK
6
CONTINUOUS
10
130.441
20
-120.739
11
130.406
21
-120.913
0
LINE
8
BLACK
6
CONTINUOUS
10
130.406
20
-120.913
11
130.338
21
-121.077
0
LINE
8
BLACK
6
CONTINUOUS
10
130.338
20
-121.077
11
130.24
21
-121.224
0
LINE
8
BLACK
6
CONTINUOUS
10
130.24
20
-121.224
11
130.114
21
-121.35
0
LINE
8
BLACK
6
CONTINUOUS
10
130.114
20
-121.35
11
129.967
21
-121.448
0
LINE
8
BLACK
6
CONTINUOUS
10
129.967
20
-121.448
11
129.803
21
-121.516
0
LINE
8
BLACK
6
CONTINUOUS
10
129.803
20
-121.516
11
129.629
21
-121.551
0
LINE
8
BLACK
6
CONTINUOUS
10
129.629
20
-121.551
11
129.451
21
-121.551
0
LINE
8
BLACK
6
CONTINUOUS
10
129.451
20
-121.551
11
129.277
21
-121.516
0
LINE
8
BLACK
6
CONTINUOUS
10
129.277
20
-121.516
11
129.113
21
-121.448
0
LINE
8
BLACK
6
CONTINUOUS
10
129.113
20
-121.448
11
128.966
21
-121.35
0
LINE
8
BLACK
6
CONTINUOUS
10
128.966
20
-121.35
11
128.84
21
-121.224
0
LINE
8
BLACK
6
CONTINUOUS
10
128.84
20
-121.224
11
128.742
21
-121.077
0
LINE
8
BLACK
6
CONTINUOUS
10
128.742
20
-121.077
11
128.674
21
-120.913
0
LINE
8
BLACK
6
CONTINUOUS
10
128.674
20
-120.913
11
128.639
21
-120.739
0
LINE
8
BLACK
6
CONTINUOUS
10
128.639
20
-120.739
11
128.639
21
-120.561
0
LINE
8
BLACK
6
CONTINUOUS
10
128.639
20
-120.561
11
128.674
21
-120.387
0
LINE
8
BLACK
6
CONTINUOUS
10
128.674
20
-120.387
11
128.742
21
-120.223
0
LINE
8
BLACK
6
CONTINUOUS
10
128.742
20
-120.223
11
128.84
21
-120.076
0
LINE
8
BLACK
6
CONTINUOUS
10
128.84
20
-120.076
11
128.966
21
-119.95
0
LINE
8
BLACK
6
CONTINUOUS
10
128.966
20
-119.95
11
129.113
21
-119.852
0
LINE
8
BLACK
6
CONTINUOUS
10
129.113
20
-119.852
11
129.277
21
-119.784
0
LINE
8
BLACK
6
CONTINUOUS
10
129.277
20
-119.784
11
129.451
21
-119.749
0
LINE
8
BLACK
6
CONTINUOUS
10
129.451
20
-119.749
11
129.629
21
-119.749
0
LINE
8
BLACK
6
CONTINUOUS
10
129.629
20
-119.749
11
129.803
21
-119.784
0
LINE
8
BLACK
6
CONTINUOUS
10
132.343
20
-119.784
11
132.507
21
-119.852
0
LINE
8
BLACK
6
CONTINUOUS
10
132.507
20
-119.852
11
132.654
21
-119.95
0
LINE
8
BLACK
6
CONTINUOUS
10
132.654
20
-119.95
11
132.78
21
-120.076
0
LINE
8
BLACK
6
CONTINUOUS
10
132.78
20
-120.076
11
132.878
21
-120.223
0
LINE
8
BLACK
6
CONTINUOUS
10
132.878
20
-120.223
11
132.946
21
-120.387
0
LINE
8
BLACK
6
CONTINUOUS
10
132.946
20
-120.387
11
132.981
21
-120.561
0
LINE
8
BLACK
6
CONTINUOUS
10
132.981
20
-120.561
11
132.981
21
-120.739
0
LINE
8
BLACK
6
CONTINUOUS
10
132.981
20
-120.739
11
132.946
21
-120.913
0
LINE
8
BLACK
6
CONTINUOUS
10
132.946
20
-120.913
11
132.878
21
-121.077
0
LINE
8
BLACK
6
CONTINUOUS
10
132.878
20
-121.077
11
132.78
21
-121.224
0
LINE
8
BLACK
6
CONTINUOUS
10
132.78
20
-121.224
11
132.654
21
-121.35
0
LINE
8
BLACK
6
CONTINUOUS
10
132.654
20
-121.35
11
132.507
21
-121.448
0
LINE
8
BLACK
6
CONTINUOUS
10
132.507
20
-121.448
11
132.343
21
-121.516
0
LINE
8
BLACK
6
CONTINUOUS
10
132.343
20
-121.516
11
132.169
21
-121.551
0
LINE
8
BLACK
6
CONTINUOUS
10
132.169
20
-121.551
11
131.991
21
-121.551
0
LINE
8
BLACK
6
CONTINUOUS
10
131.991
20
-121.551
11
131.817
21
-121.516
0
LINE
8
BLACK
6
CONTINUOUS
10
131.817
20
-121.516
11
131.653
21
-121.448
0
LINE
8
BLACK
6
CONTINUOUS
10
131.653
20
-121.448
11
131.506
21
-121.35
0
LINE
8
BLACK
6
CONTINUOUS
10
131.506
20
-121.35
11
131.38
21
-121.224
0
LINE
8
BLACK
6
CONTINUOUS
10
131.38
20
-121.224
11
131.282
21
-121.077
0
LINE
8
BLACK
6
CONTINUOUS
10
131.282
20
-121.077
11
131.214
21
-120.913
0
LINE
8
BLACK
6
CONTINUOUS
10
131.214
20
-120.913
11
131.179
21
-120.739
0
LINE
8
BLACK
6
CONTINUOUS
10
131.179
20
-120.739
11
131.179
21
-120.561
0
LINE
8
BLACK
6
CONTINUOUS
10
131.179
20
-120.561
11
131.214
21
-120.387
0
LINE
8
BLACK
6
CONTINUOUS
10
131.214
20
-120.387
11
131.282
21
-120.223
0
LINE
8
BLACK
6
CONTINUOUS
10
131.282
20
-120.223
11
131.38
21
-120.076
0
LINE
8
BLACK
6
CONTINUOUS
10
131.38
20
-120.076
11
131.506
21
-119.95
0
LINE
8
BLACK
6
CONTINUOUS
10
131.506
20
-119.95
11
131.653
21
-119.852
0
LINE
8
BLACK
6
CONTINUOUS
10
131.653
20
-119.852
11
131.817
21
-119.784
0
LINE
8
BLACK
6
CONTINUOUS
10
131.817
20
-119.784
11
131.991
21
-119.749
0
LINE
8
BLACK
6
CONTINUOUS
10
131.991
20
-119.749
11
132.169
21
-119.749
0
LINE
8
BLACK
6
CONTINUOUS
10
132.169
20
-119.749
11
132.343
21
-119.784
0
LINE
8
BLACK
6
CONTINUOUS
10
169.881
20
-117.638
11
170.09
21
-117.725
0
LINE
8
BLACK
6
CONTINUOUS
10
170.09
20
-117.725
11
170.279
21
-117.851
0
LINE
8
BLACK
6
CONTINUOUS
10
170.279
20
-117.851
11
170.439
21
-118.011
0
LINE
8
BLACK
6
CONTINUOUS
10
170.439
20
-118.011
11
170.565
21
-118.2
0
LINE
8
BLACK
6
CONTINUOUS
10
170.565
20
-118.2
11
170.652
21
-118.409
0
LINE
8
BLACK
6
CONTINUOUS
10
170.652
20
-118.409
11
170.696
21
-118.632
0
LINE
8
BLACK
6
CONTINUOUS
10
170.696
20
-118.632
11
170.696
21
-118.858
0
LINE
8
BLACK
6
CONTINUOUS
10
170.696
20
-118.858
11
170.652
21
-119.081
0
LINE
8
BLACK
6
CONTINUOUS
10
170.652
20
-119.081
11
170.565
21
-119.29
0
LINE
8
BLACK
6
CONTINUOUS
10
170.565
20
-119.29
11
170.439
21
-119.479
0
LINE
8
BLACK
6
CONTINUOUS
10
170.439
20
-119.479
11
170.279
21
-119.639
0
LINE
8
BLACK
6
CONTINUOUS
10
170.279
20
-119.639
11
170.09
21
-119.765
0
LINE
8
BLACK
6
CONTINUOUS
10
170.09
20
-119.765
11
169.881
21
-119.852
0
LINE
8
BLACK
6
CONTINUOUS
10
169.881
20
-119.852
11
169.658
21
-119.896
0
LINE
8
BLACK
6
CONTINUOUS
10
169.658
20
-119.896
11
169.432
21
-119.896
0
LINE
8
BLACK
6
CONTINUOUS
10
169.432
20
-119.896
11
169.209
21
-119.852
0
LINE
8
BLACK
6
CONTINUOUS
10
169.209
20
-119.852
11
169
21
-119.765
0
LINE
8
BLACK
6
CONTINUOUS
10
169
20
-119.765
11
168.811
21
-119.639
0
LINE
8
BLACK
6
CONTINUOUS
10
168.811
20
-119.639
11
168.651
21
-119.479
0
LINE
8
BLACK
6
CONTINUOUS
10
168.651
20
-119.479
11
168.525
21
-119.29
0
LINE
8
BLACK
6
CONTINUOUS
10
168.525
20
-119.29
11
168.438
21
-119.081
0
LINE
8
BLACK
6
CONTINUOUS
10
168.438
20
-119.081
11
168.394
21
-118.858
0
LINE
8
BLACK
6
CONTINUOUS
10
168.394
20
-118.858
11
168.394
21
-118.632
0
LINE
8
BLACK
6
CONTINUOUS
10
168.394
20
-118.632
11
168.438
21
-118.409
0
LINE
8
BLACK
6
CONTINUOUS
10
168.438
20
-118.409
11
168.525
21
-118.2
0
LINE
8
BLACK
6
CONTINUOUS
10
168.525
20
-118.2
11
168.651
21
-118.011
0
LINE
8
BLACK
6
CONTINUOUS
10
168.651
20
-118.011
11
168.811
21
-117.851
0
LINE
8
BLACK
6
CONTINUOUS
10
168.811
20
-117.851
11
169
21
-117.725
0
LINE
8
BLACK
6
CONTINUOUS
10
169
20
-117.725
11
169.209
21
-117.638
0
LINE
8
BLACK
6
CONTINUOUS
10
169.209
20
-117.638
11
169.432
21
-117.594
0
LINE
8
BLACK
6
CONTINUOUS
10
169.432
20
-117.594
11
169.658
21
-117.594
0
LINE
8
BLACK
6
CONTINUOUS
10
169.658
20
-117.594
11
169.881
21
-117.638
0
LINE
8
BLACK
6
CONTINUOUS
10
145.043
20
-117.244
11
145.207
21
-117.312
0
LINE
8
BLACK
6
CONTINUOUS
10
145.207
20
-117.312
11
145.354
21
-117.41
0
LINE
8
BLACK
6
CONTINUOUS
10
145.354
20
-117.41
11
145.48
21
-117.536
0
LINE
8
BLACK
6
CONTINUOUS
10
145.48
20
-117.536
11
145.578
21
-117.683
0
LINE
8
BLACK
6
CONTINUOUS
10
145.578
20
-117.683
11
145.646
21
-117.847
0
LINE
8
BLACK
6
CONTINUOUS
10
145.646
20
-117.847
11
145.681
21
-118.021
0
LINE
8
BLACK
6
CONTINUOUS
10
145.681
20
-118.021
11
145.681
21
-118.199
0
LINE
8
BLACK
6
CONTINUOUS
10
145.681
20
-118.199
11
145.646
21
-118.373
0
LINE
8
BLACK
6
CONTINUOUS
10
145.646
20
-118.373
11
145.578
21
-118.537
0
LINE
8
BLACK
6
CONTINUOUS
10
145.578
20
-118.537
11
145.48
21
-118.684
0
LINE
8
BLACK
6
CONTINUOUS
10
145.48
20
-118.684
11
145.354
21
-118.81
0
LINE
8
BLACK
6
CONTINUOUS
10
145.354
20
-118.81
11
145.207
21
-118.908
0
LINE
8
BLACK
6
CONTINUOUS
10
145.207
20
-118.908
11
145.043
21
-118.976
0
LINE
8
BLACK
6
CONTINUOUS
10
145.043
20
-118.976
11
144.869
21
-119.011
0
LINE
8
BLACK
6
CONTINUOUS
10
144.869
20
-119.011
11
144.691
21
-119.011
0
LINE
8
BLACK
6
CONTINUOUS
10
144.691
20
-119.011
11
144.517
21
-118.976
0
LINE
8
BLACK
6
CONTINUOUS
10
144.517
20
-118.976
11
144.353
21
-118.908
0
LINE
8
BLACK
6
CONTINUOUS
10
144.353
20
-118.908
11
144.206
21
-118.81
0
LINE
8
BLACK
6
CONTINUOUS
10
144.206
20
-118.81
11
144.08
21
-118.684
0
LINE
8
BLACK
6
CONTINUOUS
10
144.08
20
-118.684
11
143.982
21
-118.537
0
LINE
8
BLACK
6
CONTINUOUS
10
143.982
20
-118.537
11
143.914
21
-118.373
0
LINE
8
BLACK
6
CONTINUOUS
10
143.914
20
-118.373
11
143.879
21
-118.199
0
LINE
8
BLACK
6
CONTINUOUS
10
143.879
20
-118.199
11
143.879
21
-118.021
0
LINE
8
BLACK
6
CONTINUOUS
10
143.879
20
-118.021
11
143.914
21
-117.847
0
LINE
8
BLACK
6
CONTINUOUS
10
143.914
20
-117.847
11
143.982
21
-117.683
0
LINE
8
BLACK
6
CONTINUOUS
10
143.982
20
-117.683
11
144.08
21
-117.536
0
LINE
8
BLACK
6
CONTINUOUS
10
144.08
20
-117.536
11
144.206
21
-117.41
0
LINE
8
BLACK
6
CONTINUOUS
10
144.206
20
-117.41
11
144.353
21
-117.312
0
LINE
8
BLACK
6
CONTINUOUS
10
144.353
20
-117.312
11
144.517
21
-117.244
0
LINE
8
BLACK
6
CONTINUOUS
10
144.517
20
-117.244
11
144.691
21
-117.209
0
LINE
8
BLACK
6
CONTINUOUS
10
144.691
20
-117.209
11
144.869
21
-117.209
0
LINE
8
BLACK
6
CONTINUOUS
10
144.869
20
-117.209
11
145.043
21
-117.244
0
LINE
8
BLACK
6
CONTINUOUS
10
129.803
20
-117.244
11
129.967
21
-117.312
0
LINE
8
BLACK
6
CONTINUOUS
10
129.967
20
-117.312
11
130.114
21
-117.41
0
LINE
8
BLACK
6
CONTINUOUS
10
130.114
20
-117.41
11
130.24
21
-117.536
0
LINE
8
BLACK
6
CONTINUOUS
10
130.24
20
-117.536
11
130.338
21
-117.683
0
LINE
8
BLACK
6
CONTINUOUS
10
130.338
20
-117.683
11
130.406
21
-117.847
0
LINE
8
BLACK
6
CONTINUOUS
10
130.406
20
-117.847
11
130.441
21
-118.021
0
LINE
8
BLACK
6
CONTINUOUS
10
130.441
20
-118.021
11
130.441
21
-118.199
0
LINE
8
BLACK
6
CONTINUOUS
10
130.441
20
-118.199
11
130.406
21
-118.373
0
LINE
8
BLACK
6
CONTINUOUS
10
130.406
20
-118.373
11
130.338
21
-118.537
0
LINE
8
BLACK
6
CONTINUOUS
10
130.338
20
-118.537
11
130.24
21
-118.684
0
LINE
8
BLACK
6
CONTINUOUS
10
130.24
20
-118.684
11
130.114
21
-118.81
0
LINE
8
BLACK
6
CONTINUOUS
10
130.114
20
-118.81
11
129.967
21
-118.908
0
LINE
8
BLACK
6
CONTINUOUS
10
129.967
20
-118.908
11
129.803
21
-118.976
0
LINE
8
BLACK
6
CONTINUOUS
10
129.803
20
-118.976
11
129.629
21
-119.011
0
LINE
8
BLACK
6
CONTINUOUS
10
129.629
20
-119.011
11
129.451
21
-119.011
0
LINE
8
BLACK
6
CONTINUOUS
10
129.451
20
-119.011
11
129.277
21
-118.976
0
LINE
8
BLACK
6
CONTINUOUS
10
129.277
20
-118.976
11
129.113
21
-118.908
0
LINE
8
BLACK
6
CONTINUOUS
10
129.113
20
-118.908
11
128.966
21
-118.81
0
LINE
8
BLACK
6
CONTINUOUS
10
128.966
20
-118.81
11
128.84
21
-118.684
0
LINE
8
BLACK
6
CONTINUOUS
10
128.84
20
-118.684
11
128.742
21
-118.537
0
LINE
8
BLACK
6
CONTINUOUS
10
128.742
20
-118.537
11
128.674
21
-118.373
0
LINE
8
BLACK
6
CONTINUOUS
10
128.674
20
-118.373
11
128.639
21
-118.199
0
LINE
8
BLACK
6
CONTINUOUS
10
128.639
20
-118.199
11
128.639
21
-118.021
0
LINE
8
BLACK
6
CONTINUOUS
10
128.639
20
-118.021
11
128.674
21
-117.847
0
LINE
8
BLACK
6
CONTINUOUS
10
128.674
20
-117.847
11
128.742
21
-117.683
0
LINE
8
BLACK
6
CONTINUOUS
10
128.742
20
-117.683
11
128.84
21
-117.536
0
LINE
8
BLACK
6
CONTINUOUS
10
128.84
20
-117.536
11
128.966
21
-117.41
0
LINE
8
BLACK
6
CONTINUOUS
10
128.966
20
-117.41
11
129.113
21
-117.312
0
LINE
8
BLACK
6
CONTINUOUS
10
129.113
20
-117.312
11
129.277
21
-117.244
0
LINE
8
BLACK
6
CONTINUOUS
10
129.277
20
-117.244
11
129.451
21
-117.209
0
LINE
8
BLACK
6
CONTINUOUS
10
129.451
20
-117.209
11
129.629
21
-117.209
0
LINE
8
BLACK
6
CONTINUOUS
10
129.629
20
-117.209
11
129.803
21
-117.244
0
LINE
8
BLACK
6
CONTINUOUS
10
132.343
20
-117.244
11
132.507
21
-117.312
0
LINE
8
BLACK
6
CONTINUOUS
10
132.507
20
-117.312
11
132.654
21
-117.41
0
LINE
8
BLACK
6
CONTINUOUS
10
132.654
20
-117.41
11
132.78
21
-117.536
0
LINE
8
BLACK
6
CONTINUOUS
10
132.78
20
-117.536
11
132.878
21
-117.683
0
LINE
8
BLACK
6
CONTINUOUS
10
132.878
20
-117.683
11
132.946
21
-117.847
0
LINE
8
BLACK
6
CONTINUOUS
10
132.946
20
-117.847
11
132.981
21
-118.021
0
LINE
8
BLACK
6
CONTINUOUS
10
132.981
20
-118.021
11
132.981
21
-118.199
0
LINE
8
BLACK
6
CONTINUOUS
10
132.981
20
-118.199
11
132.946
21
-118.373
0
LINE
8
BLACK
6
CONTINUOUS
10
132.946
20
-118.373
11
132.878
21
-118.537
0
LINE
8
BLACK
6
CONTINUOUS
10
132.878
20
-118.537
11
132.78
21
-118.684
0
LINE
8
BLACK
6
CONTINUOUS
10
132.78
20
-118.684
11
132.654
21
-118.81
0
LINE
8
BLACK
6
CONTINUOUS
10
132.654
20
-118.81
11
132.507
21
-118.908
0
LINE
8
BLACK
6
CONTINUOUS
10
132.507
20
-118.908
11
132.343
21
-118.976
0
LINE
8
BLACK
6
CONTINUOUS
10
132.343
20
-118.976
11
132.169
21
-119.011
0
LINE
8
BLACK
6
CONTINUOUS
10
132.169
20
-119.011
11
131.991
21
-119.011
0
LINE
8
BLACK
6
CONTINUOUS
10
131.991
20
-119.011
11
131.817
21
-118.976
0
LINE
8
BLACK
6
CONTINUOUS
10
131.817
20
-118.976
11
131.653
21
-118.908
0
LINE
8
BLACK
6
CONTINUOUS
10
131.653
20
-118.908
11
131.506
21
-118.81
0
LINE
8
BLACK
6
CONTINUOUS
10
131.506
20
-118.81
11
131.38
21
-118.684
0
LINE
8
BLACK
6
CONTINUOUS
10
131.38
20
-118.684
11
131.282
21
-118.537
0
LINE
8
BLACK
6
CONTINUOUS
10
131.282
20
-118.537
11
131.214
21
-118.373
0
LINE
8
BLACK
6
CONTINUOUS
10
131.214
20
-118.373
11
131.179
21
-118.199
0
LINE
8
BLACK
6
CONTINUOUS
10
131.179
20
-118.199
11
131.179
21
-118.021
0
LINE
8
BLACK
6
CONTINUOUS
10
131.179
20
-118.021
11
131.214
21
-117.847
0
LINE
8
BLACK
6
CONTINUOUS
10
131.214
20
-117.847
11
131.282
21
-117.683
0
LINE
8
BLACK
6
CONTINUOUS
10
131.282
20
-117.683
11
131.38
21
-117.536
0
LINE
8
BLACK
6
CONTINUOUS
10
131.38
20
-117.536
11
131.506
21
-117.41
0
LINE
8
BLACK
6
CONTINUOUS
10
131.506
20
-117.41
11
131.653
21
-117.312
0
LINE
8
BLACK
6
CONTINUOUS
10
131.653
20
-117.312
11
131.817
21
-117.244
0
LINE
8
BLACK
6
CONTINUOUS
10
131.817
20
-117.244
11
131.991
21
-117.209
0
LINE
8
BLACK
6
CONTINUOUS
10
131.991
20
-117.209
11
132.169
21
-117.209
0
LINE
8
BLACK
6
CONTINUOUS
10
132.169
20
-117.209
11
132.343
21
-117.244
0
LINE
8
BLACK
6
CONTINUOUS
10
169.881
20
-115.098
11
170.09
21
-115.185
0
LINE
8
BLACK
6
CONTINUOUS
10
170.09
20
-115.185
11
170.279
21
-115.311
0
LINE
8
BLACK
6
CONTINUOUS
10
170.279
20
-115.311
11
170.439
21
-115.471
0
LINE
8
BLACK
6
CONTINUOUS
10
170.439
20
-115.471
11
170.565
21
-115.66
0
LINE
8
BLACK
6
CONTINUOUS
10
170.565
20
-115.66
11
170.652
21
-115.869
0
LINE
8
BLACK
6
CONTINUOUS
10
170.652
20
-115.869
11
170.696
21
-116.092
0
LINE
8
BLACK
6
CONTINUOUS
10
170.696
20
-116.092
11
170.696
21
-116.318
0
LINE
8
BLACK
6
CONTINUOUS
10
170.696
20
-116.318
11
170.652
21
-116.541
0
LINE
8
BLACK
6
CONTINUOUS
10
170.652
20
-116.541
11
170.565
21
-116.75
0
LINE
8
BLACK
6
CONTINUOUS
10
170.565
20
-116.75
11
170.439
21
-116.939
0
LINE
8
BLACK
6
CONTINUOUS
10
170.439
20
-116.939
11
170.279
21
-117.099
0
LINE
8
BLACK
6
CONTINUOUS
10
170.279
20
-117.099
11
170.09
21
-117.225
0
LINE
8
BLACK
6
CONTINUOUS
10
170.09
20
-117.225
11
169.881
21
-117.312
0
LINE
8
BLACK
6
CONTINUOUS
10
169.881
20
-117.312
11
169.658
21
-117.356
0
LINE
8
BLACK
6
CONTINUOUS
10
169.658
20
-117.356
11
169.432
21
-117.356
0
LINE
8
BLACK
6
CONTINUOUS
10
169.432
20
-117.356
11
169.209
21
-117.312
0
LINE
8
BLACK
6
CONTINUOUS
10
169.209
20
-117.312
11
169
21
-117.225
0
LINE
8
BLACK
6
CONTINUOUS
10
169
20
-117.225
11
168.811
21
-117.099
0
LINE
8
BLACK
6
CONTINUOUS
10
168.811
20
-117.099
11
168.651
21
-116.939
0
LINE
8
BLACK
6
CONTINUOUS
10
168.651
20
-116.939
11
168.525
21
-116.75
0
LINE
8
BLACK
6
CONTINUOUS
10
168.525
20
-116.75
11
168.438
21
-116.541
0
LINE
8
BLACK
6
CONTINUOUS
10
168.438
20
-116.541
11
168.394
21
-116.318
0
LINE
8
BLACK
6
CONTINUOUS
10
168.394
20
-116.318
11
168.394
21
-116.092
0
LINE
8
BLACK
6
CONTINUOUS
10
168.394
20
-116.092
11
168.438
21
-115.869
0
LINE
8
BLACK
6
CONTINUOUS
10
168.438
20
-115.869
11
168.525
21
-115.66
0
LINE
8
BLACK
6
CONTINUOUS
10
168.525
20
-115.66
11
168.651
21
-115.471
0
LINE
8
BLACK
6
CONTINUOUS
10
168.651
20
-115.471
11
168.811
21
-115.311
0
LINE
8
BLACK
6
CONTINUOUS
10
168.811
20
-115.311
11
169
21
-115.185
0
LINE
8
BLACK
6
CONTINUOUS
10
169
20
-115.185
11
169.209
21
-115.098
0
LINE
8
BLACK
6
CONTINUOUS
10
169.209
20
-115.098
11
169.432
21
-115.054
0
LINE
8
BLACK
6
CONTINUOUS
10
169.432
20
-115.054
11
169.658
21
-115.054
0
LINE
8
BLACK
6
CONTINUOUS
10
169.658
20
-115.054
11
169.881
21
-115.098
0
LINE
8
BLACK
6
CONTINUOUS
10
145.681
20
-116.471
11
143.879
21
-116.471
0
LINE
8
BLACK
6
CONTINUOUS
10
143.879
20
-116.471
11
143.879
21
-114.669
0
LINE
8
BLACK
6
CONTINUOUS
10
143.879
20
-114.669
11
145.681
21
-114.669
0
LINE
8
BLACK
6
CONTINUOUS
10
145.681
20
-114.669
11
145.681
21
-116.471
0
LINE
8
BLACK
6
CONTINUOUS
10
129.803
20
-114.704
11
129.967
21
-114.772
0
LINE
8
BLACK
6
CONTINUOUS
10
129.967
20
-114.772
11
130.114
21
-114.87
0
LINE
8
BLACK
6
CONTINUOUS
10
130.114
20
-114.87
11
130.24
21
-114.996
0
LINE
8
BLACK
6
CONTINUOUS
10
130.24
20
-114.996
11
130.338
21
-115.143
0
LINE
8
BLACK
6
CONTINUOUS
10
130.338
20
-115.143
11
130.406
21
-115.307
0
LINE
8
BLACK
6
CONTINUOUS
10
130.406
20
-115.307
11
130.441
21
-115.481
0
LINE
8
BLACK
6
CONTINUOUS
10
130.441
20
-115.481
11
130.441
21
-115.659
0
LINE
8
BLACK
6
CONTINUOUS
10
130.441
20
-115.659
11
130.406
21
-115.833
0
LINE
8
BLACK
6
CONTINUOUS
10
130.406
20
-115.833
11
130.338
21
-115.997
0
LINE
8
BLACK
6
CONTINUOUS
10
130.338
20
-115.997
11
130.24
21
-116.144
0
LINE
8
BLACK
6
CONTINUOUS
10
130.24
20
-116.144
11
130.114
21
-116.27
0
LINE
8
BLACK
6
CONTINUOUS
10
130.114
20
-116.27
11
129.967
21
-116.368
0
LINE
8
BLACK
6
CONTINUOUS
10
129.967
20
-116.368
11
129.803
21
-116.436
0
LINE
8
BLACK
6
CONTINUOUS
10
129.803
20
-116.436
11
129.629
21
-116.471
0
LINE
8
BLACK
6
CONTINUOUS
10
129.629
20
-116.471
11
129.451
21
-116.471
0
LINE
8
BLACK
6
CONTINUOUS
10
129.451
20
-116.471
11
129.277
21
-116.436
0
LINE
8
BLACK
6
CONTINUOUS
10
129.277
20
-116.436
11
129.113
21
-116.368
0
LINE
8
BLACK
6
CONTINUOUS
10
129.113
20
-116.368
11
128.966
21
-116.27
0
LINE
8
BLACK
6
CONTINUOUS
10
128.966
20
-116.27
11
128.84
21
-116.144
0
LINE
8
BLACK
6
CONTINUOUS
10
128.84
20
-116.144
11
128.742
21
-115.997
0
LINE
8
BLACK
6
CONTINUOUS
10
128.742
20
-115.997
11
128.674
21
-115.833
0
LINE
8
BLACK
6
CONTINUOUS
10
128.674
20
-115.833
11
128.639
21
-115.659
0
LINE
8
BLACK
6
CONTINUOUS
10
128.639
20
-115.659
11
128.639
21
-115.481
0
LINE
8
BLACK
6
CONTINUOUS
10
128.639
20
-115.481
11
128.674
21
-115.307
0
LINE
8
BLACK
6
CONTINUOUS
10
128.674
20
-115.307
11
128.742
21
-115.143
0
LINE
8
BLACK
6
CONTINUOUS
10
128.742
20
-115.143
11
128.84
21
-114.996
0
LINE
8
BLACK
6
CONTINUOUS
10
128.84
20
-114.996
11
128.966
21
-114.87
0
LINE
8
BLACK
6
CONTINUOUS
10
128.966
20
-114.87
11
129.113
21
-114.772
0
LINE
8
BLACK
6
CONTINUOUS
10
129.113
20
-114.772
11
129.277
21
-114.704
0
LINE
8
BLACK
6
CONTINUOUS
10
129.277
20
-114.704
11
129.451
21
-114.669
0
LINE
8
BLACK
6
CONTINUOUS
10
129.451
20
-114.669
11
129.629
21
-114.669
0
LINE
8
BLACK
6
CONTINUOUS
10
129.629
20
-114.669
11
129.803
21
-114.704
0
LINE
8
BLACK
6
CONTINUOUS
10
132.343
20
-114.704
11
132.507
21
-114.772
0
LINE
8
BLACK
6
CONTINUOUS
10
132.507
20
-114.772
11
132.654
21
-114.87
0
LINE
8
BLACK
6
CONTINUOUS
10
132.654
20
-114.87
11
132.78
21
-114.996
0
LINE
8
BLACK
6
CONTINUOUS
10
132.78
20
-114.996
11
132.878
21
-115.143
0
LINE
8
BLACK
6
CONTINUOUS
10
132.878
20
-115.143
11
132.946
21
-115.307
0
LINE
8
BLACK
6
CONTINUOUS
10
132.946
20
-115.307
11
132.981
21
-115.481
0
LINE
8
BLACK
6
CONTINUOUS
10
132.981
20
-115.481
11
132.981
21
-115.659
0
LINE
8
BLACK
6
CONTINUOUS
10
132.981
20
-115.659
11
132.946
21
-115.833
0
LINE
8
BLACK
6
CONTINUOUS
10
132.946
20
-115.833
11
132.878
21
-115.997
0
LINE
8
BLACK
6
CONTINUOUS
10
132.878
20
-115.997
11
132.78
21
-116.144
0
LINE
8
BLACK
6
CONTINUOUS
10
132.78
20
-116.144
11
132.654
21
-116.27
0
LINE
8
BLACK
6
CONTINUOUS
10
132.654
20
-116.27
11
132.507
21
-116.368
0
LINE
8
BLACK
6
CONTINUOUS
10
132.507
20
-116.368
11
132.343
21
-116.436
0
LINE
8
BLACK
6
CONTINUOUS
10
132.343
20
-116.436
11
132.169
21
-116.471
0
LINE
8
BLACK
6
CONTINUOUS
10
132.169
20
-116.471
11
131.991
21
-116.471
0
LINE
8
BLACK
6
CONTINUOUS
10
131.991
20
-116.471
11
131.817
21
-116.436
0
LINE
8
BLACK
6
CONTINUOUS
10
131.817
20
-116.436
11
131.653
21
-116.368
0
LINE
8
BLACK
6
CONTINUOUS
10
131.653
20
-116.368
11
131.506
21
-116.27
0
LINE
8
BLACK
6
CONTINUOUS
10
131.506
20
-116.27
11
131.38
21
-116.144
0
LINE
8
BLACK
6
CONTINUOUS
10
131.38
20
-116.144
11
131.282
21
-115.997
0
LINE
8
BLACK
6
CONTINUOUS
10
131.282
20
-115.997
11
131.214
21
-115.833
0
LINE
8
BLACK
6
CONTINUOUS
10
131.214
20
-115.833
11
131.179
21
-115.659
0
LINE
8
BLACK
6
CONTINUOUS
10
131.179
20
-115.659
11
131.179
21
-115.481
0
LINE
8
BLACK
6
CONTINUOUS
10
131.179
20
-115.481
11
131.214
21
-115.307
0
LINE
8
BLACK
6
CONTINUOUS
10
131.214
20
-115.307
11
131.282
21
-115.143
0
LINE
8
BLACK
6
CONTINUOUS
10
131.282
20
-115.143
11
131.38
21
-114.996
0
LINE
8
BLACK
6
CONTINUOUS
10
131.38
20
-114.996
11
131.506
21
-114.87
0
LINE
8
BLACK
6
CONTINUOUS
10
131.506
20
-114.87
11
131.653
21
-114.772
0
LINE
8
BLACK
6
CONTINUOUS
10
131.653
20
-114.772
11
131.817
21
-114.704
0
LINE
8
BLACK
6
CONTINUOUS
10
131.817
20
-114.704
11
131.991
21
-114.669
0
LINE
8
BLACK
6
CONTINUOUS
10
131.991
20
-114.669
11
132.169
21
-114.669
0
LINE
8
BLACK
6
CONTINUOUS
10
132.169
20
-114.669
11
132.343
21
-114.704
0
LINE
8
BLACK
6
CONTINUOUS
10
129.803
20
-112.164
11
129.967
21
-112.232
0
LINE
8
BLACK
6
CONTINUOUS
10
129.967
20
-112.232
11
130.114
21
-112.33
0
LINE
8
BLACK
6
CONTINUOUS
10
130.114
20
-112.33
11
130.24
21
-112.456
0
LINE
8
BLACK
6
CONTINUOUS
10
130.24
20
-112.456
11
130.338
21
-112.603
0
LINE
8
BLACK
6
CONTINUOUS
10
130.338
20
-112.603
11
130.406
21
-112.767
0
LINE
8
BLACK
6
CONTINUOUS
10
130.406
20
-112.767
11
130.441
21
-112.941
0
LINE
8
BLACK
6
CONTINUOUS
10
130.441
20
-112.941
11
130.441
21
-113.119
0
LINE
8
BLACK
6
CONTINUOUS
10
130.441
20
-113.119
11
130.406
21
-113.293
0
LINE
8
BLACK
6
CONTINUOUS
10
130.406
20
-113.293
11
130.338
21
-113.457
0
LINE
8
BLACK
6
CONTINUOUS
10
130.338
20
-113.457
11
130.24
21
-113.604
0
LINE
8
BLACK
6
CONTINUOUS
10
130.24
20
-113.604
11
130.114
21
-113.73
0
LINE
8
BLACK
6
CONTINUOUS
10
130.114
20
-113.73
11
129.967
21
-113.828
0
LINE
8
BLACK
6
CONTINUOUS
10
129.967
20
-113.828
11
129.803
21
-113.896
0
LINE
8
BLACK
6
CONTINUOUS
10
129.803
20
-113.896
11
129.629
21
-113.931
0
LINE
8
BLACK
6
CONTINUOUS
10
129.629
20
-113.931
11
129.451
21
-113.931
0
LINE
8
BLACK
6
CONTINUOUS
10
129.451
20
-113.931
11
129.277
21
-113.896
0
LINE
8
BLACK
6
CONTINUOUS
10
129.277
20
-113.896
11
129.113
21
-113.828
0
LINE
8
BLACK
6
CONTINUOUS
10
129.113
20
-113.828
11
128.966
21
-113.73
0
LINE
8
BLACK
6
CONTINUOUS
10
128.966
20
-113.73
11
128.84
21
-113.604
0
LINE
8
BLACK
6
CONTINUOUS
10
128.84
20
-113.604
11
128.742
21
-113.457
0
LINE
8
BLACK
6
CONTINUOUS
10
128.742
20
-113.457
11
128.674
21
-113.293
0
LINE
8
BLACK
6
CONTINUOUS
10
128.674
20
-113.293
11
128.639
21
-113.119
0
LINE
8
BLACK
6
CONTINUOUS
10
128.639
20
-113.119
11
128.639
21
-112.941
0
LINE
8
BLACK
6
CONTINUOUS
10
128.639
20
-112.941
11
128.674
21
-112.767
0
LINE
8
BLACK
6
CONTINUOUS
10
128.674
20
-112.767
11
128.742
21
-112.603
0
LINE
8
BLACK
6
CONTINUOUS
10
128.742
20
-112.603
11
128.84
21
-112.456
0
LINE
8
BLACK
6
CONTINUOUS
10
128.84
20
-112.456
11
128.966
21
-112.33
0
LINE
8
BLACK
6
CONTINUOUS
10
128.966
20
-112.33
11
129.113
21
-112.232
0
LINE
8
BLACK
6
CONTINUOUS
10
129.113
20
-112.232
11
129.277
21
-112.164
0
LINE
8
BLACK
6
CONTINUOUS
10
129.277
20
-112.164
11
129.451
21
-112.129
0
LINE
8
BLACK
6
CONTINUOUS
10
129.451
20
-112.129
11
129.629
21
-112.129
0
LINE
8
BLACK
6
CONTINUOUS
10
129.629
20
-112.129
11
129.803
21
-112.164
0
LINE
8
BLACK
6
CONTINUOUS
10
132.343
20
-112.164
11
132.507
21
-112.232
0
LINE
8
BLACK
6
CONTINUOUS
10
132.507
20
-112.232
11
132.654
21
-112.33
0
LINE
8
BLACK
6
CONTINUOUS
10
132.654
20
-112.33
11
132.78
21
-112.456
0
LINE
8
BLACK
6
CONTINUOUS
10
132.78
20
-112.456
11
132.878
21
-112.603
0
LINE
8
BLACK
6
CONTINUOUS
10
132.878
20
-112.603
11
132.946
21
-112.767
0
LINE
8
BLACK
6
CONTINUOUS
10
132.946
20
-112.767
11
132.981
21
-112.941
0
LINE
8
BLACK
6
CONTINUOUS
10
132.981
20
-112.941
11
132.981
21
-113.119
0
LINE
8
BLACK
6
CONTINUOUS
10
132.981
20
-113.119
11
132.946
21
-113.293
0
LINE
8
BLACK
6
CONTINUOUS
10
132.946
20
-113.293
11
132.878
21
-113.457
0
LINE
8
BLACK
6
CONTINUOUS
10
132.878
20
-113.457
11
132.78
21
-113.604
0
LINE
8
BLACK
6
CONTINUOUS
10
132.78
20
-113.604
11
132.654
21
-113.73
0
LINE
8
BLACK
6
CONTINUOUS
10
132.654
20
-113.73
11
132.507
21
-113.828
0
LINE
8
BLACK
6
CONTINUOUS
10
132.507
20
-113.828
11
132.343
21
-113.896
0
LINE
8
BLACK
6
CONTINUOUS
10
132.343
20
-113.896
11
132.169
21
-113.931
0
LINE
8
BLACK
6
CONTINUOUS
10
132.169
20
-113.931
11
131.991
21
-113.931
0
LINE
8
BLACK
6
CONTINUOUS
10
131.991
20
-113.931
11
131.817
21
-113.896
0
LINE
8
BLACK
6
CONTINUOUS
10
131.817
20
-113.896
11
131.653
21
-113.828
0
LINE
8
BLACK
6
CONTINUOUS
10
131.653
20
-113.828
11
131.506
21
-113.73
0
LINE
8
BLACK
6
CONTINUOUS
10
131.506
20
-113.73
11
131.38
21
-113.604
0
LINE
8
BLACK
6
CONTINUOUS
10
131.38
20
-113.604
11
131.282
21
-113.457
0
LINE
8
BLACK
6
CONTINUOUS
10
131.282
20
-113.457
11
131.214
21
-113.293
0
LINE
8
BLACK
6
CONTINUOUS
10
131.214
20
-113.293
11
131.179
21
-113.119
0
LINE
8
BLACK
6
CONTINUOUS
10
131.179
20
-113.119
11
131.179
21
-112.941
0
LINE
8
BLACK
6
CONTINUOUS
10
131.179
20
-112.941
11
131.214
21
-112.767
0
LINE
8
BLACK
6
CONTINUOUS
10
131.214
20
-112.767
11
131.282
21
-112.603
0
LINE
8
BLACK
6
CONTINUOUS
10
131.282
20
-112.603
11
131.38
21
-112.456
0
LINE
8
BLACK
6
CONTINUOUS
10
131.38
20
-112.456
11
131.506
21
-112.33
0
LINE
8
BLACK
6
CONTINUOUS
10
131.506
20
-112.33
11
131.653
21
-112.232
0
LINE
8
BLACK
6
CONTINUOUS
10
131.653
20
-112.232
11
131.817
21
-112.164
0
LINE
8
BLACK
6
CONTINUOUS
10
131.817
20
-112.164
11
131.991
21
-112.129
0
LINE
8
BLACK
6
CONTINUOUS
10
131.991
20
-112.129
11
132.169
21
-112.129
0
LINE
8
BLACK
6
CONTINUOUS
10
132.169
20
-112.129
11
132.343
21
-112.164
0
LINE
8
BLACK
6
CONTINUOUS
10
141.128
20
-112.553
11
138.526
21
-112.553
0
LINE
8
BLACK
6
CONTINUOUS
10
138.526
20
-112.553
11
138.526
21
-109.951
0
LINE
8
BLACK
6
CONTINUOUS
10
138.526
20
-109.951
11
141.128
21
-109.951
0
LINE
8
BLACK
6
CONTINUOUS
10
141.128
20
-109.951
11
141.128
21
-112.553
0
LINE
8
BLACK
6
CONTINUOUS
10
132.343
20
-109.624
11
132.507
21
-109.692
0
LINE
8
BLACK
6
CONTINUOUS
10
132.507
20
-109.692
11
132.654
21
-109.79
0
LINE
8
BLACK
6
CONTINUOUS
10
132.654
20
-109.79
11
132.78
21
-109.916
0
LINE
8
BLACK
6
CONTINUOUS
10
132.78
20
-109.916
11
132.878
21
-110.063
0
LINE
8
BLACK
6
CONTINUOUS
10
132.878
20
-110.063
11
132.946
21
-110.227
0
LINE
8
BLACK
6
CONTINUOUS
10
132.946
20
-110.227
11
132.981
21
-110.401
0
LINE
8
BLACK
6
CONTINUOUS
10
132.981
20
-110.401
11
132.981
21
-110.579
0
LINE
8
BLACK
6
CONTINUOUS
10
132.981
20
-110.579
11
132.946
21
-110.753
0
LINE
8
BLACK
6
CONTINUOUS
10
132.946
20
-110.753
11
132.878
21
-110.917
0
LINE
8
BLACK
6
CONTINUOUS
10
132.878
20
-110.917
11
132.78
21
-111.064
0
LINE
8
BLACK
6
CONTINUOUS
10
132.78
20
-111.064
11
132.654
21
-111.19
0
LINE
8
BLACK
6
CONTINUOUS
10
132.654
20
-111.19
11
132.507
21
-111.288
0
LINE
8
BLACK
6
CONTINUOUS
10
132.507
20
-111.288
11
132.343
21
-111.356
0
LINE
8
BLACK
6
CONTINUOUS
10
132.343
20
-111.356
11
132.169
21
-111.391
0
LINE
8
BLACK
6
CONTINUOUS
10
132.169
20
-111.391
11
131.991
21
-111.391
0
LINE
8
BLACK
6
CONTINUOUS
10
131.991
20
-111.391
11
131.817
21
-111.356
0
LINE
8
BLACK
6
CONTINUOUS
10
131.817
20
-111.356
11
131.653
21
-111.288
0
LINE
8
BLACK
6
CONTINUOUS
10
131.653
20
-111.288
11
131.506
21
-111.19
0
LINE
8
BLACK
6
CONTINUOUS
10
131.506
20
-111.19
11
131.38
21
-111.064
0
LINE
8
BLACK
6
CONTINUOUS
10
131.38
20
-111.064
11
131.282
21
-110.917
0
LINE
8
BLACK
6
CONTINUOUS
10
131.282
20
-110.917
11
131.214
21
-110.753
0
LINE
8
BLACK
6
CONTINUOUS
10
131.214
20
-110.753
11
131.179
21
-110.579
0
LINE
8
BLACK
6
CONTINUOUS
10
131.179
20
-110.579
11
131.179
21
-110.401
0
LINE
8
BLACK
6
CONTINUOUS
10
131.179
20
-110.401
11
131.214
21
-110.227
0
LINE
8
BLACK
6
CONTINUOUS
10
131.214
20
-110.227
11
131.282
21
-110.063
0
LINE
8
BLACK
6
CONTINUOUS
10
131.282
20
-110.063
11
131.38
21
-109.916
0
LINE
8
BLACK
6
CONTINUOUS
10
131.38
20
-109.916
11
131.506
21
-109.79
0
LINE
8
BLACK
6
CONTINUOUS
10
131.506
20
-109.79
11
131.653
21
-109.692
0
LINE
8
BLACK
6
CONTINUOUS
10
131.653
20
-109.692
11
131.817
21
-109.624
0
LINE
8
BLACK
6
CONTINUOUS
10
131.817
20
-109.624
11
131.991
21
-109.589
0
LINE
8
BLACK
6
CONTINUOUS
10
131.991
20
-109.589
11
132.169
21
-109.589
0
LINE
8
BLACK
6
CONTINUOUS
10
132.169
20
-109.589
11
132.343
21
-109.624
0
LINE
8
BLACK
6
CONTINUOUS
10
129.803
20
-109.624
11
129.967
21
-109.692
0
LINE
8
BLACK
6
CONTINUOUS
10
129.967
20
-109.692
11
130.114
21
-109.79
0
LINE
8
BLACK
6
CONTINUOUS
10
130.114
20
-109.79
11
130.24
21
-109.916
0
LINE
8
BLACK
6
CONTINUOUS
10
130.24
20
-109.916
11
130.338
21
-110.063
0
LINE
8
BLACK
6
CONTINUOUS
10
130.338
20
-110.063
11
130.406
21
-110.227
0
LINE
8
BLACK
6
CONTINUOUS
10
130.406
20
-110.227
11
130.441
21
-110.401
0
LINE
8
BLACK
6
CONTINUOUS
10
130.441
20
-110.401
11
130.441
21
-110.579
0
LINE
8
BLACK
6
CONTINUOUS
10
130.441
20
-110.579
11
130.406
21
-110.753
0
LINE
8
BLACK
6
CONTINUOUS
10
130.406
20
-110.753
11
130.338
21
-110.917
0
LINE
8
BLACK
6
CONTINUOUS
10
130.338
20
-110.917
11
130.24
21
-111.064
0
LINE
8
BLACK
6
CONTINUOUS
10
130.24
20
-111.064
11
130.114
21
-111.19
0
LINE
8
BLACK
6
CONTINUOUS
10
130.114
20
-111.19
11
129.967
21
-111.288
0
LINE
8
BLACK
6
CONTINUOUS
10
129.967
20
-111.288
11
129.803
21
-111.356
0
LINE
8
BLACK
6
CONTINUOUS
10
129.803
20
-111.356
11
129.629
21
-111.391
0
LINE
8
BLACK
6
CONTINUOUS
10
129.629
20
-111.391
11
129.451
21
-111.391
0
LINE
8
BLACK
6
CONTINUOUS
10
129.451
20
-111.391
11
129.277
21
-111.356
0
LINE
8
BLACK
6
CONTINUOUS
10
129.277
20
-111.356
11
129.113
21
-111.288
0
LINE
8
BLACK
6
CONTINUOUS
10
129.113
20
-111.288
11
128.966
21
-111.19
0
LINE
8
BLACK
6
CONTINUOUS
10
128.966
20
-111.19
11
128.84
21
-111.064
0
LINE
8
BLACK
6
CONTINUOUS
10
128.84
20
-111.064
11
128.742
21
-110.917
0
LINE
8
BLACK
6
CONTINUOUS
10
128.742
20
-110.917
11
128.674
21
-110.753
0
LINE
8
BLACK
6
CONTINUOUS
10
128.674
20
-110.753
11
128.639
21
-110.579
0
LINE
8
BLACK
6
CONTINUOUS
10
128.639
20
-110.579
11
128.639
21
-110.401
0
LINE
8
BLACK
6
CONTINUOUS
10
128.639
20
-110.401
11
128.674
21
-110.227
0
LINE
8
BLACK
6
CONTINUOUS
10
128.674
20
-110.227
11
128.742
21
-110.063
0
LINE
8
BLACK
6
CONTINUOUS
10
128.742
20
-110.063
11
128.84
21
-109.916
0
LINE
8
BLACK
6
CONTINUOUS
10
128.84
20
-109.916
11
128.966
21
-109.79
0
LINE
8
BLACK
6
CONTINUOUS
10
128.966
20
-109.79
11
129.113
21
-109.692
0
LINE
8
BLACK
6
CONTINUOUS
10
129.113
20
-109.692
11
129.277
21
-109.624
0
LINE
8
BLACK
6
CONTINUOUS
10
129.277
20
-109.624
11
129.451
21
-109.589
0
LINE
8
BLACK
6
CONTINUOUS
10
129.451
20
-109.589
11
129.629
21
-109.589
0
LINE
8
BLACK
6
CONTINUOUS
10
129.629
20
-109.589
11
129.803
21
-109.624
0
LINE
8
BLACK
6
CONTINUOUS
10
129.803
20
-107.084
11
129.967
21
-107.152
0
LINE
8
BLACK
6
CONTINUOUS
10
129.967
20
-107.152
11
130.114
21
-107.25
0
LINE
8
BLACK
6
CONTINUOUS
10
130.114
20
-107.25
11
130.24
21
-107.376
0
LINE
8
BLACK
6
CONTINUOUS
10
130.24
20
-107.376
11
130.338
21
-107.523
0
LINE
8
BLACK
6
CONTINUOUS
10
130.338
20
-107.523
11
130.406
21
-107.687
0
LINE
8
BLACK
6
CONTINUOUS
10
130.406
20
-107.687
11
130.441
21
-107.861
0
LINE
8
BLACK
6
CONTINUOUS
10
130.441
20
-107.861
11
130.441
21
-108.039
0
LINE
8
BLACK
6
CONTINUOUS
10
130.441
20
-108.039
11
130.406
21
-108.213
0
LINE
8
BLACK
6
CONTINUOUS
10
130.406
20
-108.213
11
130.338
21
-108.377
0
LINE
8
BLACK
6
CONTINUOUS
10
130.338
20
-108.377
11
130.24
21
-108.524
0
LINE
8
BLACK
6
CONTINUOUS
10
130.24
20
-108.524
11
130.114
21
-108.65
0
LINE
8
BLACK
6
CONTINUOUS
10
130.114
20
-108.65
11
129.967
21
-108.748
0
LINE
8
BLACK
6
CONTINUOUS
10
129.967
20
-108.748
11
129.803
21
-108.816
0
LINE
8
BLACK
6
CONTINUOUS
10
129.803
20
-108.816
11
129.629
21
-108.851
0
LINE
8
BLACK
6
CONTINUOUS
10
129.629
20
-108.851
11
129.451
21
-108.851
0
LINE
8
BLACK
6
CONTINUOUS
10
129.451
20
-108.851
11
129.277
21
-108.816
0
LINE
8
BLACK
6
CONTINUOUS
10
129.277
20
-108.816
11
129.113
21
-108.748
0
LINE
8
BLACK
6
CONTINUOUS
10
129.113
20
-108.748
11
128.966
21
-108.65
0
LINE
8
BLACK
6
CONTINUOUS
10
128.966
20
-108.65
11
128.84
21
-108.524
0
LINE
8
BLACK
6
CONTINUOUS
10
128.84
20
-108.524
11
128.742
21
-108.377
0
LINE
8
BLACK
6
CONTINUOUS
10
128.742
20
-108.377
11
128.674
21
-108.213
0
LINE
8
BLACK
6
CONTINUOUS
10
128.674
20
-108.213
11
128.639
21
-108.039
0
LINE
8
BLACK
6
CONTINUOUS
10
128.639
20
-108.039
11
128.639
21
-107.861
0
LINE
8
BLACK
6
CONTINUOUS
10
128.639
20
-107.861
11
128.674
21
-107.687
0
LINE
8
BLACK
6
CONTINUOUS
10
128.674
20
-107.687
11
128.742
21
-107.523
0
LINE
8
BLACK
6
CONTINUOUS
10
128.742
20
-107.523
11
128.84
21
-107.376
0
LINE
8
BLACK
6
CONTINUOUS
10
128.84
20
-107.376
11
128.966
21
-107.25
0
LINE
8
BLACK
6
CONTINUOUS
10
128.966
20
-107.25
11
129.113
21
-107.152
0
LINE
8
BLACK
6
CONTINUOUS
10
129.113
20
-107.152
11
129.277
21
-107.084
0
LINE
8
BLACK
6
CONTINUOUS
10
129.277
20
-107.084
11
129.451
21
-107.049
0
LINE
8
BLACK
6
CONTINUOUS
10
129.451
20
-107.049
11
129.629
21
-107.049
0
LINE
8
BLACK
6
CONTINUOUS
10
129.629
20
-107.049
11
129.803
21
-107.084
0
LINE
8
BLACK
6
CONTINUOUS
10
132.343
20
-107.084
11
132.507
21
-107.152
0
LINE
8
BLACK
6
CONTINUOUS
10
132.507
20
-107.152
11
132.654
21
-107.25
0
LINE
8
BLACK
6
CONTINUOUS
10
132.654
20
-107.25
11
132.78
21
-107.376
0
LINE
8
BLACK
6
CONTINUOUS
10
132.78
20
-107.376
11
132.878
21
-107.523
0
LINE
8
BLACK
6
CONTINUOUS
10
132.878
20
-107.523
11
132.946
21
-107.687
0
LINE
8
BLACK
6
CONTINUOUS
10
132.946
20
-107.687
11
132.981
21
-107.861
0
LINE
8
BLACK
6
CONTINUOUS
10
132.981
20
-107.861
11
132.981
21
-108.039
0
LINE
8
BLACK
6
CONTINUOUS
10
132.981
20
-108.039
11
132.946
21
-108.213
0
LINE
8
BLACK
6
CONTINUOUS
10
132.946
20
-108.213
11
132.878
21
-108.377
0
LINE
8
BLACK
6
CONTINUOUS
10
132.878
20
-108.377
11
132.78
21
-108.524
0
LINE
8
BLACK
6
CONTINUOUS
10
132.78
20
-108.524
11
132.654
21
-108.65
0
LINE
8
BLACK
6
CONTINUOUS
10
132.654
20
-108.65
11
132.507
21
-108.748
0
LINE
8
BLACK
6
CONTINUOUS
10
132.507
20
-108.748
11
132.343
21
-108.816
0
LINE
8
BLACK
6
CONTINUOUS
10
132.343
20
-108.816
11
132.169
21
-108.851
0
LINE
8
BLACK
6
CONTINUOUS
10
132.169
20
-108.851
11
131.991
21
-108.851
0
LINE
8
BLACK
6
CONTINUOUS
10
131.991
20
-108.851
11
131.817
21
-108.816
0
LINE
8
BLACK
6
CONTINUOUS
10
131.817
20
-108.816
11
131.653
21
-108.748
0
LINE
8
BLACK
6
CONTINUOUS
10
131.653
20
-108.748
11
131.506
21
-108.65
0
LINE
8
BLACK
6
CONTINUOUS
10
131.506
20
-108.65
11
131.38
21
-108.524
0
LINE
8
BLACK
6
CONTINUOUS
10
131.38
20
-108.524
11
131.282
21
-108.377
0
LINE
8
BLACK
6
CONTINUOUS
10
131.282
20
-108.377
11
131.214
21
-108.213
0
LINE
8
BLACK
6
CONTINUOUS
10
131.214
20
-108.213
11
131.179
21
-108.039
0
LINE
8
BLACK
6
CONTINUOUS
10
131.179
20
-108.039
11
131.179
21
-107.861
0
LINE
8
BLACK
6
CONTINUOUS
10
131.179
20
-107.861
11
131.214
21
-107.687
0
LINE
8
BLACK
6
CONTINUOUS
10
131.214
20
-107.687
11
131.282
21
-107.523
0
LINE
8
BLACK
6
CONTINUOUS
10
131.282
20
-107.523
11
131.38
21
-107.376
0
LINE
8
BLACK
6
CONTINUOUS
10
131.38
20
-107.376
11
131.506
21
-107.25
0
LINE
8
BLACK
6
CONTINUOUS
10
131.506
20
-107.25
11
131.653
21
-107.152
0
LINE
8
BLACK
6
CONTINUOUS
10
131.653
20
-107.152
11
131.817
21
-107.084
0
LINE
8
BLACK
6
CONTINUOUS
10
131.817
20
-107.084
11
131.991
21
-107.049
0
LINE
8
BLACK
6
CONTINUOUS
10
131.991
20
-107.049
11
132.169
21
-107.049
0
LINE
8
BLACK
6
CONTINUOUS
10
132.169
20
-107.049
11
132.343
21
-107.084
0
LINE
8
BLACK
6
CONTINUOUS
10
129.803
20
-104.544
11
129.967
21
-104.612
0
LINE
8
BLACK
6
CONTINUOUS
10
129.967
20
-104.612
11
130.114
21
-104.71
0
LINE
8
BLACK
6
CONTINUOUS
10
130.114
20
-104.71
11
130.24
21
-104.836
0
LINE
8
BLACK
6
CONTINUOUS
10
130.24
20
-104.836
11
130.338
21
-104.983
0
LINE
8
BLACK
6
CONTINUOUS
10
130.338
20
-104.983
11
130.406
21
-105.147
0
LINE
8
BLACK
6
CONTINUOUS
10
130.406
20
-105.147
11
130.441
21
-105.321
0
LINE
8
BLACK
6
CONTINUOUS
10
130.441
20
-105.321
11
130.441
21
-105.499
0
LINE
8
BLACK
6
CONTINUOUS
10
130.441
20
-105.499
11
130.406
21
-105.673
0
LINE
8
BLACK
6
CONTINUOUS
10
130.406
20
-105.673
11
130.338
21
-105.837
0
LINE
8
BLACK
6
CONTINUOUS
10
130.338
20
-105.837
11
130.24
21
-105.984
0
LINE
8
BLACK
6
CONTINUOUS
10
130.24
20
-105.984
11
130.114
21
-106.11
0
LINE
8
BLACK
6
CONTINUOUS
10
130.114
20
-106.11
11
129.967
21
-106.208
0
LINE
8
BLACK
6
CONTINUOUS
10
129.967
20
-106.208
11
129.803
21
-106.276
0
LINE
8
BLACK
6
CONTINUOUS
10
129.803
20
-106.276
11
129.629
21
-106.311
0
LINE
8
BLACK
6
CONTINUOUS
10
129.629
20
-106.311
11
129.451
21
-106.311
0
LINE
8
BLACK
6
CONTINUOUS
10
129.451
20
-106.311
11
129.277
21
-106.276
0
LINE
8
BLACK
6
CONTINUOUS
10
129.277
20
-106.276
11
129.113
21
-106.208
0
LINE
8
BLACK
6
CONTINUOUS
10
129.113
20
-106.208
11
128.966
21
-106.11
0
LINE
8
BLACK
6
CONTINUOUS
10
128.966
20
-106.11
11
128.84
21
-105.984
0
LINE
8
BLACK
6
CONTINUOUS
10
128.84
20
-105.984
11
128.742
21
-105.837
0
LINE
8
BLACK
6
CONTINUOUS
10
128.742
20
-105.837
11
128.674
21
-105.673
0
LINE
8
BLACK
6
CONTINUOUS
10
128.674
20
-105.673
11
128.639
21
-105.499
0
LINE
8
BLACK
6
CONTINUOUS
10
128.639
20
-105.499
11
128.639
21
-105.321
0
LINE
8
BLACK
6
CONTINUOUS
10
128.639
20
-105.321
11
128.674
21
-105.147
0
LINE
8
BLACK
6
CONTINUOUS
10
128.674
20
-105.147
11
128.742
21
-104.983
0
LINE
8
BLACK
6
CONTINUOUS
10
128.742
20
-104.983
11
128.84
21
-104.836
0
LINE
8
BLACK
6
CONTINUOUS
10
128.84
20
-104.836
11
128.966
21
-104.71
0
LINE
8
BLACK
6
CONTINUOUS
10
128.966
20
-104.71
11
129.113
21
-104.612
0
LINE
8
BLACK
6
CONTINUOUS
10
129.113
20
-104.612
11
129.277
21
-104.544
0
LINE
8
BLACK
6
CONTINUOUS
10
129.277
20
-104.544
11
129.451
21
-104.509
0
LINE
8
BLACK
6
CONTINUOUS
10
129.451
20
-104.509
11
129.629
21
-104.509
0
LINE
8
BLACK
6
CONTINUOUS
10
129.629
20
-104.509
11
129.803
21
-104.544
0
LINE
8
BLACK
6
CONTINUOUS
10
132.343
20
-104.544
11
132.507
21
-104.612
0
LINE
8
BLACK
6
CONTINUOUS
10
132.507
20
-104.612
11
132.654
21
-104.71
0
LINE
8
BLACK
6
CONTINUOUS
10
132.654
20
-104.71
11
132.78
21
-104.836
0
LINE
8
BLACK
6
CONTINUOUS
10
132.78
20
-104.836
11
132.878
21
-104.983
0
LINE
8
BLACK
6
CONTINUOUS
10
132.878
20
-104.983
11
132.946
21
-105.147
0
LINE
8
BLACK
6
CONTINUOUS
10
132.946
20
-105.147
11
132.981
21
-105.321
0
LINE
8
BLACK
6
CONTINUOUS
10
132.981
20
-105.321
11
132.981
21
-105.499
0
LINE
8
BLACK
6
CONTINUOUS
10
132.981
20
-105.499
11
132.946
21
-105.673
0
LINE
8
BLACK
6
CONTINUOUS
10
132.946
20
-105.673
11
132.878
21
-105.837
0
LINE
8
BLACK
6
CONTINUOUS
10
132.878
20
-105.837
11
132.78
21
-105.984
0
LINE
8
BLACK
6
CONTINUOUS
10
132.78
20
-105.984
11
132.654
21
-106.11
0
LINE
8
BLACK
6
CONTINUOUS
10
132.654
20
-106.11
11
132.507
21
-106.208
0
LINE
8
BLACK
6
CONTINUOUS
10
132.507
20
-106.208
11
132.343
21
-106.276
0
LINE
8
BLACK
6
CONTINUOUS
10
132.343
20
-106.276
11
132.169
21
-106.311
0
LINE
8
BLACK
6
CONTINUOUS
10
132.169
20
-106.311
11
131.991
21
-106.311
0
LINE
8
BLACK
6
CONTINUOUS
10
131.991
20
-106.311
11
131.817
21
-106.276
0
LINE
8
BLACK
6
CONTINUOUS
10
131.817
20
-106.276
11
131.653
21
-106.208
0
LINE
8
BLACK
6
CONTINUOUS
10
131.653
20
-106.208
11
131.506
21
-106.11
0
LINE
8
BLACK
6
CONTINUOUS
10
131.506
20
-106.11
11
131.38
21
-105.984
0
LINE
8
BLACK
6
CONTINUOUS
10
131.38
20
-105.984
11
131.282
21
-105.837
0
LINE
8
BLACK
6
CONTINUOUS
10
131.282
20
-105.837
11
131.214
21
-105.673
0
LINE
8
BLACK
6
CONTINUOUS
10
131.214
20
-105.673
11
131.179
21
-105.499
0
LINE
8
BLACK
6
CONTINUOUS
10
131.179
20
-105.499
11
131.179
21
-105.321
0
LINE
8
BLACK
6
CONTINUOUS
10
131.179
20
-105.321
11
131.214
21
-105.147
0
LINE
8
BLACK
6
CONTINUOUS
10
131.214
20
-105.147
11
131.282
21
-104.983
0
LINE
8
BLACK
6
CONTINUOUS
10
131.282
20
-104.983
11
131.38
21
-104.836
0
LINE
8
BLACK
6
CONTINUOUS
10
131.38
20
-104.836
11
131.506
21
-104.71
0
LINE
8
BLACK
6
CONTINUOUS
10
131.506
20
-104.71
11
131.653
21
-104.612
0
LINE
8
BLACK
6
CONTINUOUS
10
131.653
20
-104.612
11
131.817
21
-104.544
0
LINE
8
BLACK
6
CONTINUOUS
10
131.817
20
-104.544
11
131.991
21
-104.509
0
LINE
8
BLACK
6
CONTINUOUS
10
131.991
20
-104.509
11
132.169
21
-104.509
0
LINE
8
BLACK
6
CONTINUOUS
10
132.169
20
-104.509
11
132.343
21
-104.544
0
LINE
8
BLACK
6
CONTINUOUS
10
129.803
20
-102.004
11
129.967
21
-102.072
0
LINE
8
BLACK
6
CONTINUOUS
10
129.967
20
-102.072
11
130.114
21
-102.17
0
LINE
8
BLACK
6
CONTINUOUS
10
130.114
20
-102.17
11
130.24
21
-102.296
0
LINE
8
BLACK
6
CONTINUOUS
10
130.24
20
-102.296
11
130.338
21
-102.443
0
LINE
8
BLACK
6
CONTINUOUS
10
130.338
20
-102.443
11
130.406
21
-102.607
0
LINE
8
BLACK
6
CONTINUOUS
10
130.406
20
-102.607
11
130.441
21
-102.781
0
LINE
8
BLACK
6
CONTINUOUS
10
130.441
20
-102.781
11
130.441
21
-102.959
0
LINE
8
BLACK
6
CONTINUOUS
10
130.441
20
-102.959
11
130.406
21
-103.133
0
LINE
8
BLACK
6
CONTINUOUS
10
130.406
20
-103.133
11
130.338
21
-103.297
0
LINE
8
BLACK
6
CONTINUOUS
10
130.338
20
-103.297
11
130.24
21
-103.444
0
LINE
8
BLACK
6
CONTINUOUS
10
130.24
20
-103.444
11
130.114
21
-103.57
0
LINE
8
BLACK
6
CONTINUOUS
10
130.114
20
-103.57
11
129.967
21
-103.668
0
LINE
8
BLACK
6
CONTINUOUS
10
129.967
20
-103.668
11
129.803
21
-103.736
0
LINE
8
BLACK
6
CONTINUOUS
10
129.803
20
-103.736
11
129.629
21
-103.771
0
LINE
8
BLACK
6
CONTINUOUS
10
129.629
20
-103.771
11
129.451
21
-103.771
0
LINE
8
BLACK
6
CONTINUOUS
10
129.451
20
-103.771
11
129.277
21
-103.736
0
LINE
8
BLACK
6
CONTINUOUS
10
129.277
20
-103.736
11
129.113
21
-103.668
0
LINE
8
BLACK
6
CONTINUOUS
10
129.113
20
-103.668
11
128.966
21
-103.57
0
LINE
8
BLACK
6
CONTINUOUS
10
128.966
20
-103.57
11
128.84
21
-103.444
0
LINE
8
BLACK
6
CONTINUOUS
10
128.84
20
-103.444
11
128.742
21
-103.297
0
LINE
8
BLACK
6
CONTINUOUS
10
128.742
20
-103.297
11
128.674
21
-103.133
0
LINE
8
BLACK
6
CONTINUOUS
10
128.674
20
-103.133
11
128.639
21
-102.959
0
LINE
8
BLACK
6
CONTINUOUS
10
128.639
20
-102.959
11
128.639
21
-102.781
0
LINE
8
BLACK
6
CONTINUOUS
10
128.639
20
-102.781
11
128.674
21
-102.607
0
LINE
8
BLACK
6
CONTINUOUS
10
128.674
20
-102.607
11
128.742
21
-102.443
0
LINE
8
BLACK
6
CONTINUOUS
10
128.742
20
-102.443
11
128.84
21
-102.296
0
LINE
8
BLACK
6
CONTINUOUS
10
128.84
20
-102.296
11
128.966
21
-102.17
0
LINE
8
BLACK
6
CONTINUOUS
10
128.966
20
-102.17
11
129.113
21
-102.072
0
LINE
8
BLACK
6
CONTINUOUS
10
129.113
20
-102.072
11
129.277
21
-102.004
0
LINE
8
BLACK
6
CONTINUOUS
10
129.277
20
-102.004
11
129.451
21
-101.969
0
LINE
8
BLACK
6
CONTINUOUS
10
129.451
20
-101.969
11
129.629
21
-101.969
0
LINE
8
BLACK
6
CONTINUOUS
10
129.629
20
-101.969
11
129.803
21
-102.004
0
LINE
8
BLACK
6
CONTINUOUS
10
132.343
20
-102.004
11
132.507
21
-102.072
0
LINE
8
BLACK
6
CONTINUOUS
10
132.507
20
-102.072
11
132.654
21
-102.17
0
LINE
8
BLACK
6
CONTINUOUS
10
132.654
20
-102.17
11
132.78
21
-102.296
0
LINE
8
BLACK
6
CONTINUOUS
10
132.78
20
-102.296
11
132.878
21
-102.443
0
LINE
8
BLACK
6
CONTINUOUS
10
132.878
20
-102.443
11
132.946
21
-102.607
0
LINE
8
BLACK
6
CONTINUOUS
10
132.946
20
-102.607
11
132.981
21
-102.781
0
LINE
8
BLACK
6
CONTINUOUS
10
132.981
20
-102.781
11
132.981
21
-102.959
0
LINE
8
BLACK
6
CONTINUOUS
10
132.981
20
-102.959
11
132.946
21
-103.133
0
LINE
8
BLACK
6
CONTINUOUS
10
132.946
20
-103.133
11
132.878
21
-103.297
0
LINE
8
BLACK
6
CONTINUOUS
10
132.878
20
-103.297
11
132.78
21
-103.444
0
LINE
8
BLACK
6
CONTINUOUS
10
132.78
20
-103.444
11
132.654
21
-103.57
0
LINE
8
BLACK
6
CONTINUOUS
10
132.654
20
-103.57
11
132.507
21
-103.668
0
LINE
8
BLACK
6
CONTINUOUS
10
132.507
20
-103.668
11
132.343
21
-103.736
0
LINE
8
BLACK
6
CONTINUOUS
10
132.343
20
-103.736
11
132.169
21
-103.771
0
LINE
8
BLACK
6
CONTINUOUS
10
132.169
20
-103.771
11
131.991
21
-103.771
0
LINE
8
BLACK
6
CONTINUOUS
10
131.991
20
-103.771
11
131.817
21
-103.736
0
LINE
8
BLACK
6
CONTINUOUS
10
131.817
20
-103.736
11
131.653
21
-103.668
0
LINE
8
BLACK
6
CONTINUOUS
10
131.653
20
-103.668
11
131.506
21
-103.57
0
LINE
8
BLACK
6
CONTINUOUS
10
131.506
20
-103.57
11
131.38
21
-103.444
0
LINE
8
BLACK
6
CONTINUOUS
10
131.38
20
-103.444
11
131.282
21
-103.297
0
LINE
8
BLACK
6
CONTINUOUS
10
131.282
20
-103.297
11
131.214
21
-103.133
0
LINE
8
BLACK
6
CONTINUOUS
10
131.214
20
-103.133
11
131.179
21
-102.959
0
LINE
8
BLACK
6
CONTINUOUS
10
131.179
20
-102.959
11
131.179
21
-102.781
0
LINE
8
BLACK
6
CONTINUOUS
10
131.179
20
-102.781
11
131.214
21
-102.607
0
LINE
8
BLACK
6
CONTINUOUS
10
131.214
20
-102.607
11
131.282
21
-102.443
0
LINE
8
BLACK
6
CONTINUOUS
10
131.282
20
-102.443
11
131.38
21
-102.296
0
LINE
8
BLACK
6
CONTINUOUS
10
131.38
20
-102.296
11
131.506
21
-102.17
0
LINE
8
BLACK
6
CONTINUOUS
10
131.506
20
-102.17
11
131.653
21
-102.072
0
LINE
8
BLACK
6
CONTINUOUS
10
131.653
20
-102.072
11
131.817
21
-102.004
0
LINE
8
BLACK
6
CONTINUOUS
10
131.817
20
-102.004
11
131.991
21
-101.969
0
LINE
8
BLACK
6
CONTINUOUS
10
131.991
20
-101.969
11
132.169
21
-101.969
0
LINE
8
BLACK
6
CONTINUOUS
10
132.169
20
-101.969
11
132.343
21
-102.004
0
LINE
8
BLACK
6
CONTINUOUS
10
150.145
20
-102.774
11
147.543
21
-102.774
0
LINE
8
BLACK
6
CONTINUOUS
10
147.543
20
-102.774
11
147.543
21
-100.172
0
LINE
8
BLACK
6
CONTINUOUS
10
147.543
20
-100.172
11
150.145
21
-100.172
0
LINE
8
BLACK
6
CONTINUOUS
10
150.145
20
-100.172
11
150.145
21
-102.774
0
LINE
8
BLACK
6
CONTINUOUS
10
164.496
20
-102.774
11
161.894
21
-102.774
0
LINE
8
BLACK
6
CONTINUOUS
10
161.894
20
-102.774
11
161.894
21
-100.172
0
LINE
8
BLACK
6
CONTINUOUS
10
161.894
20
-100.172
11
164.496
21
-100.172
0
LINE
8
BLACK
6
CONTINUOUS
10
164.496
20
-100.172
11
164.496
21
-102.774
0
LINE
8
BLACK
6
CONTINUOUS
10
169.957
20
-102.774
11
167.355
21
-102.774
0
LINE
8
BLACK
6
CONTINUOUS
10
167.355
20
-102.774
11
167.355
21
-100.172
0
LINE
8
BLACK
6
CONTINUOUS
10
167.355
20
-100.172
11
169.957
21
-100.172
0
LINE
8
BLACK
6
CONTINUOUS
10
169.957
20
-100.172
11
169.957
21
-102.774
0
LINE
8
BLACK
6
CONTINUOUS
10
132.343
20
-99.4638
11
132.507
21
-99.5317
0
LINE
8
BLACK
6
CONTINUOUS
10
132.507
20
-99.5317
11
132.654
21
-99.6303
0
LINE
8
BLACK
6
CONTINUOUS
10
132.654
20
-99.6303
11
132.78
21
-99.7558
0
LINE
8
BLACK
6
CONTINUOUS
10
132.78
20
-99.7558
11
132.878
21
-99.9033
0
LINE
8
BLACK
6
CONTINUOUS
10
132.878
20
-99.9033
11
132.946
21
-100.067
0
LINE
8
BLACK
6
CONTINUOUS
10
132.946
20
-100.067
11
132.981
21
-100.241
0
LINE
8
BLACK
6
CONTINUOUS
10
132.981
20
-100.241
11
132.981
21
-100.419
0
LINE
8
BLACK
6
CONTINUOUS
10
132.981
20
-100.419
11
132.946
21
-100.593
0
LINE
8
BLACK
6
CONTINUOUS
10
132.946
20
-100.593
11
132.878
21
-100.757
0
LINE
8
BLACK
6
CONTINUOUS
10
132.878
20
-100.757
11
132.78
21
-100.904
0
LINE
8
BLACK
6
CONTINUOUS
10
132.78
20
-100.904
11
132.654
21
-101.03
0
LINE
8
BLACK
6
CONTINUOUS
10
132.654
20
-101.03
11
132.507
21
-101.128
0
LINE
8
BLACK
6
CONTINUOUS
10
132.507
20
-101.128
11
132.343
21
-101.196
0
LINE
8
BLACK
6
CONTINUOUS
10
132.343
20
-101.196
11
132.169
21
-101.231
0
LINE
8
BLACK
6
CONTINUOUS
10
132.169
20
-101.231
11
131.991
21
-101.231
0
LINE
8
BLACK
6
CONTINUOUS
10
131.991
20
-101.231
11
131.817
21
-101.196
0
LINE
8
BLACK
6
CONTINUOUS
10
131.817
20
-101.196
11
131.653
21
-101.128
0
LINE
8
BLACK
6
CONTINUOUS
10
131.653
20
-101.128
11
131.506
21
-101.03
0
LINE
8
BLACK
6
CONTINUOUS
10
131.506
20
-101.03
11
131.38
21
-100.904
0
LINE
8
BLACK
6
CONTINUOUS
10
131.38
20
-100.904
11
131.282
21
-100.757
0
LINE
8
BLACK
6
CONTINUOUS
10
131.282
20
-100.757
11
131.214
21
-100.593
0
LINE
8
BLACK
6
CONTINUOUS
10
131.214
20
-100.593
11
131.179
21
-100.419
0
LINE
8
BLACK
6
CONTINUOUS
10
131.179
20
-100.419
11
131.179
21
-100.241
0
LINE
8
BLACK
6
CONTINUOUS
10
131.179
20
-100.241
11
131.214
21
-100.067
0
LINE
8
BLACK
6
CONTINUOUS
10
131.214
20
-100.067
11
131.282
21
-99.9033
0
LINE
8
BLACK
6
CONTINUOUS
10
131.282
20
-99.9033
11
131.38
21
-99.7558
0
LINE
8
BLACK
6
CONTINUOUS
10
131.38
20
-99.7558
11
131.506
21
-99.6303
0
LINE
8
BLACK
6
CONTINUOUS
10
131.506
20
-99.6303
11
131.653
21
-99.5317
0
LINE
8
BLACK
6
CONTINUOUS
10
131.653
20
-99.5317
11
131.817
21
-99.4638
0
LINE
8
BLACK
6
CONTINUOUS
10
131.817
20
-99.4638
11
131.991
21
-99.4292
0
LINE
8
BLACK
6
CONTINUOUS
10
131.991
20
-99.4292
11
132.169
21
-99.4292
0
LINE
8
BLACK
6
CONTINUOUS
10
132.169
20
-99.4292
11
132.343
21
-99.4638
0
LINE
8
BLACK
6
CONTINUOUS
10
129.803
20
-99.4638
11
129.967
21
-99.5317
0
LINE
8
BLACK
6
CONTINUOUS
10
129.967
20
-99.5317
11
130.114
21
-99.6303
0
LINE
8
BLACK
6
CONTINUOUS
10
130.114
20
-99.6303
11
130.24
21
-99.7558
0
LINE
8
BLACK
6
CONTINUOUS
10
130.24
20
-99.7558
11
130.338
21
-99.9033
0
LINE
8
BLACK
6
CONTINUOUS
10
130.338
20
-99.9033
11
130.406
21
-100.067
0
LINE
8
BLACK
6
CONTINUOUS
10
130.406
20
-100.067
11
130.441
21
-100.241
0
LINE
8
BLACK
6
CONTINUOUS
10
130.441
20
-100.241
11
130.441
21
-100.419
0
LINE
8
BLACK
6
CONTINUOUS
10
130.441
20
-100.419
11
130.406
21
-100.593
0
LINE
8
BLACK
6
CONTINUOUS
10
130.406
20
-100.593
11
130.338
21
-100.757
0
LINE
8
BLACK
6
CONTINUOUS
10
130.338
20
-100.757
11
130.24
21
-100.904
0
LINE
8
BLACK
6
CONTINUOUS
10
130.24
20
-100.904
11
130.114
21
-101.03
0
LINE
8
BLACK
6
CONTINUOUS
10
130.114
20
-101.03
11
129.967
21
-101.128
0
LINE
8
BLACK
6
CONTINUOUS
10
129.967
20
-101.128
11
129.803
21
-101.196
0
LINE
8
BLACK
6
CONTINUOUS
10
129.803
20
-101.196
11
129.629
21
-101.231
0
LINE
8
BLACK
6
CONTINUOUS
10
129.629
20
-101.231
11
129.451
21
-101.231
0
LINE
8
BLACK
6
CONTINUOUS
10
129.451
20
-101.231
11
129.277
21
-101.196
0
LINE
8
BLACK
6
CONTINUOUS
10
129.277
20
-101.196
11
129.113
21
-101.128
0
LINE
8
BLACK
6
CONTINUOUS
10
129.113
20
-101.128
11
128.966
21
-101.03
0
LINE
8
BLACK
6
CONTINUOUS
10
128.966
20
-101.03
11
128.84
21
-100.904
0
LINE
8
BLACK
6
CONTINUOUS
10
128.84
20
-100.904
11
128.742
21
-100.757
0
LINE
8
BLACK
6
CONTINUOUS
10
128.742
20
-100.757
11
128.674
21
-100.593
0
LINE
8
BLACK
6
CONTINUOUS
10
128.674
20
-100.593
11
128.639
21
-100.419
0
LINE
8
BLACK
6
CONTINUOUS
10
128.639
20
-100.419
11
128.639
21
-100.241
0
LINE
8
BLACK
6
CONTINUOUS
10
128.639
20
-100.241
11
128.674
21
-100.067
0
LINE
8
BLACK
6
CONTINUOUS
10
128.674
20
-100.067
11
128.742
21
-99.9033
0
LINE
8
BLACK
6
CONTINUOUS
10
128.742
20
-99.9033
11
128.84
21
-99.7558
0
LINE
8
BLACK
6
CONTINUOUS
10
128.84
20
-99.7558
11
128.966
21
-99.6303
0
LINE
8
BLACK
6
CONTINUOUS
10
128.966
20
-99.6303
11
129.113
21
-99.5317
0
LINE
8
BLACK
6
CONTINUOUS
10
129.113
20
-99.5317
11
129.277
21
-99.4638
0
LINE
8
BLACK
6
CONTINUOUS
10
129.277
20
-99.4638
11
129.451
21
-99.4292
0
LINE
8
BLACK
6
CONTINUOUS
10
129.451
20
-99.4292
11
129.629
21
-99.4292
0
LINE
8
BLACK
6
CONTINUOUS
10
129.629
20
-99.4292
11
129.803
21
-99.4638
0
LINE
8
BLACK
6
CONTINUOUS
10
129.803
20
-96.9238
11
129.967
21
-96.9917
0
LINE
8
BLACK
6
CONTINUOUS
10
129.967
20
-96.9917
11
130.114
21
-97.0903
0
LINE
8
BLACK
6
CONTINUOUS
10
130.114
20
-97.0903
11
130.24
21
-97.2158
0
LINE
8
BLACK
6
CONTINUOUS
10
130.24
20
-97.2158
11
130.338
21
-97.3633
0
LINE
8
BLACK
6
CONTINUOUS
10
130.338
20
-97.3633
11
130.406
21
-97.5272
0
LINE
8
BLACK
6
CONTINUOUS
10
130.406
20
-97.5272
11
130.441
21
-97.7013
0
LINE
8
BLACK
6
CONTINUOUS
10
130.441
20
-97.7013
11
130.441
21
-97.8787
0
LINE
8
BLACK
6
CONTINUOUS
10
130.441
20
-97.8787
11
130.406
21
-98.0528
0
LINE
8
BLACK
6
CONTINUOUS
10
130.406
20
-98.0528
11
130.338
21
-98.2167
0
LINE
8
BLACK
6
CONTINUOUS
10
130.338
20
-98.2167
11
130.24
21
-98.3642
0
LINE
8
BLACK
6
CONTINUOUS
10
130.24
20
-98.3642
11
130.114
21
-98.4897
0
LINE
8
BLACK
6
CONTINUOUS
10
130.114
20
-98.4897
11
129.967
21
-98.5883
0
LINE
8
BLACK
6
CONTINUOUS
10
129.967
20
-98.5883
11
129.803
21
-98.6562
0
LINE
8
BLACK
6
CONTINUOUS
10
129.803
20
-98.6562
11
129.629
21
-98.6908
0
LINE
8
BLACK
6
CONTINUOUS
10
129.629
20
-98.6908
11
129.451
21
-98.6908
0
LINE
8
BLACK
6
CONTINUOUS
10
129.451
20
-98.6908
11
129.277
21
-98.6562
0
LINE
8
BLACK
6
CONTINUOUS
10
129.277
20
-98.6562
11
129.113
21
-98.5883
0
LINE
8
BLACK
6
CONTINUOUS
10
129.113
20
-98.5883
11
128.966
21
-98.4897
0
LINE
8
BLACK
6
CONTINUOUS
10
128.966
20
-98.4897
11
128.84
21
-98.3642
0
LINE
8
BLACK
6
CONTINUOUS
10
128.84
20
-98.3642
11
128.742
21
-98.2167
0
LINE
8
BLACK
6
CONTINUOUS
10
128.742
20
-98.2167
11
128.674
21
-98.0528
0
LINE
8
BLACK
6
CONTINUOUS
10
128.674
20
-98.0528
11
128.639
21
-97.8787
0
LINE
8
BLACK
6
CONTINUOUS
10
128.639
20
-97.8787
11
128.639
21
-97.7013
0
LINE
8
BLACK
6
CONTINUOUS
10
128.639
20
-97.7013
11
128.674
21
-97.5272
0
LINE
8
BLACK
6
CONTINUOUS
10
128.674
20
-97.5272
11
128.742
21
-97.3633
0
LINE
8
BLACK
6
CONTINUOUS
10
128.742
20
-97.3633
11
128.84
21
-97.2158
0
LINE
8
BLACK
6
CONTINUOUS
10
128.84
20
-97.2158
11
128.966
21
-97.0903
0
LINE
8
BLACK
6
CONTINUOUS
10
128.966
20
-97.0903
11
129.113
21
-96.9917
0
LINE
8
BLACK
6
CONTINUOUS
10
129.113
20
-96.9917
11
129.277
21
-96.9238
0
LINE
8
BLACK
6
CONTINUOUS
10
129.277
20
-96.9238
11
129.451
21
-96.8892
0
LINE
8
BLACK
6
CONTINUOUS
10
129.451
20
-96.8892
11
129.629
21
-96.8892
0
LINE
8
BLACK
6
CONTINUOUS
10
129.629
20
-96.8892
11
129.803
21
-96.9238
0
LINE
8
BLACK
6
CONTINUOUS
10
132.343
20
-96.9238
11
132.507
21
-96.9917
0
LINE
8
BLACK
6
CONTINUOUS
10
132.507
20
-96.9917
11
132.654
21
-97.0903
0
LINE
8
BLACK
6
CONTINUOUS
10
132.654
20
-97.0903
11
132.78
21
-97.2158
0
LINE
8
BLACK
6
CONTINUOUS
10
132.78
20
-97.2158
11
132.878
21
-97.3633
0
LINE
8
BLACK
6
CONTINUOUS
10
132.878
20
-97.3633
11
132.946
21
-97.5272
0
LINE
8
BLACK
6
CONTINUOUS
10
132.946
20
-97.5272
11
132.981
21
-97.7013
0
LINE
8
BLACK
6
CONTINUOUS
10
132.981
20
-97.7013
11
132.981
21
-97.8787
0
LINE
8
BLACK
6
CONTINUOUS
10
132.981
20
-97.8787
11
132.946
21
-98.0528
0
LINE
8
BLACK
6
CONTINUOUS
10
132.946
20
-98.0528
11
132.878
21
-98.2167
0
LINE
8
BLACK
6
CONTINUOUS
10
132.878
20
-98.2167
11
132.78
21
-98.3642
0
LINE
8
BLACK
6
CONTINUOUS
10
132.78
20
-98.3642
11
132.654
21
-98.4897
0
LINE
8
BLACK
6
CONTINUOUS
10
132.654
20
-98.4897
11
132.507
21
-98.5883
0
LINE
8
BLACK
6
CONTINUOUS
10
132.507
20
-98.5883
11
132.343
21
-98.6562
0
LINE
8
BLACK
6
CONTINUOUS
10
132.343
20
-98.6562
11
132.169
21
-98.6908
0
LINE
8
BLACK
6
CONTINUOUS
10
132.169
20
-98.6908
11
131.991
21
-98.6908
0
LINE
8
BLACK
6
CONTINUOUS
10
131.991
20
-98.6908
11
131.817
21
-98.6562
0
LINE
8
BLACK
6
CONTINUOUS
10
131.817
20
-98.6562
11
131.653
21
-98.5883
0
LINE
8
BLACK
6
CONTINUOUS
10
131.653
20
-98.5883
11
131.506
21
-98.4897
0
LINE
8
BLACK
6
CONTINUOUS
10
131.506
20
-98.4897
11
131.38
21
-98.3642
0
LINE
8
BLACK
6
CONTINUOUS
10
131.38
20
-98.3642
11
131.282
21
-98.2167
0
LINE
8
BLACK
6
CONTINUOUS
10
131.282
20
-98.2167
11
131.214
21
-98.0528
0
LINE
8
BLACK
6
CONTINUOUS
10
131.214
20
-98.0528
11
131.179
21
-97.8787
0
LINE
8
BLACK
6
CONTINUOUS
10
131.179
20
-97.8787
11
131.179
21
-97.7013
0
LINE
8
BLACK
6
CONTINUOUS
10
131.179
20
-97.7013
11
131.214
21
-97.5272
0
LINE
8
BLACK
6
CONTINUOUS
10
131.214
20
-97.5272
11
131.282
21
-97.3633
0
LINE
8
BLACK
6
CONTINUOUS
10
131.282
20
-97.3633
11
131.38
21
-97.2158
0
LINE
8
BLACK
6
CONTINUOUS
10
131.38
20
-97.2158
11
131.506
21
-97.0903
0
LINE
8
BLACK
6
CONTINUOUS
10
131.506
20
-97.0903
11
131.653
21
-96.9917
0
LINE
8
BLACK
6
CONTINUOUS
10
131.653
20
-96.9917
11
131.817
21
-96.9238
0
LINE
8
BLACK
6
CONTINUOUS
10
131.817
20
-96.9238
11
131.991
21
-96.8892
0
LINE
8
BLACK
6
CONTINUOUS
10
131.991
20
-96.8892
11
132.169
21
-96.8892
0
LINE
8
BLACK
6
CONTINUOUS
10
132.169
20
-96.8892
11
132.343
21
-96.9238
0
LINE
8
BLACK
6
CONTINUOUS
10
143.541
20
-98.4558
11
140.939
21
-98.4558
0
LINE
8
BLACK
6
CONTINUOUS
10
140.939
20
-98.4558
11
140.939
21
-95.8542
0
LINE
8
BLACK
6
CONTINUOUS
10
140.939
20
-95.8542
11
143.541
21
-95.8542
0
LINE
8
BLACK
6
CONTINUOUS
10
143.541
20
-95.8542
11
143.541
21
-98.4558
0
LINE
8
BLACK
6
CONTINUOUS
10
129.803
20
-94.3838
11
129.967
21
-94.4517
0
LINE
8
BLACK
6
CONTINUOUS
10
129.967
20
-94.4517
11
130.114
21
-94.5503
0
LINE
8
BLACK
6
CONTINUOUS
10
130.114
20
-94.5503
11
130.24
21
-94.6758
0
LINE
8
BLACK
6
CONTINUOUS
10
130.24
20
-94.6758
11
130.338
21
-94.8233
0
LINE
8
BLACK
6
CONTINUOUS
10
130.338
20
-94.8233
11
130.406
21
-94.9872
0
LINE
8
BLACK
6
CONTINUOUS
10
130.406
20
-94.9872
11
130.441
21
-95.1613
0
LINE
8
BLACK
6
CONTINUOUS
10
130.441
20
-95.1613
11
130.441
21
-95.3387
0
LINE
8
BLACK
6
CONTINUOUS
10
130.441
20
-95.3387
11
130.406
21
-95.5128
0
LINE
8
BLACK
6
CONTINUOUS
10
130.406
20
-95.5128
11
130.338
21
-95.6767
0
LINE
8
BLACK
6
CONTINUOUS
10
130.338
20
-95.6767
11
130.24
21
-95.8242
0
LINE
8
BLACK
6
CONTINUOUS
10
130.24
20
-95.8242
11
130.114
21
-95.9497
0
LINE
8
BLACK
6
CONTINUOUS
10
130.114
20
-95.9497
11
129.967
21
-96.0483
0
LINE
8
BLACK
6
CONTINUOUS
10
129.967
20
-96.0483
11
129.803
21
-96.1162
0
LINE
8
BLACK
6
CONTINUOUS
10
129.803
20
-96.1162
11
129.629
21
-96.1508
0
LINE
8
BLACK
6
CONTINUOUS
10
129.629
20
-96.1508
11
129.451
21
-96.1508
0
LINE
8
BLACK
6
CONTINUOUS
10
129.451
20
-96.1508
11
129.277
21
-96.1162
0
LINE
8
BLACK
6
CONTINUOUS
10
129.277
20
-96.1162
11
129.113
21
-96.0483
0
LINE
8
BLACK
6
CONTINUOUS
10
129.113
20
-96.0483
11
128.966
21
-95.9497
0
LINE
8
BLACK
6
CONTINUOUS
10
128.966
20
-95.9497
11
128.84
21
-95.8242
0
LINE
8
BLACK
6
CONTINUOUS
10
128.84
20
-95.8242
11
128.742
21
-95.6767
0
LINE
8
BLACK
6
CONTINUOUS
10
128.742
20
-95.6767
11
128.674
21
-95.5128
0
LINE
8
BLACK
6
CONTINUOUS
10
128.674
20
-95.5128
11
128.639
21
-95.3387
0
LINE
8
BLACK
6
CONTINUOUS
10
128.639
20
-95.3387
11
128.639
21
-95.1613
0
LINE
8
BLACK
6
CONTINUOUS
10
128.639
20
-95.1613
11
128.674
21
-94.9872
0
LINE
8
BLACK
6
CONTINUOUS
10
128.674
20
-94.9872
11
128.742
21
-94.8233
0
LINE
8
BLACK
6
CONTINUOUS
10
128.742
20
-94.8233
11
128.84
21
-94.6758
0
LINE
8
BLACK
6
CONTINUOUS
10
128.84
20
-94.6758
11
128.966
21
-94.5503
0
LINE
8
BLACK
6
CONTINUOUS
10
128.966
20
-94.5503
11
129.113
21
-94.4517
0
LINE
8
BLACK
6
CONTINUOUS
10
129.113
20
-94.4517
11
129.277
21
-94.3838
0
LINE
8
BLACK
6
CONTINUOUS
10
129.277
20
-94.3838
11
129.451
21
-94.3492
0
LINE
8
BLACK
6
CONTINUOUS
10
129.451
20
-94.3492
11
129.629
21
-94.3492
0
LINE
8
BLACK
6
CONTINUOUS
10
129.629
20
-94.3492
11
129.803
21
-94.3838
0
LINE
8
BLACK
6
CONTINUOUS
10
132.343
20
-94.3838
11
132.507
21
-94.4517
0
LINE
8
BLACK
6
CONTINUOUS
10
132.507
20
-94.4517
11
132.654
21
-94.5503
0
LINE
8
BLACK
6
CONTINUOUS
10
132.654
20
-94.5503
11
132.78
21
-94.6758
0
LINE
8
BLACK
6
CONTINUOUS
10
132.78
20
-94.6758
11
132.878
21
-94.8233
0
LINE
8
BLACK
6
CONTINUOUS
10
132.878
20
-94.8233
11
132.946
21
-94.9872
0
LINE
8
BLACK
6
CONTINUOUS
10
132.946
20
-94.9872
11
132.981
21
-95.1613
0
LINE
8
BLACK
6
CONTINUOUS
10
132.981
20
-95.1613
11
132.981
21
-95.3387
0
LINE
8
BLACK
6
CONTINUOUS
10
132.981
20
-95.3387
11
132.946
21
-95.5128
0
LINE
8
BLACK
6
CONTINUOUS
10
132.946
20
-95.5128
11
132.878
21
-95.6767
0
LINE
8
BLACK
6
CONTINUOUS
10
132.878
20
-95.6767
11
132.78
21
-95.8242
0
LINE
8
BLACK
6
CONTINUOUS
10
132.78
20
-95.8242
11
132.654
21
-95.9497
0
LINE
8
BLACK
6
CONTINUOUS
10
132.654
20
-95.9497
11
132.507
21
-96.0483
0
LINE
8
BLACK
6
CONTINUOUS
10
132.507
20
-96.0483
11
132.343
21
-96.1162
0
LINE
8
BLACK
6
CONTINUOUS
10
132.343
20
-96.1162
11
132.169
21
-96.1508
0
LINE
8
BLACK
6
CONTINUOUS
10
132.169
20
-96.1508
11
131.991
21
-96.1508
0
LINE
8
BLACK
6
CONTINUOUS
10
131.991
20
-96.1508
11
131.817
21
-96.1162
0
LINE
8
BLACK
6
CONTINUOUS
10
131.817
20
-96.1162
11
131.653
21
-96.0483
0
LINE
8
BLACK
6
CONTINUOUS
10
131.653
20
-96.0483
11
131.506
21
-95.9497
0
LINE
8
BLACK
6
CONTINUOUS
10
131.506
20
-95.9497
11
131.38
21
-95.8242
0
LINE
8
BLACK
6
CONTINUOUS
10
131.38
20
-95.8242
11
131.282
21
-95.6767
0
LINE
8
BLACK
6
CONTINUOUS
10
131.282
20
-95.6767
11
131.214
21
-95.5128
0
LINE
8
BLACK
6
CONTINUOUS
10
131.214
20
-95.5128
11
131.179
21
-95.3387
0
LINE
8
BLACK
6
CONTINUOUS
10
131.179
20
-95.3387
11
131.179
21
-95.1613
0
LINE
8
BLACK
6
CONTINUOUS
10
131.179
20
-95.1613
11
131.214
21
-94.9872
0
LINE
8
BLACK
6
CONTINUOUS
10
131.214
20
-94.9872
11
131.282
21
-94.8233
0
LINE
8
BLACK
6
CONTINUOUS
10
131.282
20
-94.8233
11
131.38
21
-94.6758
0
LINE
8
BLACK
6
CONTINUOUS
10
131.38
20
-94.6758
11
131.506
21
-94.5503
0
LINE
8
BLACK
6
CONTINUOUS
10
131.506
20
-94.5503
11
131.653
21
-94.4517
0
LINE
8
BLACK
6
CONTINUOUS
10
131.653
20
-94.4517
11
131.817
21
-94.3838
0
LINE
8
BLACK
6
CONTINUOUS
10
131.817
20
-94.3838
11
131.991
21
-94.3492
0
LINE
8
BLACK
6
CONTINUOUS
10
131.991
20
-94.3492
11
132.169
21
-94.3492
0
LINE
8
BLACK
6
CONTINUOUS
10
132.169
20
-94.3492
11
132.343
21
-94.3838
0
LINE
8
BLACK
6
CONTINUOUS
10
129.803
20
-91.8438
11
129.967
21
-91.9117
0
LINE
8
BLACK
6
CONTINUOUS
10
129.967
20
-91.9117
11
130.114
21
-92.0103
0
LINE
8
BLACK
6
CONTINUOUS
10
130.114
20
-92.0103
11
130.24
21
-92.1358
0
LINE
8
BLACK
6
CONTINUOUS
10
130.24
20
-92.1358
11
130.338
21
-92.2833
0
LINE
8
BLACK
6
CONTINUOUS
10
130.338
20
-92.2833
11
130.406
21
-92.4472
0
LINE
8
BLACK
6
CONTINUOUS
10
130.406
20
-92.4472
11
130.441
21
-92.6213
0
LINE
8
BLACK
6
CONTINUOUS
10
130.441
20
-92.6213
11
130.441
21
-92.7987
0
LINE
8
BLACK
6
CONTINUOUS
10
130.441
20
-92.7987
11
130.406
21
-92.9728
0
LINE
8
BLACK
6
CONTINUOUS
10
130.406
20
-92.9728
11
130.338
21
-93.1367
0
LINE
8
BLACK
6
CONTINUOUS
10
130.338
20
-93.1367
11
130.24
21
-93.2842
0
LINE
8
BLACK
6
CONTINUOUS
10
130.24
20
-93.2842
11
130.114
21
-93.4097
0
LINE
8
BLACK
6
CONTINUOUS
10
130.114
20
-93.4097
11
129.967
21
-93.5083
0
LINE
8
BLACK
6
CONTINUOUS
10
129.967
20
-93.5083
11
129.803
21
-93.5762
0
LINE
8
BLACK
6
CONTINUOUS
10
129.803
20
-93.5762
11
129.629
21
-93.6108
0
LINE
8
BLACK
6
CONTINUOUS
10
129.629
20
-93.6108
11
129.451
21
-93.6108
0
LINE
8
BLACK
6
CONTINUOUS
10
129.451
20
-93.6108
11
129.277
21
-93.5762
0
LINE
8
BLACK
6
CONTINUOUS
10
129.277
20
-93.5762
11
129.113
21
-93.5083
0
LINE
8
BLACK
6
CONTINUOUS
10
129.113
20
-93.5083
11
128.966
21
-93.4097
0
LINE
8
BLACK
6
CONTINUOUS
10
128.966
20
-93.4097
11
128.84
21
-93.2842
0
LINE
8
BLACK
6
CONTINUOUS
10
128.84
20
-93.2842
11
128.742
21
-93.1367
0
LINE
8
BLACK
6
CONTINUOUS
10
128.742
20
-93.1367
11
128.674
21
-92.9728
0
LINE
8
BLACK
6
CONTINUOUS
10
128.674
20
-92.9728
11
128.639
21
-92.7987
0
LINE
8
BLACK
6
CONTINUOUS
10
128.639
20
-92.7987
11
128.639
21
-92.6213
0
LINE
8
BLACK
6
CONTINUOUS
10
128.639
20
-92.6213
11
128.674
21
-92.4472
0
LINE
8
BLACK
6
CONTINUOUS
10
128.674
20
-92.4472
11
128.742
21
-92.2833
0
LINE
8
BLACK
6
CONTINUOUS
10
128.742
20
-92.2833
11
128.84
21
-92.1358
0
LINE
8
BLACK
6
CONTINUOUS
10
128.84
20
-92.1358
11
128.966
21
-92.0103
0
LINE
8
BLACK
6
CONTINUOUS
10
128.966
20
-92.0103
11
129.113
21
-91.9117
0
LINE
8
BLACK
6
CONTINUOUS
10
129.113
20
-91.9117
11
129.277
21
-91.8438
0
LINE
8
BLACK
6
CONTINUOUS
10
129.277
20
-91.8438
11
129.451
21
-91.8092
0
LINE
8
BLACK
6
CONTINUOUS
10
129.451
20
-91.8092
11
129.629
21
-91.8092
0
LINE
8
BLACK
6
CONTINUOUS
10
129.629
20
-91.8092
11
129.803
21
-91.8438
0
LINE
8
BLACK
6
CONTINUOUS
10
132.343
20
-91.8438
11
132.507
21
-91.9117
0
LINE
8
BLACK
6
CONTINUOUS
10
132.507
20
-91.9117
11
132.654
21
-92.0103
0
LINE
8
BLACK
6
CONTINUOUS
10
132.654
20
-92.0103
11
132.78
21
-92.1358
0
LINE
8
BLACK
6
CONTINUOUS
10
132.78
20
-92.1358
11
132.878
21
-92.2833
0
LINE
8
BLACK
6
CONTINUOUS
10
132.878
20
-92.2833
11
132.946
21
-92.4472
0
LINE
8
BLACK
6
CONTINUOUS
10
132.946
20
-92.4472
11
132.981
21
-92.6213
0
LINE
8
BLACK
6
CONTINUOUS
10
132.981
20
-92.6213
11
132.981
21
-92.7987
0
LINE
8
BLACK
6
CONTINUOUS
10
132.981
20
-92.7987
11
132.946
21
-92.9728
0
LINE
8
BLACK
6
CONTINUOUS
10
132.946
20
-92.9728
11
132.878
21
-93.1367
0
LINE
8
BLACK
6
CONTINUOUS
10
132.878
20
-93.1367
11
132.78
21
-93.2842
0
LINE
8
BLACK
6
CONTINUOUS
10
132.78
20
-93.2842
11
132.654
21
-93.4097
0
LINE
8
BLACK
6
CONTINUOUS
10
132.654
20
-93.4097
11
132.507
21
-93.5083
0
LINE
8
BLACK
6
CONTINUOUS
10
132.507
20
-93.5083
11
132.343
21
-93.5762
0
LINE
8
BLACK
6
CONTINUOUS
10
132.343
20
-93.5762
11
132.169
21
-93.6108
0
LINE
8
BLACK
6
CONTINUOUS
10
132.169
20
-93.6108
11
131.991
21
-93.6108
0
LINE
8
BLACK
6
CONTINUOUS
10
131.991
20
-93.6108
11
131.817
21
-93.5762
0
LINE
8
BLACK
6
CONTINUOUS
10
131.817
20
-93.5762
11
131.653
21
-93.5083
0
LINE
8
BLACK
6
CONTINUOUS
10
131.653
20
-93.5083
11
131.506
21
-93.4097
0
LINE
8
BLACK
6
CONTINUOUS
10
131.506
20
-93.4097
11
131.38
21
-93.2842
0
LINE
8
BLACK
6
CONTINUOUS
10
131.38
20
-93.2842
11
131.282
21
-93.1367
0
LINE
8
BLACK
6
CONTINUOUS
10
131.282
20
-93.1367
11
131.214
21
-92.9728
0
LINE
8
BLACK
6
CONTINUOUS
10
131.214
20
-92.9728
11
131.179
21
-92.7987
0
LINE
8
BLACK
6
CONTINUOUS
10
131.179
20
-92.7987
11
131.179
21
-92.6213
0
LINE
8
BLACK
6
CONTINUOUS
10
131.179
20
-92.6213
11
131.214
21
-92.4472
0
LINE
8
BLACK
6
CONTINUOUS
10
131.214
20
-92.4472
11
131.282
21
-92.2833
0
LINE
8
BLACK
6
CONTINUOUS
10
131.282
20
-92.2833
11
131.38
21
-92.1358
0
LINE
8
BLACK
6
CONTINUOUS
10
131.38
20
-92.1358
11
131.506
21
-92.0103
0
LINE
8
BLACK
6
CONTINUOUS
10
131.506
20
-92.0103
11
131.653
21
-91.9117
0
LINE
8
BLACK
6
CONTINUOUS
10
131.653
20
-91.9117
11
131.817
21
-91.8438
0
LINE
8
BLACK
6
CONTINUOUS
10
131.817
20
-91.8438
11
131.991
21
-91.8092
0
LINE
8
BLACK
6
CONTINUOUS
10
131.991
20
-91.8092
11
132.169
21
-91.8092
0
LINE
8
BLACK
6
CONTINUOUS
10
132.169
20
-91.8092
11
132.343
21
-91.8438
0
LINE
8
BLACK
6
CONTINUOUS
10
132.981
20
-91.0708
11
131.179
21
-91.0708
0
LINE
8
BLACK
6
CONTINUOUS
10
131.179
20
-91.0708
11
131.179
21
-89.2692
0
LINE
8
BLACK
6
CONTINUOUS
10
131.179
20
-89.2692
11
132.981
21
-89.2692
0
LINE
8
BLACK
6
CONTINUOUS
10
132.981
20
-89.2692
11
132.981
21
-91.0708
0
LINE
8
BLACK
6
CONTINUOUS
10
129.803
20
-89.3038
11
129.967
21
-89.3717
0
LINE
8
BLACK
6
CONTINUOUS
10
129.967
20
-89.3717
11
130.114
21
-89.4703
0
LINE
8
BLACK
6
CONTINUOUS
10
130.114
20
-89.4703
11
130.24
21
-89.5958
0
LINE
8
BLACK
6
CONTINUOUS
10
130.24
20
-89.5958
11
130.338
21
-89.7433
0
LINE
8
BLACK
6
CONTINUOUS
10
130.338
20
-89.7433
11
130.406
21
-89.9072
0
LINE
8
BLACK
6
CONTINUOUS
10
130.406
20
-89.9072
11
130.441
21
-90.0813
0
LINE
8
BLACK
6
CONTINUOUS
10
130.441
20
-90.0813
11
130.441
21
-90.2587
0
LINE
8
BLACK
6
CONTINUOUS
10
130.441
20
-90.2587
11
130.406
21
-90.4328
0
LINE
8
BLACK
6
CONTINUOUS
10
130.406
20
-90.4328
11
130.338
21
-90.5967
0
LINE
8
BLACK
6
CONTINUOUS
10
130.338
20
-90.5967
11
130.24
21
-90.7442
0
LINE
8
BLACK
6
CONTINUOUS
10
130.24
20
-90.7442
11
130.114
21
-90.8697
0
LINE
8
BLACK
6
CONTINUOUS
10
130.114
20
-90.8697
11
129.967
21
-90.9683
0
LINE
8
BLACK
6
CONTINUOUS
10
129.967
20
-90.9683
11
129.803
21
-91.0362
0
LINE
8
BLACK
6
CONTINUOUS
10
129.803
20
-91.0362
11
129.629
21
-91.0708
0
LINE
8
BLACK
6
CONTINUOUS
10
129.629
20
-91.0708
11
129.451
21
-91.0708
0
LINE
8
BLACK
6
CONTINUOUS
10
129.451
20
-91.0708
11
129.277
21
-91.0362
0
LINE
8
BLACK
6
CONTINUOUS
10
129.277
20
-91.0362
11
129.113
21
-90.9683
0
LINE
8
BLACK
6
CONTINUOUS
10
129.113
20
-90.9683
11
128.966
21
-90.8697
0
LINE
8
BLACK
6
CONTINUOUS
10
128.966
20
-90.8697
11
128.84
21
-90.7442
0
LINE
8
BLACK
6
CONTINUOUS
10
128.84
20
-90.7442
11
128.742
21
-90.5967
0
LINE
8
BLACK
6
CONTINUOUS
10
128.742
20
-90.5967
11
128.674
21
-90.4328
0
LINE
8
BLACK
6
CONTINUOUS
10
128.674
20
-90.4328
11
128.639
21
-90.2587
0
LINE
8
BLACK
6
CONTINUOUS
10
128.639
20
-90.2587
11
128.639
21
-90.0813
0
LINE
8
BLACK
6
CONTINUOUS
10
128.639
20
-90.0813
11
128.674
21
-89.9072
0
LINE
8
BLACK
6
CONTINUOUS
10
128.674
20
-89.9072
11
128.742
21
-89.7433
0
LINE
8
BLACK
6
CONTINUOUS
10
128.742
20
-89.7433
11
128.84
21
-89.5958
0
LINE
8
BLACK
6
CONTINUOUS
10
128.84
20
-89.5958
11
128.966
21
-89.4703
0
LINE
8
BLACK
6
CONTINUOUS
10
128.966
20
-89.4703
11
129.113
21
-89.3717
0
LINE
8
BLACK
6
CONTINUOUS
10
129.113
20
-89.3717
11
129.277
21
-89.3038
0
LINE
8
BLACK
6
CONTINUOUS
10
129.277
20
-89.3038
11
129.451
21
-89.2692
0
LINE
8
BLACK
6
CONTINUOUS
10
129.451
20
-89.2692
11
129.629
21
-89.2692
0
LINE
8
BLACK
6
CONTINUOUS
10
129.629
20
-89.2692
11
129.803
21
-89.3038
0
LINE
8
BLACK
6
CONTINUOUS
10
169.477
20
-77.2651
11
170.069
21
-77.5102
0
LINE
8
BLACK
6
CONTINUOUS
10
170.069
20
-77.5102
11
170.601
21
-77.8659
0
LINE
8
BLACK
6
CONTINUOUS
10
170.601
20
-77.8659
11
171.054
21
-78.3187
0
LINE
8
BLACK
6
CONTINUOUS
10
171.054
20
-78.3187
11
171.41
21
-78.8512
0
LINE
8
BLACK
6
CONTINUOUS
10
171.41
20
-78.8512
11
171.655
21
-79.4428
0
LINE
8
BLACK
6
CONTINUOUS
10
171.655
20
-79.4428
11
171.78
21
-80.0708
0
LINE
8
BLACK
6
CONTINUOUS
10
171.78
20
-80.0708
11
171.78
21
-80.7112
0
LINE
8
BLACK
6
CONTINUOUS
10
171.78
20
-80.7112
11
171.655
21
-81.3392
0
LINE
8
BLACK
6
CONTINUOUS
10
171.655
20
-81.3392
11
171.41
21
-81.9308
0
LINE
8
BLACK
6
CONTINUOUS
10
171.41
20
-81.9308
11
171.054
21
-82.4633
0
LINE
8
BLACK
6
CONTINUOUS
10
171.054
20
-82.4633
11
170.601
21
-82.9161
0
LINE
8
BLACK
6
CONTINUOUS
10
170.601
20
-82.9161
11
170.069
21
-83.2718
0
LINE
8
BLACK
6
CONTINUOUS
10
170.069
20
-83.2718
11
169.477
21
-83.5169
0
LINE
8
BLACK
6
CONTINUOUS
10
169.477
20
-83.5169
11
168.849
21
-83.6418
0
LINE
8
BLACK
6
CONTINUOUS
10
168.849
20
-83.6418
11
168.209
21
-83.6418
0
LINE
8
BLACK
6
CONTINUOUS
10
168.209
20
-83.6418
11
167.581
21
-83.5169
0
LINE
8
BLACK
6
CONTINUOUS
10
167.581
20
-83.5169
11
166.989
21
-83.2718
0
LINE
8
BLACK
6
CONTINUOUS
10
166.989
20
-83.2718
11
166.457
21
-82.9161
0
LINE
8
BLACK
6
CONTINUOUS
10
166.457
20
-82.9161
11
166.004
21
-82.4633
0
LINE
8
BLACK
6
CONTINUOUS
10
166.004
20
-82.4633
11
165.648
21
-81.9308
0
LINE
8
BLACK
6
CONTINUOUS
10
165.648
20
-81.9308
11
165.403
21
-81.3392
0
LINE
8
BLACK
6
CONTINUOUS
10
165.403
20
-81.3392
11
165.278
21
-80.7112
0
LINE
8
BLACK
6
CONTINUOUS
10
165.278
20
-80.7112
11
165.278
21
-80.0708
0
LINE
8
BLACK
6
CONTINUOUS
10
165.278
20
-80.0708
11
165.403
21
-79.4428
0
LINE
8
BLACK
6
CONTINUOUS
10
165.403
20
-79.4428
11
165.648
21
-78.8512
0
LINE
8
BLACK
6
CONTINUOUS
10
165.648
20
-78.8512
11
166.004
21
-78.3187
0
LINE
8
BLACK
6
CONTINUOUS
10
166.004
20
-78.3187
11
166.457
21
-77.8659
0
LINE
8
BLACK
6
CONTINUOUS
10
166.457
20
-77.8659
11
166.989
21
-77.5102
0
LINE
8
BLACK
6
CONTINUOUS
10
166.989
20
-77.5102
11
167.581
21
-77.2651
0
LINE
8
BLACK
6
CONTINUOUS
10
167.581
20
-77.2651
11
168.209
21
-77.1402
0
LINE
8
BLACK
6
CONTINUOUS
10
168.209
20
-77.1402
11
168.849
21
-77.1402
0
LINE
8
BLACK
6
CONTINUOUS
10
168.849
20
-77.1402
11
169.477
21
-77.2651
  0
ENDSEC
  0
EOF
