  0
SECTION
  2
HEADER
  9
$ACADVER
  1
AC1009
  9
$FILLMODE
 70
 0
  9
$SPLFRAME
 70
 1
  9
$EXTMIN
 10
0
 20
0
 30
0.0
  9
$EXTMAX
 10
41.6667
 20
41.6667
 30
0.0
  0
ENDSEC
  0
SECTION
  2
TABLES
  0
TABLE
  2
LAYER
 70
1
  0
LAYER
  2
0
 70
     0
 62
     7
  6
CONTINUOUS
  0
ENDTAB
  0
ENDSEC
  0
SECTION
  2
ENTITIES
  0
POLYLINE
  8
0
 62
     242
 66
     1
 10
0
 20
0
 30
0.0
 70
     1
 40
0
 41
0
  0
VERTEX
  8
0
 10
0
 20
1.04167
 30
0.0
 40
0
 41
0
  0
VERTEX
  8
0
 10
2.08333
 20
1.04167
 30
0.0
 40
0
 41
0
  0
VERTEX
  8
0
 10
2.08333
 20
0
 30
0.0
 40
0
 41
0
  0
VERTEX
  8
0
 10
0
 20
0
 30
0.0
 40
0
 41
0
  0
VERTEX
  8
0
 10
0
 20
1.04167
 30
0.0
 40
0
 41
0
  0
SEQEND
 8
0
  0
POLYLINE
  8
0
 62
     7
 66
     1
 10
0
 20
0
 30
0.0
 70
     1
 40
0
 41
0
  0
VERTEX
  8
0
 10
1.08469
 20
0.480251
 30
0.0
 40
0
 41
0
  0
VERTEX
  8
0
 10
1.08116
 20
0.481282
 30
0.0
 40
0
 41
0
  0
VERTEX
  8
0
 10
1.06245
 20
0.485406
 30
0.0
 40
0
 41
0
  0
VERTEX
  8
0
 10
1.04731
 20
0.487522
 30
0.0
 40
0
 41
0
  0
VERTEX
  8
0
 10
1.04232
 20
0.487522
 30
0.0
 40
0
 41
0
  0
VERTEX
  8
0
 10
1.03532
 20
0.487522
 30
0.0
 40
0
 41
0
  0
VERTEX
  8
0
 10
1.01432
 20
0.483018
 30
0.0
 40
0
 41
0
  0
VERTEX
  8
0
 10
0.992785
 20
0.470161
 30
0.0
 40
0
 41
0
  0
VERTEX
  8
0
 10
0.97895
 20
0.450087
 30
0.0
 40
0
 41
0
  0
VERTEX
  8
0
 10
0.974067
 20
0.430501
 30
0.0
 40
0
 41
0
  0
VERTEX
  8
0
 10
0.974067
 20
0.423936
 30
0.0
 40
0
 41
0
  0
VERTEX
  8
0
 10
0.974067
 20
0.416992
 30
0.0
 40
0
 41
0
  0
VERTEX
  8
0
 10
0.98074
 20
0.395996
 30
0.0
 40
0
 41
0
  0
VERTEX
  8
0
 10
0.995714
 20
0.376247
 30
0.0
 40
0
 41
0
  0
VERTEX
  8
0
 10
0.999892
 20
0.372939
 30
0.0
 40
0
 41
0
  0
VERTEX
  8
0
 10
1.0025
 20
0.370931
 30
0.0
 40
0
 41
0
  0
VERTEX
  8
0
 10
1.01074
 20
0.365289
 30
0.0
 40
0
 41
0
  0
VERTEX
  8
0
 10
1.02507
 20
0.356933
 30
0.0
 40
0
 41
0
  0
VERTEX
  8
0
 10
1.04829
 20
0.344889
 30
0.0
 40
0
 41
0
  0
VERTEX
  8
0
 10
1.07655
 20
0.330675
 30
0.0
 40
0
 41
0
  0
VERTEX
  8
0
 10
1.08599
 20
0.325956
 30
0.0
 40
0
 41
0
  0
VERTEX
  8
0
 10
1.09706
 20
0.320529
 30
0.0
 40
0
 41
0
  0
VERTEX
  8
0
 10
1.13591
 20
0.297092
 30
0.0
 40
0
 41
0
  0
VERTEX
  8
0
 10
1.15896
 20
0.274685
 30
0.0
 40
0
 41
0
  0
VERTEX
  8
0
 10
1.16211
 20
0.269694
 30
0.0
 40
0
 41
0
  0
VERTEX
  8
0
 10
1.16455
 20
0.265896
 30
0.0
 40
0
 41
0
  0
VERTEX
  8
0
 10
1.17345
 20
0.243164
 30
0.0
 40
0
 41
0
  0
VERTEX
  8
0
 10
1.17735
 20
0.219889
 30
0.0
 40
0
 41
0
  0
VERTEX
  8
0
 10
1.17735
 20
0.212076
 30
0.0
 40
0
 41
0
  0
VERTEX
  8
0
 10
1.17735
 20
0.201768
 30
0.0
 40
0
 41
0
  0
VERTEX
  8
0
 10
1.1703
 20
0.170736
 30
0.0
 40
0
 41
0
  0
VERTEX
  8
0
 10
1.15365
 20
0.13775
 30
0.0
 40
0
 41
0
  0
VERTEX
  8
0
 10
1.14887
 20
0.131293
 30
0.0
 40
0
 41
0
  0
VERTEX
  8
0
 10
1.14176
 20
0.122016
 30
0.0
 40
0
 41
0
  0
VERTEX
  8
0
 10
1.09435
 20
0.0892469
 30
0.0
 40
0
 41
0
  0
VERTEX
  8
0
 10
1.03592
 20
0.0750325
 30
0.0
 40
0
 41
0
  0
VERTEX
  8
0
 10
1.01644
 20
0.0750325
 30
0.0
 40
0
 41
0
  0
VERTEX
  8
0
 10
1.00532
 20
0.0750325
 30
0.0
 40
0
 41
0
  0
VERTEX
  8
0
 10
0.976238
 20
0.0783421
 30
0.0
 40
0
 41
0
  0
VERTEX
  8
0
 10
0.972114
 20
0.0789931
 30
0.0
 40
0
 41
0
  0
VERTEX
  8
0
 10
0.963976
 20
0.0801867
 30
0.0
 40
0
 41
0
  0
VERTEX
  8
0
 10
0.933539
 20
0.086914
 30
0.0
 40
0
 41
0
  0
VERTEX
  8
0
 10
0.9037
 20
0.0990126
 30
0.0
 40
0
 41
0
  0
VERTEX
  8
0
 10
0.895942
 20
0.10281
 30
0.0
 40
0
 41
0
  0
VERTEX
  8
0
 10
0.898926
 20
0.109267
 30
0.0
 40
0
 41
0
  0
VERTEX
  8
0
 10
0.908365
 20
0.133952
 30
0.0
 40
0
 41
0
  0
VERTEX
  8
0
 10
0.914442
 20
0.161296
 30
0.0
 40
0
 41
0
  0
VERTEX
  8
0
 10
0.915799
 20
0.169054
 30
0.0
 40
0
 41
0
  0
VERTEX
  8
0
 10
0.921061
 20
0.164606
 30
0.0
 40
0
 41
0
  0
VERTEX
  8
0
 10
0.940864
 20
0.149197
 30
0.0
 40
0
 41
0
  0
VERTEX
  8
0
 10
0.957628
 20
0.139051
 30
0.0
 40
0
 41
0
  0
VERTEX
  8
0
 10
0.961481
 20
0.137207
 30
0.0
 40
0
 41
0
  0
VERTEX
  8
0
 10
0.966906
 20
0.13444
 30
0.0
 40
0
 41
0
  0
VERTEX
  8
0
 10
1.01449
 20
0.120714
 30
0.0
 40
0
 41
0
  0
VERTEX
  8
0
 10
1.03038
 20
0.120714
 30
0.0
 40
0
 41
0
  0
VERTEX
  8
0
 10
1.03944
 20
0.120714
 30
0.0
 40
0
 41
0
  0
VERTEX
  8
0
 10
1.06668
 20
0.126194
 30
0.0
 40
0
 41
0
  0
VERTEX
  8
0
 10
1.09489
 20
0.141601
 30
0.0
 40
0
 41
0
  0
VERTEX
  8
0
 10
1.11317
 20
0.165419
 30
0.0
 40
0
 41
0
  0
VERTEX
  8
0
 10
1.11974
 20
0.188531
 30
0.0
 40
0
 41
0
  0
VERTEX
  8
0
 10
1.11974
 20
0.196181
 30
0.0
 40
0
 41
0
  0
VERTEX
  8
0
 10
1.11974
 20
0.203831
 30
0.0
 40
0
 41
0
  0
VERTEX
  8
0
 10
1.11122
 20
0.226617
 30
0.0
 40
0
 41
0
  0
VERTEX
  8
0
 10
1.09109
 20
0.248481
 30
0.0
 40
0
 41
0
  0
VERTEX
  8
0
 10
1.08529
 20
0.252442
 30
0.0
 40
0
 41
0
  0
VERTEX
  8
0
 10
1.08149
 20
0.2551
 30
0.0
 40
0
 41
0
  0
VERTEX
  8
0
 10
1.06266
 20
0.266004
 30
0.0
 40
0
 41
0
  0
VERTEX
  8
0
 10
1.03429
 20
0.279568
 30
0.0
 40
0
 41
0
  0
VERTEX
  8
0
 10
1.02572
 20
0.283529
 30
0.0
 40
0
 41
0
  0
VERTEX
  8
0
 10
1.01725
 20
0.287381
 30
0.0
 40
0
 41
0
  0
VERTEX
  8
0
 10
0.987901
 20
0.301594
 30
0.0
 40
0
 41
0
  0
VERTEX
  8
0
 10
0.967449
 20
0.313857
 30
0.0
 40
0
 41
0
  0
VERTEX
  8
0
 10
0.963488
 20
0.316678
 30
0.0
 40
0
 41
0
  0
VERTEX
  8
0
 10
0.955675
 20
0.322157
 30
0.0
 40
0
 41
0
  0
VERTEX
  8
0
 10
0.928982
 20
0.354926
 30
0.0
 40
0
 41
0
  0
VERTEX
  8
0
 10
0.917806
 20
0.393337
 30
0.0
 40
0
 41
0
  0
VERTEX
  8
0
 10
0.917806
 20
0.406088
 30
0.0
 40
0
 41
0
  0
VERTEX
  8
0
 10
0.917806
 20
0.418186
 30
0.0
 40
0
 41
0
  0
VERTEX
  8
0
 10
0.927246
 20
0.454372
 30
0.0
 40
0
 41
0
  0
VERTEX
  8
0
 10
0.947917
 20
0.488553
 30
0.0
 40
0
 41
0
  0
VERTEX
  8
0
 10
0.95356
 20
0.49414
 30
0.0
 40
0
 41
0
  0
VERTEX
  8
0
 10
0.959853
 20
0.500435
 30
0.0
 40
0
 41
0
  0
VERTEX
  8
0
 10
0.997342
 20
0.52181
 30
0.0
 40
0
 41
0
  0
VERTEX
  8
0
 10
1.04243
 20
0.530544
 30
0.0
 40
0
 41
0
  0
VERTEX
  8
0
 10
1.05751
 20
0.530544
 30
0.0
 40
0
 41
0
  0
VERTEX
  8
0
 10
1.07341
 20
0.530544
 30
0.0
 40
0
 41
0
  0
VERTEX
  8
0
 10
1.11578
 20
0.524468
 30
0.0
 40
0
 41
0
  0
VERTEX
  8
0
 10
1.12109
 20
0.523275
 30
0.0
 40
0
 41
0
  0
VERTEX
  8
0
 10
1.12489
 20
0.522461
 30
0.0
 40
0
 41
0
  0
VERTEX
  8
0
 10
1.14084
 20
0.518175
 30
0.0
 40
0
 41
0
  0
VERTEX
  8
0
 10
1.15913
 20
0.511882
 30
0.0
 40
0
 41
0
  0
VERTEX
  8
0
 10
1.16412
 20
0.510037
 30
0.0
 40
0
 41
0
  0
VERTEX
  8
0
 10
1.16243
 20
0.507053
 30
0.0
 40
0
 41
0
  0
VERTEX
  8
0
 10
1.15712
 20
0.496582
 30
0.0
 40
0
 41
0
  0
VERTEX
  8
0
 10
1.15321
 20
0.486382
 30
0.0
 40
0
 41
0
  0
VERTEX
  8
0
 10
1.15223
 20
0.483561
 30
0.0
 40
0
 41
0
  0
VERTEX
  8
0
 10
1.15104
 20
0.480089
 30
0.0
 40
0
 41
0
  0
VERTEX
  8
0
 10
1.14708
 20
0.467231
 30
0.0
 40
0
 41
0
  0
VERTEX
  8
0
 10
1.14372
 20
0.454101
 30
0.0
 40
0
 41
0
  0
VERTEX
  8
0
 10
1.1429
 20
0.450412
 30
0.0
 40
0
 41
0
  0
VERTEX
  8
0
 10
1.13661
 20
0.454753
 30
0.0
 40
0
 41
0
  0
VERTEX
  8
0
 10
1.11252
 20
0.469075
 30
0.0
 40
0
 41
0
  0
VERTEX
  8
0
 10
1.09012
 20
0.478461
 30
0.0
 40
0
 41
0
  0
VERTEX
  8
0
 10
1.08469
 20
0.480251
 30
0.0
 40
0
 41
0
  0
SEQEND
 8
0
  0
POLYLINE
  8
0
 62
     7
 66
     1
 10
0
 20
0
 30
0.0
 70
     1
 40
0
 41
0
  0
VERTEX
  8
0
 10
1.46804
 20
0.465657
 30
0.0
 40
0
 41
0
  0
VERTEX
  8
0
 10
1.46208
 20
0.466362
 30
0.0
 40
0
 41
0
  0
VERTEX
  8
0
 10
1.43067
 20
0.468642
 30
0.0
 40
0
 41
0
  0
VERTEX
  8
0
 10
1.40603
 20
0.469618
 30
0.0
 40
0
 41
0
  0
VERTEX
  8
0
 10
1.39785
 20
0.469618
 30
0.0
 40
0
 41
0
  0
VERTEX
  8
0
 10
1.32699
 20
0.469618
 30
0.0
 40
0
 41
0
  0
VERTEX
  8
0
 10
1.32633
 20
0.443143
 30
0.0
 40
0
 41
0
  0
VERTEX
  8
0
 10
1.32633
 20
0.33789
 30
0.0
 40
0
 41
0
  0
VERTEX
  8
0
 10
1.40446
 20
0.33789
 30
0.0
 40
0
 41
0
  0
VERTEX
  8
0
 10
1.41379
 20
0.33789
 30
0.0
 40
0
 41
0
  0
VERTEX
  8
0
 10
1.44189
 20
0.338921
 30
0.0
 40
0
 41
0
  0
VERTEX
  8
0
 10
1.47433
 20
0.342503
 30
0.0
 40
0
 41
0
  0
VERTEX
  8
0
 10
1.48329
 20
0.343804
 30
0.0
 40
0
 41
0
  0
VERTEX
  8
0
 10
1.48258
 20
0.339518
 30
0.0
 40
0
 41
0
  0
VERTEX
  8
0
 10
1.48058
 20
0.323731
 30
0.0
 40
0
 41
0
  0
VERTEX
  8
0
 10
1.47993
 20
0.313476
 30
0.0
 40
0
 41
0
  0
VERTEX
  8
0
 10
1.47993
 20
0.310058
 30
0.0
 40
0
 41
0
  0
VERTEX
  8
0
 10
1.47993
 20
0.302138
 30
0.0
 40
0
 41
0
  0
VERTEX
  8
0
 10
1.48156
 20
0.281793
 30
0.0
 40
0
 41
0
  0
VERTEX
  8
0
 10
1.48188
 20
0.278267
 30
0.0
 40
0
 41
0
  0
VERTEX
  8
0
 10
1.47146
 20
0.279622
 30
0.0
 40
0
 41
0
  0
VERTEX
  8
0
 10
1.43332
 20
0.283637
 30
0.0
 40
0
 41
0
  0
VERTEX
  8
0
 10
1.40474
 20
0.284939
 30
0.0
 40
0
 41
0
  0
VERTEX
  8
0
 10
1.39524
 20
0.284939
 30
0.0
 40
0
 41
0
  0
VERTEX
  8
0
 10
1.32563
 20
0.284939
 30
0.0
 40
0
 41
0
  0
VERTEX
  8
0
 10
1.32563
 20
0.228624
 30
0.0
 40
0
 41
0
  0
VERTEX
  8
0
 10
1.32563
 20
0.216525
 30
0.0
 40
0
 41
0
  0
VERTEX
  8
0
 10
1.32568
 20
0.180231
 30
0.0
 40
0
 41
0
  0
VERTEX
  8
0
 10
1.32617
 20
0.146972
 30
0.0
 40
0
 41
0
  0
VERTEX
  8
0
 10
1.32758
 20
0.11773
 30
0.0
 40
0
 41
0
  0
VERTEX
  8
0
 10
1.32954
 20
0.0906575
 30
0.0
 40
0
 41
0
  0
VERTEX
  8
0
 10
1.3303
 20
0.0815972
 30
0.0
 40
0
 41
0
  0
VERTEX
  8
0
 10
1.32563
 20
0.0821397
 30
0.0
 40
0
 41
0
  0
VERTEX
  8
0
 10
1.2978
 20
0.0843099
 30
0.0
 40
0
 41
0
  0
VERTEX
  8
0
 10
1.28857
 20
0.0843099
 30
0.0
 40
0
 41
0
  0
VERTEX
  8
0
 10
1.27995
 20
0.0843099
 30
0.0
 40
0
 41
0
  0
VERTEX
  8
0
 10
1.25792
 20
0.0826824
 30
0.0
 40
0
 41
0
  0
VERTEX
  8
0
 10
1.25412
 20
0.0823568
 30
0.0
 40
0
 41
0
  0
VERTEX
  8
0
 10
1.25478
 20
0.0891385
 30
0.0
 40
0
 41
0
  0
VERTEX
  8
0
 10
1.25727
 20
0.118327
 30
0.0
 40
0
 41
0
  0
VERTEX
  8
0
 10
1.25906
 20
0.140625
 30
0.0
 40
0
 41
0
  0
VERTEX
  8
0
 10
1.25944
 20
0.143935
 30
0.0
 40
0
 41
0
  0
VERTEX
  8
0
 10
1.2596
 20
0.147732
 30
0.0
 40
0
 41
0
  0
VERTEX
  8
0
 10
1.26031
 20
0.178765
 30
0.0
 40
0
 41
0
  0
VERTEX
  8
0
 10
1.26074
 20
0.223144
 30
0.0
 40
0
 41
0
  0
VERTEX
  8
0
 10
1.26074
 20
0.237901
 30
0.0
 40
0
 41
0
  0
VERTEX
  8
0
 10
1.26074
 20
0.419325
 30
0.0
 40
0
 41
0
  0
VERTEX
  8
0
 10
1.26042
 20
0.427626
 30
0.0
 40
0
 41
0
  0
VERTEX
  8
0
 10
1.2589
 20
0.46544
 30
0.0
 40
0
 41
0
  0
VERTEX
  8
0
 10
1.25678
 20
0.512858
 30
0.0
 40
0
 41
0
  0
VERTEX
  8
0
 10
1.25613
 20
0.525933
 30
0.0
 40
0
 41
0
  0
VERTEX
  8
0
 10
1.30116
 20
0.524631
 30
0.0
 40
0
 41
0
  0
VERTEX
  8
0
 10
1.37929
 20
0.523926
 30
0.0
 40
0
 41
0
  0
VERTEX
  8
0
 10
1.44683
 20
0.523926
 30
0.0
 40
0
 41
0
  0
VERTEX
  8
0
 10
1.4521
 20
0.523926
 30
0.0
 40
0
 41
0
  0
VERTEX
  8
0
 10
1.46799
 20
0.52436
 30
0.0
 40
0
 41
0
  0
VERTEX
  8
0
 10
1.49067
 20
0.526421
 30
0.0
 40
0
 41
0
  0
VERTEX
  8
0
 10
1.49713
 20
0.527235
 30
0.0
 40
0
 41
0
  0
VERTEX
  8
0
 10
1.49642
 20
0.523113
 30
0.0
 40
0
 41
0
  0
VERTEX
  8
0
 10
1.49447
 20
0.507975
 30
0.0
 40
0
 41
0
  0
VERTEX
  8
0
 10
1.49387
 20
0.497612
 30
0.0
 40
0
 41
0
  0
VERTEX
  8
0
 10
1.49387
 20
0.49414
 30
0.0
 40
0
 41
0
  0
VERTEX
  8
0
 10
1.49387
 20
0.486219
 30
0.0
 40
0
 41
0
  0
VERTEX
  8
0
 10
1.49544
 20
0.465821
 30
0.0
 40
0
 41
0
  0
VERTEX
  8
0
 10
1.49582
 20
0.462349
 30
0.0
 40
0
 41
0
  0
VERTEX
  8
0
 10
1.49268
 20
0.46289
 30
0.0
 40
0
 41
0
  0
VERTEX
  8
0
 10
1.46951
 20
0.465494
 30
0.0
 40
0
 41
0
  0
VERTEX
  8
0
 10
1.46804
 20
0.465657
 30
0.0
 40
0
 41
0
  0
SEQEND
 8
0
  0
POLYLINE
  8
0
 62
     7
 66
     1
 10
0
 20
0
 30
0.0
 70
     1
 40
0
 41
0
  0
VERTEX
  8
0
 10
1.67063
 20
0.467665
 30
0.0
 40
0
 41
0
  0
VERTEX
  8
0
 10
1.67063
 20
0.459907
 30
0.0
 40
0
 41
0
  0
VERTEX
  8
0
 10
1.66997
 20
0.442437
 30
0.0
 40
0
 41
0
  0
VERTEX
  8
0
 10
1.66997
 20
0.436578
 30
0.0
 40
0
 41
0
  0
VERTEX
  8
0
 10
1.66982
 20
0.432454
 30
0.0
 40
0
 41
0
  0
VERTEX
  8
0
 10
1.66868
 20
0.408203
 30
0.0
 40
0
 41
0
  0
VERTEX
  8
0
 10
1.66868
 20
0.400119
 30
0.0
 40
0
 41
0
  0
VERTEX
  8
0
 10
1.66868
 20
0.265028
 30
0.0
 40
0
 41
0
  0
VERTEX
  8
0
 10
1.66872
 20
0.254719
 30
0.0
 40
0
 41
0
  0
VERTEX
  8
0
 10
1.66932
 20
0.223742
 30
0.0
 40
0
 41
0
  0
VERTEX
  8
0
 10
1.67122
 20
0.198406
 30
0.0
 40
0
 41
0
  0
VERTEX
  8
0
 10
1.6754
 20
0.182238
 30
0.0
 40
0
 41
0
  0
VERTEX
  8
0
 10
1.68099
 20
0.171713
 30
0.0
 40
0
 41
0
  0
VERTEX
  8
0
 10
1.68321
 20
0.168403
 30
0.0
 40
0
 41
0
  0
VERTEX
  8
0
 10
1.68647
 20
0.163574
 30
0.0
 40
0
 41
0
  0
VERTEX
  8
0
 10
1.70031
 20
0.151585
 30
0.0
 40
0
 41
0
  0
VERTEX
  8
0
 10
1.72537
 20
0.138346
 30
0.0
 40
0
 41
0
  0
VERTEX
  8
0
 10
1.75618
 20
0.129774
 30
0.0
 40
0
 41
0
  0
VERTEX
  8
0
 10
1.7819
 20
0.126682
 30
0.0
 40
0
 41
0
  0
VERTEX
  8
0
 10
1.79047
 20
0.126682
 30
0.0
 40
0
 41
0
  0
VERTEX
  8
0
 10
1.80143
 20
0.126682
 30
0.0
 40
0
 41
0
  0
VERTEX
  8
0
 10
1.83447
 20
0.131076
 30
0.0
 40
0
 41
0
  0
VERTEX
  8
0
 10
1.86496
 20
0.142415
 30
0.0
 40
0
 41
0
  0
VERTEX
  8
0
 10
1.87061
 20
0.145887
 30
0.0
 40
0
 41
0
  0
VERTEX
  8
0
 10
1.87358
 20
0.147732
 30
0.0
 40
0
 41
0
  0
VERTEX
  8
0
 10
1.89572
 20
0.166613
 30
0.0
 40
0
 41
0
  0
VERTEX
  8
0
 10
1.89708
 20
0.168403
 30
0.0
 40
0
 41
0
  0
VERTEX
  8
0
 10
1.89953
 20
0.172037
 30
0.0
 40
0
 41
0
  0
VERTEX
  8
0
 10
1.90539
 20
0.183919
 30
0.0
 40
0
 41
0
  0
VERTEX
  8
0
 10
1.91021
 20
0.20345
 30
0.0
 40
0
 41
0
  0
VERTEX
  8
0
 10
1.91243
 20
0.232747
 30
0.0
 40
0
 41
0
  0
VERTEX
  8
0
 10
1.91297
 20
0.266439
 30
0.0
 40
0
 41
0
  0
VERTEX
  8
0
 10
1.91297
 20
0.277669
 30
0.0
 40
0
 41
0
  0
VERTEX
  8
0
 10
1.91297
 20
0.380914
 30
0.0
 40
0
 41
0
  0
VERTEX
  8
0
 10
1.91297
 20
0.404243
 30
0.0
 40
0
 41
0
  0
VERTEX
  8
0
 10
1.91075
 20
0.467665
 30
0.0
 40
0
 41
0
  0
VERTEX
  8
0
 10
1.91026
 20
0.474229
 30
0.0
 40
0
 41
0
  0
VERTEX
  8
0
 10
1.9101
 20
0.479221
 30
0.0
 40
0
 41
0
  0
VERTEX
  8
0
 10
1.90869
 20
0.499186
 30
0.0
 40
0
 41
0
  0
VERTEX
  8
0
 10
1.90636
 20
0.520833
 30
0.0
 40
0
 41
0
  0
VERTEX
  8
0
 10
1.90571
 20
0.526585
 30
0.0
 40
0
 41
0
  0
VERTEX
  8
0
 10
1.90935
 20
0.526258
 30
0.0
 40
0
 41
0
  0
VERTEX
  8
0
 10
1.93143
 20
0.523926
 30
0.0
 40
0
 41
0
  0
VERTEX
  8
0
 10
1.93881
 20
0.523926
 30
0.0
 40
0
 41
0
  0
VERTEX
  8
0
 10
1.94721
 20
0.523926
 30
0.0
 40
0
 41
0
  0
VERTEX
  8
0
 10
1.96869
 20
0.526258
 30
0.0
 40
0
 41
0
  0
VERTEX
  8
0
 10
1.97254
 20
0.526585
 30
0.0
 40
0
 41
0
  0
VERTEX
  8
0
 10
1.97239
 20
0.524306
 30
0.0
 40
0
 41
0
  0
VERTEX
  8
0
 10
1.97076
 20
0.507269
 30
0.0
 40
0
 41
0
  0
VERTEX
  8
0
 10
1.9706
 20
0.506076
 30
0.0
 40
0
 41
0
  0
VERTEX
  8
0
 10
1.97038
 20
0.503418
 30
0.0
 40
0
 41
0
  0
VERTEX
  8
0
 10
1.96963
 20
0.483399
 30
0.0
 40
0
 41
0
  0
VERTEX
  8
0
 10
1.96924
 20
0.456706
 30
0.0
 40
0
 41
0
  0
VERTEX
  8
0
 10
1.96924
 20
0.447808
 30
0.0
 40
0
 41
0
  0
VERTEX
  8
0
 10
1.96907
 20
0.438693
 30
0.0
 40
0
 41
0
  0
VERTEX
  8
0
 10
1.96832
 20
0.403646
 30
0.0
 40
0
 41
0
  0
VERTEX
  8
0
 10
1.96793
 20
0.386122
 30
0.0
 40
0
 41
0
  0
VERTEX
  8
0
 10
1.96793
 20
0.380263
 30
0.0
 40
0
 41
0
  0
VERTEX
  8
0
 10
1.96858
 20
0.276313
 30
0.0
 40
0
 41
0
  0
VERTEX
  8
0
 10
1.96858
 20
0.259549
 30
0.0
 40
0
 41
0
  0
VERTEX
  8
0
 10
1.96625
 20
0.209256
 30
0.0
 40
0
 41
0
  0
VERTEX
  8
0
 10
1.95779
 20
0.163846
 30
0.0
 40
0
 41
0
  0
VERTEX
  8
0
 10
1.9406
 20
0.132487
 30
0.0
 40
0
 41
0
  0
VERTEX
  8
0
 10
1.91992
 20
0.112847
 30
0.0
 40
0
 41
0
  0
VERTEX
  8
0
 10
1.91228
 20
0.107476
 30
0.0
 40
0
 41
0
  0
VERTEX
  8
0
 10
1.90429
 20
0.101888
 30
0.0
 40
0
 41
0
  0
VERTEX
  8
0
 10
1.85938
 20
0.0834961
 30
0.0
 40
0
 41
0
  0
VERTEX
  8
0
 10
1.80518
 20
0.0763889
 30
0.0
 40
0
 41
0
  0
VERTEX
  8
0
 10
1.78717
 20
0.0763889
 30
0.0
 40
0
 41
0
  0
VERTEX
  8
0
 10
1.77681
 20
0.0763889
 30
0.0
 40
0
 41
0
  0
VERTEX
  8
0
 10
1.74576
 20
0.0780165
 30
0.0
 40
0
 41
0
  0
VERTEX
  8
0
 10
1.71251
 20
0.0831164
 30
0.0
 40
0
 41
0
  0
VERTEX
  8
0
 10
1.6849
 20
0.0923394
 30
0.0
 40
0
 41
0
  0
VERTEX
  8
0
 10
1.66635
 20
0.102214
 30
0.0
 40
0
 41
0
  0
VERTEX
  8
0
 10
1.66069
 20
0.106174
 30
0.0
 40
0
 41
0
  0
VERTEX
  8
0
 10
1.65653
 20
0.108995
 30
0.0
 40
0
 41
0
  0
VERTEX
  8
0
 10
1.62392
 20
0.14274
 30
0.0
 40
0
 41
0
  0
VERTEX
  8
0
 10
1.62164
 20
0.146539
 30
0.0
 40
0
 41
0
  0
VERTEX
  8
0
 10
1.61903
 20
0.150771
 30
0.0
 40
0
 41
0
  0
VERTEX
  8
0
 10
1.61247
 20
0.164171
 30
0.0
 40
0
 41
0
  0
VERTEX
  8
0
 10
1.60726
 20
0.183051
 30
0.0
 40
0
 41
0
  0
VERTEX
  8
0
 10
1.60493
 20
0.209039
 30
0.0
 40
0
 41
0
  0
VERTEX
  8
0
 10
1.60439
 20
0.238172
 30
0.0
 40
0
 41
0
  0
VERTEX
  8
0
 10
1.60439
 20
0.247831
 30
0.0
 40
0
 41
0
  0
VERTEX
  8
0
 10
1.60379
 20
0.405436
 30
0.0
 40
0
 41
0
  0
VERTEX
  8
0
 10
1.60379
 20
0.472276
 30
0.0
 40
0
 41
0
  0
VERTEX
  8
0
 10
1.60357
 20
0.477431
 30
0.0
 40
0
 41
0
  0
VERTEX
  8
0
 10
1.60249
 20
0.498047
 30
0.0
 40
0
 41
0
  0
VERTEX
  8
0
 10
1.60047
 20
0.520942
 30
0.0
 40
0
 41
0
  0
VERTEX
  8
0
 10
1.59983
 20
0.527235
 30
0.0
 40
0
 41
0
  0
VERTEX
  8
0
 10
1.60411
 20
0.526747
 30
0.0
 40
0
 41
0
  0
VERTEX
  8
0
 10
1.62961
 20
0.523926
 30
0.0
 40
0
 41
0
  0
VERTEX
  8
0
 10
1.63813
 20
0.523926
 30
0.0
 40
0
 41
0
  0
VERTEX
  8
0
 10
1.64757
 20
0.523926
 30
0.0
 40
0
 41
0
  0
VERTEX
  8
0
 10
1.67171
 20
0.526096
 30
0.0
 40
0
 41
0
  0
VERTEX
  8
0
 10
1.67589
 20
0.526585
 30
0.0
 40
0
 41
0
  0
VERTEX
  8
0
 10
1.67507
 20
0.520182
 30
0.0
 40
0
 41
0
  0
VERTEX
  8
0
 10
1.67253
 20
0.496149
 30
0.0
 40
0
 41
0
  0
VERTEX
  8
0
 10
1.67096
 20
0.473469
 30
0.0
 40
0
 41
0
  0
VERTEX
  8
0
 10
1.67063
 20
0.467665
 30
0.0
 40
0
 41
0
  0
SEQEND
 8
0
  0
ENDSEC
  0
EOF
